<svg class="main-svg" xmlns="http://www.w3.org/2000/svg" xmlns:xlink="http://www.w3.org/1999/xlink" width="2200" height="1000" style="" viewBox="0 0 1100 500"><rect x="0" y="0" width="1100" height="500" style="fill: rgb(255, 255, 255); fill-opacity: 1;"/><defs id="defs-abc607"><g class="clips"><clipPath id="clipabc607xyplot" class="plotclip"><rect width="1023" height="385"/></clipPath><clipPath class="axesclip" id="clipabc607x"><rect x="62" y="0" width="1023" height="500"/></clipPath><clipPath class="axesclip" id="clipabc607y"><rect x="0" y="50" width="1100" height="385"/></clipPath><clipPath class="axesclip" id="clipabc607xy"><rect x="62" y="50" width="1023" height="385"/></clipPath></g><g class="gradients"/><g class="patterns"/></defs><g class="bglayer"/><g class="layer-below"><g class="imagelayer"/><g class="shapelayer"/></g><g class="cartesianlayer"><g class="subplot xy"><g class="layer-subplot"><g class="shapelayer"/><g class="imagelayer"/></g><g class="minor-gridlayer"><g class="x"/><g class="y"/></g><g class="gridlayer"><g class="x"><path class="xgrid crisp" transform="translate(173.85,0)" d="M0,50v385" style="stroke: rgb(0, 0, 0); stroke-opacity: 0.05; stroke-width: 1px;"/><path class="xgrid crisp" transform="translate(286.39,0)" d="M0,50v385" style="stroke: rgb(0, 0, 0); stroke-opacity: 0.05; stroke-width: 1px;"/><path class="xgrid crisp" transform="translate(398.92,0)" d="M0,50v385" style="stroke: rgb(0, 0, 0); stroke-opacity: 0.05; stroke-width: 1px;"/><path class="xgrid crisp" transform="translate(511.46,0)" d="M0,50v385" style="stroke: rgb(0, 0, 0); stroke-opacity: 0.05; stroke-width: 1px;"/><path class="xgrid crisp" transform="translate(623.99,0)" d="M0,50v385" style="stroke: rgb(0, 0, 0); stroke-opacity: 0.05; stroke-width: 1px;"/><path class="xgrid crisp" transform="translate(736.53,0)" d="M0,50v385" style="stroke: rgb(0, 0, 0); stroke-opacity: 0.05; stroke-width: 1px;"/><path class="xgrid crisp" transform="translate(849.06,0)" d="M0,50v385" style="stroke: rgb(0, 0, 0); stroke-opacity: 0.05; stroke-width: 1px;"/><path class="xgrid crisp" transform="translate(961.6,0)" d="M0,50v385" style="stroke: rgb(0, 0, 0); stroke-opacity: 0.05; stroke-width: 1px;"/><path class="xgrid crisp" transform="translate(1074.13,0)" d="M0,50v385" style="stroke: rgb(0, 0, 0); stroke-opacity: 0.05; stroke-width: 1px;"/></g><g class="y"><path class="ygrid crisp" transform="translate(0,389.22)" d="M62,0h1023" style="stroke: rgb(0, 0, 0); stroke-opacity: 0.05; stroke-width: 1px;"/><path class="ygrid crisp" transform="translate(0,343.45)" d="M62,0h1023" style="stroke: rgb(0, 0, 0); stroke-opacity: 0.05; stroke-width: 1px;"/><path class="ygrid crisp" transform="translate(0,297.66999999999996)" d="M62,0h1023" style="stroke: rgb(0, 0, 0); stroke-opacity: 0.05; stroke-width: 1px;"/><path class="ygrid crisp" transform="translate(0,251.9)" d="M62,0h1023" style="stroke: rgb(0, 0, 0); stroke-opacity: 0.05; stroke-width: 1px;"/><path class="ygrid crisp" transform="translate(0,206.12)" d="M62,0h1023" style="stroke: rgb(0, 0, 0); stroke-opacity: 0.05; stroke-width: 1px;"/><path class="ygrid crisp" transform="translate(0,160.34)" d="M62,0h1023" style="stroke: rgb(0, 0, 0); stroke-opacity: 0.05; stroke-width: 1px;"/><path class="ygrid crisp" transform="translate(0,114.57)" d="M62,0h1023" style="stroke: rgb(0, 0, 0); stroke-opacity: 0.05; stroke-width: 1px;"/><path class="ygrid crisp" transform="translate(0,68.78999999999999)" d="M62,0h1023" style="stroke: rgb(0, 0, 0); stroke-opacity: 0.05; stroke-width: 1px;"/></g></g><g class="zerolinelayer"><path class="yzl zl crisp" transform="translate(0,435)" d="M62,0h1023" style="stroke: rgb(0, 0, 0); stroke-opacity: 0.05; stroke-width: 2px;"/></g><g class="layer-between"><g class="shapelayer"/><g class="imagelayer"/></g><path class="xlines-below"/><path class="ylines-below"/><g class="overlines-below"/><g class="xaxislayer-below"/><g class="yaxislayer-below"/><g class="overaxes-below"/><g class="overplot"><g class="xy" transform="translate(62,50)" clip-path="url(#clipabc607xyplot)"><g class="scatterlayer mlayer"><g class="trace scatter trace2d848d" style="stroke-miterlimit: 2; opacity: 1;"><g class="fills"/><g class="errorbars"/><g class="lines"><path class="js-line" d="M0,385L0.11,337.85L0.55,384.08L0.56,385L1.08,325.49L1.31,384.54L1.32,384.08L1.6,385L1.75,383.17L2.03,383.63L2.04,385L2.06,360.28L2.78,384.54L2.8,382.71L3.06,374.01L3.52,385L3.56,384.54L3.59,384.08L3.72,385L4.06,374.93L4.34,384.54L4.4,384.54L4.63,384.08L5.07,385L5.09,384.54L5.1,384.08L5.7,385L5.76,383.63L5.86,384.54L5.91,384.54L6.07,383.63L6.09,385L6.09,379.51L6.78,385L6.87,384.54L6.88,385L7.11,380.88L7.59,385L7.64,385L8.12,382.71L8.14,384.54L8.19,385L9,384.54L9.02,385L9.13,383.63L9.74,385L9.82,385L10.73,384.08L10.82,384.08L11.16,383.17L11.57,385L11.99,385L12.82,384.08L12.93,385L13.18,384.08L13.79,384.54L13.84,384.54L14.17,385L14.2,383.63L14.71,385L14.98,384.08L15.3,385L15.79,384.54L16,383.63L16.38,385L16.56,384.54L16.9,384.54L17.38,385L17.62,384.54L17.77,384.54L18.4,385L18.43,384.54L18.81,384.54L18.88,385L19.89,385L20.27,384.08L20.62,384.54L21.15,385L21.85,384.54L21.87,385L21.94,385L27.45,384.54L28.37,384.08L28.58,385L29.39,384.54L30.31,385L30.4,384.54L32.07,384.54L33.57,385L33.66,384.54L33.75,385L36.48,385L108.23,385" style="vector-effect: none; fill: none; stroke: rgb(124, 181, 236); stroke-opacity: 1; stroke-width: 2px; opacity: 1;"/></g><g class="points"/><g class="text"/></g><g class="trace scatter trace0ee0d6" style="stroke-miterlimit: 2; opacity: 1;"><g class="fills"/><g class="errorbars"/><g class="lines"><path class="js-line" d="M0.01,382.25L0.05,323.66L0.09,385L0.14,384.54L0.16,26.57L0.2,385L0.91,377.22L0.93,385L1.08,311.76L1.68,384.54L1.69,384.54L1.8,385L2.06,371.27L2.23,384.54L2.26,384.08L2.33,383.63L3.04,385L3.04,384.54L3.05,383.17L3.06,370.81L3.14,385L3.79,385L3.81,385L4.06,376.76L4.55,384.54L4.58,384.54L4.71,384.08L5.06,385L5.08,382.25L5.82,385L5.84,384.54L5.93,384.54L6.05,385L6.09,372.18L6.81,385L6.86,384.08L7.11,378.59L7.65,385L7.67,384.54L8.12,377.68L8.42,385L8.45,385L9.06,384.54L9.13,380.42L9.48,385L9.81,384.08L9.93,385L10.14,380.88L10.65,385L10.95,384.08L11.2,385L11.65,384.54L11.81,385L12.17,383.17L12.44,385L12.84,385L13.59,384.54L13.81,385L14.05,384.54L14.08,384.08L14.92,385L15.04,385L19.1,385L19.26,382.25L19.48,385L20.02,384.54L20.27,383.17L21.08,385L21.28,385L22.5,385L22.86,383.63L23.55,385L24.21,385L24.77,384.54L26.15,384.54L26.3,385L26.53,384.54L27.72,384.54L32.1,384.54L32.4,384.08L33.6,385L34.41,384.54L34.45,384.08L35.76,385L35.94,384.54L36.48,385L38.88,385L40.57,384.08L41.77,385L101.99,385" style="vector-effect: none; fill: none; stroke: rgb(67, 67, 72); stroke-opacity: 1; stroke-width: 2px; opacity: 1;"/></g><g class="points"/><g class="text"/></g><g class="trace scatter trace3eb39b" style="stroke-miterlimit: 2; opacity: 1;"><g class="fills"/><g class="errorbars"/><g class="lines"><path class="js-line" d="M0,385L0.11,321.83L0.14,384.08L0.16,83.34L0.18,385L0.91,376.76L0.93,383.17L1.01,385L1.08,297.11L1.67,383.63L1.69,384.54L1.79,385L2.06,370.81L2.44,384.08L2.47,384.08L2.55,383.17L3.04,385L3.05,384.54L3.06,366.69L3.81,385L3.86,384.54L3.86,385L4.06,378.13L4.6,384.54L4.61,384.54L4.99,384.08L5.03,385L5.08,374.93L5.7,385L5.82,384.08L5.87,384.54L6.55,385L6.6,384.54L6.61,384.08L7.11,380.88L7.35,385L7.38,384.54L7.42,385L7.87,384.08L8.1,385L8.12,374.93L8.91,385L8.92,384.54L9.49,384.08L9.67,385L9.72,384.54L10.14,383.63L10.47,385L10.64,384.54L10.77,384.08L10.86,385L11.29,384.54L11.31,385L11.99,384.54L12.12,385L12.78,384.54L13.05,385L13.52,384.08L13.84,384.54L13.87,384.54L14.02,384.08L14.15,385L14.38,384.54L14.66,384.54L15.39,385L15.66,385L16.31,384.08L16.87,385L17.55,384.54L17.84,384.08L18.36,385L18.56,384.54L19.14,385L19.26,383.63L19.91,384.54L20.29,385L20.83,384.08L21.26,385L22.42,384.54L22.48,385L23.13,385L23.33,385L24.35,384.08L25.94,385L26.01,384.54L27.26,385L27.74,384.08L28.58,385L29.95,384.54L31.37,385L31.59,385L33.62,384.54L35.46,384.08L35.76,385L37.17,385L39.79,385L40.53,384.08L40.73,385L44.13,384.54L54.57,384.54L56.51,384.54L58.08,385L70.28,385L113.38,385" style="vector-effect: none; fill: none; stroke: rgb(144, 237, 125); stroke-opacity: 1; stroke-width: 2px; opacity: 1;"/></g><g class="points"/><g class="text"/></g><g class="trace scatter trace89c35f" style="stroke-miterlimit: 2; opacity: 1;"><g class="fills"/><g class="errorbars"/><g class="lines"><path class="js-line" d="M0,384.54L0.11,334.65L0.15,385L0.16,121.33L0.2,385L0.91,371.72L0.93,379.51L1.08,329.61L1.64,385L1.71,384.54L1.73,383.63L1.92,383.17L2.44,385L2.46,383.17L3.2,385L3.23,384.54L3.27,384.08L3.68,383.63L3.77,385L4.04,384.54L4.07,384.54L4.24,384.08L4.69,385L4.72,383.17L4.94,385L5.08,375.39L5.48,384.54L5.51,385L6.18,383.63L6.23,384.54L6.31,385L6.53,384.08L6.98,384.54L7.08,385L7.25,383.63L7.83,384.54L7.91,385L8.12,382.25L8.61,384.54L8.7,384.54L9.13,384.08L9.48,385L9.56,384.54L10.43,385L10.46,384.54L14.61,385L14.76,383.63L15.3,385L15.47,384.54L15.81,385L16.4,384.54L16.62,385L16.71,385L17.3,384.54L17.62,384.54L18.16,385L18.25,384.08L18.98,385L19.26,384.54L20.36,385L20.49,384.08L21.17,385L21.28,383.17L21.84,385L21.85,384.54L22.3,383.63L22.46,385L22.99,384.54L23.53,385L23.87,384.54L24.45,385L24.55,385L31.28,384.54L31.41,382.71L32,385L32.7,384.54L34.45,384.54L34.79,383.63L35.71,385L36.05,384.54L37.02,385L37.33,385L46.81,384.54L47.62,383.63L48.63,384.54L48.86,384.54L55.5,385L55.95,384.08L56.15,384.54L58.65,384.08L60.83,384.54L62.04,385L81.85,384.54L83.79,384.08L87.68,385L90,384.54L119.62,384.08L120.11,385L1023,385" style="vector-effect: none; fill: none; stroke: rgb(247, 163, 92); stroke-opacity: 1; stroke-width: 2px; opacity: 1;"/></g><g class="points"/><g class="text"/></g><g class="trace scatter trace25cfc3" style="stroke-miterlimit: 2; opacity: 1;"><g class="fills"/><g class="errorbars"/><g class="lines"><path class="js-line" d="M0,385L0.11,335.1L0.14,383.63L0.16,19.25L0.2,385L0.91,380.42L0.93,384.54L0.93,371.72L0.94,385L1.68,384.54L1.69,384.54L1.8,385L1.92,382.25L2.05,385L2.06,364.86L2.12,385L2.8,384.54L2.83,385L3.02,384.54L3.04,385L3.06,372.18L3.79,385L3.86,384.54L3.88,384.54L3.98,384.08L4.02,385L4.04,384.54L4.06,379.96L4.81,385L4.82,384.08L4.85,384.08L5.57,385L5.62,384.54L5.64,384.08L6.09,379.96L6.33,385L6.39,384.54L6.42,384.54L6.66,384.08L7.06,385L7.08,384.08L7.11,383.63L7.94,385L8.03,384.54L8.12,380.42L8.79,385L8.84,385L9.02,384.54L9.11,385L9.13,381.8L9.55,385L9.9,384.54L10.1,385L10.91,384.08L11.04,384.54L11.13,385L11.16,378.59L11.58,385L11.9,384.54L12.15,385L12.17,383.63L12.68,385L12.93,384.54L13.18,383.63L13.36,385L13.56,384.54L13.75,384.54L14.29,385L14.84,384.54L15.73,385L15.93,384.54L16.35,385L16.83,385L17.55,384.54L17.64,384.54L19.19,385L19.26,384.08L19.91,385L19.98,384.54L20.11,384.08L20.18,385L20.27,383.63L20.88,384.54L21.28,385L32.42,385L32.97,383.63L33.1,384.54L34.15,384.54L36.3,384.08L37.49,385L39.09,384.54L39.54,385L42.78,384.54L43.3,384.54L47.53,384.54L48.41,384.08L48.7,384.54L50.09,385L51.24,384.54L53.38,384.54L60.69,384.54L60.94,385L61.05,384.54L62.02,384.08L68.98,384.54L77.89,384.54L81.2,385L91.06,384.54L694.71,385" style="vector-effect: none; fill: none; stroke: rgb(128, 133, 233); stroke-opacity: 1; stroke-width: 2px; opacity: 1;"/></g><g class="points"/><g class="text"/></g><g class="trace scatter tracee6ea3c" style="stroke-miterlimit: 2; opacity: 1;"><g class="fills"/><g class="errorbars"/><g class="lines"><path class="js-line" d="M0.01,381.34L0.05,328.7L0.06,385L0.68,383.17L0.7,385L1.23,376.3L1.45,384.08L1.46,384.08L1.71,382.25L2.06,385L2.06,362.57L2.81,385L2.83,383.63L3.06,373.1L3.59,385L3.61,384.54L3.79,385L3.95,383.63L4.04,384.08L4.06,373.1L4.71,385L4.83,384.54L4.88,385L5.18,384.08L5.63,385L5.66,384.54L5.93,385L6.09,381.34L6.18,384.54L6.23,385L6.86,383.63L6.96,384.54L7.01,385L7.11,379.51L7.71,384.54L7.8,384.54L7.87,384.08L8.07,385L8.36,385L8.54,385L9.11,384.08L9.36,384.54L9.51,384.54L10.14,382.25L10.26,385L10.32,385L10.39,384.08L11.07,384.54L11.09,385L11.16,383.63L11.85,384.54L11.94,385L12.44,384.54L12.68,385L12.84,384.54L12.98,385L13.18,383.63L13.34,385L13.75,384.54L13.81,384.08L14.07,385L14.33,385L14.65,384.54L15.02,385L15.12,384.54L15.21,383.17L15.79,385L15.95,384.54L16.09,385L16.67,384.54L16.91,385L22.16,384.54L22.3,383.17L22.39,385L22.73,384.54L23.29,385L23.49,384.54L24.23,385L25.3,385L25.88,384.08L26.48,385L27,384.54L27.5,384.54L28.89,384.54L29.14,384.54L30.22,384.54L30.74,384.08L31.16,385L31.74,385L32.81,384.54L33.03,384.54L33.44,384.08L34.16,384.54L35.46,385L35.6,384.54L39.99,384.54L40.15,383.63L41.07,385L41.41,384.54L42.4,384.54L42.42,385L42.89,384.54L43.5,384.54L43.79,385L45.55,384.08L46.25,384.54L46.85,384.54L76.07,384.54L77.39,384.08L84.78,385L95.33,385L96.23,384.54L111.97,384.54L127.07,385L142.35,384.54L732.41,385" style="vector-effect: none; fill: none; stroke: rgb(241, 92, 128); stroke-opacity: 1; stroke-width: 2px; opacity: 1;"/></g><g class="points"/><g class="text"/></g></g></g></g><path class="xlines-above crisp" d="M0,0" style="fill: none;"/><path class="ylines-above crisp" d="M0,0" style="fill: none;"/><g class="overlines-above"/><g class="xaxislayer-above"><g class="xtick"><text text-anchor="middle" x="0" y="451" transform="translate(173.85,0)" style="font-family: 'Lucida Grande', 'Open Sans', verdana, arial, sans-serif; font-size: 10px; fill: rgb(0, 0, 0); fill-opacity: 1; white-space: pre; opacity: 1;">5k</text></g><g class="xtick"><text text-anchor="middle" x="0" y="451" style="font-family: 'Lucida Grande', 'Open Sans', verdana, arial, sans-serif; font-size: 10px; fill: rgb(0, 0, 0); fill-opacity: 1; white-space: pre; opacity: 1;" transform="translate(286.39,0)">10k</text></g><g class="xtick"><text text-anchor="middle" x="0" y="451" style="font-family: 'Lucida Grande', 'Open Sans', verdana, arial, sans-serif; font-size: 10px; fill: rgb(0, 0, 0); fill-opacity: 1; white-space: pre; opacity: 1;" transform="translate(398.92,0)">15k</text></g><g class="xtick"><text text-anchor="middle" x="0" y="451" style="font-family: 'Lucida Grande', 'Open Sans', verdana, arial, sans-serif; font-size: 10px; fill: rgb(0, 0, 0); fill-opacity: 1; white-space: pre; opacity: 1;" transform="translate(511.46,0)">20k</text></g><g class="xtick"><text text-anchor="middle" x="0" y="451" style="font-family: 'Lucida Grande', 'Open Sans', verdana, arial, sans-serif; font-size: 10px; fill: rgb(0, 0, 0); fill-opacity: 1; white-space: pre; opacity: 1;" transform="translate(623.99,0)">25k</text></g><g class="xtick"><text text-anchor="middle" x="0" y="451" style="font-family: 'Lucida Grande', 'Open Sans', verdana, arial, sans-serif; font-size: 10px; fill: rgb(0, 0, 0); fill-opacity: 1; white-space: pre; opacity: 1;" transform="translate(736.53,0)">30k</text></g><g class="xtick"><text text-anchor="middle" x="0" y="451" style="font-family: 'Lucida Grande', 'Open Sans', verdana, arial, sans-serif; font-size: 10px; fill: rgb(0, 0, 0); fill-opacity: 1; white-space: pre; opacity: 1;" transform="translate(849.06,0)">35k</text></g><g class="xtick"><text text-anchor="middle" x="0" y="451" style="font-family: 'Lucida Grande', 'Open Sans', verdana, arial, sans-serif; font-size: 10px; fill: rgb(0, 0, 0); fill-opacity: 1; white-space: pre; opacity: 1;" transform="translate(961.6,0)">40k</text></g><g class="xtick"><text text-anchor="middle" x="0" y="451" style="font-family: 'Lucida Grande', 'Open Sans', verdana, arial, sans-serif; font-size: 10px; fill: rgb(0, 0, 0); fill-opacity: 1; white-space: pre; opacity: 1;" transform="translate(1074.13,0)">45k</text></g></g><g class="yaxislayer-above"><g class="ytick"><text text-anchor="end" x="56" y="3.5" transform="translate(0,435)" style="font-family: 'Lucida Grande', 'Open Sans', verdana, arial, sans-serif; font-size: 10px; fill: rgb(0, 0, 0); fill-opacity: 1; white-space: pre; opacity: 1;">0</text></g><g class="ytick"><text text-anchor="end" x="56" y="3.5" style="font-family: 'Lucida Grande', 'Open Sans', verdana, arial, sans-serif; font-size: 10px; fill: rgb(0, 0, 0); fill-opacity: 1; white-space: pre; opacity: 1;" transform="translate(0,389.22)">100</text></g><g class="ytick"><text text-anchor="end" x="56" y="3.5" style="font-family: 'Lucida Grande', 'Open Sans', verdana, arial, sans-serif; font-size: 10px; fill: rgb(0, 0, 0); fill-opacity: 1; white-space: pre; opacity: 1;" transform="translate(0,343.45)">200</text></g><g class="ytick"><text text-anchor="end" x="56" y="3.5" style="font-family: 'Lucida Grande', 'Open Sans', verdana, arial, sans-serif; font-size: 10px; fill: rgb(0, 0, 0); fill-opacity: 1; white-space: pre; opacity: 1;" transform="translate(0,297.66999999999996)">300</text></g><g class="ytick"><text text-anchor="end" x="56" y="3.5" style="font-family: 'Lucida Grande', 'Open Sans', verdana, arial, sans-serif; font-size: 10px; fill: rgb(0, 0, 0); fill-opacity: 1; white-space: pre; opacity: 1;" transform="translate(0,251.9)">400</text></g><g class="ytick"><text text-anchor="end" x="56" y="3.5" style="font-family: 'Lucida Grande', 'Open Sans', verdana, arial, sans-serif; font-size: 10px; fill: rgb(0, 0, 0); fill-opacity: 1; white-space: pre; opacity: 1;" transform="translate(0,206.12)">500</text></g><g class="ytick"><text text-anchor="end" x="56" y="3.5" style="font-family: 'Lucida Grande', 'Open Sans', verdana, arial, sans-serif; font-size: 10px; fill: rgb(0, 0, 0); fill-opacity: 1; white-space: pre; opacity: 1;" transform="translate(0,160.34)">600</text></g><g class="ytick"><text text-anchor="end" x="56" y="3.5" style="font-family: 'Lucida Grande', 'Open Sans', verdana, arial, sans-serif; font-size: 10px; fill: rgb(0, 0, 0); fill-opacity: 1; white-space: pre; opacity: 1;" transform="translate(0,114.57)">700</text></g><g class="ytick"><text text-anchor="end" x="56" y="3.5" style="font-family: 'Lucida Grande', 'Open Sans', verdana, arial, sans-serif; font-size: 10px; fill: rgb(0, 0, 0); fill-opacity: 1; white-space: pre; opacity: 1;" transform="translate(0,68.78999999999999)">800</text></g></g><g class="overaxes-above"/></g></g><g class="polarlayer"/><g class="smithlayer"/><g class="ternarylayer"/><g class="geolayer"/><g class="funnelarealayer"/><g class="pielayer"/><g class="iciclelayer"/><g class="treemaplayer"/><g class="sunburstlayer"/><g class="glimages"/><defs id="topdefs-abc607"><g class="clips"/></defs><g class="layer-above"><g class="imagelayer"/><g class="shapelayer"/></g><g class="infolayer"><g class="g-gtitle"><text class="gtitle" x="550" y="25" text-anchor="middle" dy="0em" style="opacity: 1; font-family: 'Lucida Grande', 'Open Sans', verdana, arial, sans-serif; font-size: 20px; fill: rgb(42, 63, 95); fill-opacity: 1; white-space: pre;"><tspan class="line" dy="0em" x="550" y="25">Bcftools Stats: Variant Quality Count</tspan><tspan class="line" dy="1.3em" x="550" y="25">​<tspan style="font-size:70%" dy="-0.6em">Count SNP, 6 samples</tspan><tspan dy="0.42em">​</tspan></tspan></text></g><g class="g-xtitle"><text class="xtitle" x="573.5" y="472.3" text-anchor="middle" style="opacity: 0.3; font-family: 'Lucida Grande', 'Open Sans', verdana, arial, sans-serif; font-size: 14px; fill: rgb(0, 0, 0); fill-opacity: 1; white-space: pre;">Quality</text></g><g class="g-ytitle"><text class="ytitle" transform="rotate(-90,22.50625,242.5)" x="22.50625" y="242.5" text-anchor="middle" style="opacity: 0.3; font-family: 'Lucida Grande', 'Open Sans', verdana, arial, sans-serif; font-size: 14px; fill: rgb(0, 0, 0); fill-opacity: 1; white-space: pre;">Count</text></g></g></svg>