<svg class="main-svg" xmlns="http://www.w3.org/2000/svg" xmlns:xlink="http://www.w3.org/1999/xlink" width="2200" height="1000" style="" viewBox="0 0 1100 500"><rect x="0" y="0" width="1100" height="500" style="fill: rgb(255, 255, 255); fill-opacity: 1;"/><defs id="defs-f484db"><g class="clips"><clipPath id="clipf484dbxyplot" class="plotclip"><rect width="1023" height="385"/></clipPath><clipPath class="axesclip" id="clipf484dbx"><rect x="62" y="0" width="1023" height="500"/></clipPath><clipPath class="axesclip" id="clipf484dby"><rect x="0" y="50" width="1100" height="385"/></clipPath><clipPath class="axesclip" id="clipf484dbxy"><rect x="62" y="50" width="1023" height="385"/></clipPath></g><g class="gradients"/><g class="patterns"/></defs><g class="bglayer"/><g class="layer-below"><g class="imagelayer"/><g class="shapelayer"/></g><g class="cartesianlayer"><g class="subplot xy"><g class="layer-subplot"><g class="shapelayer"/><g class="imagelayer"/></g><g class="minor-gridlayer"><g class="x"/><g class="y"/></g><g class="gridlayer"><g class="x"><path class="xgrid crisp" transform="translate(173.85,0)" d="M0,50v385" style="stroke: rgb(0, 0, 0); stroke-opacity: 0.05; stroke-width: 1px;"/><path class="xgrid crisp" transform="translate(286.39,0)" d="M0,50v385" style="stroke: rgb(0, 0, 0); stroke-opacity: 0.05; stroke-width: 1px;"/><path class="xgrid crisp" transform="translate(398.92,0)" d="M0,50v385" style="stroke: rgb(0, 0, 0); stroke-opacity: 0.05; stroke-width: 1px;"/><path class="xgrid crisp" transform="translate(511.46,0)" d="M0,50v385" style="stroke: rgb(0, 0, 0); stroke-opacity: 0.05; stroke-width: 1px;"/><path class="xgrid crisp" transform="translate(623.99,0)" d="M0,50v385" style="stroke: rgb(0, 0, 0); stroke-opacity: 0.05; stroke-width: 1px;"/><path class="xgrid crisp" transform="translate(736.53,0)" d="M0,50v385" style="stroke: rgb(0, 0, 0); stroke-opacity: 0.05; stroke-width: 1px;"/><path class="xgrid crisp" transform="translate(849.06,0)" d="M0,50v385" style="stroke: rgb(0, 0, 0); stroke-opacity: 0.05; stroke-width: 1px;"/><path class="xgrid crisp" transform="translate(961.6,0)" d="M0,50v385" style="stroke: rgb(0, 0, 0); stroke-opacity: 0.05; stroke-width: 1px;"/><path class="xgrid crisp" transform="translate(1074.13,0)" d="M0,50v385" style="stroke: rgb(0, 0, 0); stroke-opacity: 0.05; stroke-width: 1px;"/></g><g class="y"><path class="ygrid crisp" transform="translate(0,348.74)" d="M62,0h1023" style="stroke: rgb(0, 0, 0); stroke-opacity: 0.05; stroke-width: 1px;"/><path class="ygrid crisp" transform="translate(0,262.48)" d="M62,0h1023" style="stroke: rgb(0, 0, 0); stroke-opacity: 0.05; stroke-width: 1px;"/><path class="ygrid crisp" transform="translate(0,176.20999999999998)" d="M62,0h1023" style="stroke: rgb(0, 0, 0); stroke-opacity: 0.05; stroke-width: 1px;"/><path class="ygrid crisp" transform="translate(0,89.95)" d="M62,0h1023" style="stroke: rgb(0, 0, 0); stroke-opacity: 0.05; stroke-width: 1px;"/></g></g><g class="zerolinelayer"><path class="yzl zl crisp" transform="translate(0,435)" d="M62,0h1023" style="stroke: rgb(0, 0, 0); stroke-opacity: 0.05; stroke-width: 2px;"/></g><g class="layer-between"><g class="shapelayer"/><g class="imagelayer"/></g><path class="xlines-below"/><path class="ylines-below"/><g class="overlines-below"/><g class="xaxislayer-below"/><g class="yaxislayer-below"/><g class="overaxes-below"/><g class="overplot"><g class="xy" transform="translate(62,50)" clip-path="url(#clipf484dbxyplot)"><g class="scatterlayer mlayer"><g class="trace scatter traceb9574a" style="stroke-miterlimit: 2; opacity: 1;"><g class="fills"/><g class="errorbars"/><g class="lines"><path class="js-line" d="M0,385L0.11,279.76L0.55,385L0.56,385L1.08,303.91L1.31,385L1.32,385L2.06,352.22L2.06,383.27L2.1,385L2.8,379.82L2.85,385L2.87,379.82L2.87,385L3.06,367.75L3.61,383.27L3.63,383.27L4.06,367.75L4.34,385L4.4,385L4.73,381.55L5.15,385L5.21,385L5.76,379.82L5.77,385L6.35,381.55L6.47,383.27L6.63,385L7.11,379.82L7.32,385L7.42,385L8.1,385L8.12,381.55L8.86,385L8.93,385L9.11,381.55L9.68,383.27L9.74,385L11.11,385L11.13,383.27L11.57,385L11.99,385L12.73,381.55L12.82,383.27L12.93,385L13.79,385L13.84,383.27L14.56,385L14.71,385L14.98,385L15.1,383.27L15.79,385L16,383.27L16.56,385L16.9,385L17.38,385L17.62,383.27L18.4,385L18.43,383.27L18.88,385L19.89,385L21.15,385L21.28,383.27L21.94,385L22.37,385L22.93,383.27L23.31,385L30.31,385L30.4,383.27L30.91,385L31.41,385L108.23,385" style="vector-effect: none; fill: none; stroke: rgb(124, 181, 236); stroke-opacity: 1; stroke-width: 2px; opacity: 1;"/></g><g class="points"/><g class="text"/></g><g class="trace scatter trace95c698" style="stroke-miterlimit: 2; opacity: 1;"><g class="fills"/><g class="errorbars"/><g class="lines"><path class="js-line" d="M0.01,381.55L0.11,293.56L0.14,385L0.14,385L0.16,93.44L0.16,385L0.91,378.1L0.93,385L1.08,314.27L1.68,383.27L1.69,385L2.06,366.02L2.44,385L2.46,385L3.06,362.57L3.21,383.27L3.23,385L3.84,381.55L3.98,383.27L3.99,385L4.06,371.2L4.73,385L4.76,385L5.08,381.55L5.51,383.27L5.53,385L6.09,362.57L6.26,385L6.35,385L7.11,378.1L7.13,383.27L7.15,385L7.85,383.27L7.89,385L8.02,385L8.12,371.2L8.75,385L8.82,385L9.13,383.27L9.55,385L9.76,383.27L10.46,385L10.65,385L12.23,385L12.25,383.27L12.98,385L13.06,385L14.05,385L14.08,383.27L14.92,385L15.04,385L15.46,385L15.54,383.27L16.64,385L16.99,385L17.3,385L17.95,383.27L18.22,385L18.76,383.27L19.62,385L20.02,383.27L20.27,383.27L20.47,385L22.5,385L22.86,383.27L23.55,385L24.21,385L24.77,385L26.15,383.27L26.53,385L27.72,385L32.1,385L32.4,383.27L33.35,385L33.6,385L34.45,383.27L35.76,385L40.39,385L40.57,383.27L41.77,385L44.56,385L101.99,385" style="vector-effect: none; fill: none; stroke: rgb(67, 67, 72); stroke-opacity: 1; stroke-width: 2px; opacity: 1;"/></g><g class="points"/><g class="text"/></g><g class="trace scatter trace5854e7" style="stroke-miterlimit: 2; opacity: 1;"><g class="fills"/><g class="errorbars"/><g class="lines"><path class="js-line" d="M0,385L0.11,265.96L0.14,383.27L0.16,103.79L0.18,385L0.91,374.65L0.93,383.27L0.95,385L1.08,283.21L1.67,385L1.69,385L2.06,366.02L2.44,385L2.47,385L3.06,360.85L3.21,385L3.23,385L4.06,376.37L4.1,383.27L4.76,385L4.85,383.27L4.92,385L5.08,378.1L5.55,385L5.61,385L5.82,381.55L6.3,383.27L6.44,385L7.11,381.55L7.16,385L7.22,385L7.87,383.27L8.03,385L8.12,378.1L8.77,385L8.88,385L10.38,385L10.43,381.55L11.2,385L11.27,385L12.71,385L12.78,383.27L13.59,385L13.84,385L14.17,383.27L14.38,385L14.66,385L15.1,385L15.14,383.27L15.96,385L16.01,385L17.05,385L17.1,383.27L17.88,385L18.25,383.27L18.56,385L19.14,385L20.29,385L20.83,383.27L21.89,385L22.3,385L28.21,385L28.33,383.27L28.58,385L29.95,383.27L31.01,385L31.37,385L32.65,385L33.62,383.27L35.46,383.27L35.76,385L113.38,385" style="vector-effect: none; fill: none; stroke: rgb(144, 237, 125); stroke-opacity: 1; stroke-width: 2px; opacity: 1;"/></g><g class="points"/><g class="text"/></g><g class="trace scatter traced46245" style="stroke-miterlimit: 2; opacity: 1;"><g class="fills"/><g class="errorbars"/><g class="lines"><path class="js-line" d="M0,383.27L0.07,385L0.16,133.12L0.42,385L0.43,383.27L0.46,385L1.08,295.29L1.18,381.55L1.21,385L1.69,379.82L1.93,381.55L1.94,385L2.46,381.55L2.67,385L2.71,383.27L3.05,381.55L3.46,385L3.5,385L4.13,383.27L4.24,385L4.27,385L4.51,385L4.56,383.27L5.08,372.92L5.3,385L5.37,381.55L6.09,385L6.18,385L6.18,383.27L6.92,385L6.98,385L7.52,383.27L7.66,385L7.75,385L7.94,385L8.01,383.27L8.12,378.1L8.61,385L8.75,383.27L8.82,385L9.81,385L9.9,383.27L10.73,385L10.92,385L11.11,385L11.15,383.27L11.92,385L12.08,385L12.28,385L12.3,383.27L13,385L13.09,385L13.29,385L13.29,385L13.31,383.27L14.12,385L14.14,383.27L14.96,385L15.09,385L15.81,385L16.03,383.27L16.78,385L16.98,385L17.93,385L18,383.27L18.25,381.55L18.34,385L18.97,385L19.26,385L19.42,383.27L19.66,383.27L19.75,385L20.49,383.27L20.54,385L21.17,385L21.28,383.27L21.85,385L22.3,385L22.84,385L22.93,383.27L23.6,385L23.87,385L28.33,385L28.69,383.27L29.34,385L29.88,385L30.78,385L30.81,383.27L32,385L32.7,385L34.45,385L34.79,383.27L35.17,385L35.5,383.27L35.6,383.27L36.39,385L37.02,385L46.81,385L47.62,383.27L48.63,385L48.86,385L50.12,383.27L50.32,383.27L50.66,383.27L51.29,385L52.68,385L53.99,383.27L55.5,385L55.95,385L56.15,385L58.65,381.55L60.83,385L62.04,385L67.78,385L67.87,383.27L69.7,383.27L72.51,385L81.85,385L83.79,383.27L85.02,385L87.68,385L99.45,385L111.88,383.27L120.11,385L157.38,385L1023,385" style="vector-effect: none; fill: none; stroke: rgb(247, 163, 92); stroke-opacity: 1; stroke-width: 2px; opacity: 1;"/></g><g class="points"/><g class="text"/></g><g class="trace scatter tracef5c5f5" style="stroke-miterlimit: 2; opacity: 1;"><g class="fills"/><g class="errorbars"/><g class="lines"><path class="js-line" d="M0,385L0.16,19.25L0.37,379.82L0.38,385L0.63,341.87L1.13,383.27L1.15,385L1.27,379.82L1.9,383.27L1.92,381.55L2.06,348.77L2.71,385L2.72,383.27L2.74,385L3.06,372.92L3.48,381.55L3.5,383.27L4.06,379.82L4.31,385L4.36,385L4.76,381.55L4.92,385L5,385L5.15,385L5.15,381.55L5.8,385L5.92,383.27L5.98,385L6.09,378.1L6.69,385L6.88,383.27L7.69,385L7.73,385L8.12,383.27L8.47,385L8.49,385L8.66,385L8.7,383.27L9.41,385L9.48,385L9.9,383.27L10.23,385L10.36,385L10.91,383.27L11.09,385L11.13,385L11.16,376.37L11.85,385L11.9,385L12.32,385L12.46,383.27L13.02,385L13.18,383.27L13.28,383.27L13.94,385L14.14,385L15.16,385L15.16,385L15.21,383.27L16.01,385L16.15,385L17.55,385L17.64,383.27L17.81,383.27L18.24,385L19.19,385L19.26,383.27L20.11,385L20.18,385L20.83,383.27L20.88,385L21.28,385L22.7,385L22.88,383.27L23.58,385L24.12,385L25.36,385L25.47,383.27L26.01,385L26.16,383.27L26.35,383.27L27.04,385L27.18,383.27L28.01,385L28.15,385L28.37,383.27L28.93,385L29.29,385L29.81,383.27L30.38,383.27L30.68,385L33.1,385L34.15,383.27L34.22,385L36.3,385L41.32,385L42.78,383.27L43.93,385L45.68,385L46.22,383.27L47.53,383.27L48.41,381.55L48.7,385L61.05,385L62.02,383.27L64.79,385L68.37,385L81.2,385L91.06,383.27L100.35,385L106.5,385L694.71,385" style="vector-effect: none; fill: none; stroke: rgb(128, 133, 233); stroke-opacity: 1; stroke-width: 2px; opacity: 1;"/></g><g class="points"/><g class="text"/></g><g class="trace scatter traceaf84d0" style="stroke-miterlimit: 2; opacity: 1;"><g class="fills"/><g class="errorbars"/><g class="lines"><path class="js-line" d="M0.01,385L0.11,290.11L0.76,385L0.77,378.1L0.93,376.37L1.51,385L1.55,385L2.06,353.95L2.1,383.27L2.11,385L2.21,381.55L2.85,383.27L2.87,385L3.06,371.2L3.61,385L3.63,385L3.99,381.55L4.04,383.27L4.06,372.92L4.83,385L4.88,385L5.61,383.27L5.63,385L5.66,383.27L5.84,381.55L6.4,385L6.48,385L7.11,381.55L7.23,385L7.25,385L7.89,383.27L8.07,385L8.66,383.27L8.82,385L8.83,385L9.09,385L9.11,381.55L9.76,385L9.85,383.27L9.91,383.27L10.39,381.55L10.68,385L10.82,385L11.13,381.55L11.54,383.27L11.65,385L12.36,385L12.44,383.27L13.27,385L13.34,385L13.81,385L14.01,383.27L14.65,385L14.83,385L15.79,385L15.95,383.27L16.5,385L16.67,383.27L16.91,385L17.73,385L17.84,383.27L18.54,385L19.12,385L19.54,385L19.61,383.27L20.63,385L20.81,383.27L21.76,385L21.87,383.27L22.73,385L23.29,385L26.48,385L26.86,383.27L27.5,385L28.37,383.27L29.14,385L29.32,383.27L30.18,385L30.22,383.27L31.16,385L31.74,385L33.03,385L33.44,383.27L34.65,385L35.46,385L35.91,385L36.07,383.27L36.7,385L38.05,385L39.99,385L40.15,381.55L41.07,385L41.41,383.27L42.89,385L43.5,385L45.55,385L45.59,383.27L45.91,385L46.25,383.27L46.85,385L51.8,385L52.37,383.27L54.28,385L54.84,383.27L55.5,385L56.82,385L732.41,385" style="vector-effect: none; fill: none; stroke: rgb(241, 92, 128); stroke-opacity: 1; stroke-width: 2px; opacity: 1;"/></g><g class="points"/><g class="text"/></g></g></g></g><path class="xlines-above crisp" d="M0,0" style="fill: none;"/><path class="ylines-above crisp" d="M0,0" style="fill: none;"/><g class="overlines-above"/><g class="xaxislayer-above"><g class="xtick"><text text-anchor="middle" x="0" y="451" transform="translate(173.85,0)" style="font-family: 'Lucida Grande', 'Open Sans', verdana, arial, sans-serif; font-size: 10px; fill: rgb(0, 0, 0); fill-opacity: 1; white-space: pre; opacity: 1;">5k</text></g><g class="xtick"><text text-anchor="middle" x="0" y="451" style="font-family: 'Lucida Grande', 'Open Sans', verdana, arial, sans-serif; font-size: 10px; fill: rgb(0, 0, 0); fill-opacity: 1; white-space: pre; opacity: 1;" transform="translate(286.39,0)">10k</text></g><g class="xtick"><text text-anchor="middle" x="0" y="451" style="font-family: 'Lucida Grande', 'Open Sans', verdana, arial, sans-serif; font-size: 10px; fill: rgb(0, 0, 0); fill-opacity: 1; white-space: pre; opacity: 1;" transform="translate(398.92,0)">15k</text></g><g class="xtick"><text text-anchor="middle" x="0" y="451" style="font-family: 'Lucida Grande', 'Open Sans', verdana, arial, sans-serif; font-size: 10px; fill: rgb(0, 0, 0); fill-opacity: 1; white-space: pre; opacity: 1;" transform="translate(511.46,0)">20k</text></g><g class="xtick"><text text-anchor="middle" x="0" y="451" style="font-family: 'Lucida Grande', 'Open Sans', verdana, arial, sans-serif; font-size: 10px; fill: rgb(0, 0, 0); fill-opacity: 1; white-space: pre; opacity: 1;" transform="translate(623.99,0)">25k</text></g><g class="xtick"><text text-anchor="middle" x="0" y="451" style="font-family: 'Lucida Grande', 'Open Sans', verdana, arial, sans-serif; font-size: 10px; fill: rgb(0, 0, 0); fill-opacity: 1; white-space: pre; opacity: 1;" transform="translate(736.53,0)">30k</text></g><g class="xtick"><text text-anchor="middle" x="0" y="451" style="font-family: 'Lucida Grande', 'Open Sans', verdana, arial, sans-serif; font-size: 10px; fill: rgb(0, 0, 0); fill-opacity: 1; white-space: pre; opacity: 1;" transform="translate(849.06,0)">35k</text></g><g class="xtick"><text text-anchor="middle" x="0" y="451" style="font-family: 'Lucida Grande', 'Open Sans', verdana, arial, sans-serif; font-size: 10px; fill: rgb(0, 0, 0); fill-opacity: 1; white-space: pre; opacity: 1;" transform="translate(961.6,0)">40k</text></g><g class="xtick"><text text-anchor="middle" x="0" y="451" style="font-family: 'Lucida Grande', 'Open Sans', verdana, arial, sans-serif; font-size: 10px; fill: rgb(0, 0, 0); fill-opacity: 1; white-space: pre; opacity: 1;" transform="translate(1074.13,0)">45k</text></g></g><g class="yaxislayer-above"><g class="ytick"><text text-anchor="end" x="56" y="3.5" transform="translate(0,435)" style="font-family: 'Lucida Grande', 'Open Sans', verdana, arial, sans-serif; font-size: 10px; fill: rgb(0, 0, 0); fill-opacity: 1; white-space: pre; opacity: 1;">0</text></g><g class="ytick"><text text-anchor="end" x="56" y="3.5" style="font-family: 'Lucida Grande', 'Open Sans', verdana, arial, sans-serif; font-size: 10px; fill: rgb(0, 0, 0); fill-opacity: 1; white-space: pre; opacity: 1;" transform="translate(0,348.74)">50</text></g><g class="ytick"><text text-anchor="end" x="56" y="3.5" style="font-family: 'Lucida Grande', 'Open Sans', verdana, arial, sans-serif; font-size: 10px; fill: rgb(0, 0, 0); fill-opacity: 1; white-space: pre; opacity: 1;" transform="translate(0,262.48)">100</text></g><g class="ytick"><text text-anchor="end" x="56" y="3.5" style="font-family: 'Lucida Grande', 'Open Sans', verdana, arial, sans-serif; font-size: 10px; fill: rgb(0, 0, 0); fill-opacity: 1; white-space: pre; opacity: 1;" transform="translate(0,176.20999999999998)">150</text></g><g class="ytick"><text text-anchor="end" x="56" y="3.5" style="font-family: 'Lucida Grande', 'Open Sans', verdana, arial, sans-serif; font-size: 10px; fill: rgb(0, 0, 0); fill-opacity: 1; white-space: pre; opacity: 1;" transform="translate(0,89.95)">200</text></g></g><g class="overaxes-above"/></g></g><g class="polarlayer"/><g class="smithlayer"/><g class="ternarylayer"/><g class="geolayer"/><g class="funnelarealayer"/><g class="pielayer"/><g class="iciclelayer"/><g class="treemaplayer"/><g class="sunburstlayer"/><g class="glimages"/><defs id="topdefs-f484db"><g class="clips"/></defs><g class="layer-above"><g class="imagelayer"/><g class="shapelayer"/></g><g class="infolayer"><g class="g-gtitle"><text class="gtitle" x="550" y="25" text-anchor="middle" dy="0em" style="opacity: 1; font-family: 'Lucida Grande', 'Open Sans', verdana, arial, sans-serif; font-size: 20px; fill: rgb(42, 63, 95); fill-opacity: 1; white-space: pre;"><tspan class="line" dy="0em" x="550" y="25">Bcftools Stats: Variant Quality Count</tspan><tspan class="line" dy="1.3em" x="550" y="25">​<tspan style="font-size:70%" dy="-0.6em">Count Transversions, 6 samples</tspan><tspan dy="0.42em">​</tspan></tspan></text></g><g class="g-xtitle"><text class="xtitle" x="573.5" y="472.3" text-anchor="middle" style="opacity: 0.3; font-family: 'Lucida Grande', 'Open Sans', verdana, arial, sans-serif; font-size: 14px; fill: rgb(0, 0, 0); fill-opacity: 1; white-space: pre;">Quality</text></g><g class="g-ytitle"><text class="ytitle" transform="rotate(-90,22.50625,242.5)" x="22.50625" y="242.5" text-anchor="middle" style="opacity: 0.3; font-family: 'Lucida Grande', 'Open Sans', verdana, arial, sans-serif; font-size: 14px; fill: rgb(0, 0, 0); fill-opacity: 1; white-space: pre;">Count</text></g></g></svg>