<svg class="main-svg" xmlns="http://www.w3.org/2000/svg" xmlns:xlink="http://www.w3.org/1999/xlink" width="2200" height="1000" style="" viewBox="0 0 1100 500"><rect x="0" y="0" width="1100" height="500" style="fill: rgb(255, 255, 255); fill-opacity: 1;"/><defs id="defs-2a90a2"><g class="clips"><clipPath id="clip2a90a2xyplot" class="plotclip"><rect width="1012" height="385"/></clipPath><clipPath class="axesclip" id="clip2a90a2x"><rect x="62" y="0" width="1012" height="500"/></clipPath><clipPath class="axesclip" id="clip2a90a2y"><rect x="0" y="50" width="1100" height="385"/></clipPath><clipPath class="axesclip" id="clip2a90a2xy"><rect x="62" y="50" width="1012" height="385"/></clipPath></g><g class="gradients"/><g class="patterns"/></defs><g class="bglayer"/><g class="layer-below"><g class="imagelayer"/><g class="shapelayer"/></g><g class="cartesianlayer"><g class="subplot xy"><g class="layer-subplot"><g class="shapelayer"/><g class="imagelayer"/></g><g class="minor-gridlayer"><g class="x"/><g class="y"/></g><g class="gridlayer"><g class="x"><path class="xgrid crisp" transform="translate(230.67,0)" d="M0,50v385" style="stroke: rgb(0, 0, 0); stroke-opacity: 0.05; stroke-width: 1px;"/><path class="xgrid crisp" transform="translate(399.33,0)" d="M0,50v385" style="stroke: rgb(0, 0, 0); stroke-opacity: 0.05; stroke-width: 1px;"/><path class="xgrid crisp" transform="translate(736.67,0)" d="M0,50v385" style="stroke: rgb(0, 0, 0); stroke-opacity: 0.05; stroke-width: 1px;"/><path class="xgrid crisp" transform="translate(905.33,0)" d="M0,50v385" style="stroke: rgb(0, 0, 0); stroke-opacity: 0.05; stroke-width: 1px;"/></g><g class="y"><path class="ygrid crisp" transform="translate(0,366.76)" d="M62,0h1012" style="stroke: rgb(0, 0, 0); stroke-opacity: 0.05; stroke-width: 1px;"/><path class="ygrid crisp" transform="translate(0,298.53)" d="M62,0h1012" style="stroke: rgb(0, 0, 0); stroke-opacity: 0.05; stroke-width: 1px;"/><path class="ygrid crisp" transform="translate(0,230.29)" d="M62,0h1012" style="stroke: rgb(0, 0, 0); stroke-opacity: 0.05; stroke-width: 1px;"/><path class="ygrid crisp" transform="translate(0,162.05)" d="M62,0h1012" style="stroke: rgb(0, 0, 0); stroke-opacity: 0.05; stroke-width: 1px;"/><path class="ygrid crisp" transform="translate(0,93.82)" d="M62,0h1012" style="stroke: rgb(0, 0, 0); stroke-opacity: 0.05; stroke-width: 1px;"/></g></g><g class="zerolinelayer"><path class="xzl zl crisp" transform="translate(568,0)" d="M0,50v385" style="stroke: rgb(0, 0, 0); stroke-opacity: 0.05; stroke-width: 2px;"/><path class="yzl zl crisp" transform="translate(0,435)" d="M62,0h1012" style="stroke: rgb(0, 0, 0); stroke-opacity: 0.05; stroke-width: 2px;"/></g><g class="layer-between"><g class="shapelayer"/><g class="imagelayer"/></g><path class="xlines-below"/><path class="ylines-below"/><g class="overlines-below"/><g class="xaxislayer-below"/><g class="yaxislayer-below"/><g class="overaxes-below"/><g class="overplot"><g class="xy" transform="translate(62,50)" clip-path="url(#clip2a90a2xyplot)"><g class="scatterlayer mlayer"><g class="trace scatter trace92046e" style="stroke-miterlimit: 2; opacity: 1;"><g class="fills"/><g class="errorbars"/><g class="lines"><path class="js-line" d="M0,65.65L33.73,383.64L59.03,383.64L354.2,383.64L371.07,380.91L379.5,379.54L387.93,383.64L396.37,379.54L421.67,383.64L430.1,382.27L438.53,382.27L446.97,379.54L455.4,379.54L463.83,368.62L472.27,371.35L480.7,368.62L489.13,349.52L497.57,304.48" style="vector-effect: none; fill: none; stroke: rgb(124, 181, 236); stroke-opacity: 1; stroke-width: 2px; opacity: 1;"/><path class="js-line" d="M514.43,135.25L522.87,309.94L531.3,339.96L539.73,335.87L548.17,349.52L556.6,360.43L565.03,368.62L573.47,361.8L581.9,368.62L590.33,361.8L598.77,368.62L607.2,361.8L615.63,368.62L624.07,367.26L632.5,375.45L640.93,371.35L649.37,371.35L657.8,367.26L666.23,378.18L674.67,380.91L683.1,369.99L691.53,374.08L699.97,371.35L716.83,379.54L725.27,372.72L733.7,371.35L742.13,375.45L750.57,369.99L759,376.81L767.43,374.08L775.87,380.91L784.3,375.45L792.73,376.81L801.17,378.18L809.6,378.18L818.03,379.54L826.47,376.81L843.33,374.08L851.77,376.81L860.2,376.81L868.63,379.54L877.07,376.81L885.5,383.64L893.93,378.18L902.37,375.45L910.8,379.54L919.23,375.45L927.67,371.35L936.1,379.54L944.53,378.18L952.97,379.54L961.4,375.45L969.83,375.45L978.27,380.91L986.7,376.81L995.13,375.45L1003.57,378.18L1012,334.5" style="vector-effect: none; fill: none; stroke: rgb(124, 181, 236); stroke-opacity: 1; stroke-width: 2px; opacity: 1;"/></g><g class="points"/><g class="text"/></g><g class="trace scatter traceb88174" style="stroke-miterlimit: 2; opacity: 1;"><g class="fills"/><g class="errorbars"/><g class="lines"><path class="js-line" d="M0,52L42.17,383.64L109.63,383.64L345.77,383.64L371.07,382.27L379.5,379.54L387.93,380.91L396.37,383.64L404.8,383.64L421.67,382.27L430.1,383.64L438.53,382.27L446.97,379.54L455.4,380.91L463.83,375.45L472.27,365.89L480.7,368.62L489.13,345.42L497.57,281.28" style="vector-effect: none; fill: none; stroke: rgb(67, 67, 72); stroke-opacity: 1; stroke-width: 2px; opacity: 1;"/><path class="js-line" d="M514.43,146.17L522.87,318.13L531.3,350.88L539.73,341.33L548.17,349.52L556.6,361.8L565.03,356.34L573.47,365.89L581.9,365.89L590.33,357.71L598.77,367.26L607.2,363.16L615.63,363.16L624.07,372.72L632.5,371.35L640.93,367.26L649.37,372.72L666.23,369.99L674.67,371.35L683.1,364.53L691.53,376.81L699.97,371.35L708.4,375.45L716.83,375.45L725.27,372.72L733.7,374.08L742.13,379.54L750.57,371.35L759,375.45L767.43,378.18L775.87,378.18L784.3,374.08L792.73,379.54L801.17,380.91L809.6,376.81L818.03,372.72L826.47,374.08L834.9,378.18L843.33,375.45L851.77,371.35L860.2,380.91L868.63,372.72L877.07,380.91L885.5,378.18L893.93,379.54L902.37,367.26L910.8,376.81L919.23,379.54L927.67,376.81L936.1,382.27L944.53,374.08L952.97,376.81L961.4,376.81L969.83,378.18L978.27,374.08L986.7,372.72L995.13,376.81L1003.57,376.81L1012,314.03" style="vector-effect: none; fill: none; stroke: rgb(67, 67, 72); stroke-opacity: 1; stroke-width: 2px; opacity: 1;"/></g><g class="points"/><g class="text"/></g><g class="trace scatter trace74c365" style="stroke-miterlimit: 2; opacity: 1;"><g class="fills"/><g class="errorbars"/><g class="lines"><path class="js-line" d="M0,57.46L33.73,383.64L59.03,383.64L295.17,383.64L320.47,380.91L328.9,383.64L345.77,380.91L354.2,383.64L371.07,380.91L379.5,379.54L387.93,383.64L413.23,383.64L421.67,382.27L430.1,379.54L438.53,383.64L446.97,379.54L455.4,380.91L463.83,375.45L472.27,371.35L480.7,369.99L489.13,345.42L497.57,282.64" style="vector-effect: none; fill: none; stroke: rgb(144, 237, 125); stroke-opacity: 1; stroke-width: 2px; opacity: 1;"/><path class="js-line" d="M514.43,132.52L522.87,311.3L531.3,346.79L539.73,346.79L548.17,349.52L556.6,354.98L565.03,353.61L573.47,363.16L581.9,364.53L590.33,361.8L598.77,361.8L607.2,372.72L615.63,364.53L624.07,368.62L632.5,367.26L640.93,376.81L649.37,379.54L657.8,368.62L666.23,375.45L674.67,368.62L683.1,364.53L691.53,374.08L699.97,374.08L708.4,372.72L716.83,375.45L725.27,376.81L733.7,375.45L742.13,376.81L750.57,374.08L759,376.81L767.43,374.08L775.87,379.54L784.3,372.72L792.73,382.27L801.17,379.54L809.6,379.54L818.03,380.91L826.47,372.72L834.9,379.54L843.33,380.91L851.77,374.08L860.2,379.54L868.63,371.35L877.07,378.18L885.5,376.81L893.93,378.18L902.37,376.81L910.8,375.45L919.23,380.91L927.67,376.81L936.1,376.81L952.97,374.08L961.4,376.81L969.83,375.45L978.27,382.27L986.7,380.91L995.13,376.81L1003.57,380.91L1012,320.86" style="vector-effect: none; fill: none; stroke: rgb(144, 237, 125); stroke-opacity: 1; stroke-width: 2px; opacity: 1;"/></g><g class="points"/><g class="text"/></g><g class="trace scatter tracef7cdd5" style="stroke-miterlimit: 2; opacity: 1;"><g class="fills"/><g class="errorbars"/><g class="lines"><path class="js-line" d="M0,19.25L42.17,383.64L59.03,383.64L261.43,383.64L269.87,382.27L286.73,383.64L303.6,383.64L337.33,383.64L354.2,382.27L362.63,382.27L371.07,383.64L396.37,380.91L413.23,382.27L430.1,379.54L438.53,379.54L446.97,375.45L455.4,375.45L472.27,367.26L480.7,360.43L489.13,334.5L497.57,277.19" style="vector-effect: none; fill: none; stroke: rgb(247, 163, 92); stroke-opacity: 1; stroke-width: 2px; opacity: 1;"/><path class="js-line" d="M514.43,71.11L522.87,296.29L531.3,339.96L539.73,342.69L548.17,348.15L556.6,356.34L565.03,363.16L573.47,363.16L581.9,375.45L590.33,364.53L598.77,363.16L607.2,360.43L615.63,360.43L624.07,368.62L632.5,369.99L640.93,375.45L649.37,374.08L657.8,363.16L666.23,374.08L674.67,375.45L683.1,369.99L691.53,375.45L699.97,376.81L708.4,371.35L716.83,368.62L725.27,375.45L733.7,374.08L742.13,371.35L750.57,376.81L759,379.54L767.43,375.45L775.87,374.08L784.3,378.18L792.73,376.81L801.17,369.99L809.6,379.54L818.03,378.18L826.47,376.81L834.9,374.08L843.33,375.45L851.77,378.18L868.63,375.45L877.07,380.91L885.5,372.72L893.93,371.35L902.37,376.81L910.8,375.45L919.23,372.72L927.67,371.35L936.1,378.18L944.53,378.18L952.97,369.99L961.4,365.89L969.83,380.91L978.27,372.72L986.7,376.81L995.13,375.45L1003.57,379.54L1012,314.03" style="vector-effect: none; fill: none; stroke: rgb(247, 163, 92); stroke-opacity: 1; stroke-width: 2px; opacity: 1;"/></g><g class="points"/><g class="text"/></g><g class="trace scatter trace5c23b3" style="stroke-miterlimit: 2; opacity: 1;"><g class="fills"/><g class="errorbars"/><g class="lines"><path class="js-line" d="M0,62.92L59.03,383.64L84.33,383.64L337.33,383.64L345.77,382.27L354.2,383.64L362.63,383.64L371.07,382.27L379.5,382.27L387.93,383.64L396.37,383.64L421.67,383.64L430.1,379.54L438.53,382.27L446.97,375.45L455.4,375.45L463.83,374.08L472.27,371.35L480.7,369.99L489.13,331.78L497.57,259.44" style="vector-effect: none; fill: none; stroke: rgb(128, 133, 233); stroke-opacity: 1; stroke-width: 2px; opacity: 1;"/><path class="js-line" d="M514.43,127.06L522.87,300.39L531.3,333.14L539.73,342.69L548.17,350.88L556.6,349.52L565.03,367.26L573.47,357.71L581.9,365.89L590.33,364.53L598.77,371.35L607.2,360.43L615.63,367.26L624.07,375.45L632.5,368.62L640.93,371.35L649.37,375.45L657.8,368.62L666.23,376.81L674.67,363.16L683.1,375.45L691.53,374.08L699.97,379.54L708.4,374.08L716.83,371.35L725.27,374.08L733.7,378.18L742.13,375.45L750.57,376.81L759,379.54L767.43,379.54L775.87,379.54L784.3,372.72L792.73,379.54L801.17,376.81L809.6,376.81L818.03,374.08L826.47,372.72L834.9,379.54L843.33,378.18L851.77,372.72L860.2,383.64L868.63,375.45L877.07,380.91L885.5,376.81L893.93,379.54L902.37,375.45L910.8,375.45L919.23,368.62L927.67,378.18L936.1,372.72L944.53,372.72L952.97,374.08L961.4,371.35L969.83,378.18L978.27,372.72L986.7,382.27L1003.57,376.81L1012,314.03" style="vector-effect: none; fill: none; stroke: rgb(128, 133, 233); stroke-opacity: 1; stroke-width: 2px; opacity: 1;"/></g><g class="points"/><g class="text"/></g><g class="trace scatter tracecd4aa7" style="stroke-miterlimit: 2; opacity: 1;"><g class="fills"/><g class="errorbars"/><g class="lines"><path class="js-line" d="M0,34.26L59.03,383.64L227.7,383.64L295.17,383.64L320.47,382.27L328.9,383.64L337.33,382.27L354.2,383.64L371.07,382.27L379.5,378.18L387.93,383.64L396.37,382.27L421.67,379.54L430.1,380.91L438.53,380.91L446.97,382.27L455.4,380.91L463.83,372.72L472.27,371.35L480.7,360.43L489.13,327.68L497.57,263.54" style="vector-effect: none; fill: none; stroke: rgb(241, 92, 128); stroke-opacity: 1; stroke-width: 2px; opacity: 1;"/><path class="js-line" d="M514.43,121.61L522.87,299.02L531.3,329.05L539.73,346.79L548.17,356.34L556.6,346.79L565.03,348.15L573.47,361.8L581.9,372.72L590.33,363.16L598.77,359.07L607.2,357.71L615.63,364.53L624.07,353.61L632.5,367.26L640.93,367.26L649.37,364.53L657.8,368.62L666.23,369.99L674.67,367.26L683.1,369.99L691.53,371.35L699.97,376.81L708.4,372.72L716.83,364.53L725.27,368.62L733.7,371.35L742.13,369.99L750.57,378.18L759,374.08L767.43,371.35L775.87,374.08L784.3,371.35L792.73,380.91L801.17,375.45L809.6,369.99L818.03,375.45L826.47,380.91L834.9,380.91L843.33,376.81L851.77,379.54L860.2,378.18L868.63,380.91L877.07,376.81L885.5,375.45L893.93,372.72L902.37,374.08L910.8,372.72L919.23,375.45L927.67,378.18L936.1,378.18L944.53,375.45L952.97,376.81L961.4,376.81L969.83,375.45L978.27,378.18L986.7,374.08L995.13,380.91L1003.57,371.35L1012,320.86" style="vector-effect: none; fill: none; stroke: rgb(241, 92, 128); stroke-opacity: 1; stroke-width: 2px; opacity: 1;"/></g><g class="points"/><g class="text"/></g></g></g></g><path class="xlines-above crisp" d="M0,0" style="fill: none;"/><path class="ylines-above crisp" d="M0,0" style="fill: none;"/><g class="overlines-above"/><g class="xaxislayer-above"><g class="xtick"><text text-anchor="middle" x="0" y="451" transform="translate(62,0)" style="font-family: 'Lucida Grande', 'Open Sans', verdana, arial, sans-serif; font-size: 10px; fill: rgb(0, 0, 0); fill-opacity: 1; white-space: pre; opacity: 1;">−60 bp</text></g><g class="xtick"><text text-anchor="middle" x="0" y="451" style="font-family: 'Lucida Grande', 'Open Sans', verdana, arial, sans-serif; font-size: 10px; fill: rgb(0, 0, 0); fill-opacity: 1; white-space: pre; opacity: 1;" transform="translate(230.67,0)">−40 bp</text></g><g class="xtick"><text text-anchor="middle" x="0" y="451" style="font-family: 'Lucida Grande', 'Open Sans', verdana, arial, sans-serif; font-size: 10px; fill: rgb(0, 0, 0); fill-opacity: 1; white-space: pre; opacity: 1;" transform="translate(399.33,0)">−20 bp</text></g><g class="xtick"><text text-anchor="middle" x="0" y="451" style="font-family: 'Lucida Grande', 'Open Sans', verdana, arial, sans-serif; font-size: 10px; fill: rgb(0, 0, 0); fill-opacity: 1; white-space: pre; opacity: 1;" transform="translate(568,0)">0 bp</text></g><g class="xtick"><text text-anchor="middle" x="0" y="451" style="font-family: 'Lucida Grande', 'Open Sans', verdana, arial, sans-serif; font-size: 10px; fill: rgb(0, 0, 0); fill-opacity: 1; white-space: pre; opacity: 1;" transform="translate(736.67,0)">20 bp</text></g><g class="xtick"><text text-anchor="middle" x="0" y="451" style="font-family: 'Lucida Grande', 'Open Sans', verdana, arial, sans-serif; font-size: 10px; fill: rgb(0, 0, 0); fill-opacity: 1; white-space: pre; opacity: 1;" transform="translate(905.33,0)">40 bp</text></g><g class="xtick"><text text-anchor="middle" x="0" y="451" style="font-family: 'Lucida Grande', 'Open Sans', verdana, arial, sans-serif; font-size: 10px; fill: rgb(0, 0, 0); fill-opacity: 1; white-space: pre; opacity: 1;" transform="translate(1074,0)">60 bp</text></g></g><g class="yaxislayer-above"><g class="ytick"><text text-anchor="end" x="56" y="3.5" transform="translate(0,435)" style="font-family: 'Lucida Grande', 'Open Sans', verdana, arial, sans-serif; font-size: 10px; fill: rgb(0, 0, 0); fill-opacity: 1; white-space: pre; opacity: 1;">0</text></g><g class="ytick"><text text-anchor="end" x="56" y="3.5" style="font-family: 'Lucida Grande', 'Open Sans', verdana, arial, sans-serif; font-size: 10px; fill: rgb(0, 0, 0); fill-opacity: 1; white-space: pre; opacity: 1;" transform="translate(0,366.76)">50</text></g><g class="ytick"><text text-anchor="end" x="56" y="3.5" style="font-family: 'Lucida Grande', 'Open Sans', verdana, arial, sans-serif; font-size: 10px; fill: rgb(0, 0, 0); fill-opacity: 1; white-space: pre; opacity: 1;" transform="translate(0,298.53)">100</text></g><g class="ytick"><text text-anchor="end" x="56" y="3.5" style="font-family: 'Lucida Grande', 'Open Sans', verdana, arial, sans-serif; font-size: 10px; fill: rgb(0, 0, 0); fill-opacity: 1; white-space: pre; opacity: 1;" transform="translate(0,230.29)">150</text></g><g class="ytick"><text text-anchor="end" x="56" y="3.5" style="font-family: 'Lucida Grande', 'Open Sans', verdana, arial, sans-serif; font-size: 10px; fill: rgb(0, 0, 0); fill-opacity: 1; white-space: pre; opacity: 1;" transform="translate(0,162.05)">200</text></g><g class="ytick"><text text-anchor="end" x="56" y="3.5" style="font-family: 'Lucida Grande', 'Open Sans', verdana, arial, sans-serif; font-size: 10px; fill: rgb(0, 0, 0); fill-opacity: 1; white-space: pre; opacity: 1;" transform="translate(0,93.82)">250</text></g></g><g class="overaxes-above"/></g></g><g class="polarlayer"/><g class="smithlayer"/><g class="ternarylayer"/><g class="geolayer"/><g class="funnelarealayer"/><g class="pielayer"/><g class="iciclelayer"/><g class="treemaplayer"/><g class="sunburstlayer"/><g class="glimages"/><defs id="topdefs-2a90a2"><g class="clips"/></defs><g class="layer-above"><g class="imagelayer"/><g class="shapelayer"/></g><g class="infolayer"><g class="g-gtitle"><text class="gtitle" x="550" y="25" text-anchor="middle" dy="0em" style="opacity: 1; font-family: 'Lucida Grande', 'Open Sans', verdana, arial, sans-serif; font-size: 20px; fill: rgb(42, 63, 95); fill-opacity: 1; white-space: pre;"><tspan class="line" dy="0em" x="550" y="25">Bcftools Stats: Indel Distribution</tspan><tspan class="line" dy="1.3em" x="550" y="25">​<tspan style="font-size:70%" dy="-0.6em">6 samples</tspan><tspan dy="0.42em">​</tspan></tspan></text></g><g class="g-xtitle"><text class="xtitle" x="568" y="472.3" text-anchor="middle" style="opacity: 0.3; font-family: 'Lucida Grande', 'Open Sans', verdana, arial, sans-serif; font-size: 14px; fill: rgb(0, 0, 0); fill-opacity: 1; white-space: pre;">InDel Length (bp)</text></g><g class="g-ytitle"><text class="ytitle" transform="rotate(-90,22.50625,242.5)" x="22.50625" y="242.5" text-anchor="middle" style="opacity: 0.3; font-family: 'Lucida Grande', 'Open Sans', verdana, arial, sans-serif; font-size: 14px; fill: rgb(0, 0, 0); fill-opacity: 1; white-space: pre;">Count</text></g></g></svg>