<svg class="main-svg" xmlns="http://www.w3.org/2000/svg" xmlns:xlink="http://www.w3.org/1999/xlink" width="2200" height="1000" style="" viewBox="0 0 1100 500"><rect x="0" y="0" width="1100" height="500" style="fill: rgb(255, 255, 255); fill-opacity: 1;"/><defs id="defs-f536b3"><g class="clips"><clipPath id="clipf536b3xyplot" class="plotclip"><rect width="1023" height="385"/></clipPath><clipPath class="axesclip" id="clipf536b3x"><rect x="62" y="0" width="1023" height="500"/></clipPath><clipPath class="axesclip" id="clipf536b3y"><rect x="0" y="50" width="1100" height="385"/></clipPath><clipPath class="axesclip" id="clipf536b3xy"><rect x="62" y="50" width="1023" height="385"/></clipPath></g><g class="gradients"/><g class="patterns"/></defs><g class="bglayer"/><g class="layer-below"><g class="imagelayer"/><g class="shapelayer"/></g><g class="cartesianlayer"><g class="subplot xy"><g class="layer-subplot"><g class="shapelayer"/><g class="imagelayer"/></g><g class="minor-gridlayer"><g class="x"/><g class="y"/></g><g class="gridlayer"><g class="x"><path class="xgrid crisp" transform="translate(173.85,0)" d="M0,50v385" style="stroke: rgb(0, 0, 0); stroke-opacity: 0.05; stroke-width: 1px;"/><path class="xgrid crisp" transform="translate(286.39,0)" d="M0,50v385" style="stroke: rgb(0, 0, 0); stroke-opacity: 0.05; stroke-width: 1px;"/><path class="xgrid crisp" transform="translate(398.92,0)" d="M0,50v385" style="stroke: rgb(0, 0, 0); stroke-opacity: 0.05; stroke-width: 1px;"/><path class="xgrid crisp" transform="translate(511.46,0)" d="M0,50v385" style="stroke: rgb(0, 0, 0); stroke-opacity: 0.05; stroke-width: 1px;"/><path class="xgrid crisp" transform="translate(623.99,0)" d="M0,50v385" style="stroke: rgb(0, 0, 0); stroke-opacity: 0.05; stroke-width: 1px;"/><path class="xgrid crisp" transform="translate(736.53,0)" d="M0,50v385" style="stroke: rgb(0, 0, 0); stroke-opacity: 0.05; stroke-width: 1px;"/><path class="xgrid crisp" transform="translate(849.06,0)" d="M0,50v385" style="stroke: rgb(0, 0, 0); stroke-opacity: 0.05; stroke-width: 1px;"/><path class="xgrid crisp" transform="translate(961.6,0)" d="M0,50v385" style="stroke: rgb(0, 0, 0); stroke-opacity: 0.05; stroke-width: 1px;"/><path class="xgrid crisp" transform="translate(1074.13,0)" d="M0,50v385" style="stroke: rgb(0, 0, 0); stroke-opacity: 0.05; stroke-width: 1px;"/></g><g class="y"><path class="ygrid crisp" transform="translate(0,389.57)" d="M62,0h1023" style="stroke: rgb(0, 0, 0); stroke-opacity: 0.05; stroke-width: 1px;"/><path class="ygrid crisp" transform="translate(0,344.13)" d="M62,0h1023" style="stroke: rgb(0, 0, 0); stroke-opacity: 0.05; stroke-width: 1px;"/><path class="ygrid crisp" transform="translate(0,298.7)" d="M62,0h1023" style="stroke: rgb(0, 0, 0); stroke-opacity: 0.05; stroke-width: 1px;"/><path class="ygrid crisp" transform="translate(0,253.26)" d="M62,0h1023" style="stroke: rgb(0, 0, 0); stroke-opacity: 0.05; stroke-width: 1px;"/><path class="ygrid crisp" transform="translate(0,207.83)" d="M62,0h1023" style="stroke: rgb(0, 0, 0); stroke-opacity: 0.05; stroke-width: 1px;"/><path class="ygrid crisp" transform="translate(0,162.39)" d="M62,0h1023" style="stroke: rgb(0, 0, 0); stroke-opacity: 0.05; stroke-width: 1px;"/><path class="ygrid crisp" transform="translate(0,116.96)" d="M62,0h1023" style="stroke: rgb(0, 0, 0); stroke-opacity: 0.05; stroke-width: 1px;"/><path class="ygrid crisp" transform="translate(0,71.52)" d="M62,0h1023" style="stroke: rgb(0, 0, 0); stroke-opacity: 0.05; stroke-width: 1px;"/></g></g><g class="zerolinelayer"><path class="yzl zl crisp" transform="translate(0,435)" d="M62,0h1023" style="stroke: rgb(0, 0, 0); stroke-opacity: 0.05; stroke-width: 2px;"/></g><g class="layer-between"><g class="shapelayer"/><g class="imagelayer"/></g><path class="xlines-below"/><path class="ylines-below"/><g class="overlines-below"/><g class="xaxislayer-below"/><g class="yaxislayer-below"/><g class="overaxes-below"/><g class="overplot"><g class="xy" transform="translate(62,50)" clip-path="url(#clipf536b3xyplot)"><g class="scatterlayer mlayer"><g class="trace scatter traceed5367" style="stroke-miterlimit: 2; opacity: 1;"><g class="fills"/><g class="errorbars"/><g class="lines"><path class="js-line" d="M0,382.73L0.05,385L0.11,19.25L0.32,385L0.33,382.73L0.36,385L0.97,319.12L1.06,366.83L1.06,385L1.08,178.27L1.81,385L1.82,382.73L1.92,350.92L2.05,385L2.06,212.35L2.06,385L2.8,375.91L2.84,375.91L3.06,266.87L3.59,385L3.59,385L3.61,385L3.79,375.91L4.04,380.46L4.06,294.13L4.83,385L4.85,385L5.06,373.64L5.63,378.18L5.64,385L6.09,360.01L6.27,382.73L6.33,382.73L6.65,375.91L7.07,385L7.08,378.18L7.11,335.02L7.32,385L7.79,385L8.01,385L8.12,366.83L8.54,382.73L8.55,385L9.13,371.37L9.22,380.46L9.67,385L10.45,380.46L10.68,385L11.04,385L11.11,380.46L11.16,378.18L11.4,385L11.57,382.73L11.99,382.73L12.17,375.91L12.82,385L12.93,382.73L13.14,378.18L13.84,385L13.93,385L14.06,380.46L14.71,382.73L14.98,385L15.3,382.73L15.43,385L15.79,385L16,385L16.13,382.73L16.9,385L17.1,382.73L17.77,385L18.19,382.73L18.4,382.73L18.43,385L18.81,385L18.88,382.73L19.93,382.73L20.09,385L20.56,382.73L20.62,385L21.15,382.73L21.28,378.18L21.52,380.46L21.85,385L22.37,382.73L22.93,385L23.88,382.73L24.32,382.73L25.38,382.73L26.35,380.46L27.45,385L28.37,385L28.58,382.73L29.39,385L29.57,380.46L30.31,382.73L30.91,385L31.41,385L32.07,385L33.57,380.46L33.66,385L33.75,382.73L36.48,382.73L36.9,382.73L36.93,385L38.23,385L38.71,382.73L42.51,382.73L44.49,385L50.12,385L58.94,382.73L108.23,382.73" style="vector-effect: none; fill: none; stroke: rgb(124, 181, 236); stroke-opacity: 1; stroke-width: 2px; opacity: 1;"/></g><g class="points"/><g class="text"/></g><g class="trace scatter tracecb2d5f" style="stroke-miterlimit: 2; opacity: 1;"><g class="fills"/><g class="errorbars"/><g class="lines"><path class="js-line" d="M0.01,373.64L0.11,128.29L0.77,385L0.78,385L0.97,348.65L1.51,385L1.54,385L2.06,230.52L2.29,385L2.32,380.46L2.8,371.37L3.05,385L3.06,230.52L3.77,385L3.81,375.91L3.84,382.73L3.99,385L4.02,378.18L4.04,371.37L4.06,307.76L4.11,385L4.78,382.73L4.8,382.73L5.05,385L5.06,378.18L5.08,332.75L5.84,385L5.93,385L6.62,375.91L6.7,382.73L6.81,382.73L7.08,385L7.11,355.47L7.85,385L7.89,382.73L8.1,375.91L8.12,362.28L8.87,385L8.95,385L9.13,375.91L9.55,382.73L9.76,385L10.05,380.46L10.08,382.73L10.14,369.1L10.32,385L10.65,382.73L10.95,385L11.2,378.18L11.47,382.73L11.58,385L11.81,380.46L12.44,382.73L12.84,382.73L13.16,378.18L13.59,385L13.81,382.73L13.96,382.73L14.05,385L14.19,380.46L14.64,385L14.83,385L15.21,380.46L15.54,385L15.91,385L16.64,382.73L16.99,382.73L17.14,385L17.3,382.73L17.95,385L18.22,382.73L18.76,385L18.94,385L19.1,382.73L19.48,382.73L19.62,385L20.27,385L20.47,382.73L22.5,382.73L22.86,385L23.04,385L23.24,382.73L23.46,385L23.55,382.73L24.21,382.73L24.62,385L24.77,382.73L26.15,385L26.3,380.46L26.53,385L27.72,385L27.92,385L28.49,382.73L29.36,382.73L30.36,380.46L32.1,385L32.4,385L33.35,385L33.6,382.73L34.45,385L35.76,382.73L35.94,385L36.48,380.46L40.57,385L41.77,382.73L44.56,382.73L46.2,385L47.51,382.73L57.23,382.73L64.5,385L67.38,382.73L74.47,385L79.22,382.73L101.99,382.73" style="vector-effect: none; fill: none; stroke: rgb(67, 67, 72); stroke-opacity: 1; stroke-width: 2px; opacity: 1;"/></g><g class="points"/><g class="text"/></g><g class="trace scatter trace08d6e9" style="stroke-miterlimit: 2; opacity: 1;"><g class="fills"/><g class="errorbars"/><g class="lines"><path class="js-line" d="M0,382.73L0.04,385L0.09,378.18L0.11,385L0.11,107.85L0.87,385L0.88,364.55L0.88,385L0.97,339.57L1.62,385L1.64,385L2.06,244.15L2.38,385L2.41,385L2.8,373.64L3.05,382.73L3.06,298.67L3.77,385L3.81,373.64L3.86,385L4.06,330.48L4.6,385L4.61,385L4.76,371.37L5.03,382.73L5.08,321.39L5.82,385L5.87,382.73L6.09,344.11L6.61,385L6.65,373.64L7.11,369.1L7.38,385L7.42,380.46L7.52,378.18L7.87,385L8.06,382.73L8.1,378.18L8.12,371.37L8.28,385L8.77,385L8.88,385L9.13,375.91L9.54,382.73L9.64,385L10.19,380.46L10.38,382.73L10.43,382.73L11.17,385L11.2,382.73L11.31,380.46L11.99,385L12.12,380.46L12.78,385L13.05,382.73L13.16,378.18L13.84,385L13.87,385L14.02,385L14.15,382.73L14.2,373.64L14.38,385L14.83,382.73L14.94,382.73L15.66,382.73L15.77,385L16.31,382.73L16.87,382.73L17.55,385L17.84,385L18.36,382.73L18.56,385L19.14,382.73L19.91,385L20.29,382.73L20.83,385L21.26,380.46L21.89,385L22.3,373.64L22.42,385L23.13,382.73L23.33,382.73L24.35,385L25.31,382.73L25.94,382.73L26.01,385L27.26,382.73L27.74,385L28.33,385L28.58,382.73L29.95,385L30.45,382.73L32.65,382.73L33.62,385L35.46,385L35.76,382.73L39.79,382.73L40.53,385L40.73,382.73L44.13,385L51.69,382.73L54.57,385L56.51,385L58.08,382.73L113.38,382.73" style="vector-effect: none; fill: none; stroke: rgb(144, 237, 125); stroke-opacity: 1; stroke-width: 2px; opacity: 1;"/></g><g class="points"/><g class="text"/></g><g class="trace scatter tracef9b75e" style="stroke-miterlimit: 2; opacity: 1;"><g class="fills"/><g class="errorbars"/><g class="lines"><path class="js-line" d="M0,385L0.11,144.2L0.75,385L0.76,382.73L0.97,335.02L1.53,385L1.54,382.73L1.6,380.46L1.87,385L1.92,353.2L2.67,385L2.71,380.46L2.71,385L2.87,348.65L3.46,385L3.5,385L3.59,378.18L4.13,385L4.18,385L4.76,371.37L4.94,382.73L4.96,385L5.08,332.75L5.7,378.18L5.73,385L5.99,385L6.02,382.73L6.09,341.84L6.78,385L6.81,382.73L7.15,380.46L7.38,385L7.41,380.46L7.52,375.91L8.01,385L8.07,380.46L8.12,360.01L8.7,385L8.82,382.73L9.09,382.73L9.18,373.64L9.24,385L9.81,385L9.9,385L10.4,380.46L10.62,385L10.73,382.73L11,382.73L11.11,378.18L11.85,385L11.92,385L12.17,378.18L12.73,382.73L12.93,385L13.42,382.73L13.67,385L13.75,385L13.95,380.46L14.35,382.73L14.6,382.73L14.61,380.46L14.76,385L15.3,382.73L15.41,385L16.03,378.18L16.08,382.73L16.78,385L16.98,378.18L17.62,385L17.93,380.46L18,385L18.34,380.46L18.97,382.73L19.26,371.37L19.42,385L19.66,385L19.75,382.73L20.54,385L20.83,382.73L21.17,382.73L21.28,378.18L21.85,385L22.3,385L22.46,382.73L22.99,385L23.53,382.73L23.87,385L24.03,382.73L24.32,378.18L25.12,382.73L25.25,382.73L25.88,382.73L25.94,385L26.86,382.73L27.18,382.73L27.36,385L28.33,382.73L29.07,385L29.34,382.73L29.88,385L30.36,382.73L30.81,385L31.28,385L32,382.73L32.7,385L34.07,385L34.45,382.73L35.5,385L35.6,385L36.39,382.73L37.02,382.73L37.33,380.46L37.58,382.73L38.29,385L39.67,385L40.18,382.73L41.09,385L41.54,382.73L42.28,385L43.5,382.73L43.52,385L44.26,382.73L45.66,385L46.76,385L50.66,385L51.29,382.73L52.68,382.73L53.99,385L55.5,382.73L55.95,385L58.65,385L60.33,382.73L60.83,385L62.04,382.73L64.03,382.73L64.79,385L65.74,382.73L67.78,385L67.87,382.73L69.7,385L77.73,385L80.21,382.73L81.85,385L83.79,385L85.02,385L87.68,382.73L90,385L97.2,385L119.62,385L120.11,382.73L157.38,382.73L183.4,385L295.73,385L1023,382.73" style="vector-effect: none; fill: none; stroke: rgb(247, 163, 92); stroke-opacity: 1; stroke-width: 2px; opacity: 1;"/></g><g class="points"/><g class="text"/></g><g class="trace scatter tracefed169" style="stroke-miterlimit: 2; opacity: 1;"><g class="fills"/><g class="errorbars"/><g class="lines"><path class="js-line" d="M0,382.73L0.05,385L0.11,139.65L0.59,385L0.61,373.64L0.61,385L1.08,119.21L1.33,382.73L1.36,385L1.78,371.37L1.9,382.73L1.92,353.2L2.06,250.97L2.66,385L2.7,385L3.04,371.37L3.06,269.14L3.84,385L3.86,382.73L4.06,332.75L4.61,385L4.62,375.91L4.76,371.37L5.39,385L5.45,382.73L5.57,380.46L6.07,385L6.09,330.48L6.09,385L6.69,382.73L6.88,385L7.04,378.18L7.08,385L7.11,366.83L7.85,385L7.94,382.73L8.03,385L8.12,364.55L8.58,382.73L8.63,385L9.18,378.18L9.41,380.46L9.48,382.73L9.69,380.46L9.9,385L10.12,382.73L10.14,378.18L10.91,385L11.04,385L11.16,380.46L11.58,382.73L11.85,385L12.15,380.46L12.68,382.73L12.93,385L13.52,382.73L13.56,385L13.75,385L14.17,380.46L14.29,382.73L14.84,385L15.73,382.73L15.93,385L16.22,380.46L16.35,382.73L16.83,382.73L17.23,373.64L17.55,385L17.64,385L17.81,385L18.24,382.73L19.03,385L19.19,382.73L19.98,385L20.11,385L20.27,380.46L20.83,385L20.88,385L22.3,380.46L22.45,385L23.58,385L24.12,382.73L25.11,385L25.21,385L26.35,385L26.47,382.73L27.04,382.73L27.18,385L27.34,380.46L27.97,385L28.37,382.73L28.93,382.73L29.29,382.73L29.81,385L30.38,385L30.68,382.73L31.41,382.73L31.53,385L31.91,385L32.42,382.73L33.1,385L34.15,385L36.3,385L37.49,382.73L39.09,385L39.54,380.46L41.32,385L42.78,385L43.66,385L43.93,380.46L46.22,385L47.53,385L48.7,385L50.09,382.73L50.43,385L51.24,385L60.69,385L60.94,382.73L61.05,385L62.02,385L64.79,385L68.37,382.73L68.98,385L77.89,385L81.2,382.73L91.06,385L99.2,385L100.35,382.73L106.5,382.73L120.95,385L210.82,385L694.71,382.73" style="vector-effect: none; fill: none; stroke: rgb(128, 133, 233); stroke-opacity: 1; stroke-width: 2px; opacity: 1;"/></g><g class="points"/><g class="text"/></g><g class="trace scatter trace715499" style="stroke-miterlimit: 2; opacity: 1;"><g class="fills"/><g class="errorbars"/><g class="lines"><path class="js-line" d="M0.01,375.91L0.03,385L0.11,80.59L0.75,385L0.76,378.18L0.97,339.57L1.06,385L1.07,378.18L1.08,51.05L1.83,385L1.86,385L2.06,271.41L2.55,385L2.6,380.46L3.06,275.96L3.36,385L3.46,385L4.06,294.13L4.1,385L4.28,385L4.33,382.73L4.67,378.18L4.74,385L4.76,366.83L4.76,385L5.45,382.73L5.57,378.18L6.07,373.64L6.24,385L6.32,382.73L6.36,385L7.11,350.92L7.17,382.73L7.34,385L7.46,378.18L7.89,385L8.07,378.18L8.1,375.91L8.18,385L8.66,385L8.82,382.73L9.09,382.73L9.11,378.18L9.91,385L9.99,382.73L10.14,369.1L10.23,385L10.61,382.73L10.68,382.73L11.13,385L11.16,366.83L12,385L12.05,382.73L12.17,378.18L12.27,385L12.68,382.73L12.84,385L13.18,373.64L13.34,382.73L13.75,385L14.33,382.73L14.65,385L15.02,382.73L15.12,385L15.21,369.1L15.95,385L16.09,382.73L16.22,380.46L16.67,385L16.91,382.73L17.23,378.18L17.34,382.73L17.38,385L17.39,382.73L17.84,385L18.18,382.73L18.54,385L19.12,382.73L19.12,385L19.61,385L19.93,385L20.25,385L20.34,378.18L20.81,385L21.15,382.73L21.28,369.1L22.16,385L22.39,382.73L22.73,385L23.29,378.18L23.49,385L24.23,380.46L24.57,382.73L24.82,385L25,385L25.03,382.73L25.3,382.73L25.88,385L26.15,385L26.48,382.73L27.5,385L28.37,385L29.14,385L29.32,382.73L29.67,382.73L29.79,385L30.18,382.73L30.22,385L30.74,385L31.74,382.73L32,382.73L32.29,382.73L32.81,385L34.16,385L34.62,382.73L34.65,385L35.46,382.73L36.07,385L36.54,382.73L36.7,385L38.05,385L38.26,382.73L39.99,385L40.15,385L41.07,382.73L41.41,385L42.4,385L42.42,382.73L42.89,385L43.5,385L43.79,382.73L45.55,385L54.84,385L55.5,382.73L57.61,385L58.33,385L63.35,385L63.76,382.73L69.94,385L74.85,385L82.41,385L84.78,382.73L95.33,382.73L96.23,385L111.97,385L127.07,382.73L145.7,385L215.18,385L219.3,385L732.41,382.73" style="vector-effect: none; fill: none; stroke: rgb(241, 92, 128); stroke-opacity: 1; stroke-width: 2px; opacity: 1;"/></g><g class="points"/><g class="text"/></g></g></g></g><path class="xlines-above crisp" d="M0,0" style="fill: none;"/><path class="ylines-above crisp" d="M0,0" style="fill: none;"/><g class="overlines-above"/><g class="xaxislayer-above"><g class="xtick"><text text-anchor="middle" x="0" y="451" transform="translate(173.85,0)" style="font-family: 'Lucida Grande', 'Open Sans', verdana, arial, sans-serif; font-size: 10px; fill: rgb(0, 0, 0); fill-opacity: 1; white-space: pre; opacity: 1;">5k</text></g><g class="xtick"><text text-anchor="middle" x="0" y="451" style="font-family: 'Lucida Grande', 'Open Sans', verdana, arial, sans-serif; font-size: 10px; fill: rgb(0, 0, 0); fill-opacity: 1; white-space: pre; opacity: 1;" transform="translate(286.39,0)">10k</text></g><g class="xtick"><text text-anchor="middle" x="0" y="451" style="font-family: 'Lucida Grande', 'Open Sans', verdana, arial, sans-serif; font-size: 10px; fill: rgb(0, 0, 0); fill-opacity: 1; white-space: pre; opacity: 1;" transform="translate(398.92,0)">15k</text></g><g class="xtick"><text text-anchor="middle" x="0" y="451" style="font-family: 'Lucida Grande', 'Open Sans', verdana, arial, sans-serif; font-size: 10px; fill: rgb(0, 0, 0); fill-opacity: 1; white-space: pre; opacity: 1;" transform="translate(511.46,0)">20k</text></g><g class="xtick"><text text-anchor="middle" x="0" y="451" style="font-family: 'Lucida Grande', 'Open Sans', verdana, arial, sans-serif; font-size: 10px; fill: rgb(0, 0, 0); fill-opacity: 1; white-space: pre; opacity: 1;" transform="translate(623.99,0)">25k</text></g><g class="xtick"><text text-anchor="middle" x="0" y="451" style="font-family: 'Lucida Grande', 'Open Sans', verdana, arial, sans-serif; font-size: 10px; fill: rgb(0, 0, 0); fill-opacity: 1; white-space: pre; opacity: 1;" transform="translate(736.53,0)">30k</text></g><g class="xtick"><text text-anchor="middle" x="0" y="451" style="font-family: 'Lucida Grande', 'Open Sans', verdana, arial, sans-serif; font-size: 10px; fill: rgb(0, 0, 0); fill-opacity: 1; white-space: pre; opacity: 1;" transform="translate(849.06,0)">35k</text></g><g class="xtick"><text text-anchor="middle" x="0" y="451" style="font-family: 'Lucida Grande', 'Open Sans', verdana, arial, sans-serif; font-size: 10px; fill: rgb(0, 0, 0); fill-opacity: 1; white-space: pre; opacity: 1;" transform="translate(961.6,0)">40k</text></g><g class="xtick"><text text-anchor="middle" x="0" y="451" style="font-family: 'Lucida Grande', 'Open Sans', verdana, arial, sans-serif; font-size: 10px; fill: rgb(0, 0, 0); fill-opacity: 1; white-space: pre; opacity: 1;" transform="translate(1074.13,0)">45k</text></g></g><g class="yaxislayer-above"><g class="ytick"><text text-anchor="end" x="56" y="3.5" transform="translate(0,435)" style="font-family: 'Lucida Grande', 'Open Sans', verdana, arial, sans-serif; font-size: 10px; fill: rgb(0, 0, 0); fill-opacity: 1; white-space: pre; opacity: 1;">0</text></g><g class="ytick"><text text-anchor="end" x="56" y="3.5" style="font-family: 'Lucida Grande', 'Open Sans', verdana, arial, sans-serif; font-size: 10px; fill: rgb(0, 0, 0); fill-opacity: 1; white-space: pre; opacity: 1;" transform="translate(0,389.57)">20</text></g><g class="ytick"><text text-anchor="end" x="56" y="3.5" style="font-family: 'Lucida Grande', 'Open Sans', verdana, arial, sans-serif; font-size: 10px; fill: rgb(0, 0, 0); fill-opacity: 1; white-space: pre; opacity: 1;" transform="translate(0,344.13)">40</text></g><g class="ytick"><text text-anchor="end" x="56" y="3.5" style="font-family: 'Lucida Grande', 'Open Sans', verdana, arial, sans-serif; font-size: 10px; fill: rgb(0, 0, 0); fill-opacity: 1; white-space: pre; opacity: 1;" transform="translate(0,298.7)">60</text></g><g class="ytick"><text text-anchor="end" x="56" y="3.5" style="font-family: 'Lucida Grande', 'Open Sans', verdana, arial, sans-serif; font-size: 10px; fill: rgb(0, 0, 0); fill-opacity: 1; white-space: pre; opacity: 1;" transform="translate(0,253.26)">80</text></g><g class="ytick"><text text-anchor="end" x="56" y="3.5" style="font-family: 'Lucida Grande', 'Open Sans', verdana, arial, sans-serif; font-size: 10px; fill: rgb(0, 0, 0); fill-opacity: 1; white-space: pre; opacity: 1;" transform="translate(0,207.83)">100</text></g><g class="ytick"><text text-anchor="end" x="56" y="3.5" style="font-family: 'Lucida Grande', 'Open Sans', verdana, arial, sans-serif; font-size: 10px; fill: rgb(0, 0, 0); fill-opacity: 1; white-space: pre; opacity: 1;" transform="translate(0,162.39)">120</text></g><g class="ytick"><text text-anchor="end" x="56" y="3.5" style="font-family: 'Lucida Grande', 'Open Sans', verdana, arial, sans-serif; font-size: 10px; fill: rgb(0, 0, 0); fill-opacity: 1; white-space: pre; opacity: 1;" transform="translate(0,116.96)">140</text></g><g class="ytick"><text text-anchor="end" x="56" y="3.5" style="font-family: 'Lucida Grande', 'Open Sans', verdana, arial, sans-serif; font-size: 10px; fill: rgb(0, 0, 0); fill-opacity: 1; white-space: pre; opacity: 1;" transform="translate(0,71.52)">160</text></g></g><g class="overaxes-above"/></g></g><g class="polarlayer"/><g class="smithlayer"/><g class="ternarylayer"/><g class="geolayer"/><g class="funnelarealayer"/><g class="pielayer"/><g class="iciclelayer"/><g class="treemaplayer"/><g class="sunburstlayer"/><g class="glimages"/><defs id="topdefs-f536b3"><g class="clips"/></defs><g class="layer-above"><g class="imagelayer"/><g class="shapelayer"/></g><g class="infolayer"><g class="g-gtitle"><text class="gtitle" x="550" y="25" text-anchor="middle" dy="0em" style="opacity: 1; font-family: 'Lucida Grande', 'Open Sans', verdana, arial, sans-serif; font-size: 20px; fill: rgb(42, 63, 95); fill-opacity: 1; white-space: pre;"><tspan class="line" dy="0em" x="550" y="25">Bcftools Stats: Variant Quality Count</tspan><tspan class="line" dy="1.3em" x="550" y="25">​<tspan style="font-size:70%" dy="-0.6em">Count Indels, 6 samples</tspan><tspan dy="0.42em">​</tspan></tspan></text></g><g class="g-xtitle"><text class="xtitle" x="573.5" y="472.3" text-anchor="middle" style="opacity: 0.3; font-family: 'Lucida Grande', 'Open Sans', verdana, arial, sans-serif; font-size: 14px; fill: rgb(0, 0, 0); fill-opacity: 1; white-space: pre;">Quality</text></g><g class="g-ytitle"><text class="ytitle" transform="rotate(-90,22.50625,242.5)" x="22.50625" y="242.5" text-anchor="middle" style="opacity: 0.3; font-family: 'Lucida Grande', 'Open Sans', verdana, arial, sans-serif; font-size: 14px; fill: rgb(0, 0, 0); fill-opacity: 1; white-space: pre;">Count</text></g></g></svg>