<svg class="main-svg" xmlns="http://www.w3.org/2000/svg" xmlns:xlink="http://www.w3.org/1999/xlink" width="2200" height="1000" style="" viewBox="0 0 1100 500"><rect x="0" y="0" width="1100" height="500" style="fill: rgb(255, 255, 255); fill-opacity: 1;"/><defs id="defs-98c45b"><g class="clips"><clipPath id="clip98c45bxyplot" class="plotclip"><rect width="1014" height="383"/></clipPath><clipPath class="axesclip" id="clip98c45bx"><rect x="71" y="0" width="1014" height="500"/></clipPath><clipPath class="axesclip" id="clip98c45by"><rect x="0" y="50" width="1100" height="383"/></clipPath><clipPath class="axesclip" id="clip98c45bxy"><rect x="71" y="50" width="1014" height="383"/></clipPath></g><g class="gradients"/><g class="patterns"/></defs><g class="bglayer"/><g class="layer-below"><g class="imagelayer"/><g class="shapelayer"/></g><g class="cartesianlayer"><g class="subplot xy"><g class="layer-subplot"><g class="shapelayer"/><g class="imagelayer"/></g><g class="minor-gridlayer"><g class="x"/><g class="y"/></g><g class="gridlayer"><g class="x"><path class="xgrid crisp" transform="translate(83.44,0)" d="M0,50v383" style="stroke: rgb(0, 0, 0); stroke-opacity: 0.05; stroke-width: 1px;"/><path class="xgrid crisp" transform="translate(95.88,0)" d="M0,50v383" style="stroke: rgb(0, 0, 0); stroke-opacity: 0.05; stroke-width: 1px;"/><path class="xgrid crisp" transform="translate(108.33,0)" d="M0,50v383" style="stroke: rgb(0, 0, 0); stroke-opacity: 0.05; stroke-width: 1px;"/><path class="xgrid crisp" transform="translate(120.77000000000001,0)" d="M0,50v383" style="stroke: rgb(0, 0, 0); stroke-opacity: 0.05; stroke-width: 1px;"/><path class="xgrid crisp" transform="translate(133.21,0)" d="M0,50v383" style="stroke: rgb(0, 0, 0); stroke-opacity: 0.05; stroke-width: 1px;"/><path class="xgrid crisp" transform="translate(145.65,0)" d="M0,50v383" style="stroke: rgb(0, 0, 0); stroke-opacity: 0.05; stroke-width: 1px;"/><path class="xgrid crisp" transform="translate(158.09,0)" d="M0,50v383" style="stroke: rgb(0, 0, 0); stroke-opacity: 0.05; stroke-width: 1px;"/><path class="xgrid crisp" transform="translate(170.53,0)" d="M0,50v383" style="stroke: rgb(0, 0, 0); stroke-opacity: 0.05; stroke-width: 1px;"/><path class="xgrid crisp" transform="translate(182.98000000000002,0)" d="M0,50v383" style="stroke: rgb(0, 0, 0); stroke-opacity: 0.05; stroke-width: 1px;"/><path class="xgrid crisp" transform="translate(195.42000000000002,0)" d="M0,50v383" style="stroke: rgb(0, 0, 0); stroke-opacity: 0.05; stroke-width: 1px;"/><path class="xgrid crisp" transform="translate(207.86,0)" d="M0,50v383" style="stroke: rgb(0, 0, 0); stroke-opacity: 0.05; stroke-width: 1px;"/><path class="xgrid crisp" transform="translate(220.3,0)" d="M0,50v383" style="stroke: rgb(0, 0, 0); stroke-opacity: 0.05; stroke-width: 1px;"/><path class="xgrid crisp" transform="translate(232.74,0)" d="M0,50v383" style="stroke: rgb(0, 0, 0); stroke-opacity: 0.05; stroke-width: 1px;"/><path class="xgrid crisp" transform="translate(245.18,0)" d="M0,50v383" style="stroke: rgb(0, 0, 0); stroke-opacity: 0.05; stroke-width: 1px;"/><path class="xgrid crisp" transform="translate(257.63,0)" d="M0,50v383" style="stroke: rgb(0, 0, 0); stroke-opacity: 0.05; stroke-width: 1px;"/><path class="xgrid crisp" transform="translate(270.07,0)" d="M0,50v383" style="stroke: rgb(0, 0, 0); stroke-opacity: 0.05; stroke-width: 1px;"/><path class="xgrid crisp" transform="translate(282.51,0)" d="M0,50v383" style="stroke: rgb(0, 0, 0); stroke-opacity: 0.05; stroke-width: 1px;"/><path class="xgrid crisp" transform="translate(294.95,0)" d="M0,50v383" style="stroke: rgb(0, 0, 0); stroke-opacity: 0.05; stroke-width: 1px;"/><path class="xgrid crisp" transform="translate(307.39,0)" d="M0,50v383" style="stroke: rgb(0, 0, 0); stroke-opacity: 0.05; stroke-width: 1px;"/><path class="xgrid crisp" transform="translate(319.83000000000004,0)" d="M0,50v383" style="stroke: rgb(0, 0, 0); stroke-opacity: 0.05; stroke-width: 1px;"/><path class="xgrid crisp" transform="translate(332.28,0)" d="M0,50v383" style="stroke: rgb(0, 0, 0); stroke-opacity: 0.05; stroke-width: 1px;"/><path class="xgrid crisp" transform="translate(344.72,0)" d="M0,50v383" style="stroke: rgb(0, 0, 0); stroke-opacity: 0.05; stroke-width: 1px;"/><path class="xgrid crisp" transform="translate(357.16,0)" d="M0,50v383" style="stroke: rgb(0, 0, 0); stroke-opacity: 0.05; stroke-width: 1px;"/><path class="xgrid crisp" transform="translate(369.6,0)" d="M0,50v383" style="stroke: rgb(0, 0, 0); stroke-opacity: 0.05; stroke-width: 1px;"/><path class="xgrid crisp" transform="translate(382.04,0)" d="M0,50v383" style="stroke: rgb(0, 0, 0); stroke-opacity: 0.05; stroke-width: 1px;"/><path class="xgrid crisp" transform="translate(394.48,0)" d="M0,50v383" style="stroke: rgb(0, 0, 0); stroke-opacity: 0.05; stroke-width: 1px;"/><path class="xgrid crisp" transform="translate(406.93,0)" d="M0,50v383" style="stroke: rgb(0, 0, 0); stroke-opacity: 0.05; stroke-width: 1px;"/><path class="xgrid crisp" transform="translate(419.37,0)" d="M0,50v383" style="stroke: rgb(0, 0, 0); stroke-opacity: 0.05; stroke-width: 1px;"/><path class="xgrid crisp" transform="translate(431.81,0)" d="M0,50v383" style="stroke: rgb(0, 0, 0); stroke-opacity: 0.05; stroke-width: 1px;"/><path class="xgrid crisp" transform="translate(444.25,0)" d="M0,50v383" style="stroke: rgb(0, 0, 0); stroke-opacity: 0.05; stroke-width: 1px;"/><path class="xgrid crisp" transform="translate(456.69,0)" d="M0,50v383" style="stroke: rgb(0, 0, 0); stroke-opacity: 0.05; stroke-width: 1px;"/><path class="xgrid crisp" transform="translate(469.13,0)" d="M0,50v383" style="stroke: rgb(0, 0, 0); stroke-opacity: 0.05; stroke-width: 1px;"/><path class="xgrid crisp" transform="translate(481.58,0)" d="M0,50v383" style="stroke: rgb(0, 0, 0); stroke-opacity: 0.05; stroke-width: 1px;"/><path class="xgrid crisp" transform="translate(494.02,0)" d="M0,50v383" style="stroke: rgb(0, 0, 0); stroke-opacity: 0.05; stroke-width: 1px;"/><path class="xgrid crisp" transform="translate(506.46,0)" d="M0,50v383" style="stroke: rgb(0, 0, 0); stroke-opacity: 0.05; stroke-width: 1px;"/><path class="xgrid crisp" transform="translate(518.9,0)" d="M0,50v383" style="stroke: rgb(0, 0, 0); stroke-opacity: 0.05; stroke-width: 1px;"/><path class="xgrid crisp" transform="translate(531.3399999999999,0)" d="M0,50v383" style="stroke: rgb(0, 0, 0); stroke-opacity: 0.05; stroke-width: 1px;"/><path class="xgrid crisp" transform="translate(543.79,0)" d="M0,50v383" style="stroke: rgb(0, 0, 0); stroke-opacity: 0.05; stroke-width: 1px;"/><path class="xgrid crisp" transform="translate(556.23,0)" d="M0,50v383" style="stroke: rgb(0, 0, 0); stroke-opacity: 0.05; stroke-width: 1px;"/><path class="xgrid crisp" transform="translate(568.6700000000001,0)" d="M0,50v383" style="stroke: rgb(0, 0, 0); stroke-opacity: 0.05; stroke-width: 1px;"/><path class="xgrid crisp" transform="translate(581.11,0)" d="M0,50v383" style="stroke: rgb(0, 0, 0); stroke-opacity: 0.05; stroke-width: 1px;"/><path class="xgrid crisp" transform="translate(593.55,0)" d="M0,50v383" style="stroke: rgb(0, 0, 0); stroke-opacity: 0.05; stroke-width: 1px;"/><path class="xgrid crisp" transform="translate(605.99,0)" d="M0,50v383" style="stroke: rgb(0, 0, 0); stroke-opacity: 0.05; stroke-width: 1px;"/><path class="xgrid crisp" transform="translate(618.44,0)" d="M0,50v383" style="stroke: rgb(0, 0, 0); stroke-opacity: 0.05; stroke-width: 1px;"/><path class="xgrid crisp" transform="translate(630.88,0)" d="M0,50v383" style="stroke: rgb(0, 0, 0); stroke-opacity: 0.05; stroke-width: 1px;"/><path class="xgrid crisp" transform="translate(643.32,0)" d="M0,50v383" style="stroke: rgb(0, 0, 0); stroke-opacity: 0.05; stroke-width: 1px;"/><path class="xgrid crisp" transform="translate(655.76,0)" d="M0,50v383" style="stroke: rgb(0, 0, 0); stroke-opacity: 0.05; stroke-width: 1px;"/><path class="xgrid crisp" transform="translate(668.2,0)" d="M0,50v383" style="stroke: rgb(0, 0, 0); stroke-opacity: 0.05; stroke-width: 1px;"/><path class="xgrid crisp" transform="translate(680.64,0)" d="M0,50v383" style="stroke: rgb(0, 0, 0); stroke-opacity: 0.05; stroke-width: 1px;"/><path class="xgrid crisp" transform="translate(693.09,0)" d="M0,50v383" style="stroke: rgb(0, 0, 0); stroke-opacity: 0.05; stroke-width: 1px;"/><path class="xgrid crisp" transform="translate(705.53,0)" d="M0,50v383" style="stroke: rgb(0, 0, 0); stroke-opacity: 0.05; stroke-width: 1px;"/><path class="xgrid crisp" transform="translate(717.97,0)" d="M0,50v383" style="stroke: rgb(0, 0, 0); stroke-opacity: 0.05; stroke-width: 1px;"/><path class="xgrid crisp" transform="translate(730.41,0)" d="M0,50v383" style="stroke: rgb(0, 0, 0); stroke-opacity: 0.05; stroke-width: 1px;"/><path class="xgrid crisp" transform="translate(742.85,0)" d="M0,50v383" style="stroke: rgb(0, 0, 0); stroke-opacity: 0.05; stroke-width: 1px;"/><path class="xgrid crisp" transform="translate(755.29,0)" d="M0,50v383" style="stroke: rgb(0, 0, 0); stroke-opacity: 0.05; stroke-width: 1px;"/><path class="xgrid crisp" transform="translate(767.74,0)" d="M0,50v383" style="stroke: rgb(0, 0, 0); stroke-opacity: 0.05; stroke-width: 1px;"/><path class="xgrid crisp" transform="translate(780.18,0)" d="M0,50v383" style="stroke: rgb(0, 0, 0); stroke-opacity: 0.05; stroke-width: 1px;"/><path class="xgrid crisp" transform="translate(792.62,0)" d="M0,50v383" style="stroke: rgb(0, 0, 0); stroke-opacity: 0.05; stroke-width: 1px;"/><path class="xgrid crisp" transform="translate(805.06,0)" d="M0,50v383" style="stroke: rgb(0, 0, 0); stroke-opacity: 0.05; stroke-width: 1px;"/><path class="xgrid crisp" transform="translate(817.5,0)" d="M0,50v383" style="stroke: rgb(0, 0, 0); stroke-opacity: 0.05; stroke-width: 1px;"/><path class="xgrid crisp" transform="translate(829.94,0)" d="M0,50v383" style="stroke: rgb(0, 0, 0); stroke-opacity: 0.05; stroke-width: 1px;"/><path class="xgrid crisp" transform="translate(842.39,0)" d="M0,50v383" style="stroke: rgb(0, 0, 0); stroke-opacity: 0.05; stroke-width: 1px;"/><path class="xgrid crisp" transform="translate(854.83,0)" d="M0,50v383" style="stroke: rgb(0, 0, 0); stroke-opacity: 0.05; stroke-width: 1px;"/><path class="xgrid crisp" transform="translate(867.27,0)" d="M0,50v383" style="stroke: rgb(0, 0, 0); stroke-opacity: 0.05; stroke-width: 1px;"/><path class="xgrid crisp" transform="translate(879.71,0)" d="M0,50v383" style="stroke: rgb(0, 0, 0); stroke-opacity: 0.05; stroke-width: 1px;"/><path class="xgrid crisp" transform="translate(892.15,0)" d="M0,50v383" style="stroke: rgb(0, 0, 0); stroke-opacity: 0.05; stroke-width: 1px;"/><path class="xgrid crisp" transform="translate(904.6,0)" d="M0,50v383" style="stroke: rgb(0, 0, 0); stroke-opacity: 0.05; stroke-width: 1px;"/><path class="xgrid crisp" transform="translate(917.04,0)" d="M0,50v383" style="stroke: rgb(0, 0, 0); stroke-opacity: 0.05; stroke-width: 1px;"/><path class="xgrid crisp" transform="translate(929.48,0)" d="M0,50v383" style="stroke: rgb(0, 0, 0); stroke-opacity: 0.05; stroke-width: 1px;"/><path class="xgrid crisp" transform="translate(941.92,0)" d="M0,50v383" style="stroke: rgb(0, 0, 0); stroke-opacity: 0.05; stroke-width: 1px;"/><path class="xgrid crisp" transform="translate(954.36,0)" d="M0,50v383" style="stroke: rgb(0, 0, 0); stroke-opacity: 0.05; stroke-width: 1px;"/><path class="xgrid crisp" transform="translate(966.8,0)" d="M0,50v383" style="stroke: rgb(0, 0, 0); stroke-opacity: 0.05; stroke-width: 1px;"/><path class="xgrid crisp" transform="translate(979.25,0)" d="M0,50v383" style="stroke: rgb(0, 0, 0); stroke-opacity: 0.05; stroke-width: 1px;"/><path class="xgrid crisp" transform="translate(991.69,0)" d="M0,50v383" style="stroke: rgb(0, 0, 0); stroke-opacity: 0.05; stroke-width: 1px;"/><path class="xgrid crisp" transform="translate(1004.13,0)" d="M0,50v383" style="stroke: rgb(0, 0, 0); stroke-opacity: 0.05; stroke-width: 1px;"/><path class="xgrid crisp" transform="translate(1016.57,0)" d="M0,50v383" style="stroke: rgb(0, 0, 0); stroke-opacity: 0.05; stroke-width: 1px;"/><path class="xgrid crisp" transform="translate(1029.01,0)" d="M0,50v383" style="stroke: rgb(0, 0, 0); stroke-opacity: 0.05; stroke-width: 1px;"/><path class="xgrid crisp" transform="translate(1041.45,0)" d="M0,50v383" style="stroke: rgb(0, 0, 0); stroke-opacity: 0.05; stroke-width: 1px;"/><path class="xgrid crisp" transform="translate(1053.9,0)" d="M0,50v383" style="stroke: rgb(0, 0, 0); stroke-opacity: 0.05; stroke-width: 1px;"/><path class="xgrid crisp" transform="translate(1066.3400000000001,0)" d="M0,50v383" style="stroke: rgb(0, 0, 0); stroke-opacity: 0.05; stroke-width: 1px;"/><path class="xgrid crisp" transform="translate(1078.78,0)" d="M0,50v383" style="stroke: rgb(0, 0, 0); stroke-opacity: 0.05; stroke-width: 1px;"/></g><g class="y"><path class="ygrid crisp" transform="translate(0,356.4)" d="M71,0h1014" style="stroke: rgb(0, 0, 0); stroke-opacity: 0.05; stroke-width: 1px;"/><path class="ygrid crisp" transform="translate(0,279.8)" d="M71,0h1014" style="stroke: rgb(0, 0, 0); stroke-opacity: 0.05; stroke-width: 1px;"/><path class="ygrid crisp" transform="translate(0,203.2)" d="M71,0h1014" style="stroke: rgb(0, 0, 0); stroke-opacity: 0.05; stroke-width: 1px;"/><path class="ygrid crisp" transform="translate(0,126.6)" d="M71,0h1014" style="stroke: rgb(0, 0, 0); stroke-opacity: 0.05; stroke-width: 1px;"/></g></g><g class="zerolinelayer"><path class="yzl zl crisp" transform="translate(0,433)" d="M71,0h1014" style="stroke: rgb(0, 0, 0); stroke-opacity: 0.05; stroke-width: 2px;"/></g><g class="layer-between"><g class="shapelayer"/><g class="imagelayer"/></g><path class="xlines-below"/><path class="ylines-below"/><g class="overlines-below"/><g class="xaxislayer-below"/><g class="yaxislayer-below"/><g class="overaxes-below"/><g class="overplot"><g class="xy" transform="translate(71,50)" clip-path="url(#clip98c45bxyplot)"><g class="scatterlayer mlayer"><g class="trace scatter tracebea2ae" style="stroke-miterlimit: 2; opacity: 1;"><g class="fills"/><g class="errorbars"/><g class="lines"><path class="js-line" d="M0,354.64L6.22,253.7L12.44,329.32L18.66,354.53L24.88,360.48L37.33,370.16L43.55,367.83L55.99,376.11L62.21,376.7L74.65,378.68L80.87,377.63L87.09,380.67L93.31,379.38L130.64,381.48L136.86,381.83L149.3,382.18L155.52,382.07L167.96,382.18L174.18,381.72L186.63,382.65L192.85,382.53L242.61,383L248.83,382.65L255.06,383L261.28,382.53L273.72,382.88L279.94,382.88L286.16,382.3L292.38,382.65L342.15,383L348.37,383L385.69,383L391.91,383L1014,383" style="vector-effect: none; fill: none; stroke: rgb(124, 181, 236); stroke-opacity: 1; stroke-width: 2px; opacity: 1;"/></g><g class="points"/><g class="text"/></g><g class="trace scatter tracee824f6" style="stroke-miterlimit: 2; opacity: 1;"><g class="fills"/><g class="errorbars"/><g class="lines"><path class="js-line" d="M0,364.72L6.22,248.69L12.44,335.92L18.66,351.03L24.88,360.33L31.1,367.78L37.33,365.43L43.55,371.46L49.77,372.28L55.99,375.75L62.21,375.54L68.43,375.44L74.65,377.28L111.98,381.26L118.2,380.65L130.64,382.18L136.86,381.77L143.08,381.37L149.3,381.88L161.74,381.77L167.96,382.18L174.18,381.57L180.4,382.49L186.63,381.77L192.85,382.29L217.73,382.39L223.95,382.49L1014,383" style="vector-effect: none; fill: none; stroke: rgb(67, 67, 72); stroke-opacity: 1; stroke-width: 2px; opacity: 1;"/></g><g class="points"/><g class="text"/></g><g class="trace scatter trace112d50" style="stroke-miterlimit: 2; opacity: 1;"><g class="fills"/><g class="errorbars"/><g class="lines"><path class="js-line" d="M0,358.92L6.22,249.77L12.44,332.7L18.66,352.39L24.88,363.2L31.1,366.41L37.33,367.06L43.55,371.01L49.77,373.05L55.99,375.62L62.21,375.62L74.65,376.04L80.87,379.68L87.09,377.54L93.31,379.68L99.53,380.11L105.75,381.39L111.98,380.65L118.2,380.86L124.42,381.29L130.64,380.65L143.08,381.39L149.3,382.79L155.52,381.29L161.74,382.14L186.63,382.68L192.85,382.57L199.07,382.04L205.29,382.46L217.73,382.46L223.95,382.36L236.39,382.89L242.61,382.79L1014,383" style="vector-effect: none; fill: none; stroke: rgb(144, 237, 125); stroke-opacity: 1; stroke-width: 2px; opacity: 1;"/></g><g class="points"/><g class="text"/></g><g class="trace scatter trace26e603" style="stroke-miterlimit: 2; opacity: 1;"><g class="fills"/><g class="errorbars"/><g class="lines"><path class="js-line" d="M0,366L6.22,272.43L12.44,332.3L18.66,351.78L24.88,364.67L31.1,363.52L37.33,368.77L49.77,371.54L55.99,374.88L68.43,376.7L74.65,378.61L80.87,377.65L87.09,377.94L93.31,379.37L99.53,378.99L136.86,381.19L143.08,381.28L167.96,381.57L174.18,381.95L180.4,381.09L186.63,382.14L199.07,382.43L205.29,382.33L223.95,382.05L230.17,382.05L236.39,382.52L242.61,382.14L248.83,382.71L255.06,382.33L273.72,382.71L279.94,382.52L298.6,382.9L304.82,382.52L323.48,382.62L329.71,382.52L348.37,382.81L354.59,382.62L1014,382.81" style="vector-effect: none; fill: none; stroke: rgb(247, 163, 92); stroke-opacity: 1; stroke-width: 2px; opacity: 1;"/></g><g class="points"/><g class="text"/></g><g class="trace scatter trace2c1c5f" style="stroke-miterlimit: 2; opacity: 1;"><g class="fills"/><g class="errorbars"/><g class="lines"><path class="js-line" d="M0,364.06L6.22,237.68L12.44,333.88L18.66,353.94L24.88,363.46L31.1,367.51L37.33,368.52L43.55,375L49.77,374.29L55.99,375.2L62.21,377.13L68.43,376.52L74.65,377.13L93.31,381.08L99.53,380.77L105.75,379.56L111.98,380.67L118.2,381.58L124.42,381.38L130.64,380.77L136.86,381.48L143.08,382.39L149.3,380.87L161.74,382.29L167.96,382.09L236.39,382.7L242.61,382.49L255.06,382.8L261.28,382.8L354.59,382.8L360.81,383L404.36,382.9L410.58,383L454.12,382.8L460.34,382.9L1014,382.9" style="vector-effect: none; fill: none; stroke: rgb(128, 133, 233); stroke-opacity: 1; stroke-width: 2px; opacity: 1;"/></g><g class="points"/><g class="text"/></g><g class="trace scatter traced257ed" style="stroke-miterlimit: 2; opacity: 1;"><g class="fills"/><g class="errorbars"/><g class="lines"><path class="js-line" d="M0,361.76L6.22,258.87L12.44,331.85L18.66,355.13L24.88,361.18L31.1,367.22L37.33,370.53L49.77,372.38L55.99,375.4L62.21,374.33L68.43,375.69L74.65,379.4L80.87,377.64L87.09,379.59L93.31,378.62L99.53,380.08L105.75,379.78L111.98,380.66L118.2,380.47L130.64,380.76L136.86,381.05L143.08,381.83L149.3,381.34L155.52,381.83L161.74,381.25L174.18,382.42L180.4,382.51L211.51,381.83L217.73,382.71L236.39,382.03L242.61,382.42L267.5,382.61L273.72,382.61L304.82,382.9L311.04,382.51L1014,382.9" style="vector-effect: none; fill: none; stroke: rgb(241, 92, 128); stroke-opacity: 1; stroke-width: 2px; opacity: 1;"/></g><g class="points"/><g class="text"/></g></g></g></g><path class="xlines-above crisp" d="M0,0" style="fill: none;"/><path class="ylines-above crisp" d="M0,0" style="fill: none;"/><g class="overlines-above"/><g class="xaxislayer-above"><g class="xtick"><text text-anchor="start" x="0" y="449" transform="translate(71,0) rotate(90,0,444)" style="font-family: 'Lucida Grande', 'Open Sans', verdana, arial, sans-serif; font-size: 10px; fill: rgb(0, 0, 0); fill-opacity: 1; white-space: pre; opacity: 1;">1</text></g><g class="xtick"><text text-anchor="start" x="0" y="449" transform="translate(83.44,0) rotate(90,0,444)" style="font-family: 'Lucida Grande', 'Open Sans', verdana, arial, sans-serif; font-size: 10px; fill: rgb(0, 0, 0); fill-opacity: 1; white-space: pre; opacity: 1;">3</text></g><g class="xtick"><text text-anchor="start" x="0" y="449" transform="translate(95.88,0) rotate(90,0,444)" style="font-family: 'Lucida Grande', 'Open Sans', verdana, arial, sans-serif; font-size: 10px; fill: rgb(0, 0, 0); fill-opacity: 1; white-space: pre; opacity: 1;">5</text></g><g class="xtick"><text text-anchor="start" x="0" y="449" transform="translate(108.33,0) rotate(90,0,444)" style="font-family: 'Lucida Grande', 'Open Sans', verdana, arial, sans-serif; font-size: 10px; fill: rgb(0, 0, 0); fill-opacity: 1; white-space: pre; opacity: 1;">7</text></g><g class="xtick"><text text-anchor="start" x="0" y="449" transform="translate(120.77000000000001,0) rotate(90,0,444)" style="font-family: 'Lucida Grande', 'Open Sans', verdana, arial, sans-serif; font-size: 10px; fill: rgb(0, 0, 0); fill-opacity: 1; white-space: pre; opacity: 1;">9</text></g><g class="xtick"><text text-anchor="start" x="0" y="449" transform="translate(133.21,0) rotate(90,0,444)" style="font-family: 'Lucida Grande', 'Open Sans', verdana, arial, sans-serif; font-size: 10px; fill: rgb(0, 0, 0); fill-opacity: 1; white-space: pre; opacity: 1;">11</text></g><g class="xtick"><text text-anchor="start" x="0" y="449" transform="translate(145.65,0) rotate(90,0,444)" style="font-family: 'Lucida Grande', 'Open Sans', verdana, arial, sans-serif; font-size: 10px; fill: rgb(0, 0, 0); fill-opacity: 1; white-space: pre; opacity: 1;">13</text></g><g class="xtick"><text text-anchor="start" x="0" y="449" transform="translate(158.09,0) rotate(90,0,444)" style="font-family: 'Lucida Grande', 'Open Sans', verdana, arial, sans-serif; font-size: 10px; fill: rgb(0, 0, 0); fill-opacity: 1; white-space: pre; opacity: 1;">15</text></g><g class="xtick"><text text-anchor="start" x="0" y="449" transform="translate(170.53,0) rotate(90,0,444)" style="font-family: 'Lucida Grande', 'Open Sans', verdana, arial, sans-serif; font-size: 10px; fill: rgb(0, 0, 0); fill-opacity: 1; white-space: pre; opacity: 1;">17</text></g><g class="xtick"><text text-anchor="start" x="0" y="449" transform="translate(182.98000000000002,0) rotate(90,0,444)" style="font-family: 'Lucida Grande', 'Open Sans', verdana, arial, sans-serif; font-size: 10px; fill: rgb(0, 0, 0); fill-opacity: 1; white-space: pre; opacity: 1;">19</text></g><g class="xtick"><text text-anchor="start" x="0" y="449" transform="translate(195.42000000000002,0) rotate(90,0,444)" style="font-family: 'Lucida Grande', 'Open Sans', verdana, arial, sans-serif; font-size: 10px; fill: rgb(0, 0, 0); fill-opacity: 1; white-space: pre; opacity: 1;">21</text></g><g class="xtick"><text text-anchor="start" x="0" y="449" transform="translate(207.86,0) rotate(90,0,444)" style="font-family: 'Lucida Grande', 'Open Sans', verdana, arial, sans-serif; font-size: 10px; fill: rgb(0, 0, 0); fill-opacity: 1; white-space: pre; opacity: 1;">23</text></g><g class="xtick"><text text-anchor="start" x="0" y="449" transform="translate(220.3,0) rotate(90,0,444)" style="font-family: 'Lucida Grande', 'Open Sans', verdana, arial, sans-serif; font-size: 10px; fill: rgb(0, 0, 0); fill-opacity: 1; white-space: pre; opacity: 1;">25</text></g><g class="xtick"><text text-anchor="start" x="0" y="449" transform="translate(232.74,0) rotate(90,0,444)" style="font-family: 'Lucida Grande', 'Open Sans', verdana, arial, sans-serif; font-size: 10px; fill: rgb(0, 0, 0); fill-opacity: 1; white-space: pre; opacity: 1;">27</text></g><g class="xtick"><text text-anchor="start" x="0" y="449" transform="translate(245.18,0) rotate(90,0,444)" style="font-family: 'Lucida Grande', 'Open Sans', verdana, arial, sans-serif; font-size: 10px; fill: rgb(0, 0, 0); fill-opacity: 1; white-space: pre; opacity: 1;">29</text></g><g class="xtick"><text text-anchor="start" x="0" y="449" transform="translate(257.63,0) rotate(90,0,444)" style="font-family: 'Lucida Grande', 'Open Sans', verdana, arial, sans-serif; font-size: 10px; fill: rgb(0, 0, 0); fill-opacity: 1; white-space: pre; opacity: 1;">31</text></g><g class="xtick"><text text-anchor="start" x="0" y="449" transform="translate(270.07,0) rotate(90,0,444)" style="font-family: 'Lucida Grande', 'Open Sans', verdana, arial, sans-serif; font-size: 10px; fill: rgb(0, 0, 0); fill-opacity: 1; white-space: pre; opacity: 1;">33</text></g><g class="xtick"><text text-anchor="start" x="0" y="449" transform="translate(282.51,0) rotate(90,0,444)" style="font-family: 'Lucida Grande', 'Open Sans', verdana, arial, sans-serif; font-size: 10px; fill: rgb(0, 0, 0); fill-opacity: 1; white-space: pre; opacity: 1;">35</text></g><g class="xtick"><text text-anchor="start" x="0" y="449" transform="translate(294.95,0) rotate(90,0,444)" style="font-family: 'Lucida Grande', 'Open Sans', verdana, arial, sans-serif; font-size: 10px; fill: rgb(0, 0, 0); fill-opacity: 1; white-space: pre; opacity: 1;">37</text></g><g class="xtick"><text text-anchor="start" x="0" y="449" transform="translate(307.39,0) rotate(90,0,444)" style="font-family: 'Lucida Grande', 'Open Sans', verdana, arial, sans-serif; font-size: 10px; fill: rgb(0, 0, 0); fill-opacity: 1; white-space: pre; opacity: 1;">39</text></g><g class="xtick"><text text-anchor="start" x="0" y="449" transform="translate(319.83000000000004,0) rotate(90,0,444)" style="font-family: 'Lucida Grande', 'Open Sans', verdana, arial, sans-serif; font-size: 10px; fill: rgb(0, 0, 0); fill-opacity: 1; white-space: pre; opacity: 1;">41</text></g><g class="xtick"><text text-anchor="start" x="0" y="449" transform="translate(332.28,0) rotate(90,0,444)" style="font-family: 'Lucida Grande', 'Open Sans', verdana, arial, sans-serif; font-size: 10px; fill: rgb(0, 0, 0); fill-opacity: 1; white-space: pre; opacity: 1;">43</text></g><g class="xtick"><text text-anchor="start" x="0" y="449" transform="translate(344.72,0) rotate(90,0,444)" style="font-family: 'Lucida Grande', 'Open Sans', verdana, arial, sans-serif; font-size: 10px; fill: rgb(0, 0, 0); fill-opacity: 1; white-space: pre; opacity: 1;">45</text></g><g class="xtick"><text text-anchor="start" x="0" y="449" transform="translate(357.16,0) rotate(90,0,444)" style="font-family: 'Lucida Grande', 'Open Sans', verdana, arial, sans-serif; font-size: 10px; fill: rgb(0, 0, 0); fill-opacity: 1; white-space: pre; opacity: 1;">47</text></g><g class="xtick"><text text-anchor="start" x="0" y="449" transform="translate(369.6,0) rotate(90,0,444)" style="font-family: 'Lucida Grande', 'Open Sans', verdana, arial, sans-serif; font-size: 10px; fill: rgb(0, 0, 0); fill-opacity: 1; white-space: pre; opacity: 1;">49</text></g><g class="xtick"><text text-anchor="start" x="0" y="449" transform="translate(382.04,0) rotate(90,0,444)" style="font-family: 'Lucida Grande', 'Open Sans', verdana, arial, sans-serif; font-size: 10px; fill: rgb(0, 0, 0); fill-opacity: 1; white-space: pre; opacity: 1;">51</text></g><g class="xtick"><text text-anchor="start" x="0" y="449" transform="translate(394.48,0) rotate(90,0,444)" style="font-family: 'Lucida Grande', 'Open Sans', verdana, arial, sans-serif; font-size: 10px; fill: rgb(0, 0, 0); fill-opacity: 1; white-space: pre; opacity: 1;">53</text></g><g class="xtick"><text text-anchor="start" x="0" y="449" transform="translate(406.93,0) rotate(90,0,444)" style="font-family: 'Lucida Grande', 'Open Sans', verdana, arial, sans-serif; font-size: 10px; fill: rgb(0, 0, 0); fill-opacity: 1; white-space: pre; opacity: 1;">55</text></g><g class="xtick"><text text-anchor="start" x="0" y="449" transform="translate(419.37,0) rotate(90,0,444)" style="font-family: 'Lucida Grande', 'Open Sans', verdana, arial, sans-serif; font-size: 10px; fill: rgb(0, 0, 0); fill-opacity: 1; white-space: pre; opacity: 1;">57</text></g><g class="xtick"><text text-anchor="start" x="0" y="449" transform="translate(431.81,0) rotate(90,0,444)" style="font-family: 'Lucida Grande', 'Open Sans', verdana, arial, sans-serif; font-size: 10px; fill: rgb(0, 0, 0); fill-opacity: 1; white-space: pre; opacity: 1;">59</text></g><g class="xtick"><text text-anchor="start" x="0" y="449" transform="translate(444.25,0) rotate(90,0,444)" style="font-family: 'Lucida Grande', 'Open Sans', verdana, arial, sans-serif; font-size: 10px; fill: rgb(0, 0, 0); fill-opacity: 1; white-space: pre; opacity: 1;">61</text></g><g class="xtick"><text text-anchor="start" x="0" y="449" transform="translate(456.69,0) rotate(90,0,444)" style="font-family: 'Lucida Grande', 'Open Sans', verdana, arial, sans-serif; font-size: 10px; fill: rgb(0, 0, 0); fill-opacity: 1; white-space: pre; opacity: 1;">63</text></g><g class="xtick"><text text-anchor="start" x="0" y="449" transform="translate(469.13,0) rotate(90,0,444)" style="font-family: 'Lucida Grande', 'Open Sans', verdana, arial, sans-serif; font-size: 10px; fill: rgb(0, 0, 0); fill-opacity: 1; white-space: pre; opacity: 1;">65</text></g><g class="xtick"><text text-anchor="start" x="0" y="449" transform="translate(481.58,0) rotate(90,0,444)" style="font-family: 'Lucida Grande', 'Open Sans', verdana, arial, sans-serif; font-size: 10px; fill: rgb(0, 0, 0); fill-opacity: 1; white-space: pre; opacity: 1;">67</text></g><g class="xtick"><text text-anchor="start" x="0" y="449" transform="translate(494.02,0) rotate(90,0,444)" style="font-family: 'Lucida Grande', 'Open Sans', verdana, arial, sans-serif; font-size: 10px; fill: rgb(0, 0, 0); fill-opacity: 1; white-space: pre; opacity: 1;">69</text></g><g class="xtick"><text text-anchor="start" x="0" y="449" transform="translate(506.46,0) rotate(90,0,444)" style="font-family: 'Lucida Grande', 'Open Sans', verdana, arial, sans-serif; font-size: 10px; fill: rgb(0, 0, 0); fill-opacity: 1; white-space: pre; opacity: 1;">71</text></g><g class="xtick"><text text-anchor="start" x="0" y="449" transform="translate(518.9,0) rotate(90,0,444)" style="font-family: 'Lucida Grande', 'Open Sans', verdana, arial, sans-serif; font-size: 10px; fill: rgb(0, 0, 0); fill-opacity: 1; white-space: pre; opacity: 1;">73</text></g><g class="xtick"><text text-anchor="start" x="0" y="449" transform="translate(531.3399999999999,0) rotate(90,0,444)" style="font-family: 'Lucida Grande', 'Open Sans', verdana, arial, sans-serif; font-size: 10px; fill: rgb(0, 0, 0); fill-opacity: 1; white-space: pre; opacity: 1;">75</text></g><g class="xtick"><text text-anchor="start" x="0" y="449" transform="translate(543.79,0) rotate(90,0,444)" style="font-family: 'Lucida Grande', 'Open Sans', verdana, arial, sans-serif; font-size: 10px; fill: rgb(0, 0, 0); fill-opacity: 1; white-space: pre; opacity: 1;">77</text></g><g class="xtick"><text text-anchor="start" x="0" y="449" transform="translate(556.23,0) rotate(90,0,444)" style="font-family: 'Lucida Grande', 'Open Sans', verdana, arial, sans-serif; font-size: 10px; fill: rgb(0, 0, 0); fill-opacity: 1; white-space: pre; opacity: 1;">79</text></g><g class="xtick"><text text-anchor="start" x="0" y="449" transform="translate(568.6700000000001,0) rotate(90,0,444)" style="font-family: 'Lucida Grande', 'Open Sans', verdana, arial, sans-serif; font-size: 10px; fill: rgb(0, 0, 0); fill-opacity: 1; white-space: pre; opacity: 1;">81</text></g><g class="xtick"><text text-anchor="start" x="0" y="449" transform="translate(581.11,0) rotate(90,0,444)" style="font-family: 'Lucida Grande', 'Open Sans', verdana, arial, sans-serif; font-size: 10px; fill: rgb(0, 0, 0); fill-opacity: 1; white-space: pre; opacity: 1;">83</text></g><g class="xtick"><text text-anchor="start" x="0" y="449" transform="translate(593.55,0) rotate(90,0,444)" style="font-family: 'Lucida Grande', 'Open Sans', verdana, arial, sans-serif; font-size: 10px; fill: rgb(0, 0, 0); fill-opacity: 1; white-space: pre; opacity: 1;">85</text></g><g class="xtick"><text text-anchor="start" x="0" y="449" transform="translate(605.99,0) rotate(90,0,444)" style="font-family: 'Lucida Grande', 'Open Sans', verdana, arial, sans-serif; font-size: 10px; fill: rgb(0, 0, 0); fill-opacity: 1; white-space: pre; opacity: 1;">87</text></g><g class="xtick"><text text-anchor="start" x="0" y="449" transform="translate(618.44,0) rotate(90,0,444)" style="font-family: 'Lucida Grande', 'Open Sans', verdana, arial, sans-serif; font-size: 10px; fill: rgb(0, 0, 0); fill-opacity: 1; white-space: pre; opacity: 1;">89</text></g><g class="xtick"><text text-anchor="start" x="0" y="449" transform="translate(630.88,0) rotate(90,0,444)" style="font-family: 'Lucida Grande', 'Open Sans', verdana, arial, sans-serif; font-size: 10px; fill: rgb(0, 0, 0); fill-opacity: 1; white-space: pre; opacity: 1;">91</text></g><g class="xtick"><text text-anchor="start" x="0" y="449" transform="translate(643.32,0) rotate(90,0,444)" style="font-family: 'Lucida Grande', 'Open Sans', verdana, arial, sans-serif; font-size: 10px; fill: rgb(0, 0, 0); fill-opacity: 1; white-space: pre; opacity: 1;">93</text></g><g class="xtick"><text text-anchor="start" x="0" y="449" transform="translate(655.76,0) rotate(90,0,444)" style="font-family: 'Lucida Grande', 'Open Sans', verdana, arial, sans-serif; font-size: 10px; fill: rgb(0, 0, 0); fill-opacity: 1; white-space: pre; opacity: 1;">96</text></g><g class="xtick"><text text-anchor="start" x="0" y="449" transform="translate(668.2,0) rotate(90,0,444)" style="font-family: 'Lucida Grande', 'Open Sans', verdana, arial, sans-serif; font-size: 10px; fill: rgb(0, 0, 0); fill-opacity: 1; white-space: pre; opacity: 1;">98</text></g><g class="xtick"><text text-anchor="start" x="0" y="449" transform="translate(680.64,0) rotate(90,0,444)" style="font-family: 'Lucida Grande', 'Open Sans', verdana, arial, sans-serif; font-size: 10px; fill: rgb(0, 0, 0); fill-opacity: 1; white-space: pre; opacity: 1;">100</text></g><g class="xtick"><text text-anchor="start" x="0" y="449" transform="translate(693.09,0) rotate(90,0,444)" style="font-family: 'Lucida Grande', 'Open Sans', verdana, arial, sans-serif; font-size: 10px; fill: rgb(0, 0, 0); fill-opacity: 1; white-space: pre; opacity: 1;">102</text></g><g class="xtick"><text text-anchor="start" x="0" y="449" transform="translate(705.53,0) rotate(90,0,444)" style="font-family: 'Lucida Grande', 'Open Sans', verdana, arial, sans-serif; font-size: 10px; fill: rgb(0, 0, 0); fill-opacity: 1; white-space: pre; opacity: 1;">104</text></g><g class="xtick"><text text-anchor="start" x="0" y="449" transform="translate(717.97,0) rotate(90,0,444)" style="font-family: 'Lucida Grande', 'Open Sans', verdana, arial, sans-serif; font-size: 10px; fill: rgb(0, 0, 0); fill-opacity: 1; white-space: pre; opacity: 1;">106</text></g><g class="xtick"><text text-anchor="start" x="0" y="449" transform="translate(730.41,0) rotate(90,0,444)" style="font-family: 'Lucida Grande', 'Open Sans', verdana, arial, sans-serif; font-size: 10px; fill: rgb(0, 0, 0); fill-opacity: 1; white-space: pre; opacity: 1;">109</text></g><g class="xtick"><text text-anchor="start" x="0" y="449" transform="translate(742.85,0) rotate(90,0,444)" style="font-family: 'Lucida Grande', 'Open Sans', verdana, arial, sans-serif; font-size: 10px; fill: rgb(0, 0, 0); fill-opacity: 1; white-space: pre; opacity: 1;">111</text></g><g class="xtick"><text text-anchor="start" x="0" y="449" transform="translate(755.29,0) rotate(90,0,444)" style="font-family: 'Lucida Grande', 'Open Sans', verdana, arial, sans-serif; font-size: 10px; fill: rgb(0, 0, 0); fill-opacity: 1; white-space: pre; opacity: 1;">113</text></g><g class="xtick"><text text-anchor="start" x="0" y="449" transform="translate(767.74,0) rotate(90,0,444)" style="font-family: 'Lucida Grande', 'Open Sans', verdana, arial, sans-serif; font-size: 10px; fill: rgb(0, 0, 0); fill-opacity: 1; white-space: pre; opacity: 1;">115</text></g><g class="xtick"><text text-anchor="start" x="0" y="449" transform="translate(780.18,0) rotate(90,0,444)" style="font-family: 'Lucida Grande', 'Open Sans', verdana, arial, sans-serif; font-size: 10px; fill: rgb(0, 0, 0); fill-opacity: 1; white-space: pre; opacity: 1;">122</text></g><g class="xtick"><text text-anchor="start" x="0" y="449" transform="translate(792.62,0) rotate(90,0,444)" style="font-family: 'Lucida Grande', 'Open Sans', verdana, arial, sans-serif; font-size: 10px; fill: rgb(0, 0, 0); fill-opacity: 1; white-space: pre; opacity: 1;">124</text></g><g class="xtick"><text text-anchor="start" x="0" y="449" transform="translate(805.06,0) rotate(90,0,444)" style="font-family: 'Lucida Grande', 'Open Sans', verdana, arial, sans-serif; font-size: 10px; fill: rgb(0, 0, 0); fill-opacity: 1; white-space: pre; opacity: 1;">127</text></g><g class="xtick"><text text-anchor="start" x="0" y="449" transform="translate(817.5,0) rotate(90,0,444)" style="font-family: 'Lucida Grande', 'Open Sans', verdana, arial, sans-serif; font-size: 10px; fill: rgb(0, 0, 0); fill-opacity: 1; white-space: pre; opacity: 1;">130</text></g><g class="xtick"><text text-anchor="start" x="0" y="449" transform="translate(829.94,0) rotate(90,0,444)" style="font-family: 'Lucida Grande', 'Open Sans', verdana, arial, sans-serif; font-size: 10px; fill: rgb(0, 0, 0); fill-opacity: 1; white-space: pre; opacity: 1;">136</text></g><g class="xtick"><text text-anchor="start" x="0" y="449" transform="translate(842.39,0) rotate(90,0,444)" style="font-family: 'Lucida Grande', 'Open Sans', verdana, arial, sans-serif; font-size: 10px; fill: rgb(0, 0, 0); fill-opacity: 1; white-space: pre; opacity: 1;">141</text></g><g class="xtick"><text text-anchor="start" x="0" y="449" transform="translate(854.83,0) rotate(90,0,444)" style="font-family: 'Lucida Grande', 'Open Sans', verdana, arial, sans-serif; font-size: 10px; fill: rgb(0, 0, 0); fill-opacity: 1; white-space: pre; opacity: 1;">145</text></g><g class="xtick"><text text-anchor="start" x="0" y="449" transform="translate(867.27,0) rotate(90,0,444)" style="font-family: 'Lucida Grande', 'Open Sans', verdana, arial, sans-serif; font-size: 10px; fill: rgb(0, 0, 0); fill-opacity: 1; white-space: pre; opacity: 1;">147</text></g><g class="xtick"><text text-anchor="start" x="0" y="449" transform="translate(879.71,0) rotate(90,0,444)" style="font-family: 'Lucida Grande', 'Open Sans', verdana, arial, sans-serif; font-size: 10px; fill: rgb(0, 0, 0); fill-opacity: 1; white-space: pre; opacity: 1;">152</text></g><g class="xtick"><text text-anchor="start" x="0" y="449" transform="translate(892.15,0) rotate(90,0,444)" style="font-family: 'Lucida Grande', 'Open Sans', verdana, arial, sans-serif; font-size: 10px; fill: rgb(0, 0, 0); fill-opacity: 1; white-space: pre; opacity: 1;">157</text></g><g class="xtick"><text text-anchor="start" x="0" y="449" transform="translate(904.6,0) rotate(90,0,444)" style="font-family: 'Lucida Grande', 'Open Sans', verdana, arial, sans-serif; font-size: 10px; fill: rgb(0, 0, 0); fill-opacity: 1; white-space: pre; opacity: 1;">160</text></g><g class="xtick"><text text-anchor="start" x="0" y="449" transform="translate(917.04,0) rotate(90,0,444)" style="font-family: 'Lucida Grande', 'Open Sans', verdana, arial, sans-serif; font-size: 10px; fill: rgb(0, 0, 0); fill-opacity: 1; white-space: pre; opacity: 1;">166</text></g><g class="xtick"><text text-anchor="start" x="0" y="449" transform="translate(929.48,0) rotate(90,0,444)" style="font-family: 'Lucida Grande', 'Open Sans', verdana, arial, sans-serif; font-size: 10px; fill: rgb(0, 0, 0); fill-opacity: 1; white-space: pre; opacity: 1;">168</text></g><g class="xtick"><text text-anchor="start" x="0" y="449" transform="translate(941.92,0) rotate(90,0,444)" style="font-family: 'Lucida Grande', 'Open Sans', verdana, arial, sans-serif; font-size: 10px; fill: rgb(0, 0, 0); fill-opacity: 1; white-space: pre; opacity: 1;">174</text></g><g class="xtick"><text text-anchor="start" x="0" y="449" transform="translate(954.36,0) rotate(90,0,444)" style="font-family: 'Lucida Grande', 'Open Sans', verdana, arial, sans-serif; font-size: 10px; fill: rgb(0, 0, 0); fill-opacity: 1; white-space: pre; opacity: 1;">186</text></g><g class="xtick"><text text-anchor="start" x="0" y="449" transform="translate(966.8,0) rotate(90,0,444)" style="font-family: 'Lucida Grande', 'Open Sans', verdana, arial, sans-serif; font-size: 10px; fill: rgb(0, 0, 0); fill-opacity: 1; white-space: pre; opacity: 1;">196</text></g><g class="xtick"><text text-anchor="start" x="0" y="449" transform="translate(979.25,0) rotate(90,0,444)" style="font-family: 'Lucida Grande', 'Open Sans', verdana, arial, sans-serif; font-size: 10px; fill: rgb(0, 0, 0); fill-opacity: 1; white-space: pre; opacity: 1;">208</text></g><g class="xtick"><text text-anchor="start" x="0" y="449" transform="translate(991.69,0) rotate(90,0,444)" style="font-family: 'Lucida Grande', 'Open Sans', verdana, arial, sans-serif; font-size: 10px; fill: rgb(0, 0, 0); fill-opacity: 1; white-space: pre; opacity: 1;">223</text></g><g class="xtick"><text text-anchor="start" x="0" y="449" transform="translate(1004.13,0) rotate(90,0,444)" style="font-family: 'Lucida Grande', 'Open Sans', verdana, arial, sans-serif; font-size: 10px; fill: rgb(0, 0, 0); fill-opacity: 1; white-space: pre; opacity: 1;">254</text></g><g class="xtick"><text text-anchor="start" x="0" y="449" transform="translate(1016.57,0) rotate(90,0,444)" style="font-family: 'Lucida Grande', 'Open Sans', verdana, arial, sans-serif; font-size: 10px; fill: rgb(0, 0, 0); fill-opacity: 1; white-space: pre; opacity: 1;">284</text></g><g class="xtick"><text text-anchor="start" x="0" y="449" transform="translate(1029.01,0) rotate(90,0,444)" style="font-family: 'Lucida Grande', 'Open Sans', verdana, arial, sans-serif; font-size: 10px; fill: rgb(0, 0, 0); fill-opacity: 1; white-space: pre; opacity: 1;">322</text></g><g class="xtick"><text text-anchor="start" x="0" y="449" transform="translate(1041.45,0) rotate(90,0,444)" style="font-family: 'Lucida Grande', 'Open Sans', verdana, arial, sans-serif; font-size: 10px; fill: rgb(0, 0, 0); fill-opacity: 1; white-space: pre; opacity: 1;">331</text></g><g class="xtick"><text text-anchor="start" x="0" y="449" transform="translate(1053.9,0) rotate(90,0,444)" style="font-family: 'Lucida Grande', 'Open Sans', verdana, arial, sans-serif; font-size: 10px; fill: rgb(0, 0, 0); fill-opacity: 1; white-space: pre; opacity: 1;">369</text></g><g class="xtick"><text text-anchor="start" x="0" y="449" transform="translate(1066.3400000000001,0) rotate(90,0,444)" style="font-family: 'Lucida Grande', 'Open Sans', verdana, arial, sans-serif; font-size: 10px; fill: rgb(0, 0, 0); fill-opacity: 1; white-space: pre; opacity: 1;">404</text></g><g class="xtick"><text text-anchor="start" x="0" y="449" transform="translate(1078.78,0) rotate(90,0,444)" style="font-family: 'Lucida Grande', 'Open Sans', verdana, arial, sans-serif; font-size: 10px; fill: rgb(0, 0, 0); fill-opacity: 1; white-space: pre; opacity: 1;">488</text></g></g><g class="yaxislayer-above"><g class="ytick"><text text-anchor="end" x="65" y="3.5" transform="translate(0,433)" style="font-family: 'Lucida Grande', 'Open Sans', verdana, arial, sans-serif; font-size: 10px; fill: rgb(0, 0, 0); fill-opacity: 1; white-space: pre; opacity: 1;">0%</text></g><g class="ytick"><text text-anchor="end" x="65" y="3.5" style="font-family: 'Lucida Grande', 'Open Sans', verdana, arial, sans-serif; font-size: 10px; fill: rgb(0, 0, 0); fill-opacity: 1; white-space: pre; opacity: 1;" transform="translate(0,356.4)">20%</text></g><g class="ytick"><text text-anchor="end" x="65" y="3.5" style="font-family: 'Lucida Grande', 'Open Sans', verdana, arial, sans-serif; font-size: 10px; fill: rgb(0, 0, 0); fill-opacity: 1; white-space: pre; opacity: 1;" transform="translate(0,279.8)">40%</text></g><g class="ytick"><text text-anchor="end" x="65" y="3.5" style="font-family: 'Lucida Grande', 'Open Sans', verdana, arial, sans-serif; font-size: 10px; fill: rgb(0, 0, 0); fill-opacity: 1; white-space: pre; opacity: 1;" transform="translate(0,203.2)">60%</text></g><g class="ytick"><text text-anchor="end" x="65" y="3.5" style="font-family: 'Lucida Grande', 'Open Sans', verdana, arial, sans-serif; font-size: 10px; fill: rgb(0, 0, 0); fill-opacity: 1; white-space: pre; opacity: 1;" transform="translate(0,126.6)">80%</text></g><g class="ytick"><text text-anchor="end" x="65" y="3.5" style="font-family: 'Lucida Grande', 'Open Sans', verdana, arial, sans-serif; font-size: 10px; fill: rgb(0, 0, 0); fill-opacity: 1; white-space: pre; opacity: 1;" transform="translate(0,50)">100%</text></g></g><g class="overaxes-above"/></g></g><g class="polarlayer"/><g class="smithlayer"/><g class="ternarylayer"/><g class="geolayer"/><g class="funnelarealayer"/><g class="pielayer"/><g class="iciclelayer"/><g class="treemaplayer"/><g class="sunburstlayer"/><g class="glimages"/><defs id="topdefs-98c45b"><g class="clips"/></defs><g class="layer-above"><g class="imagelayer"/><g class="shapelayer"/></g><g class="infolayer"><g class="g-gtitle"><text class="gtitle" x="550" y="25" text-anchor="middle" dy="0em" style="opacity: 1; font-family: 'Lucida Grande', 'Open Sans', verdana, arial, sans-serif; font-size: 20px; fill: rgb(42, 63, 95); fill-opacity: 1; white-space: pre;"><tspan class="line" dy="0em" x="550" y="25">Bcftools Stats: Variant depths</tspan><tspan class="line" dy="1.3em" x="550" y="25">​<tspan style="font-size:70%" dy="-0.6em">6 samples</tspan><tspan dy="0.42em">​</tspan></tspan></text></g><g class="g-xtitle"><text class="xtitle" x="578" y="482.39375" text-anchor="middle" style="opacity: 0.3; font-family: 'Lucida Grande', 'Open Sans', verdana, arial, sans-serif; font-size: 14px; fill: rgb(0, 0, 0); fill-opacity: 1; white-space: pre;">Variant depth</text></g><g class="g-ytitle"><text class="ytitle" transform="rotate(-90,22.00625,241.5)" x="22.00625" y="241.5" text-anchor="middle" style="opacity: 0.3; font-family: 'Lucida Grande', 'Open Sans', verdana, arial, sans-serif; font-size: 14px; fill: rgb(0, 0, 0); fill-opacity: 1; white-space: pre;">Fraction of sites (%)</text></g></g></svg>