<svg class="main-svg" xmlns="http://www.w3.org/2000/svg" xmlns:xlink="http://www.w3.org/1999/xlink" width="2200" height="1000" style="" viewBox="0 0 1100 500"><rect x="0" y="0" width="1100" height="500" style="fill: rgb(255, 255, 255); fill-opacity: 1;"/><defs id="defs-40c263"><g class="clips"><clipPath id="clip40c263xyplot" class="plotclip"><rect width="1023" height="385"/></clipPath><clipPath class="axesclip" id="clip40c263x"><rect x="62" y="0" width="1023" height="500"/></clipPath><clipPath class="axesclip" id="clip40c263y"><rect x="0" y="50" width="1100" height="385"/></clipPath><clipPath class="axesclip" id="clip40c263xy"><rect x="62" y="50" width="1023" height="385"/></clipPath></g><g class="gradients"/><g class="patterns"/></defs><g class="bglayer"/><g class="layer-below"><g class="imagelayer"/><g class="shapelayer"/></g><g class="cartesianlayer"><g class="subplot xy"><g class="layer-subplot"><g class="shapelayer"/><g class="imagelayer"/></g><g class="minor-gridlayer"><g class="x"/><g class="y"/></g><g class="gridlayer"><g class="x"><path class="xgrid crisp" transform="translate(173.85,0)" d="M0,50v385" style="stroke: rgb(0, 0, 0); stroke-opacity: 0.05; stroke-width: 1px;"/><path class="xgrid crisp" transform="translate(286.39,0)" d="M0,50v385" style="stroke: rgb(0, 0, 0); stroke-opacity: 0.05; stroke-width: 1px;"/><path class="xgrid crisp" transform="translate(398.92,0)" d="M0,50v385" style="stroke: rgb(0, 0, 0); stroke-opacity: 0.05; stroke-width: 1px;"/><path class="xgrid crisp" transform="translate(511.46,0)" d="M0,50v385" style="stroke: rgb(0, 0, 0); stroke-opacity: 0.05; stroke-width: 1px;"/><path class="xgrid crisp" transform="translate(623.99,0)" d="M0,50v385" style="stroke: rgb(0, 0, 0); stroke-opacity: 0.05; stroke-width: 1px;"/><path class="xgrid crisp" transform="translate(736.53,0)" d="M0,50v385" style="stroke: rgb(0, 0, 0); stroke-opacity: 0.05; stroke-width: 1px;"/><path class="xgrid crisp" transform="translate(849.06,0)" d="M0,50v385" style="stroke: rgb(0, 0, 0); stroke-opacity: 0.05; stroke-width: 1px;"/><path class="xgrid crisp" transform="translate(961.6,0)" d="M0,50v385" style="stroke: rgb(0, 0, 0); stroke-opacity: 0.05; stroke-width: 1px;"/><path class="xgrid crisp" transform="translate(1074.13,0)" d="M0,50v385" style="stroke: rgb(0, 0, 0); stroke-opacity: 0.05; stroke-width: 1px;"/></g><g class="y"><path class="ygrid crisp" transform="translate(0,375.43)" d="M62,0h1023" style="stroke: rgb(0, 0, 0); stroke-opacity: 0.05; stroke-width: 1px;"/><path class="ygrid crisp" transform="translate(0,315.86)" d="M62,0h1023" style="stroke: rgb(0, 0, 0); stroke-opacity: 0.05; stroke-width: 1px;"/><path class="ygrid crisp" transform="translate(0,256.28999999999996)" d="M62,0h1023" style="stroke: rgb(0, 0, 0); stroke-opacity: 0.05; stroke-width: 1px;"/><path class="ygrid crisp" transform="translate(0,196.73)" d="M62,0h1023" style="stroke: rgb(0, 0, 0); stroke-opacity: 0.05; stroke-width: 1px;"/><path class="ygrid crisp" transform="translate(0,137.16)" d="M62,0h1023" style="stroke: rgb(0, 0, 0); stroke-opacity: 0.05; stroke-width: 1px;"/><path class="ygrid crisp" transform="translate(0,77.59)" d="M62,0h1023" style="stroke: rgb(0, 0, 0); stroke-opacity: 0.05; stroke-width: 1px;"/></g></g><g class="zerolinelayer"><path class="yzl zl crisp" transform="translate(0,435)" d="M62,0h1023" style="stroke: rgb(0, 0, 0); stroke-opacity: 0.05; stroke-width: 2px;"/></g><g class="layer-between"><g class="shapelayer"/><g class="imagelayer"/></g><path class="xlines-below"/><path class="ylines-below"/><g class="overlines-below"/><g class="xaxislayer-below"/><g class="yaxislayer-below"/><g class="overaxes-below"/><g class="overplot"><g class="xy" transform="translate(62,50)" clip-path="url(#clip40c263xyplot)"><g class="scatterlayer mlayer"><g class="trace scatter trace31793d" style="stroke-miterlimit: 2; opacity: 1;"><g class="fills"/><g class="errorbars"/><g class="lines"><path class="js-line" d="M0,385L0.05,342.71L0.43,382.02L0.45,385L1.08,335.56L1.2,383.21L1.22,384.4L1.23,377.85L1.36,385L1.85,384.4L1.86,385L2.06,364.15L2.61,385L2.62,385L3.06,376.66L3.38,384.4L3.41,385L4.06,377.85L4.15,384.4L4.17,384.4L4.63,383.81L4.89,385L4.94,385L5.53,383.81L5.69,385L5.7,385L6.09,379.04L6.14,385L6.16,385L6.93,384.4L7.01,385L7.11,381.43L7.64,385L7.79,384.4L8.1,385L8.12,383.21L8.82,385L8.86,384.4L8.93,385L9.13,383.21L9.67,384.4L9.68,385L9.94,385L10.03,383.81L10.45,385L10.73,383.81L10.82,383.81L11.16,383.21L11.57,385L11.99,385L13.16,385L13.18,383.81L13.84,385L13.93,384.4L14.02,384.4L14.2,383.81L14.71,385L14.98,383.81L15.43,385L15.79,384.4L16,383.81L16.38,385L16.56,384.4L16.9,384.4L17.62,385L17.77,384.4L18.43,385L18.81,384.4L18.88,385L19.89,385L20.27,383.81L20.62,384.4L21.15,385L27.45,384.4L28.37,383.81L28.58,385L29.39,384.4L30.31,385L30.4,385L30.91,384.4L31.41,383.81L33.57,385L33.66,384.4L33.75,385L36.48,385L108.23,385" style="vector-effect: none; fill: none; stroke: rgb(124, 181, 236); stroke-opacity: 1; stroke-width: 2px; opacity: 1;"/></g><g class="points"/><g class="text"/></g><g class="trace scatter tracea175aa" style="stroke-miterlimit: 2; opacity: 1;"><g class="fills"/><g class="errorbars"/><g class="lines"><path class="js-line" d="M0.01,382.62L0.05,326.62L0.09,385L0.14,384.4L0.16,19.25L0.2,385L0.91,377.26L0.93,385L1.08,314.11L1.68,385L1.69,384.4L2.06,373.68L2.38,385L2.44,384.4L2.44,383.81L3.04,385L3.05,383.81L3.06,374.28L3.81,385L3.84,385L4.06,379.04L4.11,385L4.52,383.81L4.85,384.4L4.94,385L5.08,382.62L5.64,384.4L5.67,385L6.09,376.06L6.21,385L6.26,385L6.95,383.81L7.04,385L7.11,379.04L7.74,385L7.8,385L8.1,385L8.12,380.23L8.87,385L8.95,384.4L9.13,379.64L9.48,385L9.55,384.4L9.76,384.4L9.93,385L10.14,380.23L10.46,385L10.65,385L10.95,383.81L11.47,384.4L11.58,384.4L12.15,385L12.17,382.62L12.91,385L12.98,384.4L13.81,385L13.96,385L14.64,384.4L14.83,384.4L15.54,385L15.91,384.4L16.64,385L16.99,385L17.14,384.4L17.3,385L17.95,385L19.1,385L19.26,381.43L20.02,385L20.27,383.21L21.08,385L21.28,385L22.5,385L22.86,383.81L23.55,385L24.21,385L24.77,384.4L26.15,385L38.88,385L40.39,383.81L40.57,384.4L41.77,385L101.99,385" style="vector-effect: none; fill: none; stroke: rgb(67, 67, 72); stroke-opacity: 1; stroke-width: 2px; opacity: 1;"/></g><g class="points"/><g class="text"/></g><g class="trace scatter trace4d5732" style="stroke-miterlimit: 2; opacity: 1;"><g class="fills"/><g class="errorbars"/><g class="lines"><path class="js-line" d="M0,385L0.04,384.4L0.05,334.96L0.16,89.54L0.81,385L0.82,384.4L0.83,385L1.08,305.77L1.57,382.62L1.59,383.21L2.06,373.09L2.35,385L2.37,384.4L2.55,382.62L2.57,385L3.03,384.4L3.04,385L3.06,369.51L3.55,385L3.59,385L4.06,379.04L4.35,384.4L4.4,385L5.08,374.28L5.12,385L5.16,384.4L5.75,383.81L5.91,385L6.02,385L6.81,384.4L6.85,385L7.11,380.83L7.59,385L7.61,385L8.12,374.28L8.34,385L8.46,385L8.92,384.4L9.19,385L9.24,385L9.49,383.81L9.99,384.4L10.08,385L10.14,383.21L10.77,384.4L10.84,385L16.17,385L16.22,383.81L17.17,385L17.55,384.4L17.84,383.81L17.88,385L18.25,385L18.56,384.4L19.14,385L19.26,383.21L19.91,384.4L20.29,385L20.83,384.4L21.28,385L21.89,384.4L23.13,385L23.33,385L24.35,383.81L25.31,385L27.26,385L27.74,383.81L28.58,385L29.95,385L39.79,385L40.53,383.81L40.73,385L44.13,384.4L51.69,385L54.57,384.4L113.38,385" style="vector-effect: none; fill: none; stroke: rgb(144, 237, 125); stroke-opacity: 1; stroke-width: 2px; opacity: 1;"/></g><g class="points"/><g class="text"/></g><g class="trace scatter tracea76ad1" style="stroke-miterlimit: 2; opacity: 1;"><g class="fills"/><g class="errorbars"/><g class="lines"><path class="js-line" d="M0,385L0.11,351.64L0.15,385L0.16,128.86L0.2,385L0.91,372.49L0.93,379.64L1.08,343.9L1.65,385L1.71,384.4L1.73,383.81L2.17,382.62L2.44,385L2.51,384.4L2.57,385L3.27,383.81L3.34,384.4L3.37,385L3.68,383.21L4.1,384.4L4.13,385L4.89,383.81L4.9,384.4L4.94,385L5.08,376.66L5.57,383.81L5.59,385L6.18,383.81L6.34,385L6.43,384.4L6.53,383.81L7.15,385L7.19,384.4L7.25,383.81L7.91,385L7.94,384.4L8.01,384.4L8.12,383.81L8.82,385L9.09,385L9.13,383.81L9.81,384.4L9.9,385L14.61,385L14.76,383.81L15.16,383.21L15.3,385L15.47,384.4L15.81,385L21.17,385L21.28,383.21L21.84,385L21.85,384.4L22.3,383.21L22.46,385L22.99,384.4L23.53,385L23.87,384.4L24.32,385L24.4,385L31.28,384.4L31.41,382.02L32,385L32.7,384.4L35.17,384.4L35.5,385L46.81,384.4L47.62,383.81L48.63,384.4L48.86,384.4L50.12,385L50.32,385L55.5,385L55.95,383.81L56.15,384.4L58.65,385L119.55,384.4L119.62,383.81L120.11,385L157.38,385L186.17,384.4L295.73,384.4L1023,385" style="vector-effect: none; fill: none; stroke: rgb(247, 163, 92); stroke-opacity: 1; stroke-width: 2px; opacity: 1;"/></g><g class="points"/><g class="text"/></g><g class="trace scatter tracef40fff" style="stroke-miterlimit: 2; opacity: 1;"><g class="fills"/><g class="errorbars"/><g class="lines"><path class="js-line" d="M0,385L0.11,355.81L0.14,383.21L0.16,35.33L0.2,385L0.91,381.43L0.93,384.4L0.93,371.3L0.94,385L1.68,384.4L1.69,384.4L1.92,382.62L2.05,385L2.06,371.3L2.1,385L2.8,384.4L2.83,385L3.02,384.4L3.04,385L3.06,372.49L3.84,385L3.86,384.4L3.88,384.4L4.06,380.23L4.61,385L4.62,383.81L4.76,383.21L5.37,385L5.39,384.4L5.45,385L6.09,380.83L6.21,384.4L6.22,385L6.96,384.4L7.03,385L7.11,383.21L7.73,384.4L7.74,385L8.06,385L8.1,383.81L8.12,379.64L8.84,385L9.02,384.4L9.13,381.43L9.76,385L9.9,385L11.13,384.4L11.13,385L11.16,379.64L11.58,385L11.9,384.4L12.15,385L12.17,383.21L12.68,385L12.93,384.4L13.18,383.81L13.52,385L13.56,384.4L13.75,384.4L14.29,385L14.84,384.4L15.73,385L15.93,384.4L16.35,385L16.83,385L17.55,384.4L17.64,385L19.98,384.4L20.11,383.81L20.18,385L20.27,383.21L20.88,384.4L21.28,385L32.42,385L32.97,383.21L33.1,384.4L34.15,385L34.22,384.4L36.3,383.81L37.49,385L38.48,384.4L56.19,384.4L56.44,383.81L60.69,384.4L60.94,385L61.05,384.4L62.02,384.4L694.71,385" style="vector-effect: none; fill: none; stroke: rgb(128, 133, 233); stroke-opacity: 1; stroke-width: 2px; opacity: 1;"/></g><g class="points"/><g class="text"/></g><g class="trace scatter trace6ea92c" style="stroke-miterlimit: 2; opacity: 1;"><g class="fills"/><g class="errorbars"/><g class="lines"><path class="js-line" d="M0.01,380.23L0.03,385L0.05,327.81L0.47,385L0.48,385L1.23,374.28L1.24,383.21L1.33,382.02L2.06,385L2.06,366.53L2.81,385L2.83,383.81L3.06,374.28L3.53,385L3.54,383.81L3.59,384.4L3.59,385L4.06,373.68L4.33,385L4.4,384.4L4.58,383.81L5.14,385L5.18,384.4L5.75,385L5.82,383.21L6.09,380.83L6.57,385L6.63,385L7.11,379.04L7.34,384.4L7.44,385L7.87,383.81L8.18,384.4L8.36,385L10.12,385L10.14,382.02L10.89,385L11.07,384.4L11.16,383.81L11.81,385L11.85,384.4L12.68,385L12.84,384.4L12.98,385L13.18,383.81L13.34,385L13.75,384.4L13.81,383.81L14.01,385L14.33,385L14.65,384.4L15.02,385L15.12,384.4L15.21,382.62L15.95,385L16.09,385L22.16,384.4L22.3,382.62L22.39,385L22.73,384.4L23.29,385L23.49,384.4L24.23,385L25.3,385L25.88,383.81L26.86,385L27,384.4L30.22,385L30.74,383.81L31.16,385L31.74,385L32.81,384.4L33.03,384.4L43.79,385L45.55,383.81L46.25,385L46.85,384.4L76.07,384.4L77.39,383.81L84.78,385L95.33,385L96.23,384.4L111.97,384.4L127.07,385L142.35,384.4L732.41,385" style="vector-effect: none; fill: none; stroke: rgb(241, 92, 128); stroke-opacity: 1; stroke-width: 2px; opacity: 1;"/></g><g class="points"/><g class="text"/></g></g></g></g><path class="xlines-above crisp" d="M0,0" style="fill: none;"/><path class="ylines-above crisp" d="M0,0" style="fill: none;"/><g class="overlines-above"/><g class="xaxislayer-above"><g class="xtick"><text text-anchor="middle" x="0" y="451" transform="translate(173.85,0)" style="font-family: 'Lucida Grande', 'Open Sans', verdana, arial, sans-serif; font-size: 10px; fill: rgb(0, 0, 0); fill-opacity: 1; white-space: pre; opacity: 1;">5k</text></g><g class="xtick"><text text-anchor="middle" x="0" y="451" style="font-family: 'Lucida Grande', 'Open Sans', verdana, arial, sans-serif; font-size: 10px; fill: rgb(0, 0, 0); fill-opacity: 1; white-space: pre; opacity: 1;" transform="translate(286.39,0)">10k</text></g><g class="xtick"><text text-anchor="middle" x="0" y="451" style="font-family: 'Lucida Grande', 'Open Sans', verdana, arial, sans-serif; font-size: 10px; fill: rgb(0, 0, 0); fill-opacity: 1; white-space: pre; opacity: 1;" transform="translate(398.92,0)">15k</text></g><g class="xtick"><text text-anchor="middle" x="0" y="451" style="font-family: 'Lucida Grande', 'Open Sans', verdana, arial, sans-serif; font-size: 10px; fill: rgb(0, 0, 0); fill-opacity: 1; white-space: pre; opacity: 1;" transform="translate(511.46,0)">20k</text></g><g class="xtick"><text text-anchor="middle" x="0" y="451" style="font-family: 'Lucida Grande', 'Open Sans', verdana, arial, sans-serif; font-size: 10px; fill: rgb(0, 0, 0); fill-opacity: 1; white-space: pre; opacity: 1;" transform="translate(623.99,0)">25k</text></g><g class="xtick"><text text-anchor="middle" x="0" y="451" style="font-family: 'Lucida Grande', 'Open Sans', verdana, arial, sans-serif; font-size: 10px; fill: rgb(0, 0, 0); fill-opacity: 1; white-space: pre; opacity: 1;" transform="translate(736.53,0)">30k</text></g><g class="xtick"><text text-anchor="middle" x="0" y="451" style="font-family: 'Lucida Grande', 'Open Sans', verdana, arial, sans-serif; font-size: 10px; fill: rgb(0, 0, 0); fill-opacity: 1; white-space: pre; opacity: 1;" transform="translate(849.06,0)">35k</text></g><g class="xtick"><text text-anchor="middle" x="0" y="451" style="font-family: 'Lucida Grande', 'Open Sans', verdana, arial, sans-serif; font-size: 10px; fill: rgb(0, 0, 0); fill-opacity: 1; white-space: pre; opacity: 1;" transform="translate(961.6,0)">40k</text></g><g class="xtick"><text text-anchor="middle" x="0" y="451" style="font-family: 'Lucida Grande', 'Open Sans', verdana, arial, sans-serif; font-size: 10px; fill: rgb(0, 0, 0); fill-opacity: 1; white-space: pre; opacity: 1;" transform="translate(1074.13,0)">45k</text></g></g><g class="yaxislayer-above"><g class="ytick"><text text-anchor="end" x="56" y="3.5" transform="translate(0,435)" style="font-family: 'Lucida Grande', 'Open Sans', verdana, arial, sans-serif; font-size: 10px; fill: rgb(0, 0, 0); fill-opacity: 1; white-space: pre; opacity: 1;">0</text></g><g class="ytick"><text text-anchor="end" x="56" y="3.5" style="font-family: 'Lucida Grande', 'Open Sans', verdana, arial, sans-serif; font-size: 10px; fill: rgb(0, 0, 0); fill-opacity: 1; white-space: pre; opacity: 1;" transform="translate(0,375.43)">100</text></g><g class="ytick"><text text-anchor="end" x="56" y="3.5" style="font-family: 'Lucida Grande', 'Open Sans', verdana, arial, sans-serif; font-size: 10px; fill: rgb(0, 0, 0); fill-opacity: 1; white-space: pre; opacity: 1;" transform="translate(0,315.86)">200</text></g><g class="ytick"><text text-anchor="end" x="56" y="3.5" style="font-family: 'Lucida Grande', 'Open Sans', verdana, arial, sans-serif; font-size: 10px; fill: rgb(0, 0, 0); fill-opacity: 1; white-space: pre; opacity: 1;" transform="translate(0,256.28999999999996)">300</text></g><g class="ytick"><text text-anchor="end" x="56" y="3.5" style="font-family: 'Lucida Grande', 'Open Sans', verdana, arial, sans-serif; font-size: 10px; fill: rgb(0, 0, 0); fill-opacity: 1; white-space: pre; opacity: 1;" transform="translate(0,196.73)">400</text></g><g class="ytick"><text text-anchor="end" x="56" y="3.5" style="font-family: 'Lucida Grande', 'Open Sans', verdana, arial, sans-serif; font-size: 10px; fill: rgb(0, 0, 0); fill-opacity: 1; white-space: pre; opacity: 1;" transform="translate(0,137.16)">500</text></g><g class="ytick"><text text-anchor="end" x="56" y="3.5" style="font-family: 'Lucida Grande', 'Open Sans', verdana, arial, sans-serif; font-size: 10px; fill: rgb(0, 0, 0); fill-opacity: 1; white-space: pre; opacity: 1;" transform="translate(0,77.59)">600</text></g></g><g class="overaxes-above"/></g></g><g class="polarlayer"/><g class="smithlayer"/><g class="ternarylayer"/><g class="geolayer"/><g class="funnelarealayer"/><g class="pielayer"/><g class="iciclelayer"/><g class="treemaplayer"/><g class="sunburstlayer"/><g class="glimages"/><defs id="topdefs-40c263"><g class="clips"/></defs><g class="layer-above"><g class="imagelayer"/><g class="shapelayer"/></g><g class="infolayer"><g class="g-gtitle"><text class="gtitle" x="550" y="25" text-anchor="middle" dy="0em" style="opacity: 1; font-family: 'Lucida Grande', 'Open Sans', verdana, arial, sans-serif; font-size: 20px; fill: rgb(42, 63, 95); fill-opacity: 1; white-space: pre;"><tspan class="line" dy="0em" x="550" y="25">Bcftools Stats: Variant Quality Count</tspan><tspan class="line" dy="1.3em" x="550" y="25">​<tspan style="font-size:70%" dy="-0.6em">Count Transitions, 6 samples</tspan><tspan dy="0.42em">​</tspan></tspan></text></g><g class="g-xtitle"><text class="xtitle" x="573.5" y="472.3" text-anchor="middle" style="opacity: 0.3; font-family: 'Lucida Grande', 'Open Sans', verdana, arial, sans-serif; font-size: 14px; fill: rgb(0, 0, 0); fill-opacity: 1; white-space: pre;">Quality</text></g><g class="g-ytitle"><text class="ytitle" transform="rotate(-90,22.50625,242.5)" x="22.50625" y="242.5" text-anchor="middle" style="opacity: 0.3; font-family: 'Lucida Grande', 'Open Sans', verdana, arial, sans-serif; font-size: 14px; fill: rgb(0, 0, 0); fill-opacity: 1; white-space: pre;">Count</text></g></g></svg>