<svg class="main-svg" xmlns="http://www.w3.org/2000/svg" xmlns:xlink="http://www.w3.org/1999/xlink" width="2200" height="1000" style="" viewBox="0 0 1100 500"><rect x="0" y="0" width="1100" height="500" style="fill: rgb(255, 255, 255); fill-opacity: 1;"/><defs id="defs-a5575e"><g class="clips"><clipPath id="clipa5575exyplot" class="plotclip"><rect width="1007" height="385"/></clipPath><clipPath class="axesclip" id="clipa5575ex"><rect x="71" y="0" width="1007" height="500"/></clipPath><clipPath class="axesclip" id="clipa5575ey"><rect x="0" y="50" width="1100" height="385"/></clipPath><clipPath class="axesclip" id="clipa5575exy"><rect x="71" y="50" width="1007" height="385"/></clipPath></g><g class="gradients"/><g class="patterns"/></defs><g class="bglayer"/><g class="layer-below"><g class="imagelayer"/><g class="shapelayer"/></g><g class="cartesianlayer"><g class="subplot xy"><g class="layer-subplot"><g class="shapelayer"/><g class="imagelayer"/></g><g class="minor-gridlayer"><g class="x"/><g class="y"/></g><g class="gridlayer"><g class="x"><path class="xgrid crisp" transform="translate(162.55,0)" d="M0,50v385" style="stroke: rgb(0, 0, 0); stroke-opacity: 0.05; stroke-width: 1px;"/><path class="xgrid crisp" transform="translate(264.26,0)" d="M0,50v385" style="stroke: rgb(0, 0, 0); stroke-opacity: 0.05; stroke-width: 1px;"/><path class="xgrid crisp" transform="translate(365.98,0)" d="M0,50v385" style="stroke: rgb(0, 0, 0); stroke-opacity: 0.05; stroke-width: 1px;"/><path class="xgrid crisp" transform="translate(467.7,0)" d="M0,50v385" style="stroke: rgb(0, 0, 0); stroke-opacity: 0.05; stroke-width: 1px;"/><path class="xgrid crisp" transform="translate(569.4100000000001,0)" d="M0,50v385" style="stroke: rgb(0, 0, 0); stroke-opacity: 0.05; stroke-width: 1px;"/><path class="xgrid crisp" transform="translate(671.13,0)" d="M0,50v385" style="stroke: rgb(0, 0, 0); stroke-opacity: 0.05; stroke-width: 1px;"/><path class="xgrid crisp" transform="translate(772.85,0)" d="M0,50v385" style="stroke: rgb(0, 0, 0); stroke-opacity: 0.05; stroke-width: 1px;"/><path class="xgrid crisp" transform="translate(874.57,0)" d="M0,50v385" style="stroke: rgb(0, 0, 0); stroke-opacity: 0.05; stroke-width: 1px;"/><path class="xgrid crisp" transform="translate(976.28,0)" d="M0,50v385" style="stroke: rgb(0, 0, 0); stroke-opacity: 0.05; stroke-width: 1px;"/></g><g class="y"><path class="ygrid crisp" transform="translate(0,358)" d="M71,0h1007" style="stroke: rgb(0, 0, 0); stroke-opacity: 0.05; stroke-width: 1px;"/><path class="ygrid crisp" transform="translate(0,281)" d="M71,0h1007" style="stroke: rgb(0, 0, 0); stroke-opacity: 0.05; stroke-width: 1px;"/><path class="ygrid crisp" transform="translate(0,204)" d="M71,0h1007" style="stroke: rgb(0, 0, 0); stroke-opacity: 0.05; stroke-width: 1px;"/><path class="ygrid crisp" transform="translate(0,127)" d="M71,0h1007" style="stroke: rgb(0, 0, 0); stroke-opacity: 0.05; stroke-width: 1px;"/></g></g><g class="zerolinelayer"><path class="yzl zl crisp" transform="translate(0,435)" d="M71,0h1007" style="stroke: rgb(0, 0, 0); stroke-opacity: 0.05; stroke-width: 2px;"/></g><g class="layer-between"><g class="shapelayer"/><g class="imagelayer"/></g><path class="xlines-below"/><path class="ylines-below"/><g class="overlines-below"/><g class="xaxislayer-below"/><g class="yaxislayer-below"/><g class="overaxes-below"/><g class="overplot"><g class="xy" transform="translate(71,50)" clip-path="url(#clipa5575exyplot)"><g class="scatterlayer mlayer"><g class="trace scatter trace8c693f" style="stroke-miterlimit: 2; opacity: 1;"><g class="fills"/><g class="errorbars"/><g class="lines"><path class="js-line" d="M0,70.78L10.17,188.11L20.34,153.3L30.52,183.49L40.69,202.44L50.86,217.99L61.03,242.76L71.2,195.09L81.37,205.69L91.55,222.6L101.72,173.58L111.89,183.8L122.06,191.8L132.23,199.22L142.4,194.95L152.58,193.34L162.75,193.65L172.92,195.92L183.09,187.07L193.26,193L203.43,192.92L213.61,191.51L223.78,192.65L233.95,197.58L244.12,195.07L254.29,197.77L264.46,196.48L274.64,194.58L284.81,193.71L294.98,196.8L305.15,192.36L315.32,194.89L325.49,199.07L335.67,191.08L345.84,191.2L356.01,192.17L366.18,196.04L376.35,189.54L386.53,188.83L406.87,191.19L417.04,191.63L427.21,193.56L437.38,192.89L447.56,197.93L457.73,194.85L467.9,190.09L478.07,196.5L488.24,192.66L498.41,195.24L508.59,191.13L518.76,190.59L528.93,192.02L539.1,184.51L549.27,191.31L559.44,192.41L569.62,189.89L579.79,195.77L589.96,191.8L600.13,192.87L610.3,196.04L620.47,195.39L640.82,197.74L650.99,194.63L661.16,190.17L671.33,193.05L681.51,194.43L691.68,190.11L701.85,189.82L712.02,194.5L722.19,185.96L732.36,192.03L742.54,194.75L752.71,188.22L762.88,192.48L773.05,185.95L783.22,194.63L793.39,193.94L803.57,194.97L813.74,194.13L823.91,190.84L834.08,194.57L844.25,188.4L854.42,192.98L864.6,192.96L874.77,184.81L884.94,191.65L895.11,187.01L905.28,187.03L915.45,191.38L925.63,191.77L935.8,197.4L945.97,196.38L956.14,198.74L966.31,191.91L976.48,192.49L986.66,193.7L996.83,191.55L1007,187.37" style="vector-effect: none; fill: none; stroke: rgb(124, 181, 236); stroke-opacity: 1; stroke-width: 2px; opacity: 1;"/></g><g class="points"/><g class="text"/></g><g class="trace scatter trace86be47" style="stroke-miterlimit: 2; opacity: 1;"><g class="fills"/><g class="errorbars"/><g class="lines"><path class="js-line" d="M0,68.2L10.17,186.41L20.34,153.87L30.52,183.36L40.69,200.76L50.86,215.92L61.03,241.52L71.2,196.49L81.37,204.64L91.55,221.5L101.72,173.52L111.89,183.21L122.06,191.48L132.23,197.31L142.4,193.33L152.58,189.26L162.75,193.82L172.92,193.51L183.09,187.69L193.26,192.72L203.43,192.14L213.61,190.63L223.78,192.16L233.95,196.51L244.12,193.41L254.29,197.56L264.46,193.96L284.81,192.71L294.98,196.45L305.15,192.75L315.32,193.97L325.49,198.58L335.67,190.52L356.01,191.26L366.18,194.95L376.35,189.57L386.53,186.7L427.21,191.75L437.38,191.67L447.56,195.13L457.73,193.3L467.9,188.12L478.07,195.43L488.24,190.65L498.41,194.11L508.59,189.33L518.76,188.6L528.93,190.3L539.1,185.19L549.27,189.25L559.44,190.66L569.62,187.75L579.79,195.06L589.96,189.32L600.13,191.51L610.3,194.46L620.47,195.96L640.82,194.95L650.99,194.59L661.16,188.06L671.33,191.83L681.51,192.86L691.68,190.52L701.85,189.89L712.02,193.85L722.19,183.95L732.36,190.65L742.54,194.34L752.71,185.34L762.88,189.37L773.05,185.44L783.22,193.01L793.39,193.36L813.74,193.19L823.91,190.6L834.08,192.72L844.25,187.49L854.42,192.41L864.6,190.09L874.77,184.34L884.94,190.33L895.11,185.27L905.28,185.51L915.45,189.99L925.63,189.69L935.8,197.83L945.97,194.99L956.14,195.88L966.31,190.71L976.48,192.24L986.66,192.89L996.83,191.11L1007,186.83" style="vector-effect: none; fill: none; stroke: rgb(67, 67, 72); stroke-opacity: 1; stroke-width: 2px; opacity: 1;"/></g><g class="points"/><g class="text"/></g><g class="trace scatter trace3769f8" style="stroke-miterlimit: 2; opacity: 1;"><g class="fills"/><g class="errorbars"/><g class="lines"><path class="js-line" d="M0,69.65L10.17,186.68L20.34,153.96L30.52,184.87L40.69,201.52L50.86,216.67L61.03,243.1L71.2,196.47L81.37,205.07L91.55,221L101.72,172.4L111.89,183.07L122.06,191.31L132.23,197.69L142.4,194.42L152.58,191.34L162.75,194.28L172.92,193.54L183.09,188.39L193.26,193.55L203.43,192.93L213.61,191.55L223.78,192.3L233.95,199.18L244.12,194.51L254.29,196.87L264.46,194.13L274.64,195.53L284.81,193.39L294.98,197.13L305.15,192.02L315.32,192.89L325.49,199.14L335.67,192.87L345.84,190.99L356.01,192.25L366.18,195.54L376.35,189.95L386.53,188.47L396.7,188.4L406.87,190.95L417.04,191.78L427.21,193.46L437.38,192.64L447.56,197.33L457.73,194.57L467.9,189.09L478.07,196.27L488.24,191.11L498.41,195.12L508.59,191.3L518.76,189.96L528.93,192.05L539.1,185.6L549.27,190.74L559.44,192.16L569.62,190.44L579.79,195.95L589.96,191.5L610.3,195.54L620.47,196.09L630.65,197.08L640.82,196.7L650.99,194.98L661.16,189.7L671.33,193.34L681.51,192.8L691.68,189.19L701.85,189.92L712.02,194.9L722.19,184.25L732.36,191.19L742.54,194.67L752.71,187.08L762.88,191.17L773.05,186.72L783.22,193.86L813.74,194.27L823.91,190.41L834.08,194.13L844.25,189.14L854.42,193.17L864.6,192.53L874.77,185.26L884.94,191.88L895.11,186.47L905.28,185.91L915.45,191.6L925.63,192.16L935.8,198.06L945.97,195.81L956.14,197.85L966.31,191.4L976.48,191.95L986.66,193.86L1007,188.34" style="vector-effect: none; fill: none; stroke: rgb(144, 237, 125); stroke-opacity: 1; stroke-width: 2px; opacity: 1;"/></g><g class="points"/><g class="text"/></g><g class="trace scatter trace08c1fb" style="stroke-miterlimit: 2; opacity: 1;"><g class="fills"/><g class="errorbars"/><g class="lines"><path class="js-line" d="M0,69.42L10.17,193.44L20.34,163L30.52,186.57L40.69,207.1L50.86,220.93L61.03,250.55L71.2,202.34L81.37,208.94L91.55,225.03L101.72,179.47L111.89,185.88L122.06,198.61L132.23,199.52L142.4,197.41L152.58,193.16L162.75,197.75L172.92,201L183.09,194.04L203.43,199.04L213.61,196.32L223.78,197.76L233.95,200.04L244.12,195.36L254.29,199.05L264.46,200.46L274.64,200.79L284.81,199.74L294.98,203.65L305.15,197.98L315.32,197.46L325.49,204.8L335.67,196.89L345.84,196.86L356.01,194.48L366.18,197.93L376.35,193.4L386.53,194.33L396.7,193.87L406.87,192.61L417.04,197.71L427.21,195.41L437.38,198.41L447.56,200.81L457.73,197.37L467.9,193.44L478.07,194.93L498.41,198.41L508.59,195.57L518.76,191.4L528.93,195.56L539.1,192.36L549.27,193.66L559.44,196.78L569.62,193.36L579.79,197.71L589.96,192.15L600.13,193.18L610.3,196.7L620.47,197.99L630.65,200.4L650.99,198.81L661.16,193.76L681.51,192.81L691.68,195.72L701.85,192.46L712.02,197.06L722.19,189.15L732.36,193.02L742.54,198.3L752.71,189.25L762.88,196L773.05,192.62L783.22,197.08L793.39,198.12L803.57,197.05L813.74,198.86L823.91,193.66L834.08,196.91L844.25,190.87L854.42,195.56L864.6,197.29L874.77,189.7L884.94,196.99L895.11,189.09L905.28,192.76L915.45,192.64L925.63,194.09L935.8,200.98L945.97,194.98L956.14,197.46L966.31,193.34L976.48,195.85L986.66,196.58L996.83,194.77L1007,191.16" style="vector-effect: none; fill: none; stroke: rgb(247, 163, 92); stroke-opacity: 1; stroke-width: 2px; opacity: 1;"/></g><g class="points"/><g class="text"/></g><g class="trace scatter trace56569a" style="stroke-miterlimit: 2; opacity: 1;"><g class="fills"/><g class="errorbars"/><g class="lines"><path class="js-line" d="M0,74.53L10.17,204.42L20.34,166.01L30.52,191.09L40.69,211.02L50.86,225.27L61.03,250.8L71.2,207.22L81.37,213.28L91.55,227.34L101.72,182.06L111.89,189.12L122.06,200.77L132.23,199.48L142.4,199.27L152.58,194.28L162.75,198.58L172.92,200.88L183.09,194.44L193.26,198.11L203.43,198.76L213.61,197.23L223.78,200.52L233.95,204.1L244.12,199.5L254.29,202.77L264.46,203.92L274.64,203.12L284.81,201.15L294.98,201.94L305.15,198.52L315.32,199.68L325.49,207.3L335.67,197.42L345.84,198.95L356.01,198L366.18,199.14L376.35,195.37L386.53,194.12L396.7,196.24L406.87,194.21L417.04,199.42L427.21,199L437.38,203.87L447.56,204.69L467.9,195.46L478.07,197.44L488.24,197.71L498.41,201.63L508.59,197.44L518.76,192.21L528.93,197.08L539.1,193.81L549.27,198.15L559.44,199.78L569.62,195.59L579.79,199.66L589.96,195.38L600.13,195.36L610.3,199.64L620.47,198.93L630.65,201.37L640.82,201.11L650.99,199.56L661.16,194.68L681.51,195.23L691.68,196.31L701.85,193.49L712.02,198.75L722.19,188.52L732.36,193.02L742.54,198.08L752.71,190.51L762.88,197.34L773.05,195.41L783.22,199.73L793.39,200.44L803.57,199.58L813.74,200.79L823.91,195.85L834.08,199.12L844.25,191.89L854.42,197.49L864.6,198.88L874.77,190.81L884.94,199.64L895.11,189.68L905.28,193.92L915.45,193.8L925.63,194.42L935.8,201.52L945.97,197.79L956.14,199.07L966.31,193.88L976.48,196.96L986.66,198.07L996.83,195.38L1007,192.11" style="vector-effect: none; fill: none; stroke: rgb(128, 133, 233); stroke-opacity: 1; stroke-width: 2px; opacity: 1;"/></g><g class="points"/><g class="text"/></g><g class="trace scatter trace0ff98e" style="stroke-miterlimit: 2; opacity: 1;"><g class="fills"/><g class="errorbars"/><g class="lines"><path class="js-line" d="M0,72.12L10.17,192.65L20.34,157.74L40.69,206.92L50.86,221.36L61.03,251.2L71.2,203.79L81.37,210.03L91.55,226.45L101.72,180.87L111.89,187.4L122.06,199.43L132.23,198.89L142.4,197.26L152.58,193.26L162.75,197.98L172.92,200.78L183.09,193.76L193.26,197.64L203.43,197.7L213.61,195.4L233.95,201.47L244.12,196.11L254.29,199.31L264.46,200.2L274.64,200.4L284.81,199.57L294.98,201.17L305.15,196.22L315.32,197.78L325.49,205.73L335.67,196.68L345.84,197.15L356.01,195.62L366.18,197.02L376.35,193.71L386.53,193.08L396.7,193.99L406.87,192.49L417.04,198.06L427.21,196.38L437.38,199.88L447.56,202.34L457.73,199.43L467.9,193.67L478.07,194.64L488.24,194.2L498.41,199.46L508.59,195.1L518.76,190.84L528.93,196.2L539.1,192.19L549.27,195.66L559.44,197.64L569.62,193.49L579.79,196.28L589.96,193.15L600.13,193.22L610.3,197.56L620.47,197.01L630.65,198.69L640.82,198.69L650.99,197.6L661.16,192.55L671.33,193.53L681.51,193.06L691.68,195.08L701.85,192.54L712.02,197.02L722.19,186.69L732.36,192.23L742.54,196.82L752.71,189.21L762.88,194.29L773.05,193.55L783.22,197.04L793.39,198.64L803.57,197.12L813.74,199.6L823.91,193.51L834.08,197.6L844.25,190L854.42,194.39L864.6,196.66L874.77,189.85L884.94,197.58L895.11,188.91L905.28,191.74L915.45,192.07L925.63,192.85L935.8,200.38L945.97,195.34L956.14,197.25L966.31,192.88L976.48,194.97L986.66,194.97L996.83,193.49L1007,190.65" style="vector-effect: none; fill: none; stroke: rgb(241, 92, 128); stroke-opacity: 1; stroke-width: 2px; opacity: 1;"/></g><g class="points"/><g class="text"/></g></g></g></g><path class="xlines-above crisp" d="M0,0" style="fill: none;"/><path class="ylines-above crisp" d="M0,0" style="fill: none;"/><g class="overlines-above"/><g class="xaxislayer-above"><g class="xtick"><text text-anchor="middle" x="0" y="451" transform="translate(162.55,0)" style="font-family: 'Lucida Grande', 'Open Sans', verdana, arial, sans-serif; font-size: 10px; fill: rgb(0, 0, 0); fill-opacity: 1; white-space: pre; opacity: 1;">10</text></g><g class="xtick"><text text-anchor="middle" x="0" y="451" style="font-family: 'Lucida Grande', 'Open Sans', verdana, arial, sans-serif; font-size: 10px; fill: rgb(0, 0, 0); fill-opacity: 1; white-space: pre; opacity: 1;" transform="translate(264.26,0)">20</text></g><g class="xtick"><text text-anchor="middle" x="0" y="451" style="font-family: 'Lucida Grande', 'Open Sans', verdana, arial, sans-serif; font-size: 10px; fill: rgb(0, 0, 0); fill-opacity: 1; white-space: pre; opacity: 1;" transform="translate(365.98,0)">30</text></g><g class="xtick"><text text-anchor="middle" x="0" y="451" style="font-family: 'Lucida Grande', 'Open Sans', verdana, arial, sans-serif; font-size: 10px; fill: rgb(0, 0, 0); fill-opacity: 1; white-space: pre; opacity: 1;" transform="translate(467.7,0)">40</text></g><g class="xtick"><text text-anchor="middle" x="0" y="451" style="font-family: 'Lucida Grande', 'Open Sans', verdana, arial, sans-serif; font-size: 10px; fill: rgb(0, 0, 0); fill-opacity: 1; white-space: pre; opacity: 1;" transform="translate(569.4100000000001,0)">50</text></g><g class="xtick"><text text-anchor="middle" x="0" y="451" style="font-family: 'Lucida Grande', 'Open Sans', verdana, arial, sans-serif; font-size: 10px; fill: rgb(0, 0, 0); fill-opacity: 1; white-space: pre; opacity: 1;" transform="translate(671.13,0)">60</text></g><g class="xtick"><text text-anchor="middle" x="0" y="451" style="font-family: 'Lucida Grande', 'Open Sans', verdana, arial, sans-serif; font-size: 10px; fill: rgb(0, 0, 0); fill-opacity: 1; white-space: pre; opacity: 1;" transform="translate(772.85,0)">70</text></g><g class="xtick"><text text-anchor="middle" x="0" y="451" style="font-family: 'Lucida Grande', 'Open Sans', verdana, arial, sans-serif; font-size: 10px; fill: rgb(0, 0, 0); fill-opacity: 1; white-space: pre; opacity: 1;" transform="translate(874.57,0)">80</text></g><g class="xtick"><text text-anchor="middle" x="0" y="451" style="font-family: 'Lucida Grande', 'Open Sans', verdana, arial, sans-serif; font-size: 10px; fill: rgb(0, 0, 0); fill-opacity: 1; white-space: pre; opacity: 1;" transform="translate(976.28,0)">90</text></g><g class="xtick"><text text-anchor="middle" x="0" y="451" style="font-family: 'Lucida Grande', 'Open Sans', verdana, arial, sans-serif; font-size: 10px; fill: rgb(0, 0, 0); fill-opacity: 1; white-space: pre; opacity: 1;" transform="translate(1078,0)">100</text></g></g><g class="yaxislayer-above"><g class="ytick"><text text-anchor="end" x="65" y="3.5" transform="translate(0,435)" style="font-family: 'Lucida Grande', 'Open Sans', verdana, arial, sans-serif; font-size: 10px; fill: rgb(0, 0, 0); fill-opacity: 1; white-space: pre; opacity: 1;">0%</text></g><g class="ytick"><text text-anchor="end" x="65" y="3.5" style="font-family: 'Lucida Grande', 'Open Sans', verdana, arial, sans-serif; font-size: 10px; fill: rgb(0, 0, 0); fill-opacity: 1; white-space: pre; opacity: 1;" transform="translate(0,358)">20%</text></g><g class="ytick"><text text-anchor="end" x="65" y="3.5" style="font-family: 'Lucida Grande', 'Open Sans', verdana, arial, sans-serif; font-size: 10px; fill: rgb(0, 0, 0); fill-opacity: 1; white-space: pre; opacity: 1;" transform="translate(0,281)">40%</text></g><g class="ytick"><text text-anchor="end" x="65" y="3.5" style="font-family: 'Lucida Grande', 'Open Sans', verdana, arial, sans-serif; font-size: 10px; fill: rgb(0, 0, 0); fill-opacity: 1; white-space: pre; opacity: 1;" transform="translate(0,204)">60%</text></g><g class="ytick"><text text-anchor="end" x="65" y="3.5" style="font-family: 'Lucida Grande', 'Open Sans', verdana, arial, sans-serif; font-size: 10px; fill: rgb(0, 0, 0); fill-opacity: 1; white-space: pre; opacity: 1;" transform="translate(0,127)">80%</text></g><g class="ytick"><text text-anchor="end" x="65" y="3.5" style="font-family: 'Lucida Grande', 'Open Sans', verdana, arial, sans-serif; font-size: 10px; fill: rgb(0, 0, 0); fill-opacity: 1; white-space: pre; opacity: 1;" transform="translate(0,50)">100%</text></g></g><g class="overaxes-above"/></g></g><g class="polarlayer"/><g class="smithlayer"/><g class="ternarylayer"/><g class="geolayer"/><g class="funnelarealayer"/><g class="pielayer"/><g class="iciclelayer"/><g class="treemaplayer"/><g class="sunburstlayer"/><g class="glimages"/><defs id="topdefs-a5575e"><g class="clips"/></defs><g class="layer-above"><g class="imagelayer"/><g class="shapelayer"/></g><g class="infolayer"><g class="g-gtitle"><text class="gtitle" x="550" y="25" text-anchor="middle" dy="0em" style="opacity: 1; font-family: 'Lucida Grande', 'Open Sans', verdana, arial, sans-serif; font-size: 20px; fill: rgb(42, 63, 95); fill-opacity: 1; white-space: pre;"><tspan class="line" dy="0em" x="550" y="25">Fastp: Read GC Content</tspan><tspan class="line" dy="1.3em" x="550" y="25">​<tspan style="font-size:70%" dy="-0.6em">Read 1: After filtering, 6 samples</tspan><tspan dy="0.42em">​</tspan></tspan></text></g><g class="g-xtitle"><text class="xtitle" x="574.5" y="472.3" text-anchor="middle" style="opacity: 0.3; font-family: 'Lucida Grande', 'Open Sans', verdana, arial, sans-serif; font-size: 14px; fill: rgb(0, 0, 0); fill-opacity: 1; white-space: pre;">Read Position</text></g><g class="g-ytitle"><text class="ytitle" transform="rotate(-90,22.00625,242.5)" x="22.00625" y="242.5" text-anchor="middle" style="opacity: 0.3; font-family: 'Lucida Grande', 'Open Sans', verdana, arial, sans-serif; font-size: 14px; fill: rgb(0, 0, 0); fill-opacity: 1; white-space: pre;">R1 After filtering: Base Content Percent</text></g></g></svg>