<svg class="main-svg" xmlns="http://www.w3.org/2000/svg" xmlns:xlink="http://www.w3.org/1999/xlink" width="2200" height="1000" style="" viewBox="0 0 1100 500"><rect x="0" y="0" width="1100" height="500" style="fill: rgb(255, 255, 255); fill-opacity: 1;"/><defs id="defs-c1853f"><g class="clips"><clipPath id="clipc1853fxyplot" class="plotclip"><rect width="1021" height="385"/></clipPath><clipPath class="axesclip" id="clipc1853fx"><rect x="61" y="0" width="1021" height="500"/></clipPath><clipPath class="axesclip" id="clipc1853fy"><rect x="0" y="50" width="1100" height="385"/></clipPath><clipPath class="axesclip" id="clipc1853fxy"><rect x="61" y="50" width="1021" height="385"/></clipPath></g><g class="gradients"/><g class="patterns"/></defs><g class="bglayer"/><g class="layer-below"><g class="imagelayer"/><g class="shapelayer"><g class="shape-group" data-index="0" clip-path="url(#clipc1853fx)"><path data-index="0" fill-rule="evenodd" d="M775.7,435H2613.5V50H775.7Z" style="opacity: 1; stroke: rgb(0, 0, 0); stroke-opacity: 0; fill: rgb(195, 230, 195); fill-opacity: 1; stroke-width: 0px;"/></g><g class="shape-group" data-index="1" clip-path="url(#clipc1853fx)"><path data-index="1" fill-rule="evenodd" d="M571.5,435H775.7V50H571.5Z" style="opacity: 1; stroke: rgb(0, 0, 0); stroke-opacity: 0; fill: rgb(230, 220, 195); fill-opacity: 1; stroke-width: 0px;"/></g><g class="shape-group" data-index="2" clip-path="url(#clipc1853fx)"><path data-index="2" fill-rule="evenodd" d="M61,435H571.5V50H61Z" style="opacity: 1; stroke: rgb(0, 0, 0); stroke-opacity: 0; fill: rgb(230, 195, 195); fill-opacity: 1; stroke-width: 0px;"/></g><g class="shape-group" data-index="3" clip-path="url(#clipc1853fx)"><path data-index="3" fill-rule="evenodd" d="M775.7,435H2613.5V50H775.7Z" style="opacity: 1; stroke: rgb(0, 0, 0); stroke-opacity: 0; fill: rgb(195, 230, 195); fill-opacity: 1; stroke-width: 0px;"/></g><g class="shape-group" data-index="4" clip-path="url(#clipc1853fx)"><path data-index="4" fill-rule="evenodd" d="M571.5,435H775.7V50H571.5Z" style="opacity: 1; stroke: rgb(0, 0, 0); stroke-opacity: 0; fill: rgb(230, 220, 195); fill-opacity: 1; stroke-width: 0px;"/></g><g class="shape-group" data-index="5" clip-path="url(#clipc1853fx)"><path data-index="5" fill-rule="evenodd" d="M61,435H571.5V50H61Z" style="opacity: 1; stroke: rgb(0, 0, 0); stroke-opacity: 0; fill: rgb(230, 195, 195); fill-opacity: 1; stroke-width: 0px;"/></g></g></g><g class="cartesianlayer"><g class="subplot xy"><g class="layer-subplot"><g class="shapelayer"/><g class="imagelayer"/></g><g class="minor-gridlayer"><g class="x"/><g class="y"/></g><g class="gridlayer"><g class="x"><path class="xgrid crisp" transform="translate(188.63,0)" d="M0,50v385" style="stroke: rgb(0, 0, 0); stroke-opacity: 0.05; stroke-width: 1px;"/><path class="xgrid crisp" transform="translate(316.25,0)" d="M0,50v385" style="stroke: rgb(0, 0, 0); stroke-opacity: 0.05; stroke-width: 1px;"/><path class="xgrid crisp" transform="translate(443.88,0)" d="M0,50v385" style="stroke: rgb(0, 0, 0); stroke-opacity: 0.05; stroke-width: 1px;"/><path class="xgrid crisp" transform="translate(571.5,0)" d="M0,50v385" style="stroke: rgb(0, 0, 0); stroke-opacity: 0.05; stroke-width: 1px;"/><path class="xgrid crisp" transform="translate(699.13,0)" d="M0,50v385" style="stroke: rgb(0, 0, 0); stroke-opacity: 0.05; stroke-width: 1px;"/><path class="xgrid crisp" transform="translate(826.75,0)" d="M0,50v385" style="stroke: rgb(0, 0, 0); stroke-opacity: 0.05; stroke-width: 1px;"/><path class="xgrid crisp" transform="translate(954.38,0)" d="M0,50v385" style="stroke: rgb(0, 0, 0); stroke-opacity: 0.05; stroke-width: 1px;"/></g><g class="y"><path class="ygrid crisp" transform="translate(0,369.19)" d="M61,0h1021" style="stroke: rgb(0, 0, 0); stroke-opacity: 0.05; stroke-width: 1px;"/><path class="ygrid crisp" transform="translate(0,303.38)" d="M61,0h1021" style="stroke: rgb(0, 0, 0); stroke-opacity: 0.05; stroke-width: 1px;"/><path class="ygrid crisp" transform="translate(0,237.57)" d="M61,0h1021" style="stroke: rgb(0, 0, 0); stroke-opacity: 0.05; stroke-width: 1px;"/><path class="ygrid crisp" transform="translate(0,171.76)" d="M61,0h1021" style="stroke: rgb(0, 0, 0); stroke-opacity: 0.05; stroke-width: 1px;"/><path class="ygrid crisp" transform="translate(0,105.95)" d="M61,0h1021" style="stroke: rgb(0, 0, 0); stroke-opacity: 0.05; stroke-width: 1px;"/></g></g><g class="zerolinelayer"><path class="xzl zl crisp" transform="translate(61,0)" d="M0,50v385" style="stroke: rgb(0, 0, 0); stroke-opacity: 0.05; stroke-width: 2px;"/><path class="yzl zl crisp" transform="translate(0,435)" d="M61,0h1021" style="stroke: rgb(0, 0, 0); stroke-opacity: 0.05; stroke-width: 2px;"/></g><g class="layer-between"><g class="shapelayer"/><g class="imagelayer"/></g><path class="xlines-below"/><path class="ylines-below"/><g class="overlines-below"/><g class="xaxislayer-below"/><g class="yaxislayer-below"/><g class="overaxes-below"/><g class="overplot"><g class="xy" transform="translate(61,50)" clip-path="url(#clipc1853fxyplot)"><g class="scatterlayer mlayer"><g class="trace scatter tracea12c27" style="stroke-miterlimit: 2; opacity: 1;"><g class="fills"/><g class="errorbars"/><g class="lines"><path class="js-line" d="M204.2,384.98L561.55,384.27L587.07,383.95L663.65,382.57L689.18,381.37L740.22,378.2L765.75,376.08L816.8,368.22L842.33,362.22L867.85,350.59L893.38,325.27L918.9,254.91L944.43,166.13L969.95,195.74L995.47,324.03L1021,384.94" style="vector-effect: none; fill: none; stroke: rgb(92, 184, 92); stroke-opacity: 1; stroke-width: 2px; opacity: 1;"/></g><g class="points"/><g class="text"/></g><g class="trace scatter trace073866" style="stroke-miterlimit: 2; opacity: 1;"><g class="fills"/><g class="errorbars"/><g class="lines"><path class="js-line" d="M51.05,384.8L204.2,384.86L229.73,384.67L459.45,384.25L484.98,384.08L587.07,383.33L612.6,382.87L714.7,378.89L740.22,377.1L765.75,374.67L791.28,371.25L816.8,367.31L842.33,359.65L867.85,348.92L893.38,323.56L918.9,247.23L944.43,159.69L969.95,230.23L995.47,326.76L1021,384.97" style="vector-effect: none; fill: none; stroke: rgb(92, 184, 92); stroke-opacity: 1; stroke-width: 2px; opacity: 1;"/></g><g class="points"/><g class="text"/></g><g class="trace scatter trace1cd5a1" style="stroke-miterlimit: 2; opacity: 1;"><g class="fills"/><g class="errorbars"/><g class="lines"><path class="js-line" d="M127.63,384.99L510.5,384.3L536.03,384.12L638.13,382.82L663.65,381.66L689.18,380.58L714.7,378.65L765.75,373.85L791.28,369.84L816.8,365.09L842.33,356.32L867.85,340.99L893.38,309.23L918.9,224.05L944.43,114.39L969.95,159.6L995.47,317.15L1021,384.95" style="vector-effect: none; fill: none; stroke: rgb(92, 184, 92); stroke-opacity: 1; stroke-width: 2px; opacity: 1;"/></g><g class="points"/><g class="text"/></g><g class="trace scatter trace9bd676" style="stroke-miterlimit: 2; opacity: 1;"><g class="fills"/><g class="errorbars"/><g class="lines"><path class="js-line" d="M51.05,384.74L178.68,384.81L204.2,384.7L536.03,383.37L561.55,383.18L638.13,381.51L663.65,380.54L714.7,377.36L740.22,374.86L765.75,371.99L791.28,367.45L816.8,362.62L842.33,353.85L867.85,339.32L893.38,307.19L918.9,214.32L944.43,110.04L969.95,199.62L995.47,320.83L1021,384.97" style="vector-effect: none; fill: none; stroke: rgb(92, 184, 92); stroke-opacity: 1; stroke-width: 2px; opacity: 1;"/></g><g class="points"/><g class="text"/></g><g class="trace scatter trace962662" style="stroke-miterlimit: 2; opacity: 1;"><g class="fills"/><g class="errorbars"/><g class="lines"><path class="js-line" d="M178.68,384.98L536.03,384.34L561.55,383.99L612.6,383.53L638.13,382.66L714.7,380.05L740.22,377.21L765.75,375.08L791.28,371.83L816.8,367.3L842.33,360.1L867.85,347.05L893.38,318.3L918.9,243.48L944.43,144.12L969.95,178.87L995.47,319.7L1021,384.98" style="vector-effect: none; fill: none; stroke: rgb(92, 184, 92); stroke-opacity: 1; stroke-width: 2px; opacity: 1;"/></g><g class="points"/><g class="text"/></g><g class="trace scatter traceb6d1c7" style="stroke-miterlimit: 2; opacity: 1;"><g class="fills"/><g class="errorbars"/><g class="lines"><path class="js-line" d="M51.05,384.65L153.15,384.87L178.68,384.82L510.5,383.84L536.03,383.51L587.07,382.97L612.6,382.4L689.18,379.82L714.7,378.29L765.75,373.58L791.28,369.56L816.8,366.04L842.33,357.85L867.85,344.6L893.38,318.14L918.9,235.74L944.43,137.84L969.95,215.64L995.47,323.3L1021,384.97" style="vector-effect: none; fill: none; stroke: rgb(92, 184, 92); stroke-opacity: 1; stroke-width: 2px; opacity: 1;"/></g><g class="points"/><g class="text"/></g><g class="trace scatter traceec8093" style="stroke-miterlimit: 2; opacity: 1;"><g class="fills"/><g class="errorbars"/><g class="lines"><path class="js-line" d="M178.68,384.99L459.45,383.8L484.98,383.57L561.55,382.58L587.07,381.43L612.6,380.47L638.13,378.6L689.18,372.72L714.7,368.02L765.75,354.6L791.28,344.51L816.8,332.25L842.33,315.18L867.85,288.29L893.38,241.57L918.9,138.53L944.43,19.25L969.95,97.2L995.47,311.18L1021,384.91" style="vector-effect: none; fill: none; stroke: rgb(92, 184, 92); stroke-opacity: 1; stroke-width: 2px; opacity: 1;"/></g><g class="points"/><g class="text"/></g><g class="trace scatter trace69f6a9" style="stroke-miterlimit: 2; opacity: 1;"><g class="fills"/><g class="errorbars"/><g class="lines"><path class="js-line" d="M51.05,383.7L76.57,384.6L102.1,384.63L306.3,383.21L331.83,382.96L459.45,382.08L484.98,381.28L536.03,380.26L561.55,379.11L587.07,378.1L612.6,376.19L689.18,367.32L714.7,362.11L740.22,356.14L765.75,348L791.28,338.19L816.8,326.42L842.33,308.03L867.85,282.54L893.38,233.98L918.9,128.81L944.43,43.6L969.95,173.75L995.47,324.45L1021,384.99" style="vector-effect: none; fill: none; stroke: rgb(92, 184, 92); stroke-opacity: 1; stroke-width: 2px; opacity: 1;"/></g><g class="points"/><g class="text"/></g><g class="trace scatter traceb4f16c" style="stroke-miterlimit: 2; opacity: 1;"><g class="fills"/><g class="errorbars"/><g class="lines"><path class="js-line" d="M102.1,384.99L408.4,384.32L433.92,384.12L536.03,383.3L561.55,382.93L612.6,381.6L638.13,380.15L689.18,374.82L714.7,371.36L740.22,367.54L765.75,361.64L791.28,355.42L816.8,347.57L842.33,334.7L867.85,317.48L893.38,287.05L918.9,216.57L944.43,129.18L969.95,174.6L995.47,327.71L1021,384.91" style="vector-effect: none; fill: none; stroke: rgb(92, 184, 92); stroke-opacity: 1; stroke-width: 2px; opacity: 1;"/></g><g class="points"/><g class="text"/></g><g class="trace scatter trace582877" style="stroke-miterlimit: 2; opacity: 1;"><g class="fills"/><g class="errorbars"/><g class="lines"><path class="js-line" d="M51.05,384.21L102.1,384.66L127.63,384.62L255.25,384.18L280.77,383.88L510.5,382.05L536.03,381.78L587.07,380.08L612.6,378.73L663.65,375.02L689.18,372.23L714.7,368.8L740.22,364.32L791.28,352.51L816.8,344.33L842.33,332.09L867.85,314.08L893.38,280.91L918.9,207.21L944.43,143.09L969.95,222.81L995.47,336.17L1021,384.89" style="vector-effect: none; fill: none; stroke: rgb(92, 184, 92); stroke-opacity: 1; stroke-width: 2px; opacity: 1;"/></g><g class="points"/><g class="text"/></g><g class="trace scatter tracecd618c" style="stroke-miterlimit: 2; opacity: 1;"><g class="fills"/><g class="errorbars"/><g class="lines"><path class="js-line" d="M204.2,384.96L408.4,384.34L433.92,383.99L484.98,383.75L510.5,383.47L612.6,381.55L638.13,379.59L663.65,377.7L689.18,374.38L740.22,365.72L765.75,359.46L791.28,351.52L816.8,340.74L842.33,327.39L867.85,305.03L893.38,268.55L918.9,183.42L944.43,86.82L969.95,154.7L995.47,327.28L1021,384.93" style="vector-effect: none; fill: none; stroke: rgb(92, 184, 92); stroke-opacity: 1; stroke-width: 2px; opacity: 1;"/></g><g class="points"/><g class="text"/></g><g class="trace scatter trace4cbef4" style="stroke-miterlimit: 2; opacity: 1;"><g class="fills"/><g class="errorbars"/><g class="lines"><path class="js-line" d="M51.05,384.29L127.63,384.63L153.15,384.57L229.73,384.3L255.25,384.03L357.35,383.45L382.88,383.33L536.03,381.06L561.55,380.58L612.6,378.47L638.13,376.58L663.65,374.17L689.18,370.48L714.7,367.17L740.22,362.37L765.75,355.77L791.28,348.23L816.8,337.34L842.33,322.72L867.85,300.45L893.38,261.32L918.9,173.17L944.43,98.79L969.95,213.85L995.47,336.72L1021,384.98" style="vector-effect: none; fill: none; stroke: rgb(92, 184, 92); stroke-opacity: 1; stroke-width: 2px; opacity: 1;"/></g><g class="points"/><g class="text"/></g></g></g></g><path class="xlines-above crisp" d="M0,0" style="fill: none;"/><path class="ylines-above crisp" d="M0,0" style="fill: none;"/><g class="overlines-above"/><g class="xaxislayer-above"><g class="xtick"><text text-anchor="middle" x="0" y="451" transform="translate(61,0)" style="font-family: 'Lucida Grande', 'Open Sans', verdana, arial, sans-serif; font-size: 10px; fill: rgb(0, 0, 0); fill-opacity: 1; white-space: pre; opacity: 1;">0</text></g><g class="xtick"><text text-anchor="middle" x="0" y="451" style="font-family: 'Lucida Grande', 'Open Sans', verdana, arial, sans-serif; font-size: 10px; fill: rgb(0, 0, 0); fill-opacity: 1; white-space: pre; opacity: 1;" transform="translate(188.63,0)">5</text></g><g class="xtick"><text text-anchor="middle" x="0" y="451" style="font-family: 'Lucida Grande', 'Open Sans', verdana, arial, sans-serif; font-size: 10px; fill: rgb(0, 0, 0); fill-opacity: 1; white-space: pre; opacity: 1;" transform="translate(316.25,0)">10</text></g><g class="xtick"><text text-anchor="middle" x="0" y="451" style="font-family: 'Lucida Grande', 'Open Sans', verdana, arial, sans-serif; font-size: 10px; fill: rgb(0, 0, 0); fill-opacity: 1; white-space: pre; opacity: 1;" transform="translate(443.88,0)">15</text></g><g class="xtick"><text text-anchor="middle" x="0" y="451" style="font-family: 'Lucida Grande', 'Open Sans', verdana, arial, sans-serif; font-size: 10px; fill: rgb(0, 0, 0); fill-opacity: 1; white-space: pre; opacity: 1;" transform="translate(571.5,0)">20</text></g><g class="xtick"><text text-anchor="middle" x="0" y="451" style="font-family: 'Lucida Grande', 'Open Sans', verdana, arial, sans-serif; font-size: 10px; fill: rgb(0, 0, 0); fill-opacity: 1; white-space: pre; opacity: 1;" transform="translate(699.13,0)">25</text></g><g class="xtick"><text text-anchor="middle" x="0" y="451" style="font-family: 'Lucida Grande', 'Open Sans', verdana, arial, sans-serif; font-size: 10px; fill: rgb(0, 0, 0); fill-opacity: 1; white-space: pre; opacity: 1;" transform="translate(826.75,0)">30</text></g><g class="xtick"><text text-anchor="middle" x="0" y="451" style="font-family: 'Lucida Grande', 'Open Sans', verdana, arial, sans-serif; font-size: 10px; fill: rgb(0, 0, 0); fill-opacity: 1; white-space: pre; opacity: 1;" transform="translate(954.38,0)">35</text></g><g class="xtick"><text text-anchor="middle" x="0" y="451" style="font-family: 'Lucida Grande', 'Open Sans', verdana, arial, sans-serif; font-size: 10px; fill: rgb(0, 0, 0); fill-opacity: 1; white-space: pre; opacity: 1;" transform="translate(1082,0)">40</text></g></g><g class="yaxislayer-above"><g class="ytick"><text text-anchor="end" x="55" y="3.5" transform="translate(0,435)" style="font-family: 'Lucida Grande', 'Open Sans', verdana, arial, sans-serif; font-size: 10px; fill: rgb(0, 0, 0); fill-opacity: 1; white-space: pre; opacity: 1;">0</text></g><g class="ytick"><text text-anchor="end" x="55" y="3.5" style="font-family: 'Lucida Grande', 'Open Sans', verdana, arial, sans-serif; font-size: 10px; fill: rgb(0, 0, 0); fill-opacity: 1; white-space: pre; opacity: 1;" transform="translate(0,369.19)">10k</text></g><g class="ytick"><text text-anchor="end" x="55" y="3.5" style="font-family: 'Lucida Grande', 'Open Sans', verdana, arial, sans-serif; font-size: 10px; fill: rgb(0, 0, 0); fill-opacity: 1; white-space: pre; opacity: 1;" transform="translate(0,303.38)">20k</text></g><g class="ytick"><text text-anchor="end" x="55" y="3.5" style="font-family: 'Lucida Grande', 'Open Sans', verdana, arial, sans-serif; font-size: 10px; fill: rgb(0, 0, 0); fill-opacity: 1; white-space: pre; opacity: 1;" transform="translate(0,237.57)">30k</text></g><g class="ytick"><text text-anchor="end" x="55" y="3.5" style="font-family: 'Lucida Grande', 'Open Sans', verdana, arial, sans-serif; font-size: 10px; fill: rgb(0, 0, 0); fill-opacity: 1; white-space: pre; opacity: 1;" transform="translate(0,171.76)">40k</text></g><g class="ytick"><text text-anchor="end" x="55" y="3.5" style="font-family: 'Lucida Grande', 'Open Sans', verdana, arial, sans-serif; font-size: 10px; fill: rgb(0, 0, 0); fill-opacity: 1; white-space: pre; opacity: 1;" transform="translate(0,105.95)">50k</text></g></g><g class="overaxes-above"/></g></g><g class="polarlayer"/><g class="smithlayer"/><g class="ternarylayer"/><g class="geolayer"/><g class="funnelarealayer"/><g class="pielayer"/><g class="iciclelayer"/><g class="treemaplayer"/><g class="sunburstlayer"/><g class="glimages"/><defs id="topdefs-c1853f"><g class="clips"/></defs><g class="layer-above"><g class="imagelayer"/><g class="shapelayer"/></g><g class="infolayer"><g class="g-gtitle"><text class="gtitle" x="550" y="25" text-anchor="middle" dy="0em" style="opacity: 1; font-family: 'Lucida Grande', 'Open Sans', verdana, arial, sans-serif; font-size: 20px; fill: rgb(42, 63, 95); fill-opacity: 1; white-space: pre;"><tspan class="line" dy="0em" x="550" y="25">FastQC: Per Sequence Quality Scores</tspan><tspan class="line" dy="1.3em" x="550" y="25">​<tspan style="font-size:70%" dy="-0.6em">12 samples</tspan><tspan dy="0.42em">​</tspan></tspan></text></g><g class="g-xtitle"><text class="xtitle" x="571.5" y="472.3" text-anchor="middle" style="opacity: 0.3; font-family: 'Lucida Grande', 'Open Sans', verdana, arial, sans-serif; font-size: 14px; fill: rgb(0, 0, 0); fill-opacity: 1; white-space: pre;">Mean Sequence Quality (Phred Score)</text></g><g class="g-ytitle"><text class="ytitle" transform="rotate(-90,22.084375,242.5)" x="22.084375" y="242.5" text-anchor="middle" style="opacity: 0.3; font-family: 'Lucida Grande', 'Open Sans', verdana, arial, sans-serif; font-size: 14px; fill: rgb(0, 0, 0); fill-opacity: 1; white-space: pre;">Count</text></g></g></svg>