<svg class="main-svg" xmlns="http://www.w3.org/2000/svg" xmlns:xlink="http://www.w3.org/1999/xlink" width="2200" height="1000" style="" viewBox="0 0 1100 500"><rect x="0" y="0" width="1100" height="500" style="fill: rgb(255, 255, 255); fill-opacity: 1;"/><defs id="defs-8b0ad7"><g class="clips"><clipPath id="clip8b0ad7xyplot" class="plotclip"><rect width="1017" height="385"/></clipPath><clipPath class="axesclip" id="clip8b0ad7x"><rect x="68" y="0" width="1017" height="500"/></clipPath><clipPath class="axesclip" id="clip8b0ad7y"><rect x="0" y="50" width="1100" height="385"/></clipPath><clipPath class="axesclip" id="clip8b0ad7xy"><rect x="68" y="50" width="1017" height="385"/></clipPath></g><g class="gradients"/><g class="patterns"/></defs><g class="bglayer"/><g class="layer-below"><g class="imagelayer"/><g class="shapelayer"/></g><g class="cartesianlayer"><g class="subplot xy"><g class="layer-subplot"><g class="shapelayer"/><g class="imagelayer"/></g><g class="minor-gridlayer"><g class="x"/><g class="y"/></g><g class="gridlayer"><g class="x"><path class="xgrid crisp" transform="translate(182.34,0)" d="M0,50v385" style="stroke: rgb(0, 0, 0); stroke-opacity: 0.05; stroke-width: 1px;"/><path class="xgrid crisp" transform="translate(302.69,0)" d="M0,50v385" style="stroke: rgb(0, 0, 0); stroke-opacity: 0.05; stroke-width: 1px;"/><path class="xgrid crisp" transform="translate(423.05,0)" d="M0,50v385" style="stroke: rgb(0, 0, 0); stroke-opacity: 0.05; stroke-width: 1px;"/><path class="xgrid crisp" transform="translate(543.4,0)" d="M0,50v385" style="stroke: rgb(0, 0, 0); stroke-opacity: 0.05; stroke-width: 1px;"/><path class="xgrid crisp" transform="translate(663.76,0)" d="M0,50v385" style="stroke: rgb(0, 0, 0); stroke-opacity: 0.05; stroke-width: 1px;"/><path class="xgrid crisp" transform="translate(784.11,0)" d="M0,50v385" style="stroke: rgb(0, 0, 0); stroke-opacity: 0.05; stroke-width: 1px;"/><path class="xgrid crisp" transform="translate(904.47,0)" d="M0,50v385" style="stroke: rgb(0, 0, 0); stroke-opacity: 0.05; stroke-width: 1px;"/><path class="xgrid crisp" transform="translate(1024.8200000000002,0)" d="M0,50v385" style="stroke: rgb(0, 0, 0); stroke-opacity: 0.05; stroke-width: 1px;"/></g><g class="y"><path class="ygrid crisp" transform="translate(0,361.3)" d="M68,0h1017" style="stroke: rgb(0, 0, 0); stroke-opacity: 0.05; stroke-width: 1px;"/><path class="ygrid crisp" transform="translate(0,287.6)" d="M68,0h1017" style="stroke: rgb(0, 0, 0); stroke-opacity: 0.05; stroke-width: 1px;"/><path class="ygrid crisp" transform="translate(0,213.91)" d="M68,0h1017" style="stroke: rgb(0, 0, 0); stroke-opacity: 0.05; stroke-width: 1px;"/><path class="ygrid crisp" transform="translate(0,140.20999999999998)" d="M68,0h1017" style="stroke: rgb(0, 0, 0); stroke-opacity: 0.05; stroke-width: 1px;"/><path class="ygrid crisp" transform="translate(0,66.51)" d="M68,0h1017" style="stroke: rgb(0, 0, 0); stroke-opacity: 0.05; stroke-width: 1px;"/></g></g><g class="zerolinelayer"><path class="yzl zl crisp" transform="translate(0,435)" d="M68,0h1017" style="stroke: rgb(0, 0, 0); stroke-opacity: 0.05; stroke-width: 2px;"/></g><g class="layer-between"><g class="shapelayer"/><g class="imagelayer"/></g><path class="xlines-below"/><path class="ylines-below"/><g class="overlines-below"/><g class="xaxislayer-below"/><g class="yaxislayer-below"/><g class="overaxes-below"/><g class="overplot"><g class="xy" transform="translate(68,50)" clip-path="url(#clip8b0ad7xyplot)"><g class="scatterlayer mlayer"><g class="trace scatter trace39f5be" style="stroke-miterlimit: 2; opacity: 1;"><g class="fills"/><g class="errorbars"/><g class="lines"><path class="js-line" d="M0,385L433.28,385L439.3,382.32L445.31,385L451.33,385L565.67,385L571.69,382.32L577.7,376.96L583.72,360.88L589.74,339.44L595.76,334.08L601.78,307.28L607.79,307.28L613.81,288.52L619.83,283.16L625.85,275.12L631.86,280.48L637.88,288.52L643.9,256.36L649.92,205.45L655.93,280.48L661.95,232.24L667.97,240.28L673.99,248.32L680.01,267.08L686.02,256.36L692.04,253.68L704.08,192.05L710.09,213.49L716.11,208.13L722.13,194.73L728.15,170.61L734.17,221.52L740.18,175.97L746.2,202.77L752.22,170.61L758.24,189.37L764.25,100.93L770.27,74.13L776.29,98.25L782.31,103.61L788.33,170.61L794.34,170.61L800.36,162.57L806.38,103.61L812.4,125.05L818.41,117.01L824.43,125.05L830.45,146.49L836.47,133.09L842.49,122.37L848.5,127.73L854.52,143.81L860.54,143.81L866.56,130.41L872.57,114.33L878.59,149.17L884.61,84.85L890.63,108.97L896.64,125.05L902.66,133.09L908.68,133.09L914.7,189.37L926.73,111.65L932.75,87.53L938.77,106.29L944.79,154.53L950.8,165.25L956.82,162.57L962.84,146.49L968.86,149.17L974.88,189.37L980.89,170.61L986.91,175.97L992.93,130.41L998.95,189.37L1004.96,151.85L1010.98,146.49L1017,189.37" style="vector-effect: none; fill: none; stroke: rgb(124, 181, 236); stroke-opacity: 1; stroke-width: 2px; opacity: 1;"/></g><g class="points"/><g class="text"/></g><g class="trace scatter trace785792" style="stroke-miterlimit: 2; opacity: 1;"><g class="fills"/><g class="errorbars"/><g class="lines"><path class="js-line" d="M0,385L565.67,385L571.69,383L577.7,379.01L583.72,367.02L589.74,321.09L595.76,307.11L601.78,323.09L607.79,279.15L613.81,265.17L619.83,309.11L625.85,263.17L631.86,287.14L637.88,239.2L643.9,215.24L649.92,249.19L655.93,227.22L661.95,223.22L667.97,245.19L673.99,221.23L680.01,183.28L686.02,235.21L692.04,199.26L698.06,177.29L704.08,171.3L710.09,181.28L716.11,207.25L722.13,189.27L728.15,193.27L734.17,171.3L740.18,163.31L746.2,221.23L752.22,193.27L758.24,153.32L764.25,129.35L770.27,175.29L776.29,187.27L782.31,177.29L788.33,137.34L794.34,95.4L800.36,145.33L806.38,153.32L812.4,189.27L818.41,117.37L824.43,139.34L830.45,111.38L836.47,151.32L842.49,143.34L848.5,137.34L854.52,175.29L860.54,123.36L866.56,159.31L872.57,77.43L878.59,77.43L884.61,103.39L890.63,175.29L896.64,155.32L902.66,125.36L908.68,99.4L914.7,115.37L920.72,175.29L926.73,145.33L932.75,151.32L938.77,145.33L944.79,187.27L950.8,139.34L956.82,179.29L962.84,143.34L968.86,143.34L974.88,125.36L980.89,167.3L986.91,199.26L992.93,171.3L998.95,179.29L1004.96,213.24L1010.98,169.3L1017,179.29" style="vector-effect: none; fill: none; stroke: rgb(67, 67, 72); stroke-opacity: 1; stroke-width: 2px; opacity: 1;"/></g><g class="points"/><g class="text"/></g><g class="trace scatter trace5ea9d8" style="stroke-miterlimit: 2; opacity: 1;"><g class="fills"/><g class="errorbars"/><g class="lines"><path class="js-line" d="M0,385L240.71,385L246.73,382.77L252.75,385L258.76,385L306.91,385L312.92,382.77L318.94,385L324.96,385L547.62,385L553.63,382.77L559.65,385L565.67,385L571.69,385L577.7,382.77L583.72,369.38L589.74,331.46L595.76,331.46L601.78,320.3L607.79,315.84L613.81,289.07L619.83,320.3L625.85,306.92L631.86,271.22L637.88,318.07L643.9,264.53L649.92,260.07L655.93,246.68L661.95,266.76L667.97,266.76L673.99,226.61L680.01,231.07L686.02,233.3L692.04,197.6L698.06,195.37L704.08,217.68L710.09,173.06L716.11,175.3L722.13,217.68L728.15,175.3L734.17,164.14L740.18,152.99L746.2,132.91L752.22,128.45L758.24,130.68L764.25,170.83L770.27,177.53L776.29,132.91L782.31,121.75L788.33,157.45L794.34,155.22L800.36,132.91L806.38,135.14L812.4,115.06L818.41,72.67L824.43,108.37L830.45,130.68L836.47,144.06L842.49,99.44L848.5,88.29L854.52,112.83L860.54,115.06L866.56,108.37L872.57,126.22L878.59,110.6L884.61,132.91L890.63,141.83L896.64,150.76L902.66,97.21L908.68,170.83L914.7,130.68L920.72,123.98L926.73,135.14L932.75,119.52L938.77,137.37L944.79,161.91L950.8,121.75L956.82,99.44L962.84,190.91L968.86,141.83L974.88,231.07L980.89,193.14L986.91,179.76L992.93,210.99L998.95,164.14L1004.96,186.45L1010.98,195.37L1017,210.99" style="vector-effect: none; fill: none; stroke: rgb(144, 237, 125); stroke-opacity: 1; stroke-width: 2px; opacity: 1;"/></g><g class="points"/><g class="text"/></g><g class="trace scatter trace2709e6" style="stroke-miterlimit: 2; opacity: 1;"><g class="fills"/><g class="errorbars"/><g class="lines"><path class="js-line" d="M0,385L180.53,385L186.55,383.3L192.57,385L198.59,385L373.1,385L379.12,383.3L385.14,385L391.15,385L409.21,385L415.22,383.3L421.24,385L427.26,385L577.7,385L583.72,381.61L589.74,337.48L595.76,347.66L601.78,339.18L607.79,344.27L613.81,312.02L619.83,317.11L625.85,291.66L631.86,322.21L637.88,318.81L643.9,303.54L649.92,312.02L655.93,262.81L661.95,274.69L667.97,235.65L673.99,278.08L680.01,279.78L686.02,267.9L692.04,261.11L698.06,283.17L704.08,228.86L710.09,230.56L716.11,259.41L722.13,223.77L728.15,232.26L734.17,223.77L740.18,223.77L746.2,227.17L752.22,240.74L758.24,194.92L764.25,220.38L770.27,169.46L776.29,160.98L782.31,106.67L788.33,135.52L794.34,152.49L800.36,144.01L806.38,174.56L812.4,127.04L818.41,127.04L824.43,135.52L830.45,91.4L836.47,86.31L842.49,89.7L848.5,111.76L854.52,113.46L860.54,104.97L866.56,135.52L872.57,138.92L878.59,135.52L884.61,125.34L890.63,140.61L896.64,106.67L902.66,144.01L908.68,98.19L914.7,94.79L920.72,115.16L926.73,86.31L932.75,99.88L938.77,84.61L944.79,123.64L950.8,89.7L956.82,125.34L962.84,52.36L968.86,32L974.88,82.91L980.89,28.6L986.91,94.79L992.93,104.97L998.95,77.82L1004.96,150.8L1010.98,164.37L1017,130.43" style="vector-effect: none; fill: none; stroke: rgb(247, 163, 92); stroke-opacity: 1; stroke-width: 2px; opacity: 1;"/></g><g class="points"/><g class="text"/></g><g class="trace scatter traced3510d" style="stroke-miterlimit: 2; opacity: 1;"><g class="fills"/><g class="errorbars"/><g class="lines"><path class="js-line" d="M0,385L282.83,385L288.85,383.15L294.87,385L300.89,385L379.12,385L385.14,383.15L391.15,385L397.17,385L505.49,385L511.51,383.15L517.53,385L523.54,385L529.56,385L535.58,383.15L541.6,385L547.62,385L565.67,385L571.69,383.15L577.7,383.15L583.72,370.22L589.74,322.17L595.76,314.78L601.78,279.66L607.79,307.38L613.81,312.93L619.83,274.12L625.85,283.36L631.86,288.9L637.88,250.1L643.9,287.06L649.92,272.27L655.93,274.12L661.95,239.01L667.97,240.86L673.99,268.58L680.01,272.27L686.02,168.79L692.04,207.59L698.06,209.44L704.08,244.55L710.09,194.66L716.11,211.29L722.13,178.03L728.15,183.57L734.17,126.28L740.18,185.42L746.2,183.57L752.22,168.79L758.24,111.5L764.25,183.57L770.27,178.03L776.29,150.31L782.31,161.39L788.33,141.07L794.34,133.67L800.36,122.59L806.38,159.55L812.4,161.39L818.41,142.91L824.43,129.98L830.45,113.35L836.47,142.91L842.49,135.52L848.5,131.83L854.52,74.54L860.54,122.59L866.56,115.19L872.57,152.15L878.59,113.35L884.61,174.33L890.63,154L896.64,163.24L902.66,115.19L908.68,128.13L914.7,87.47L920.72,100.41L926.73,144.76L932.75,157.7L938.77,126.28L944.79,183.57L950.8,166.94L956.82,166.94L962.84,161.39L968.86,150.31L974.88,111.5L980.89,183.57L986.91,170.63L992.93,174.33L998.95,139.22L1004.96,146.61L1010.98,133.67L1017,139.22" style="vector-effect: none; fill: none; stroke: rgb(128, 133, 233); stroke-opacity: 1; stroke-width: 2px; opacity: 1;"/></g><g class="points"/><g class="text"/></g><g class="trace scatter trace1d8a0c" style="stroke-miterlimit: 2; opacity: 1;"><g class="fills"/><g class="errorbars"/><g class="lines"><path class="js-line" d="M0,385L565.67,385L571.69,380.17L577.7,383.39L583.72,367.28L589.74,341.5L595.76,323.77L601.78,302.83L607.79,323.77L613.81,304.44L619.83,278.66L625.85,236.77L631.86,272.21L637.88,278.66L643.9,256.1L649.92,252.88L655.93,236.77L661.95,249.66L667.97,235.16L673.99,239.99L680.01,198.1L686.02,228.71L692.04,222.27L698.06,191.65L704.08,217.43L710.09,185.21L716.11,217.43L722.13,185.21L728.15,175.54L734.17,130.43L740.18,157.82L746.2,107.87L752.22,178.76L758.24,161.04L764.25,169.09L770.27,175.54L776.29,144.93L782.31,127.2L788.33,151.37L794.34,172.32L800.36,169.09L806.38,149.76L812.4,133.65L818.41,202.93L824.43,114.31L830.45,148.15L836.47,19.25L842.49,88.53L848.5,88.53L854.52,49.86L860.54,138.48L866.56,103.03L872.57,77.25L878.59,117.54L884.61,112.7L890.63,172.32L896.64,198.1L902.66,157.82L908.68,180.37L914.7,138.48L920.72,172.32L926.73,188.43L932.75,169.09L938.77,59.53L944.79,140.09L950.8,130.43L956.82,132.04L962.84,104.65L968.86,149.76L974.88,173.93L980.89,204.54L986.91,199.71L992.93,193.26L998.95,215.82L1004.96,204.54L1010.98,199.71L1017,175.54" style="vector-effect: none; fill: none; stroke: rgb(241, 92, 128); stroke-opacity: 1; stroke-width: 2px; opacity: 1;"/></g><g class="points"/><g class="text"/></g></g></g></g><path class="xlines-above crisp" d="M0,0" style="fill: none;"/><path class="ylines-above crisp" d="M0,0" style="fill: none;"/><g class="overlines-above"/><g class="xaxislayer-above"><g class="xtick"><text text-anchor="middle" x="0" y="451" transform="translate(182.34,0)" style="font-family: 'Lucida Grande', 'Open Sans', verdana, arial, sans-serif; font-size: 10px; fill: rgb(0, 0, 0); fill-opacity: 1; white-space: pre; opacity: 1;">20</text></g><g class="xtick"><text text-anchor="middle" x="0" y="451" style="font-family: 'Lucida Grande', 'Open Sans', verdana, arial, sans-serif; font-size: 10px; fill: rgb(0, 0, 0); fill-opacity: 1; white-space: pre; opacity: 1;" transform="translate(302.69,0)">40</text></g><g class="xtick"><text text-anchor="middle" x="0" y="451" style="font-family: 'Lucida Grande', 'Open Sans', verdana, arial, sans-serif; font-size: 10px; fill: rgb(0, 0, 0); fill-opacity: 1; white-space: pre; opacity: 1;" transform="translate(423.05,0)">60</text></g><g class="xtick"><text text-anchor="middle" x="0" y="451" style="font-family: 'Lucida Grande', 'Open Sans', verdana, arial, sans-serif; font-size: 10px; fill: rgb(0, 0, 0); fill-opacity: 1; white-space: pre; opacity: 1;" transform="translate(543.4,0)">80</text></g><g class="xtick"><text text-anchor="middle" x="0" y="451" style="font-family: 'Lucida Grande', 'Open Sans', verdana, arial, sans-serif; font-size: 10px; fill: rgb(0, 0, 0); fill-opacity: 1; white-space: pre; opacity: 1;" transform="translate(663.76,0)">100</text></g><g class="xtick"><text text-anchor="middle" x="0" y="451" style="font-family: 'Lucida Grande', 'Open Sans', verdana, arial, sans-serif; font-size: 10px; fill: rgb(0, 0, 0); fill-opacity: 1; white-space: pre; opacity: 1;" transform="translate(784.11,0)">120</text></g><g class="xtick"><text text-anchor="middle" x="0" y="451" style="font-family: 'Lucida Grande', 'Open Sans', verdana, arial, sans-serif; font-size: 10px; fill: rgb(0, 0, 0); fill-opacity: 1; white-space: pre; opacity: 1;" transform="translate(904.47,0)">140</text></g><g class="xtick"><text text-anchor="middle" x="0" y="451" style="font-family: 'Lucida Grande', 'Open Sans', verdana, arial, sans-serif; font-size: 10px; fill: rgb(0, 0, 0); fill-opacity: 1; white-space: pre; opacity: 1;" transform="translate(1024.8200000000002,0)">160</text></g></g><g class="yaxislayer-above"><g class="ytick"><text text-anchor="end" x="62" y="3.5" transform="translate(0,435)" style="font-family: 'Lucida Grande', 'Open Sans', verdana, arial, sans-serif; font-size: 10px; fill: rgb(0, 0, 0); fill-opacity: 1; white-space: pre; opacity: 1;">0%</text></g><g class="ytick"><text text-anchor="end" x="62" y="3.5" style="font-family: 'Lucida Grande', 'Open Sans', verdana, arial, sans-serif; font-size: 10px; fill: rgb(0, 0, 0); fill-opacity: 1; white-space: pre; opacity: 1;" transform="translate(0,361.3)">0.5%</text></g><g class="ytick"><text text-anchor="end" x="62" y="3.5" style="font-family: 'Lucida Grande', 'Open Sans', verdana, arial, sans-serif; font-size: 10px; fill: rgb(0, 0, 0); fill-opacity: 1; white-space: pre; opacity: 1;" transform="translate(0,287.6)">1%</text></g><g class="ytick"><text text-anchor="end" x="62" y="3.5" style="font-family: 'Lucida Grande', 'Open Sans', verdana, arial, sans-serif; font-size: 10px; fill: rgb(0, 0, 0); fill-opacity: 1; white-space: pre; opacity: 1;" transform="translate(0,213.91)">1.5%</text></g><g class="ytick"><text text-anchor="end" x="62" y="3.5" style="font-family: 'Lucida Grande', 'Open Sans', verdana, arial, sans-serif; font-size: 10px; fill: rgb(0, 0, 0); fill-opacity: 1; white-space: pre; opacity: 1;" transform="translate(0,140.20999999999998)">2%</text></g><g class="ytick"><text text-anchor="end" x="62" y="3.5" style="font-family: 'Lucida Grande', 'Open Sans', verdana, arial, sans-serif; font-size: 10px; fill: rgb(0, 0, 0); fill-opacity: 1; white-space: pre; opacity: 1;" transform="translate(0,66.51)">2.5%</text></g></g><g class="overaxes-above"/></g></g><g class="polarlayer"/><g class="smithlayer"/><g class="ternarylayer"/><g class="geolayer"/><g class="funnelarealayer"/><g class="pielayer"/><g class="iciclelayer"/><g class="treemaplayer"/><g class="sunburstlayer"/><g class="glimages"/><defs id="topdefs-8b0ad7"><g class="clips"/></defs><g class="layer-above"><g class="imagelayer"/><g class="shapelayer"/></g><g class="infolayer"><g class="g-gtitle"><text class="gtitle" x="550" y="25" text-anchor="middle" dy="0em" style="opacity: 1; font-family: 'Lucida Grande', 'Open Sans', verdana, arial, sans-serif; font-size: 20px; fill: rgb(42, 63, 95); fill-opacity: 1; white-space: pre;"><tspan class="line" dy="0em" x="550" y="25">Fastp: Insert Size Distribution</tspan><tspan class="line" dy="1.3em" x="550" y="25">​<tspan style="font-size:70%" dy="-0.6em">6 samples</tspan><tspan dy="0.42em">​</tspan></tspan></text></g><g class="g-xtitle"><text class="xtitle" x="576.5" y="472.3" text-anchor="middle" style="opacity: 0.3; font-family: 'Lucida Grande', 'Open Sans', verdana, arial, sans-serif; font-size: 14px; fill: rgb(0, 0, 0); fill-opacity: 1; white-space: pre;">Insert size</text></g><g class="g-ytitle"><text class="ytitle" transform="rotate(-90,22.19375,242.5)" x="22.19375" y="242.5" text-anchor="middle" style="opacity: 0.3; font-family: 'Lucida Grande', 'Open Sans', verdana, arial, sans-serif; font-size: 14px; fill: rgb(0, 0, 0); fill-opacity: 1; white-space: pre;">Read percent</text></g></g></svg>