<svg class="main-svg" xmlns="http://www.w3.org/2000/svg" xmlns:xlink="http://www.w3.org/1999/xlink" width="2200" height="1000" style="" viewBox="0 0 1100 500"><rect x="0" y="0" width="1100" height="500" style="fill: rgb(255, 255, 255); fill-opacity: 1;"/><defs id="defs-307288"><g class="clips"><clipPath id="clip307288xyplot" class="plotclip"><rect width="1007" height="385"/></clipPath><clipPath class="axesclip" id="clip307288x"><rect x="71" y="0" width="1007" height="500"/></clipPath><clipPath class="axesclip" id="clip307288y"><rect x="0" y="50" width="1100" height="385"/></clipPath><clipPath class="axesclip" id="clip307288xy"><rect x="71" y="50" width="1007" height="385"/></clipPath></g><g class="gradients"/><g class="patterns"/></defs><g class="bglayer"/><g class="layer-below"><g class="imagelayer"/><g class="shapelayer"/></g><g class="cartesianlayer"><g class="subplot xy"><g class="layer-subplot"><g class="shapelayer"/><g class="imagelayer"/></g><g class="minor-gridlayer"><g class="x"/><g class="y"/></g><g class="gridlayer"><g class="x"><path class="xgrid crisp" transform="translate(162.55,0)" d="M0,50v385" style="stroke: rgb(0, 0, 0); stroke-opacity: 0.05; stroke-width: 1px;"/><path class="xgrid crisp" transform="translate(264.26,0)" d="M0,50v385" style="stroke: rgb(0, 0, 0); stroke-opacity: 0.05; stroke-width: 1px;"/><path class="xgrid crisp" transform="translate(365.98,0)" d="M0,50v385" style="stroke: rgb(0, 0, 0); stroke-opacity: 0.05; stroke-width: 1px;"/><path class="xgrid crisp" transform="translate(467.7,0)" d="M0,50v385" style="stroke: rgb(0, 0, 0); stroke-opacity: 0.05; stroke-width: 1px;"/><path class="xgrid crisp" transform="translate(569.4100000000001,0)" d="M0,50v385" style="stroke: rgb(0, 0, 0); stroke-opacity: 0.05; stroke-width: 1px;"/><path class="xgrid crisp" transform="translate(671.13,0)" d="M0,50v385" style="stroke: rgb(0, 0, 0); stroke-opacity: 0.05; stroke-width: 1px;"/><path class="xgrid crisp" transform="translate(772.85,0)" d="M0,50v385" style="stroke: rgb(0, 0, 0); stroke-opacity: 0.05; stroke-width: 1px;"/><path class="xgrid crisp" transform="translate(874.57,0)" d="M0,50v385" style="stroke: rgb(0, 0, 0); stroke-opacity: 0.05; stroke-width: 1px;"/><path class="xgrid crisp" transform="translate(976.28,0)" d="M0,50v385" style="stroke: rgb(0, 0, 0); stroke-opacity: 0.05; stroke-width: 1px;"/></g><g class="y"><path class="ygrid crisp" transform="translate(0,358)" d="M71,0h1007" style="stroke: rgb(0, 0, 0); stroke-opacity: 0.05; stroke-width: 1px;"/><path class="ygrid crisp" transform="translate(0,281)" d="M71,0h1007" style="stroke: rgb(0, 0, 0); stroke-opacity: 0.05; stroke-width: 1px;"/><path class="ygrid crisp" transform="translate(0,204)" d="M71,0h1007" style="stroke: rgb(0, 0, 0); stroke-opacity: 0.05; stroke-width: 1px;"/><path class="ygrid crisp" transform="translate(0,127)" d="M71,0h1007" style="stroke: rgb(0, 0, 0); stroke-opacity: 0.05; stroke-width: 1px;"/></g></g><g class="zerolinelayer"><path class="yzl zl crisp" transform="translate(0,435)" d="M71,0h1007" style="stroke: rgb(0, 0, 0); stroke-opacity: 0.05; stroke-width: 2px;"/></g><g class="layer-between"><g class="shapelayer"/><g class="imagelayer"/></g><path class="xlines-below"/><path class="ylines-below"/><g class="overlines-below"/><g class="xaxislayer-below"/><g class="yaxislayer-below"/><g class="overaxes-below"/><g class="overplot"><g class="xy" transform="translate(71,50)" clip-path="url(#clip307288xyplot)"><g class="scatterlayer mlayer"><g class="trace scatter trace4df47f" style="stroke-miterlimit: 2; opacity: 1;"><g class="fills"/><g class="errorbars"/><g class="lines"><path class="js-line" d="M0,103.76L10.17,212.34L20.34,199.13L30.52,201.11L40.69,200.09L50.86,214.91L61.03,211.04L71.2,185.49L81.37,191.61L91.55,205.2L101.72,166.69L111.89,174.01L122.06,189.55L132.23,196.42L142.4,193.49L152.58,191.47L162.75,188.56L172.92,191.99L183.09,183.99L193.26,187.71L203.43,187.62L213.61,188.96L223.78,193.49L233.95,193.71L244.12,190.9L254.29,185.08L264.46,190.61L274.64,188.33L284.81,194.3L305.15,189.63L315.32,184.37L325.49,190.64L335.67,189.5L356.01,184.61L366.18,187.63L376.35,188.04L386.53,189.72L396.7,188.46L406.87,190.38L417.04,192.48L427.21,187.87L437.38,188.92L447.56,192.2L457.73,189.01L467.9,190.97L478.07,188.83L488.24,188.22L498.41,193.82L508.59,195.9L518.76,189.82L528.93,189.56L539.1,191.11L549.27,190.4L569.62,193.67L579.79,192.82L589.96,192.78L600.13,189.68L620.47,192.99L630.65,192.39L650.99,191.46L661.16,191.03L671.33,193.12L681.51,193.68L691.68,193.57L701.85,190.76L712.02,191.48L722.19,190.36L732.36,188.75L742.54,190.42L752.71,194.04L762.88,194.58L773.05,191.2L783.22,195.33L793.39,193.83L803.57,194.13L813.74,193.03L823.91,189.96L834.08,191.36L844.25,191.95L864.6,194.9L874.77,193.36L884.94,190.42L895.11,191.64L905.28,196.32L915.45,194.59L925.63,189.37L935.8,191.9L956.14,196.07L966.31,197.28L976.48,189.41L986.66,192.77L996.83,193.16L1007,189.64" style="vector-effect: none; fill: none; stroke: rgb(124, 181, 236); stroke-opacity: 1; stroke-width: 2px; opacity: 1;"/></g><g class="points"/><g class="text"/></g><g class="trace scatter tracea92d56" style="stroke-miterlimit: 2; opacity: 1;"><g class="fills"/><g class="errorbars"/><g class="lines"><path class="js-line" d="M0,102.27L10.17,211.26L20.34,198.42L40.69,199.86L50.86,213.76L61.03,209.15L71.2,184.73L81.37,190.14L91.55,204.35L101.72,165.51L111.89,171.03L122.06,189.08L132.23,194.36L142.4,192.31L152.58,188.45L162.75,186.16L172.92,191.24L183.09,184.52L193.26,187.73L203.43,187.04L213.61,187.73L223.78,192.52L233.95,191.63L244.12,189.95L254.29,184.1L264.46,189.02L274.64,186.14L284.81,193.47L294.98,189.93L305.15,188.08L315.32,183.35L325.49,189.41L335.67,189.17L345.84,185.64L356.01,183.15L366.18,187.29L376.35,185.21L386.53,189.54L396.7,187.94L417.04,192.04L427.21,186.24L447.56,190.1L457.73,187.89L467.9,188.73L478.07,187.9L488.24,187.37L498.41,190.18L508.59,194.68L518.76,189.06L528.93,187.5L539.1,188.4L549.27,190.01L559.44,190.62L579.79,191.91L589.96,192.13L600.13,188.3L610.3,191.26L620.47,192.5L630.65,189.83L650.99,190.11L661.16,188.84L671.33,192.26L681.51,190.85L691.68,192.36L701.85,188.97L712.02,189.44L722.19,188.76L742.54,189.03L752.71,192.35L762.88,193.5L773.05,191.08L783.22,192.61L793.39,192.8L803.57,193.85L813.74,191.61L823.91,189.36L834.08,191.06L844.25,191.28L854.42,193.81L864.6,194.56L874.77,190.8L884.94,189.94L895.11,190.31L905.28,194.45L915.45,193.02L925.63,189.47L935.8,191.12L956.14,195.56L966.31,195.01L976.48,188.18L986.66,191.57L996.83,192.94L1007,188.76" style="vector-effect: none; fill: none; stroke: rgb(67, 67, 72); stroke-opacity: 1; stroke-width: 2px; opacity: 1;"/></g><g class="points"/><g class="text"/></g><g class="trace scatter trace8e6532" style="stroke-miterlimit: 2; opacity: 1;"><g class="fills"/><g class="errorbars"/><g class="lines"><path class="js-line" d="M0,103.1L10.17,210.8L20.34,198.32L30.52,201.07L40.69,198.66L50.86,215.25L61.03,211.1L71.2,185.88L81.37,191.33L91.55,205.6L101.72,166.47L111.89,172.86L122.06,189.41L132.23,195.16L142.4,192.42L152.58,190.74L162.75,187.8L172.92,191.92L183.09,185.27L193.26,188.28L203.43,187.35L213.61,188.95L223.78,194.04L244.12,190.99L254.29,186.47L264.46,189.56L274.64,188.35L284.81,192.97L294.98,191.27L305.15,189.38L315.32,185.06L325.49,190.27L335.67,189.98L345.84,186.78L356.01,185.53L366.18,188.42L376.35,187.32L386.53,189.75L396.7,188.82L406.87,191.28L417.04,192.72L427.21,188.08L437.38,189.55L447.56,192.2L457.73,189.09L478.07,189.63L488.24,189.33L508.59,195.38L518.76,191.61L528.93,187.44L539.1,190.6L559.44,192.75L569.62,191.48L579.79,192.61L589.96,192.82L600.13,189.89L610.3,191.53L620.47,192.42L630.65,191.97L650.99,191.79L661.16,189.72L671.33,192.67L681.51,192.62L691.68,193.43L701.85,190.85L712.02,191.26L722.19,189.6L732.36,188.87L742.54,190.18L762.88,194.48L773.05,191L783.22,194.28L793.39,194.43L803.57,194.89L813.74,192.52L823.91,189.18L834.08,191.28L844.25,193.18L854.42,194.31L864.6,194.54L874.77,192.42L884.94,190.01L895.11,192.37L905.28,195.47L915.45,192.95L925.63,189.46L935.8,190.73L945.97,194.48L956.14,196.56L966.31,195.71L976.48,188.31L986.66,192.77L996.83,193.55L1007,189.33" style="vector-effect: none; fill: none; stroke: rgb(144, 237, 125); stroke-opacity: 1; stroke-width: 2px; opacity: 1;"/></g><g class="points"/><g class="text"/></g><g class="trace scatter trace5c1267" style="stroke-miterlimit: 2; opacity: 1;"><g class="fills"/><g class="errorbars"/><g class="lines"><path class="js-line" d="M0,106.82L10.17,216.29L20.34,206.15L30.52,206.14L40.69,207.12L50.86,222.18L61.03,213.26L71.2,187.95L81.37,192.52L91.55,211.04L101.72,173.39L111.89,179.08L122.06,192L132.23,199.55L142.4,197.75L152.58,192.75L162.75,191.66L172.92,195.16L183.09,188.32L193.26,193.67L203.43,193.35L213.61,191.08L223.78,197.52L233.95,195.14L244.12,194.39L254.29,190.88L264.46,193.33L284.81,193.41L294.98,194.63L305.15,191.14L315.32,189.98L325.49,196.72L335.67,193.88L345.84,193.5L356.01,187.72L366.18,192.79L376.35,191.39L386.53,193.77L396.7,194.94L406.87,194.43L417.04,197.17L427.21,191.49L437.38,192.24L447.56,193.57L457.73,192.85L467.9,193.42L478.07,190.33L488.24,190.8L498.41,194.16L508.59,198.29L518.76,194.82L528.93,193.45L539.1,194.93L549.27,193.8L559.44,196.53L569.62,195.19L579.79,195.09L589.96,194.84L600.13,191.46L620.47,197.31L630.65,195.17L650.99,194.72L661.16,193.94L671.33,196.01L681.51,194.75L691.68,198.18L701.85,191.68L722.19,195.31L732.36,190.32L752.71,195.79L762.88,194.69L773.05,195.74L783.22,197.94L793.39,195.6L803.57,198.5L813.74,196.33L823.91,191.83L834.08,195.98L844.25,194.72L854.42,195.58L864.6,197.34L874.77,195.38L884.94,192.59L905.28,199.42L915.45,197.33L925.63,192.7L935.8,194.47L956.14,198.84L966.31,199.77L976.48,193.64L986.66,197.6L996.83,198.2L1007,191.99" style="vector-effect: none; fill: none; stroke: rgb(247, 163, 92); stroke-opacity: 1; stroke-width: 2px; opacity: 1;"/></g><g class="points"/><g class="text"/></g><g class="trace scatter traceeacc1d" style="stroke-miterlimit: 2; opacity: 1;"><g class="fills"/><g class="errorbars"/><g class="lines"><path class="js-line" d="M0,107.8L10.17,219.74L20.34,208.02L40.69,208.81L50.86,224.17L61.03,216.48L71.2,194.8L81.37,198.26L91.55,211.79L101.72,176.03L111.89,179.95L122.06,192.89L132.23,201.25L142.4,198.83L152.58,193.87L162.75,193.6L172.92,196.12L183.09,189.29L193.26,194.41L213.61,193.2L223.78,198.16L233.95,198.27L244.12,196.83L254.29,194.37L264.46,196.03L284.81,196.22L294.98,197.28L305.15,193.6L315.32,192.24L325.49,196.42L335.67,195.78L345.84,194.96L356.01,190.12L366.18,195.59L376.35,193.18L396.7,196.2L406.87,196.24L417.04,198.42L427.21,193.81L447.56,195.72L457.73,194.58L467.9,196.67L478.07,192.68L488.24,194.26L498.41,197.4L508.59,201.49L518.76,195.63L528.93,194.46L539.1,197.68L549.27,195.98L559.44,198.05L569.62,197.58L579.79,198.13L589.96,197.73L600.13,192.42L610.3,196.33L620.47,199.29L630.65,196.23L640.82,198.34L650.99,195.96L661.16,195.17L671.33,198.7L681.51,197L691.68,197.98L701.85,194.51L712.02,197.27L722.19,196.17L732.36,192.63L742.54,195.45L752.71,197.72L762.88,198.59L773.05,197.6L783.22,201.82L793.39,197.31L803.57,200.45L813.74,199.44L823.91,193.81L834.08,199.05L844.25,198.39L864.6,199.6L874.77,196.68L884.94,194.15L895.11,197.02L905.28,200.92L915.45,200.39L925.63,195.45L935.8,196.43L945.97,196.94L956.14,202.7L966.31,201.83L976.48,195.21L986.66,200.99L996.83,200.42L1007,194.05" style="vector-effect: none; fill: none; stroke: rgb(128, 133, 233); stroke-opacity: 1; stroke-width: 2px; opacity: 1;"/></g><g class="points"/><g class="text"/></g><g class="trace scatter trace30107f" style="stroke-miterlimit: 2; opacity: 1;"><g class="fills"/><g class="errorbars"/><g class="lines"><path class="js-line" d="M0,108.34L10.17,215.43L20.34,203.55L40.69,206.48L50.86,221.74L61.03,213.19L71.2,189.11L81.37,193.96L91.55,210.22L101.72,172.68L111.89,178.05L122.06,190.56L132.23,199.78L142.4,197.11L152.58,191.65L162.75,192.38L172.92,194.69L183.09,187.33L193.26,193.07L203.43,191.79L213.61,191.73L223.78,198.01L233.95,195.92L254.29,190.95L264.46,193.02L274.64,192.32L284.81,193.03L294.98,195.58L305.15,191.24L315.32,190.58L325.49,195.79L335.67,193.77L345.84,192.84L356.01,187.99L366.18,191.93L376.35,191.87L386.53,192.63L396.7,194.5L406.87,193.56L417.04,197.04L427.21,191.59L437.38,192.99L447.56,193.44L457.73,192.66L467.9,193.73L478.07,190.52L488.24,191.3L508.59,198.66L518.76,195.61L528.93,192.32L539.1,195.39L549.27,193.35L559.44,196.15L589.96,194.31L600.13,191.6L620.47,196.4L630.65,195.02L640.82,195.49L650.99,194.69L661.16,192.96L671.33,197.03L681.51,194.97L691.68,197.07L701.85,192.38L712.02,194.37L722.19,195.02L732.36,189.75L742.54,192.97L752.71,195.32L762.88,194.23L773.05,195.88L783.22,199.11L793.39,194.64L803.57,198.2L813.74,196.14L823.91,191.99L834.08,196.68L844.25,195.69L854.42,196.13L864.6,196.55L874.77,195.13L884.94,192.92L895.11,195.4L905.28,200.05L915.45,198.75L925.63,193.96L935.8,194.58L945.97,195.49L956.14,199.73L966.31,199.93L976.48,193.35L986.66,199.28L996.83,197.7L1007,191.79" style="vector-effect: none; fill: none; stroke: rgb(241, 92, 128); stroke-opacity: 1; stroke-width: 2px; opacity: 1;"/></g><g class="points"/><g class="text"/></g></g></g></g><path class="xlines-above crisp" d="M0,0" style="fill: none;"/><path class="ylines-above crisp" d="M0,0" style="fill: none;"/><g class="overlines-above"/><g class="xaxislayer-above"><g class="xtick"><text text-anchor="middle" x="0" y="451" transform="translate(162.55,0)" style="font-family: 'Lucida Grande', 'Open Sans', verdana, arial, sans-serif; font-size: 10px; fill: rgb(0, 0, 0); fill-opacity: 1; white-space: pre; opacity: 1;">10</text></g><g class="xtick"><text text-anchor="middle" x="0" y="451" style="font-family: 'Lucida Grande', 'Open Sans', verdana, arial, sans-serif; font-size: 10px; fill: rgb(0, 0, 0); fill-opacity: 1; white-space: pre; opacity: 1;" transform="translate(264.26,0)">20</text></g><g class="xtick"><text text-anchor="middle" x="0" y="451" style="font-family: 'Lucida Grande', 'Open Sans', verdana, arial, sans-serif; font-size: 10px; fill: rgb(0, 0, 0); fill-opacity: 1; white-space: pre; opacity: 1;" transform="translate(365.98,0)">30</text></g><g class="xtick"><text text-anchor="middle" x="0" y="451" style="font-family: 'Lucida Grande', 'Open Sans', verdana, arial, sans-serif; font-size: 10px; fill: rgb(0, 0, 0); fill-opacity: 1; white-space: pre; opacity: 1;" transform="translate(467.7,0)">40</text></g><g class="xtick"><text text-anchor="middle" x="0" y="451" style="font-family: 'Lucida Grande', 'Open Sans', verdana, arial, sans-serif; font-size: 10px; fill: rgb(0, 0, 0); fill-opacity: 1; white-space: pre; opacity: 1;" transform="translate(569.4100000000001,0)">50</text></g><g class="xtick"><text text-anchor="middle" x="0" y="451" style="font-family: 'Lucida Grande', 'Open Sans', verdana, arial, sans-serif; font-size: 10px; fill: rgb(0, 0, 0); fill-opacity: 1; white-space: pre; opacity: 1;" transform="translate(671.13,0)">60</text></g><g class="xtick"><text text-anchor="middle" x="0" y="451" style="font-family: 'Lucida Grande', 'Open Sans', verdana, arial, sans-serif; font-size: 10px; fill: rgb(0, 0, 0); fill-opacity: 1; white-space: pre; opacity: 1;" transform="translate(772.85,0)">70</text></g><g class="xtick"><text text-anchor="middle" x="0" y="451" style="font-family: 'Lucida Grande', 'Open Sans', verdana, arial, sans-serif; font-size: 10px; fill: rgb(0, 0, 0); fill-opacity: 1; white-space: pre; opacity: 1;" transform="translate(874.57,0)">80</text></g><g class="xtick"><text text-anchor="middle" x="0" y="451" style="font-family: 'Lucida Grande', 'Open Sans', verdana, arial, sans-serif; font-size: 10px; fill: rgb(0, 0, 0); fill-opacity: 1; white-space: pre; opacity: 1;" transform="translate(976.28,0)">90</text></g><g class="xtick"><text text-anchor="middle" x="0" y="451" style="font-family: 'Lucida Grande', 'Open Sans', verdana, arial, sans-serif; font-size: 10px; fill: rgb(0, 0, 0); fill-opacity: 1; white-space: pre; opacity: 1;" transform="translate(1078,0)">100</text></g></g><g class="yaxislayer-above"><g class="ytick"><text text-anchor="end" x="65" y="3.5" transform="translate(0,435)" style="font-family: 'Lucida Grande', 'Open Sans', verdana, arial, sans-serif; font-size: 10px; fill: rgb(0, 0, 0); fill-opacity: 1; white-space: pre; opacity: 1;">0%</text></g><g class="ytick"><text text-anchor="end" x="65" y="3.5" style="font-family: 'Lucida Grande', 'Open Sans', verdana, arial, sans-serif; font-size: 10px; fill: rgb(0, 0, 0); fill-opacity: 1; white-space: pre; opacity: 1;" transform="translate(0,358)">20%</text></g><g class="ytick"><text text-anchor="end" x="65" y="3.5" style="font-family: 'Lucida Grande', 'Open Sans', verdana, arial, sans-serif; font-size: 10px; fill: rgb(0, 0, 0); fill-opacity: 1; white-space: pre; opacity: 1;" transform="translate(0,281)">40%</text></g><g class="ytick"><text text-anchor="end" x="65" y="3.5" style="font-family: 'Lucida Grande', 'Open Sans', verdana, arial, sans-serif; font-size: 10px; fill: rgb(0, 0, 0); fill-opacity: 1; white-space: pre; opacity: 1;" transform="translate(0,204)">60%</text></g><g class="ytick"><text text-anchor="end" x="65" y="3.5" style="font-family: 'Lucida Grande', 'Open Sans', verdana, arial, sans-serif; font-size: 10px; fill: rgb(0, 0, 0); fill-opacity: 1; white-space: pre; opacity: 1;" transform="translate(0,127)">80%</text></g><g class="ytick"><text text-anchor="end" x="65" y="3.5" style="font-family: 'Lucida Grande', 'Open Sans', verdana, arial, sans-serif; font-size: 10px; fill: rgb(0, 0, 0); fill-opacity: 1; white-space: pre; opacity: 1;" transform="translate(0,50)">100%</text></g></g><g class="overaxes-above"/></g></g><g class="polarlayer"/><g class="smithlayer"/><g class="ternarylayer"/><g class="geolayer"/><g class="funnelarealayer"/><g class="pielayer"/><g class="iciclelayer"/><g class="treemaplayer"/><g class="sunburstlayer"/><g class="glimages"/><defs id="topdefs-307288"><g class="clips"/></defs><g class="layer-above"><g class="imagelayer"/><g class="shapelayer"/></g><g class="infolayer"><g class="g-gtitle"><text class="gtitle" x="550" y="25" text-anchor="middle" dy="0em" style="opacity: 1; font-family: 'Lucida Grande', 'Open Sans', verdana, arial, sans-serif; font-size: 20px; fill: rgb(42, 63, 95); fill-opacity: 1; white-space: pre;"><tspan class="line" dy="0em" x="550" y="25">Fastp: Read GC Content</tspan><tspan class="line" dy="1.3em" x="550" y="25">​<tspan style="font-size:70%" dy="-0.6em">Read 2: After filtering, 6 samples</tspan><tspan dy="0.42em">​</tspan></tspan></text></g><g class="g-xtitle"><text class="xtitle" x="574.5" y="472.3" text-anchor="middle" style="opacity: 0.3; font-family: 'Lucida Grande', 'Open Sans', verdana, arial, sans-serif; font-size: 14px; fill: rgb(0, 0, 0); fill-opacity: 1; white-space: pre;">Read Position</text></g><g class="g-ytitle"><text class="ytitle" transform="rotate(-90,22.00625,242.5)" x="22.00625" y="242.5" text-anchor="middle" style="opacity: 0.3; font-family: 'Lucida Grande', 'Open Sans', verdana, arial, sans-serif; font-size: 14px; fill: rgb(0, 0, 0); fill-opacity: 1; white-space: pre;">R2 After filtering: Base Content Percent</text></g></g></svg>