<svg class="main-svg" xmlns="http://www.w3.org/2000/svg" xmlns:xlink="http://www.w3.org/1999/xlink" width="2200" height="1000" style="" viewBox="0 0 1100 500"><rect x="0" y="0" width="1100" height="500" style="fill: rgb(255, 255, 255); fill-opacity: 1;"/><defs id="defs-99c109"><g class="clips"><clipPath id="clip99c109xyplot" class="plotclip"><rect width="1007" height="385"/></clipPath><clipPath class="axesclip" id="clip99c109x"><rect x="71" y="0" width="1007" height="500"/></clipPath><clipPath class="axesclip" id="clip99c109y"><rect x="0" y="50" width="1100" height="385"/></clipPath><clipPath class="axesclip" id="clip99c109xy"><rect x="71" y="50" width="1007" height="385"/></clipPath></g><g class="gradients"/><g class="patterns"/></defs><g class="bglayer"/><g class="layer-below"><g class="imagelayer"/><g class="shapelayer"/></g><g class="cartesianlayer"><g class="subplot xy"><g class="layer-subplot"><g class="shapelayer"/><g class="imagelayer"/></g><g class="minor-gridlayer"><g class="x"/><g class="y"/></g><g class="gridlayer"><g class="x"><path class="xgrid crisp" transform="translate(162.55,0)" d="M0,50v385" style="stroke: rgb(0, 0, 0); stroke-opacity: 0.05; stroke-width: 1px;"/><path class="xgrid crisp" transform="translate(264.26,0)" d="M0,50v385" style="stroke: rgb(0, 0, 0); stroke-opacity: 0.05; stroke-width: 1px;"/><path class="xgrid crisp" transform="translate(365.98,0)" d="M0,50v385" style="stroke: rgb(0, 0, 0); stroke-opacity: 0.05; stroke-width: 1px;"/><path class="xgrid crisp" transform="translate(467.7,0)" d="M0,50v385" style="stroke: rgb(0, 0, 0); stroke-opacity: 0.05; stroke-width: 1px;"/><path class="xgrid crisp" transform="translate(569.4100000000001,0)" d="M0,50v385" style="stroke: rgb(0, 0, 0); stroke-opacity: 0.05; stroke-width: 1px;"/><path class="xgrid crisp" transform="translate(671.13,0)" d="M0,50v385" style="stroke: rgb(0, 0, 0); stroke-opacity: 0.05; stroke-width: 1px;"/><path class="xgrid crisp" transform="translate(772.85,0)" d="M0,50v385" style="stroke: rgb(0, 0, 0); stroke-opacity: 0.05; stroke-width: 1px;"/><path class="xgrid crisp" transform="translate(874.57,0)" d="M0,50v385" style="stroke: rgb(0, 0, 0); stroke-opacity: 0.05; stroke-width: 1px;"/><path class="xgrid crisp" transform="translate(976.28,0)" d="M0,50v385" style="stroke: rgb(0, 0, 0); stroke-opacity: 0.05; stroke-width: 1px;"/></g><g class="y"><path class="ygrid crisp" transform="translate(0,358)" d="M71,0h1007" style="stroke: rgb(0, 0, 0); stroke-opacity: 0.05; stroke-width: 1px;"/><path class="ygrid crisp" transform="translate(0,281)" d="M71,0h1007" style="stroke: rgb(0, 0, 0); stroke-opacity: 0.05; stroke-width: 1px;"/><path class="ygrid crisp" transform="translate(0,204)" d="M71,0h1007" style="stroke: rgb(0, 0, 0); stroke-opacity: 0.05; stroke-width: 1px;"/><path class="ygrid crisp" transform="translate(0,127)" d="M71,0h1007" style="stroke: rgb(0, 0, 0); stroke-opacity: 0.05; stroke-width: 1px;"/></g></g><g class="zerolinelayer"><path class="yzl zl crisp" transform="translate(0,435)" d="M71,0h1007" style="stroke: rgb(0, 0, 0); stroke-opacity: 0.05; stroke-width: 2px;"/></g><g class="layer-between"><g class="shapelayer"/><g class="imagelayer"/></g><path class="xlines-below"/><path class="ylines-below"/><g class="overlines-below"/><g class="xaxislayer-below"/><g class="yaxislayer-below"/><g class="overaxes-below"/><g class="overplot"><g class="xy" transform="translate(71,50)" clip-path="url(#clip99c109xyplot)"><g class="scatterlayer mlayer"><g class="trace scatter trace41a720" style="stroke-miterlimit: 2; opacity: 1;"><g class="fills"/><g class="errorbars"/><g class="lines"><path class="js-line" d="M0,70.73L10.17,188.1L20.34,153.27L30.52,183.39L40.69,202.32L50.86,217.87L61.03,242.74L71.2,194.97L81.37,205.57L91.55,222.52L101.72,173.4L111.89,183.65L122.06,191.67L132.23,199.13L142.4,194.79L152.58,193.17L162.75,193.59L172.92,195.79L183.09,186.97L193.26,192.84L203.43,192.79L213.61,191.37L223.78,192.48L233.95,197.45L244.12,194.78L254.29,197.67L264.46,196.31L274.64,194.37L284.81,193.53L294.98,196.7L305.15,192.26L315.32,194.68L325.49,198.91L335.67,190.92L345.84,191.04L356.01,192.06L366.18,195.9L376.35,189.3L386.53,188.65L406.87,191.01L417.04,191.5L427.21,193.39L437.38,192.72L447.56,197.78L457.73,194.76L467.9,189.96L478.07,196.38L488.24,192.44L498.41,195.04L508.59,190.96L518.76,190.51L528.93,191.75L539.1,184.4L549.27,191.14L559.44,192.35L569.62,189.76L579.79,195.66L589.96,191.51L600.13,192.71L610.3,195.94L620.47,195.24L640.82,197.52L650.99,194.39L661.16,189.94L671.33,192.93L681.51,194.22L691.68,189.89L701.85,189.71L712.02,194.33L722.19,185.85L732.36,191.84L742.54,194.63L752.71,188.1L762.88,192.35L773.05,185.83L783.22,194.41L793.39,193.78L803.57,194.79L813.74,193.98L823.91,190.61L834.08,194.34L844.25,188.12L854.42,192.89L864.6,192.8L874.77,184.75L884.94,191.54L895.11,186.88L905.28,186.88L915.45,191.2L925.63,191.56L935.8,197.24L945.97,196.22L956.14,198.65L966.31,191.66L976.48,192.44L986.66,193.56L996.83,191.32L1007,187.19" style="vector-effect: none; fill: none; stroke: rgb(124, 181, 236); stroke-opacity: 1; stroke-width: 2px; opacity: 1;"/></g><g class="points"/><g class="text"/></g><g class="trace scatter trace4ccdc6" style="stroke-miterlimit: 2; opacity: 1;"><g class="fills"/><g class="errorbars"/><g class="lines"><path class="js-line" d="M0,68.12L10.17,186.38L20.34,153.78L30.52,183.19L40.69,200.65L50.86,215.78L61.03,241.32L71.2,196.39L81.37,204.5L91.55,221.38L101.72,173.34L111.89,183.01L122.06,191.34L132.23,197.1L142.4,193.19L152.58,189.11L162.75,193.66L172.92,193.37L183.09,187.51L193.26,192.53L203.43,192.14L213.61,190.39L223.78,192.03L233.95,196.27L244.12,193.19L254.29,197.37L264.46,193.72L284.81,192.52L294.98,196.24L305.15,192.57L315.32,193.72L325.49,198.37L335.67,190.32L356.01,190.98L366.18,194.77L376.35,189.38L386.53,186.49L427.21,191.52L437.38,191.47L447.56,194.93L457.73,193.05L467.9,188.02L478.07,195.26L488.24,190.47L498.41,193.95L508.59,189.12L518.76,188.41L528.93,190.17L539.1,184.96L549.27,189.1L559.44,190.47L569.62,187.62L579.79,194.86L589.96,189.11L600.13,191.34L610.3,194.35L620.47,195.86L650.99,194.41L661.16,187.84L671.33,191.63L681.51,192.65L691.68,190.31L701.85,189.7L712.02,193.81L722.19,183.75L732.36,190.39L742.54,194.14L752.71,185.27L762.88,189.19L773.05,185.35L783.22,192.82L813.74,193.02L823.91,190.34L834.08,192.53L844.25,187.3L854.42,192.24L864.6,189.91L874.77,184.06L884.94,190.19L895.11,185.14L905.28,185.3L915.45,189.8L925.63,189.54L935.8,197.67L945.97,194.77L956.14,195.73L966.31,190.49L976.48,192.13L986.66,192.75L996.83,190.91L1007,186.77" style="vector-effect: none; fill: none; stroke: rgb(67, 67, 72); stroke-opacity: 1; stroke-width: 2px; opacity: 1;"/></g><g class="points"/><g class="text"/></g><g class="trace scatter tracecb8abf" style="stroke-miterlimit: 2; opacity: 1;"><g class="fills"/><g class="errorbars"/><g class="lines"><path class="js-line" d="M0,69.58L10.17,186.66L20.34,153.87L30.52,184.84L40.69,201.48L50.86,216.55L61.03,242.94L71.2,196.3L81.37,204.94L91.55,220.81L101.72,172.24L111.89,183.02L122.06,191.17L132.23,197.58L142.4,194.23L152.58,191.21L162.75,194.17L172.92,193.44L183.09,188.43L193.26,193.37L203.43,192.81L213.61,191.49L223.78,192.16L233.95,199.03L244.12,194.4L254.29,196.57L264.46,193.93L274.64,195.37L284.81,193.16L294.98,197L305.15,191.81L315.32,192.65L325.49,199.08L335.67,192.71L345.84,190.72L356.01,192.06L366.18,195.37L376.35,189.74L386.53,188.36L396.7,188.12L406.87,190.84L417.04,191.53L427.21,193.3L437.38,192.42L447.56,197.12L457.73,194.4L467.9,188.9L478.07,196.12L488.24,190.9L498.41,194.85L508.59,191.19L518.76,189.79L528.93,191.85L539.1,185.44L549.27,190.62L559.44,191.97L569.62,190.42L579.79,195.77L589.96,191.43L610.3,195.34L620.47,195.93L630.65,196.94L640.82,196.49L650.99,194.75L661.16,189.43L671.33,193.18L681.51,192.61L691.68,189.11L701.85,189.82L712.02,194.68L722.19,184.11L732.36,191.01L742.54,194.48L752.71,186.88L762.88,191L773.05,186.53L783.22,193.63L813.74,194.09L823.91,190.29L834.08,193.97L844.25,188.9L854.42,193.09L864.6,192.33L874.77,185L884.94,191.7L895.11,186.32L905.28,185.79L915.45,191.57L925.63,192.06L935.8,197.9L945.97,195.66L956.14,197.75L966.31,191.24L976.48,191.79L986.66,193.62L1007,188.2" style="vector-effect: none; fill: none; stroke: rgb(144, 237, 125); stroke-opacity: 1; stroke-width: 2px; opacity: 1;"/></g><g class="points"/><g class="text"/></g><g class="trace scatter tracefbc9f6" style="stroke-miterlimit: 2; opacity: 1;"><g class="fills"/><g class="errorbars"/><g class="lines"><path class="js-line" d="M0,69.35L10.17,193.39L20.34,162.84L30.52,186.5L40.69,207.11L50.86,220.71L61.03,250.43L71.2,202.17L81.37,208.66L91.55,224.85L101.72,179.35L111.89,185.68L122.06,198.45L132.23,199.29L142.4,197.17L152.58,192.92L162.75,197.55L172.92,200.71L183.09,193.93L203.43,198.82L213.61,196.11L223.78,197.55L233.95,199.8L244.12,195.14L254.29,198.73L264.46,200.18L274.64,200.47L284.81,199.57L294.98,203.39L305.15,197.62L315.32,197.31L325.49,204.57L335.67,196.65L345.84,196.58L356.01,194.24L366.18,197.72L376.35,193.22L386.53,194.04L396.7,193.7L406.87,192.34L417.04,197.43L427.21,195.2L437.38,198.22L447.56,200.49L457.73,197.11L467.9,193.29L478.07,194.64L498.41,198.12L508.59,195.34L518.76,191.22L528.93,195.3L539.1,192.13L549.27,193.42L559.44,196.44L569.62,193.11L579.79,197.33L589.96,191.95L600.13,192.91L610.3,196.47L620.47,197.68L630.65,200.04L650.99,198.47L661.16,193.55L681.51,192.72L691.68,195.54L701.85,192.22L712.02,196.85L722.19,188.87L732.36,192.76L742.54,198.09L752.71,188.96L762.88,195.69L773.05,192.36L783.22,196.83L793.39,197.88L803.57,196.79L813.74,198.68L823.91,193.37L834.08,196.7L844.25,190.51L854.42,195.21L864.6,197.04L874.77,189.45L884.94,196.7L895.11,188.77L905.28,192.51L915.45,192.32L925.63,193.73L935.8,200.65L945.97,194.72L956.14,197.16L966.31,193.05L976.48,195.53L986.66,196.41L996.83,194.45L1007,190.79" style="vector-effect: none; fill: none; stroke: rgb(247, 163, 92); stroke-opacity: 1; stroke-width: 2px; opacity: 1;"/></g><g class="points"/><g class="text"/></g><g class="trace scatter traceb6264f" style="stroke-miterlimit: 2; opacity: 1;"><g class="fills"/><g class="errorbars"/><g class="lines"><path class="js-line" d="M0,74.25L10.17,204.52L20.34,165.92L30.52,190.92L40.69,211L50.86,225.07L61.03,250.65L71.2,207.03L81.37,212.94L91.55,227.23L101.72,181.89L111.89,188.78L122.06,200.61L132.23,199.25L142.4,198.99L152.58,194.15L162.75,198.31L172.92,200.71L183.09,194.32L193.26,197.8L203.43,198.55L213.61,197.06L223.78,200.28L233.95,203.77L244.12,199.19L254.29,202.52L264.46,203.59L274.64,202.82L284.81,200.87L294.98,201.81L305.15,198.27L315.32,199.42L325.49,207.07L335.67,197.17L345.84,198.6L356.01,197.7L366.18,198.99L376.35,195.05L386.53,193.81L396.7,195.9L406.87,193.86L417.04,199.13L427.21,198.66L437.38,203.48L447.56,204.35L467.9,195.12L478.07,197.09L488.24,197.45L498.41,201.41L518.76,191.97L528.93,196.78L539.1,193.51L549.27,197.92L559.44,199.47L569.62,195.26L579.79,199.43L589.96,195.12L600.13,194.96L610.3,199.26L620.47,198.75L630.65,201L640.82,200.68L650.99,199.24L661.16,194.39L671.33,194.37L691.68,196.1L701.85,193.19L712.02,198.49L722.19,188.21L742.54,197.87L752.71,190.39L762.88,196.92L773.05,195.19L783.22,199.54L793.39,200.14L803.57,199.44L813.74,200.62L823.91,195.49L834.08,198.89L844.25,191.57L854.42,197.11L864.6,198.6L874.77,190.46L884.94,199.35L895.11,189.43L905.28,193.69L915.45,193.55L925.63,194.11L935.8,201.34L945.97,197.49L956.14,198.77L966.31,193.56L976.48,196.69L986.66,197.71L996.83,195.19L1007,191.85" style="vector-effect: none; fill: none; stroke: rgb(128, 133, 233); stroke-opacity: 1; stroke-width: 2px; opacity: 1;"/></g><g class="points"/><g class="text"/></g><g class="trace scatter trace6d6144" style="stroke-miterlimit: 2; opacity: 1;"><g class="fills"/><g class="errorbars"/><g class="lines"><path class="js-line" d="M0,72.05L10.17,192.67L20.34,157.65L40.69,206.82L50.86,221.25L61.03,251.03L71.2,203.61L81.37,209.78L91.55,226.22L101.72,180.59L111.89,187.26L122.06,199.23L132.23,198.73L142.4,197.12L152.58,193.05L162.75,197.83L172.92,200.54L183.09,193.6L193.26,197.39L203.43,197.68L213.61,195.17L233.95,201.21L244.12,195.78L254.29,198.96L264.46,200L274.64,200.08L284.81,199.39L294.98,200.96L305.15,196.01L315.32,197.56L325.49,205.5L335.67,196.55L345.84,196.83L356.01,195.47L366.18,196.72L376.35,193.36L386.53,192.74L396.7,193.71L406.87,192.3L417.04,197.76L427.21,196.17L437.38,199.57L447.56,202L457.73,199.21L467.9,193.46L478.07,194.38L488.24,193.79L498.41,199.27L508.59,194.86L518.76,190.65L528.93,195.91L539.1,191.9L549.27,195.43L559.44,197.44L569.62,193.25L579.79,196L589.96,192.9L600.13,192.9L610.3,197.17L620.47,196.68L630.65,198.42L640.82,198.37L650.99,197.33L661.16,192.18L671.33,193.23L681.51,192.83L691.68,194.87L701.85,192.4L712.02,196.76L722.19,186.42L732.36,192.08L742.54,196.6L752.71,188.92L762.88,193.98L773.05,193.29L783.22,196.86L793.39,198.38L803.57,196.98L813.74,199.38L823.91,193.21L834.08,197.34L844.25,189.72L854.42,194.01L864.6,196.36L874.77,189.52L884.94,197.25L895.11,188.69L905.28,191.48L915.45,191.78L925.63,192.62L935.8,200.13L945.97,195.04L956.14,197.14L966.31,192.57L976.48,194.76L986.66,194.78L996.83,193.18L1007,190.46" style="vector-effect: none; fill: none; stroke: rgb(241, 92, 128); stroke-opacity: 1; stroke-width: 2px; opacity: 1;"/></g><g class="points"/><g class="text"/></g></g></g></g><path class="xlines-above crisp" d="M0,0" style="fill: none;"/><path class="ylines-above crisp" d="M0,0" style="fill: none;"/><g class="overlines-above"/><g class="xaxislayer-above"><g class="xtick"><text text-anchor="middle" x="0" y="451" transform="translate(162.55,0)" style="font-family: 'Lucida Grande', 'Open Sans', verdana, arial, sans-serif; font-size: 10px; fill: rgb(0, 0, 0); fill-opacity: 1; white-space: pre; opacity: 1;">10</text></g><g class="xtick"><text text-anchor="middle" x="0" y="451" style="font-family: 'Lucida Grande', 'Open Sans', verdana, arial, sans-serif; font-size: 10px; fill: rgb(0, 0, 0); fill-opacity: 1; white-space: pre; opacity: 1;" transform="translate(264.26,0)">20</text></g><g class="xtick"><text text-anchor="middle" x="0" y="451" style="font-family: 'Lucida Grande', 'Open Sans', verdana, arial, sans-serif; font-size: 10px; fill: rgb(0, 0, 0); fill-opacity: 1; white-space: pre; opacity: 1;" transform="translate(365.98,0)">30</text></g><g class="xtick"><text text-anchor="middle" x="0" y="451" style="font-family: 'Lucida Grande', 'Open Sans', verdana, arial, sans-serif; font-size: 10px; fill: rgb(0, 0, 0); fill-opacity: 1; white-space: pre; opacity: 1;" transform="translate(467.7,0)">40</text></g><g class="xtick"><text text-anchor="middle" x="0" y="451" style="font-family: 'Lucida Grande', 'Open Sans', verdana, arial, sans-serif; font-size: 10px; fill: rgb(0, 0, 0); fill-opacity: 1; white-space: pre; opacity: 1;" transform="translate(569.4100000000001,0)">50</text></g><g class="xtick"><text text-anchor="middle" x="0" y="451" style="font-family: 'Lucida Grande', 'Open Sans', verdana, arial, sans-serif; font-size: 10px; fill: rgb(0, 0, 0); fill-opacity: 1; white-space: pre; opacity: 1;" transform="translate(671.13,0)">60</text></g><g class="xtick"><text text-anchor="middle" x="0" y="451" style="font-family: 'Lucida Grande', 'Open Sans', verdana, arial, sans-serif; font-size: 10px; fill: rgb(0, 0, 0); fill-opacity: 1; white-space: pre; opacity: 1;" transform="translate(772.85,0)">70</text></g><g class="xtick"><text text-anchor="middle" x="0" y="451" style="font-family: 'Lucida Grande', 'Open Sans', verdana, arial, sans-serif; font-size: 10px; fill: rgb(0, 0, 0); fill-opacity: 1; white-space: pre; opacity: 1;" transform="translate(874.57,0)">80</text></g><g class="xtick"><text text-anchor="middle" x="0" y="451" style="font-family: 'Lucida Grande', 'Open Sans', verdana, arial, sans-serif; font-size: 10px; fill: rgb(0, 0, 0); fill-opacity: 1; white-space: pre; opacity: 1;" transform="translate(976.28,0)">90</text></g><g class="xtick"><text text-anchor="middle" x="0" y="451" style="font-family: 'Lucida Grande', 'Open Sans', verdana, arial, sans-serif; font-size: 10px; fill: rgb(0, 0, 0); fill-opacity: 1; white-space: pre; opacity: 1;" transform="translate(1078,0)">100</text></g></g><g class="yaxislayer-above"><g class="ytick"><text text-anchor="end" x="65" y="3.5" transform="translate(0,435)" style="font-family: 'Lucida Grande', 'Open Sans', verdana, arial, sans-serif; font-size: 10px; fill: rgb(0, 0, 0); fill-opacity: 1; white-space: pre; opacity: 1;">0%</text></g><g class="ytick"><text text-anchor="end" x="65" y="3.5" style="font-family: 'Lucida Grande', 'Open Sans', verdana, arial, sans-serif; font-size: 10px; fill: rgb(0, 0, 0); fill-opacity: 1; white-space: pre; opacity: 1;" transform="translate(0,358)">20%</text></g><g class="ytick"><text text-anchor="end" x="65" y="3.5" style="font-family: 'Lucida Grande', 'Open Sans', verdana, arial, sans-serif; font-size: 10px; fill: rgb(0, 0, 0); fill-opacity: 1; white-space: pre; opacity: 1;" transform="translate(0,281)">40%</text></g><g class="ytick"><text text-anchor="end" x="65" y="3.5" style="font-family: 'Lucida Grande', 'Open Sans', verdana, arial, sans-serif; font-size: 10px; fill: rgb(0, 0, 0); fill-opacity: 1; white-space: pre; opacity: 1;" transform="translate(0,204)">60%</text></g><g class="ytick"><text text-anchor="end" x="65" y="3.5" style="font-family: 'Lucida Grande', 'Open Sans', verdana, arial, sans-serif; font-size: 10px; fill: rgb(0, 0, 0); fill-opacity: 1; white-space: pre; opacity: 1;" transform="translate(0,127)">80%</text></g><g class="ytick"><text text-anchor="end" x="65" y="3.5" style="font-family: 'Lucida Grande', 'Open Sans', verdana, arial, sans-serif; font-size: 10px; fill: rgb(0, 0, 0); fill-opacity: 1; white-space: pre; opacity: 1;" transform="translate(0,50)">100%</text></g></g><g class="overaxes-above"/></g></g><g class="polarlayer"/><g class="smithlayer"/><g class="ternarylayer"/><g class="geolayer"/><g class="funnelarealayer"/><g class="pielayer"/><g class="iciclelayer"/><g class="treemaplayer"/><g class="sunburstlayer"/><g class="glimages"/><defs id="topdefs-99c109"><g class="clips"/></defs><g class="layer-above"><g class="imagelayer"/><g class="shapelayer"/></g><g class="infolayer"><g class="g-gtitle"><text class="gtitle" x="550" y="25" text-anchor="middle" dy="0em" style="opacity: 1; font-family: 'Lucida Grande', 'Open Sans', verdana, arial, sans-serif; font-size: 20px; fill: rgb(42, 63, 95); fill-opacity: 1; white-space: pre;"><tspan class="line" dy="0em" x="550" y="25">Fastp: Read GC Content</tspan><tspan class="line" dy="1.3em" x="550" y="25">​<tspan style="font-size:70%" dy="-0.6em">Read 1: Before filtering, 6 samples</tspan><tspan dy="0.42em">​</tspan></tspan></text></g><g class="g-xtitle"><text class="xtitle" x="574.5" y="472.3" text-anchor="middle" style="opacity: 0.3; font-family: 'Lucida Grande', 'Open Sans', verdana, arial, sans-serif; font-size: 14px; fill: rgb(0, 0, 0); fill-opacity: 1; white-space: pre;">Read Position</text></g><g class="g-ytitle"><text class="ytitle" transform="rotate(-90,22.00625,242.5)" x="22.00625" y="242.5" text-anchor="middle" style="opacity: 0.3; font-family: 'Lucida Grande', 'Open Sans', verdana, arial, sans-serif; font-size: 14px; fill: rgb(0, 0, 0); fill-opacity: 1; white-space: pre;">R1 Before filtering: Base Content Percent</text></g></g></svg>