<svg class="main-svg" xmlns="http://www.w3.org/2000/svg" xmlns:xlink="http://www.w3.org/1999/xlink" width="2200" height="1000" style="" viewBox="0 0 1100 500"><rect x="0" y="0" width="1100" height="500" style="fill: rgb(255, 255, 255); fill-opacity: 1;"/><defs id="defs-84aa60"><g class="clips"><clipPath id="clip84aa60xyplot" class="plotclip"><rect width="1007" height="385"/></clipPath><clipPath class="axesclip" id="clip84aa60x"><rect x="71" y="0" width="1007" height="500"/></clipPath><clipPath class="axesclip" id="clip84aa60y"><rect x="0" y="50" width="1100" height="385"/></clipPath><clipPath class="axesclip" id="clip84aa60xy"><rect x="71" y="50" width="1007" height="385"/></clipPath></g><g class="gradients"/><g class="patterns"/></defs><g class="bglayer"/><g class="layer-below"><g class="imagelayer"/><g class="shapelayer"/></g><g class="cartesianlayer"><g class="subplot xy"><g class="layer-subplot"><g class="shapelayer"/><g class="imagelayer"/></g><g class="minor-gridlayer"><g class="x"/><g class="y"/></g><g class="gridlayer"><g class="x"><path class="xgrid crisp" transform="translate(162.55,0)" d="M0,50v385" style="stroke: rgb(0, 0, 0); stroke-opacity: 0.05; stroke-width: 1px;"/><path class="xgrid crisp" transform="translate(264.26,0)" d="M0,50v385" style="stroke: rgb(0, 0, 0); stroke-opacity: 0.05; stroke-width: 1px;"/><path class="xgrid crisp" transform="translate(365.98,0)" d="M0,50v385" style="stroke: rgb(0, 0, 0); stroke-opacity: 0.05; stroke-width: 1px;"/><path class="xgrid crisp" transform="translate(467.7,0)" d="M0,50v385" style="stroke: rgb(0, 0, 0); stroke-opacity: 0.05; stroke-width: 1px;"/><path class="xgrid crisp" transform="translate(569.4100000000001,0)" d="M0,50v385" style="stroke: rgb(0, 0, 0); stroke-opacity: 0.05; stroke-width: 1px;"/><path class="xgrid crisp" transform="translate(671.13,0)" d="M0,50v385" style="stroke: rgb(0, 0, 0); stroke-opacity: 0.05; stroke-width: 1px;"/><path class="xgrid crisp" transform="translate(772.85,0)" d="M0,50v385" style="stroke: rgb(0, 0, 0); stroke-opacity: 0.05; stroke-width: 1px;"/><path class="xgrid crisp" transform="translate(874.57,0)" d="M0,50v385" style="stroke: rgb(0, 0, 0); stroke-opacity: 0.05; stroke-width: 1px;"/><path class="xgrid crisp" transform="translate(976.28,0)" d="M0,50v385" style="stroke: rgb(0, 0, 0); stroke-opacity: 0.05; stroke-width: 1px;"/></g><g class="y"><path class="ygrid crisp" transform="translate(0,358)" d="M71,0h1007" style="stroke: rgb(0, 0, 0); stroke-opacity: 0.05; stroke-width: 1px;"/><path class="ygrid crisp" transform="translate(0,281)" d="M71,0h1007" style="stroke: rgb(0, 0, 0); stroke-opacity: 0.05; stroke-width: 1px;"/><path class="ygrid crisp" transform="translate(0,204)" d="M71,0h1007" style="stroke: rgb(0, 0, 0); stroke-opacity: 0.05; stroke-width: 1px;"/><path class="ygrid crisp" transform="translate(0,127)" d="M71,0h1007" style="stroke: rgb(0, 0, 0); stroke-opacity: 0.05; stroke-width: 1px;"/></g></g><g class="zerolinelayer"><path class="yzl zl crisp" transform="translate(0,435)" d="M71,0h1007" style="stroke: rgb(0, 0, 0); stroke-opacity: 0.05; stroke-width: 2px;"/></g><g class="layer-between"><g class="shapelayer"/><g class="imagelayer"/></g><path class="xlines-below"/><path class="ylines-below"/><g class="overlines-below"/><g class="xaxislayer-below"/><g class="yaxislayer-below"/><g class="overaxes-below"/><g class="overplot"><g class="xy" transform="translate(71,50)" clip-path="url(#clip84aa60xyplot)"><g class="scatterlayer mlayer"><g class="trace scatter trace9a326a" style="stroke-miterlimit: 2; opacity: 1;"><g class="fills"/><g class="errorbars"/><g class="lines"><path class="js-line" d="M0,103.56L10.17,212.06L20.34,198.92L30.52,200.87L40.69,199.84L50.86,214.74L61.03,210.82L71.2,185.25L81.37,191.38L91.55,204.96L101.72,166.5L111.89,173.77L122.06,189.22L132.23,196.25L142.4,193.31L152.58,191.28L162.75,188.37L172.92,191.88L183.09,183.82L193.26,187.54L203.43,187.44L213.61,188.85L223.78,193.33L233.95,193.54L244.12,190.72L254.29,184.81L264.46,190.37L274.64,188.17L284.81,194.07L305.15,189.5L315.32,184.19L325.49,190.52L335.67,189.34L356.01,184.41L366.18,187.41L376.35,187.79L386.53,189.42L396.7,188.22L406.87,190.23L417.04,192.27L427.21,187.72L437.38,188.74L447.56,191.91L457.73,188.79L467.9,190.84L478.07,188.67L488.24,188.02L498.41,193.58L508.59,195.66L518.76,189.67L528.93,189.4L539.1,190.94L549.27,190.08L569.62,193.52L579.79,192.67L589.96,192.58L600.13,189.48L620.47,192.79L630.65,192.19L661.16,190.77L671.33,192.92L691.68,193.45L701.85,190.54L712.02,191.3L722.19,190.21L732.36,188.52L742.54,190.28L752.71,193.88L762.88,194.53L773.05,191.1L783.22,195.14L793.39,193.56L803.57,194.02L813.74,192.81L823.91,189.91L864.6,194.65L874.77,193.22L884.94,190.28L895.11,191.46L905.28,196.15L915.45,194.35L925.63,189.24L935.8,191.71L956.14,195.88L966.31,197.13L976.48,189.15L986.66,192.58L996.83,192.94L1007,189.5" style="vector-effect: none; fill: none; stroke: rgb(124, 181, 236); stroke-opacity: 1; stroke-width: 2px; opacity: 1;"/></g><g class="points"/><g class="text"/></g><g class="trace scatter tracedbebb4" style="stroke-miterlimit: 2; opacity: 1;"><g class="fills"/><g class="errorbars"/><g class="lines"><path class="js-line" d="M0,102.14L10.17,210.99L20.34,198.22L40.69,199.54L50.86,213.52L61.03,208.88L71.2,184.47L81.37,189.96L91.55,204.16L101.72,165.24L111.89,170.88L122.06,188.94L132.23,194.13L142.4,192.06L152.58,188.19L162.75,185.99L172.92,191.02L183.09,184.25L193.26,187.58L203.43,186.86L213.61,187.5L223.78,192.23L233.95,191.4L244.12,189.67L254.29,183.85L264.46,188.82L274.64,185.9L284.81,193.27L294.98,189.75L305.15,187.89L315.32,183.2L325.49,189.3L335.67,188.94L345.84,185.45L356.01,182.94L366.18,187.06L376.35,184.98L386.53,189.32L396.7,187.73L406.87,190.2L417.04,191.78L427.21,186.04L437.38,188.03L447.56,189.87L457.73,187.67L467.9,188.54L478.07,187.74L488.24,187.08L498.41,189.98L508.59,194.62L518.76,188.85L528.93,187.2L539.1,188.27L549.27,189.76L559.44,190.33L579.79,191.7L589.96,191.88L600.13,188.08L610.3,190.96L620.47,192.24L630.65,189.56L650.99,189.89L661.16,188.61L671.33,191.89L681.51,190.61L691.68,192.2L701.85,188.78L712.02,189.32L722.19,188.59L742.54,188.91L752.71,192.22L762.88,193.3L773.05,190.8L783.22,192.44L793.39,192.6L803.57,193.66L813.74,191.47L823.91,189.22L834.08,190.83L844.25,191.16L854.42,193.67L864.6,194.37L874.77,190.58L884.94,189.75L895.11,190.13L905.28,194.22L915.45,192.74L925.63,189.29L935.8,190.97L956.14,195.4L966.31,194.79L976.48,188.03L986.66,191.35L996.83,192.79L1007,188.5" style="vector-effect: none; fill: none; stroke: rgb(67, 67, 72); stroke-opacity: 1; stroke-width: 2px; opacity: 1;"/></g><g class="points"/><g class="text"/></g><g class="trace scatter tracec72ec3" style="stroke-miterlimit: 2; opacity: 1;"><g class="fills"/><g class="errorbars"/><g class="lines"><path class="js-line" d="M0,102.95L10.17,210.57L20.34,198.12L30.52,200.81L40.69,198.55L50.86,215.09L61.03,210.91L71.2,185.53L81.37,191.19L91.55,205.44L101.72,166.31L111.89,172.83L122.06,189.2L132.23,194.96L142.4,192.21L152.58,190.58L162.75,187.69L172.92,191.76L183.09,185.01L193.26,188.09L203.43,187.15L213.61,188.73L223.78,193.88L244.12,190.74L254.29,186.31L264.46,189.4L274.64,188.07L284.81,192.76L294.98,191.1L305.15,189.17L315.32,184.83L325.49,190.13L335.67,189.76L345.84,186.7L356.01,185.4L366.18,188.22L376.35,187.2L386.53,189.59L396.7,188.69L406.87,191.09L417.04,192.53L427.21,187.87L437.38,189.32L447.56,191.92L457.73,188.87L478.07,189.45L488.24,189.1L508.59,195.28L518.76,191.38L528.93,187.3L539.1,190.36L559.44,192.54L569.62,191.36L579.79,192.46L589.96,192.6L600.13,189.63L610.3,191.25L620.47,192.29L630.65,191.77L650.99,191.57L661.16,189.5L671.33,192.49L681.51,192.39L691.68,193.27L701.85,190.54L712.02,191.1L722.19,189.39L732.36,188.77L742.54,189.94L752.71,192.46L762.88,194.17L773.05,190.88L783.22,194.13L803.57,194.66L813.74,192.41L823.91,189.04L834.08,191.04L844.25,193.02L854.42,194.05L864.6,194.4L874.77,192.21L884.94,189.87L895.11,192.23L905.28,195.28L915.45,192.76L925.63,189.24L935.8,190.57L945.97,194.26L956.14,196.29L966.31,195.43L976.48,188.01L986.66,192.53L996.83,193.37L1007,189.14" style="vector-effect: none; fill: none; stroke: rgb(144, 237, 125); stroke-opacity: 1; stroke-width: 2px; opacity: 1;"/></g><g class="points"/><g class="text"/></g><g class="trace scatter traceb52cfe" style="stroke-miterlimit: 2; opacity: 1;"><g class="fills"/><g class="errorbars"/><g class="lines"><path class="js-line" d="M0,106.73L10.17,215.89L20.34,205.73L30.52,205.8L40.69,206.73L50.86,221.85L61.03,213.02L71.2,187.56L81.37,192.08L91.55,210.65L101.72,173.05L111.89,178.73L122.06,191.65L132.23,199.22L142.4,197.4L152.58,192.34L162.75,191.39L172.92,194.91L183.09,187.94L193.26,193.3L203.43,192.98L213.61,190.71L223.78,197.15L233.95,194.88L244.12,194.04L254.29,190.53L264.46,193.05L284.81,193.19L294.98,194.27L305.15,190.81L315.32,189.72L325.49,196.48L335.67,193.58L345.84,193.25L356.01,187.52L366.18,192.44L376.35,191L386.53,193.39L396.7,194.61L406.87,194.15L417.04,196.81L427.21,191.17L437.38,191.96L447.56,193.26L457.73,192.49L467.9,193.08L478.07,190.07L488.24,190.48L498.41,193.89L508.59,197.99L518.76,194.63L528.93,193.18L539.1,194.62L549.27,193.35L559.44,196.11L569.62,194.98L579.79,194.66L589.96,194.53L600.13,191.01L620.47,196.93L630.65,194.9L661.16,193.59L671.33,195.68L681.51,194.46L691.68,197.85L701.85,191.34L712.02,193.05L722.19,194.91L732.36,190.1L752.71,195.52L762.88,194.46L773.05,195.43L783.22,197.63L793.39,195.34L803.57,198.27L813.74,195.96L823.91,191.66L834.08,195.61L844.25,194.49L854.42,195.27L864.6,196.95L884.94,192.4L895.11,196.15L905.28,199.22L915.45,197.13L925.63,192.4L935.8,194.2L956.14,198.48L966.31,199.53L976.48,193.27L986.66,197.29L996.83,198.09L1007,191.8" style="vector-effect: none; fill: none; stroke: rgb(247, 163, 92); stroke-opacity: 1; stroke-width: 2px; opacity: 1;"/></g><g class="points"/><g class="text"/></g><g class="trace scatter traceb303c2" style="stroke-miterlimit: 2; opacity: 1;"><g class="fills"/><g class="errorbars"/><g class="lines"><path class="js-line" d="M0,107.58L10.17,219.5L20.34,207.61L30.52,208.57L40.69,208.43L50.86,223.78L61.03,216.15L71.2,194.35L81.37,197.95L91.55,211.46L101.72,175.77L111.89,179.56L122.06,192.58L132.23,200.87L142.4,198.38L152.58,193.49L162.75,193.26L172.92,195.76L183.09,188.98L193.26,194.04L203.43,193.57L213.61,192.84L223.78,197.83L233.95,197.9L244.12,196.33L254.29,193.87L264.46,195.65L284.81,195.83L294.98,196.95L305.15,193.34L315.32,191.9L325.49,196.16L335.67,195.47L345.84,194.67L356.01,189.87L366.18,195.26L376.35,192.93L386.53,193.99L396.7,195.92L406.87,195.96L417.04,198.15L427.21,193.54L437.38,194.14L447.56,195.4L457.73,194.15L467.9,196.39L478.07,192.36L488.24,193.86L498.41,197.03L508.59,201.14L518.76,195.27L528.93,194.19L539.1,197.34L549.27,195.66L559.44,197.69L569.62,197.19L579.79,197.71L589.96,197.32L600.13,192.1L610.3,196.02L620.47,198.95L630.65,195.9L640.82,198.05L650.99,195.64L661.16,194.79L671.33,198.36L681.51,196.62L691.68,197.65L701.85,194.07L712.02,196.91L722.19,195.87L732.36,192.35L742.54,195.21L752.71,197.51L762.88,198.26L773.05,197.26L783.22,201.54L793.39,196.94L803.57,200.18L813.74,199.11L823.91,193.47L834.08,198.68L844.25,198.11L864.6,199.19L874.77,196.43L884.94,193.86L895.11,196.74L905.28,200.64L915.45,200.07L925.63,195.26L935.8,196.18L945.97,196.6L956.14,202.25L966.31,201.51L976.48,194.92L986.66,200.79L996.83,200.27L1007,193.89" style="vector-effect: none; fill: none; stroke: rgb(128, 133, 233); stroke-opacity: 1; stroke-width: 2px; opacity: 1;"/></g><g class="points"/><g class="text"/></g><g class="trace scatter tracedfb8a1" style="stroke-miterlimit: 2; opacity: 1;"><g class="fills"/><g class="errorbars"/><g class="lines"><path class="js-line" d="M0,108.15L10.17,215.1L20.34,203.23L40.69,206.12L50.86,221.42L61.03,212.82L71.2,188.69L81.37,193.56L91.55,209.84L101.72,172.38L111.89,177.7L122.06,190.29L132.23,199.28L142.4,196.7L152.58,191.24L162.75,192.04L172.92,194.4L183.09,187.06L193.26,192.68L203.43,191.53L213.61,191.41L223.78,197.65L233.95,195.57L254.29,190.59L264.46,192.69L274.64,191.92L284.81,192.75L294.98,195.29L305.15,190.94L315.32,190.39L325.49,195.5L335.67,193.63L345.84,192.56L356.01,187.75L366.18,191.56L386.53,192.32L396.7,194.13L406.87,193.32L417.04,196.57L427.21,191.17L437.38,192.7L447.56,193.12L457.73,192.37L467.9,193.5L478.07,190.27L488.24,191L498.41,194.85L508.59,198.29L518.76,195.27L528.93,191.99L539.1,195.05L549.27,192.96L559.44,195.79L589.96,193.94L600.13,191.25L620.47,195.95L630.65,194.62L640.82,195.16L650.99,194.34L661.16,192.7L671.33,196.6L681.51,194.7L691.68,196.75L701.85,191.9L712.02,193.95L722.19,194.7L732.36,189.5L752.71,195.03L762.88,193.97L773.05,195.5L783.22,198.91L793.39,194.4L803.57,197.95L813.74,195.88L823.91,191.79L834.08,196.35L844.25,195.43L864.6,196.27L874.77,194.82L884.94,192.6L895.11,195.08L905.28,199.77L915.45,198.51L925.63,193.67L935.8,194.28L945.97,195.24L956.14,199.31L966.31,199.63L976.48,193.03L986.66,198.98L996.83,197.53L1007,191.52" style="vector-effect: none; fill: none; stroke: rgb(241, 92, 128); stroke-opacity: 1; stroke-width: 2px; opacity: 1;"/></g><g class="points"/><g class="text"/></g></g></g></g><path class="xlines-above crisp" d="M0,0" style="fill: none;"/><path class="ylines-above crisp" d="M0,0" style="fill: none;"/><g class="overlines-above"/><g class="xaxislayer-above"><g class="xtick"><text text-anchor="middle" x="0" y="451" transform="translate(162.55,0)" style="font-family: 'Lucida Grande', 'Open Sans', verdana, arial, sans-serif; font-size: 10px; fill: rgb(0, 0, 0); fill-opacity: 1; white-space: pre; opacity: 1;">10</text></g><g class="xtick"><text text-anchor="middle" x="0" y="451" style="font-family: 'Lucida Grande', 'Open Sans', verdana, arial, sans-serif; font-size: 10px; fill: rgb(0, 0, 0); fill-opacity: 1; white-space: pre; opacity: 1;" transform="translate(264.26,0)">20</text></g><g class="xtick"><text text-anchor="middle" x="0" y="451" style="font-family: 'Lucida Grande', 'Open Sans', verdana, arial, sans-serif; font-size: 10px; fill: rgb(0, 0, 0); fill-opacity: 1; white-space: pre; opacity: 1;" transform="translate(365.98,0)">30</text></g><g class="xtick"><text text-anchor="middle" x="0" y="451" style="font-family: 'Lucida Grande', 'Open Sans', verdana, arial, sans-serif; font-size: 10px; fill: rgb(0, 0, 0); fill-opacity: 1; white-space: pre; opacity: 1;" transform="translate(467.7,0)">40</text></g><g class="xtick"><text text-anchor="middle" x="0" y="451" style="font-family: 'Lucida Grande', 'Open Sans', verdana, arial, sans-serif; font-size: 10px; fill: rgb(0, 0, 0); fill-opacity: 1; white-space: pre; opacity: 1;" transform="translate(569.4100000000001,0)">50</text></g><g class="xtick"><text text-anchor="middle" x="0" y="451" style="font-family: 'Lucida Grande', 'Open Sans', verdana, arial, sans-serif; font-size: 10px; fill: rgb(0, 0, 0); fill-opacity: 1; white-space: pre; opacity: 1;" transform="translate(671.13,0)">60</text></g><g class="xtick"><text text-anchor="middle" x="0" y="451" style="font-family: 'Lucida Grande', 'Open Sans', verdana, arial, sans-serif; font-size: 10px; fill: rgb(0, 0, 0); fill-opacity: 1; white-space: pre; opacity: 1;" transform="translate(772.85,0)">70</text></g><g class="xtick"><text text-anchor="middle" x="0" y="451" style="font-family: 'Lucida Grande', 'Open Sans', verdana, arial, sans-serif; font-size: 10px; fill: rgb(0, 0, 0); fill-opacity: 1; white-space: pre; opacity: 1;" transform="translate(874.57,0)">80</text></g><g class="xtick"><text text-anchor="middle" x="0" y="451" style="font-family: 'Lucida Grande', 'Open Sans', verdana, arial, sans-serif; font-size: 10px; fill: rgb(0, 0, 0); fill-opacity: 1; white-space: pre; opacity: 1;" transform="translate(976.28,0)">90</text></g><g class="xtick"><text text-anchor="middle" x="0" y="451" style="font-family: 'Lucida Grande', 'Open Sans', verdana, arial, sans-serif; font-size: 10px; fill: rgb(0, 0, 0); fill-opacity: 1; white-space: pre; opacity: 1;" transform="translate(1078,0)">100</text></g></g><g class="yaxislayer-above"><g class="ytick"><text text-anchor="end" x="65" y="3.5" transform="translate(0,435)" style="font-family: 'Lucida Grande', 'Open Sans', verdana, arial, sans-serif; font-size: 10px; fill: rgb(0, 0, 0); fill-opacity: 1; white-space: pre; opacity: 1;">0%</text></g><g class="ytick"><text text-anchor="end" x="65" y="3.5" style="font-family: 'Lucida Grande', 'Open Sans', verdana, arial, sans-serif; font-size: 10px; fill: rgb(0, 0, 0); fill-opacity: 1; white-space: pre; opacity: 1;" transform="translate(0,358)">20%</text></g><g class="ytick"><text text-anchor="end" x="65" y="3.5" style="font-family: 'Lucida Grande', 'Open Sans', verdana, arial, sans-serif; font-size: 10px; fill: rgb(0, 0, 0); fill-opacity: 1; white-space: pre; opacity: 1;" transform="translate(0,281)">40%</text></g><g class="ytick"><text text-anchor="end" x="65" y="3.5" style="font-family: 'Lucida Grande', 'Open Sans', verdana, arial, sans-serif; font-size: 10px; fill: rgb(0, 0, 0); fill-opacity: 1; white-space: pre; opacity: 1;" transform="translate(0,204)">60%</text></g><g class="ytick"><text text-anchor="end" x="65" y="3.5" style="font-family: 'Lucida Grande', 'Open Sans', verdana, arial, sans-serif; font-size: 10px; fill: rgb(0, 0, 0); fill-opacity: 1; white-space: pre; opacity: 1;" transform="translate(0,127)">80%</text></g><g class="ytick"><text text-anchor="end" x="65" y="3.5" style="font-family: 'Lucida Grande', 'Open Sans', verdana, arial, sans-serif; font-size: 10px; fill: rgb(0, 0, 0); fill-opacity: 1; white-space: pre; opacity: 1;" transform="translate(0,50)">100%</text></g></g><g class="overaxes-above"/></g></g><g class="polarlayer"/><g class="smithlayer"/><g class="ternarylayer"/><g class="geolayer"/><g class="funnelarealayer"/><g class="pielayer"/><g class="iciclelayer"/><g class="treemaplayer"/><g class="sunburstlayer"/><g class="glimages"/><defs id="topdefs-84aa60"><g class="clips"/></defs><g class="layer-above"><g class="imagelayer"/><g class="shapelayer"/></g><g class="infolayer"><g class="g-gtitle"><text class="gtitle" x="550" y="25" text-anchor="middle" dy="0em" style="opacity: 1; font-family: 'Lucida Grande', 'Open Sans', verdana, arial, sans-serif; font-size: 20px; fill: rgb(42, 63, 95); fill-opacity: 1; white-space: pre;"><tspan class="line" dy="0em" x="550" y="25">Fastp: Read GC Content</tspan><tspan class="line" dy="1.3em" x="550" y="25">​<tspan style="font-size:70%" dy="-0.6em">Read 2: Before filtering, 6 samples</tspan><tspan dy="0.42em">​</tspan></tspan></text></g><g class="g-xtitle"><text class="xtitle" x="574.5" y="472.3" text-anchor="middle" style="opacity: 0.3; font-family: 'Lucida Grande', 'Open Sans', verdana, arial, sans-serif; font-size: 14px; fill: rgb(0, 0, 0); fill-opacity: 1; white-space: pre;">Read Position</text></g><g class="g-ytitle"><text class="ytitle" transform="rotate(-90,22.00625,242.5)" x="22.00625" y="242.5" text-anchor="middle" style="opacity: 0.3; font-family: 'Lucida Grande', 'Open Sans', verdana, arial, sans-serif; font-size: 14px; fill: rgb(0, 0, 0); fill-opacity: 1; white-space: pre;">R2 Before filtering: Base Content Percent</text></g></g></svg>