<svg class="main-svg" xmlns="http://www.w3.org/2000/svg" xmlns:xlink="http://www.w3.org/1999/xlink" width="2200" height="1000" style="" viewBox="0 0 1100 500"><rect x="0" y="0" width="1100" height="500" style="fill: rgb(255, 255, 255); fill-opacity: 1;"/><defs id="defs-f66dbc"><g class="clips"><clipPath id="clipf66dbcxyplot" class="plotclip"><rect width="1013" height="385"/></clipPath><clipPath class="axesclip" id="clipf66dbcx"><rect x="61" y="0" width="1013" height="500"/></clipPath><clipPath class="axesclip" id="clipf66dbcy"><rect x="0" y="50" width="1100" height="385"/></clipPath><clipPath class="axesclip" id="clipf66dbcxy"><rect x="61" y="50" width="1013" height="385"/></clipPath></g><g class="gradients"/><g class="patterns"/></defs><g class="bglayer"/><g class="layer-below"><g class="imagelayer"/><g class="shapelayer"/></g><g class="cartesianlayer"><g class="subplot xy"><g class="layer-subplot"><g class="shapelayer"/><g class="imagelayer"/></g><g class="minor-gridlayer"><g class="x"/><g class="y"/></g><g class="gridlayer"><g class="x"><path class="xgrid crisp" transform="translate(263.6,0)" d="M0,50v385" style="stroke: rgb(0, 0, 0); stroke-opacity: 0.05; stroke-width: 1px;"/><path class="xgrid crisp" transform="translate(466.2,0)" d="M0,50v385" style="stroke: rgb(0, 0, 0); stroke-opacity: 0.05; stroke-width: 1px;"/><path class="xgrid crisp" transform="translate(668.8,0)" d="M0,50v385" style="stroke: rgb(0, 0, 0); stroke-opacity: 0.05; stroke-width: 1px;"/><path class="xgrid crisp" transform="translate(871.4,0)" d="M0,50v385" style="stroke: rgb(0, 0, 0); stroke-opacity: 0.05; stroke-width: 1px;"/></g><g class="y"><path class="ygrid crisp" transform="translate(0,365.55)" d="M61,0h1013" style="stroke: rgb(0, 0, 0); stroke-opacity: 0.05; stroke-width: 1px;"/><path class="ygrid crisp" transform="translate(0,296.1)" d="M61,0h1013" style="stroke: rgb(0, 0, 0); stroke-opacity: 0.05; stroke-width: 1px;"/><path class="ygrid crisp" transform="translate(0,226.64)" d="M61,0h1013" style="stroke: rgb(0, 0, 0); stroke-opacity: 0.05; stroke-width: 1px;"/><path class="ygrid crisp" transform="translate(0,157.19)" d="M61,0h1013" style="stroke: rgb(0, 0, 0); stroke-opacity: 0.05; stroke-width: 1px;"/><path class="ygrid crisp" transform="translate(0,87.74000000000001)" d="M61,0h1013" style="stroke: rgb(0, 0, 0); stroke-opacity: 0.05; stroke-width: 1px;"/></g></g><g class="zerolinelayer"><path class="xzl zl crisp" transform="translate(61,0)" d="M0,50v385" style="stroke: rgb(0, 0, 0); stroke-opacity: 0.05; stroke-width: 2px;"/><path class="yzl zl crisp" transform="translate(0,435)" d="M61,0h1013" style="stroke: rgb(0, 0, 0); stroke-opacity: 0.05; stroke-width: 2px;"/></g><g class="layer-between"><g class="shapelayer"/><g class="imagelayer"/></g><path class="xlines-below"/><path class="ylines-below"/><g class="overlines-below"/><g class="xaxislayer-below"/><g class="yaxislayer-below"/><g class="overaxes-below"/><g class="overplot"><g class="xy" transform="translate(61,50)" clip-path="url(#clipf66dbcxyplot)"><g class="scatterlayer mlayer"><g class="trace scatter trace7abdf4" style="stroke-miterlimit: 2; opacity: 1;"><g class="fills"/><g class="errorbars"/><g class="lines"><path class="js-line" d="M0,385L212.73,384.43L222.86,384.2L253.25,383.07L263.38,382.26L283.64,379.29L293.77,373.05L303.9,363.73L314.03,357.2L324.16,353.69L334.29,347.74L344.42,338.62L354.55,327.63L374.81,288.11L384.94,271.05L395.07,274.92L405.2,295.95L415.33,302.46L425.46,306.94L435.59,306.1L445.72,287.98L465.98,257.26L476.11,244.93L496.37,237.83L506.5,238.16L516.63,221.63L526.76,182.1L536.89,172.89L547.02,197.97L557.15,211.09L567.28,229.48L577.41,244.74L587.54,250.75L597.67,263.74L607.8,280.25L617.93,292.46L628.06,297.82L638.19,302.35L648.32,312.25L658.45,324.99L668.58,333.28L698.97,358.63L709.1,363.75L729.36,373.11L739.49,376.47L749.62,378.98L759.75,380.47L769.88,382.26L780.01,383.14L861.05,384.97L871.18,385L1013,385" style="vector-effect: none; fill: none; stroke: rgb(240, 173, 78); stroke-opacity: 1; stroke-width: 2px; opacity: 1;"/></g><g class="points"/><g class="text"/></g><g class="trace scatter trace940d6b" style="stroke-miterlimit: 2; opacity: 1;"><g class="fills"/><g class="errorbars"/><g class="lines"><path class="js-line" d="M0,385L222.86,384.25L232.99,383.77L253.25,383.37L263.38,382.05L273.51,381.18L283.64,378.92L293.77,376.06L303.9,370.33L314.03,353.71L324.16,344.18L334.29,346.45L344.42,337.86L354.55,321.33L364.68,311.29L374.81,300.11L384.94,285.15L395.07,286.43L405.2,283.32L415.33,292.44L425.46,311.82L435.59,308.88L445.72,294.8L465.98,266.62L476.11,249.88L486.24,243.06L496.37,238.96L506.5,237.28L516.63,231.49L536.89,190.5L547.02,189.01L557.15,203.96L567.28,217.33L577.41,228.86L587.54,234.12L597.67,247.47L607.8,273.7L617.93,289.57L628.06,299.02L638.19,301.92L648.32,312.94L658.45,326.05L668.58,334.86L688.84,348.95L698.97,357.18L709.1,362.57L719.23,367.03L729.36,370.94L739.49,373.77L759.75,379.27L769.88,380.68L810.4,383.94L820.53,384.44L871.18,385L881.31,385L1013,385" style="vector-effect: none; fill: none; stroke: rgb(240, 173, 78); stroke-opacity: 1; stroke-width: 2px; opacity: 1;"/></g><g class="points"/><g class="text"/></g><g class="trace scatter tracebb0caa" style="stroke-miterlimit: 2; opacity: 1;"><g class="fills"/><g class="errorbars"/><g class="lines"><path class="js-line" d="M0,385L212.73,384.44L222.86,384.22L243.12,383.33L253.25,382.47L273.51,381.04L283.64,379.18L293.77,370.83L303.9,360.21L314.03,353.07L324.16,349.16L334.29,344.8L344.42,335.26L354.55,321.3L364.68,299.57L374.81,274.12L384.94,252.45L395.07,259.05L405.2,281.19L415.33,286.99L425.46,290.86L435.59,286.69L445.72,265.58L455.85,250.51L465.98,233.84L476.11,213.35L486.24,202.12L496.37,200.59L506.5,202.12L516.63,181.19L526.76,135.39L536.89,120.34L547.02,149.23L557.15,168.81L567.28,192.74L577.41,212.81L587.54,221.08L597.67,234.95L607.8,252.21L617.93,268.74L628.06,276.57L638.19,282.52L648.32,294.85L658.45,309.61L668.58,320.71L698.97,351.47L709.1,358.54L729.36,369.65L739.49,373.51L759.75,378.7L769.88,380.54L790.14,382.74L800.27,383.07L820.53,384.48L830.66,384.57L871.18,384.98L881.31,385L1013,385" style="vector-effect: none; fill: none; stroke: rgb(240, 173, 78); stroke-opacity: 1; stroke-width: 2px; opacity: 1;"/></g><g class="points"/><g class="text"/></g><g class="trace scatter trace473290" style="stroke-miterlimit: 2; opacity: 1;"><g class="fills"/><g class="errorbars"/><g class="lines"><path class="js-line" d="M0,385L222.86,384.36L232.99,383.91L253.25,383.19L263.38,382.12L273.51,380.94L283.64,378.71L293.77,375.69L303.9,369.91L314.03,354.98L324.16,344.21L334.29,344.2L344.42,334.87L354.55,315.55L364.68,301.1L374.81,287.37L384.94,265.09L395.07,266.43L405.2,262.66L415.33,273.06L425.46,300.06L435.59,292.18L445.72,270.3L465.98,239.93L476.11,218.91L486.24,209.86L496.37,205.15L506.5,204.48L516.63,194.22L526.76,161.02L536.89,140.72L547.02,141.35L557.15,159.58L567.28,181.35L577.41,193.61L587.54,198.85L597.67,213.73L607.8,245.38L617.93,268.15L628.06,279.68L638.19,282.19L658.45,309.52L668.58,319.54L678.71,331.37L688.84,341.26L698.97,349.72L709.1,356.77L719.23,362.57L729.36,366.93L749.62,374.36L759.75,377.15L780.01,380.42L790.14,381.53L830.66,384.46L840.79,384.67L982.61,385L992.74,385L1013,385" style="vector-effect: none; fill: none; stroke: rgb(240, 173, 78); stroke-opacity: 1; stroke-width: 2px; opacity: 1;"/></g><g class="points"/><g class="text"/></g><g class="trace scatter trace38dcad" style="stroke-miterlimit: 2; opacity: 1;"><g class="fills"/><g class="errorbars"/><g class="lines"><path class="js-line" d="M0,385L212.73,384.27L222.86,384.17L232.99,384.15L243.12,383.35L273.51,380.83L283.64,378.65L293.77,371.04L303.9,362.29L314.03,356.63L324.16,352.76L334.29,347.65L344.42,336.77L354.55,323.81L364.68,302.7L374.81,278.81L384.94,259.95L395.07,266.25L405.2,287.92L415.33,294.14L425.46,296.87L435.59,294.61L445.72,278.55L455.85,263.39L465.98,244.67L476.11,231.39L486.24,228.26L496.37,224.15L506.5,224.22L516.63,205.64L526.76,161.17L536.89,149.18L547.02,180.4L577.41,231.67L587.54,242.22L597.67,252.03L607.8,265.37L617.93,281.66L628.06,291.19L638.19,294.89L648.32,303.53L658.45,319.33L668.58,329.7L698.97,356.11L709.1,361.39L729.36,371.73L739.49,374.83L759.75,379.24L769.88,381.3L780.01,382.78L790.14,383.25L850.92,384.93L861.05,384.95L1013,385" style="vector-effect: none; fill: none; stroke: rgb(240, 173, 78); stroke-opacity: 1; stroke-width: 2px; opacity: 1;"/></g><g class="points"/><g class="text"/></g><g class="trace scatter trace58719c" style="stroke-miterlimit: 2; opacity: 1;"><g class="fills"/><g class="errorbars"/><g class="lines"><path class="js-line" d="M0,385L222.86,384.46L232.99,384.03L253.25,383.06L263.38,382.08L273.51,380.88L283.64,378.35L293.77,375.75L303.9,368.71L314.03,353.56L324.16,344.67L334.29,344.77L344.42,333.33L354.55,314.96L364.68,304.47L374.81,291.87L384.94,274.33L395.07,275.79L405.2,274.66L415.33,284.43L425.46,306.35L435.59,300.16L445.72,282.39L455.85,270.28L465.98,255.7L476.11,238.87L486.24,229.65L496.37,225.31L506.5,225.4L516.63,214.27L526.76,188.57L536.89,172.2L547.02,171.47L567.28,204.34L577.41,214.04L587.54,219.98L597.67,234.41L607.8,260.47L617.93,279.97L628.06,290.88L638.19,295.23L658.45,319.21L668.58,328.69L698.97,354.94L709.1,360.41L719.23,363.92L729.36,368.47L749.62,375.97L759.75,378.98L769.88,380.68L780.01,381.44L800.27,382.88L810.4,383.85L840.79,384.77L850.92,384.84L931.96,385L942.09,385L1013,385" style="vector-effect: none; fill: none; stroke: rgb(240, 173, 78); stroke-opacity: 1; stroke-width: 2px; opacity: 1;"/></g><g class="points"/><g class="text"/></g><g class="trace scatter trace075f8d" style="stroke-miterlimit: 2; opacity: 1;"><g class="fills"/><g class="errorbars"/><g class="lines"><path class="js-line" d="M0,385L202.6,384.25L212.73,383.87L232.99,383.33L243.12,382.05L263.38,379.06L273.51,376.61L283.64,372.55L293.77,358L303.9,341.94L314.03,330.95L324.16,325.34L334.29,315.18L354.55,280.02L364.68,245.73L374.81,211.16L384.94,185.14L395.07,191.46L405.2,215.49L415.33,214.13L425.46,209.69L435.59,192.48L445.72,142.01L455.85,101.81L465.98,49.37L476.11,19.25L486.24,28.45L496.37,60.04L506.5,95.92L516.63,71.1L526.76,32.19L536.89,27.64L547.02,61.23L557.15,68.75L567.28,104.9L577.41,156.57L587.54,166.96L597.67,169.02L607.8,178.38L617.93,206.06L628.06,223.14L638.19,239.06L648.32,268.46L658.45,297.89L668.58,316L678.71,327.84L688.84,337.5L709.1,359.22L719.23,366.02L739.49,375.26L749.62,378.98L759.75,381.46L769.88,382.66L790.14,384.15L800.27,384.43L840.79,384.93L850.92,385L1013,385" style="vector-effect: none; fill: none; stroke: rgb(240, 173, 78); stroke-opacity: 1; stroke-width: 2px; opacity: 1;"/></g><g class="points"/><g class="text"/></g><g class="trace scatter traceee9cdb" style="stroke-miterlimit: 2; opacity: 1;"><g class="fills"/><g class="errorbars"/><g class="lines"><path class="js-line" d="M0,385L202.6,384.41L212.73,384.24L253.25,381.54L263.38,379.15L273.51,377.22L283.64,372.83L293.77,366.49L303.9,353.75L314.03,324.89L324.16,309.25L334.29,313.74L344.42,292.53L354.55,261.84L364.68,248.86L374.81,236.13L384.94,210.82L395.07,189.51L405.2,176.16L415.33,188.47L425.46,215.61L435.59,201.73L445.72,160.76L455.85,141.61L465.98,126.87L476.11,76.01L486.24,29.42L496.37,36.3L506.5,68.07L516.63,86.95L526.76,74.57L536.89,55.68L547.02,60.89L557.15,71.77L567.28,86.22L577.41,105.56L587.54,107.94L597.67,126.03L607.8,164.33L628.06,230.45L638.19,246.93L648.32,267.75L658.45,294.37L668.58,314.68L678.71,328.26L688.84,337.5L698.97,344.2L719.23,362.17L729.36,368.85L739.49,373.64L749.62,377.1L759.75,380.02L769.88,381.72L790.14,383.72L800.27,384.11L850.92,385L861.05,385L1013,385" style="vector-effect: none; fill: none; stroke: rgb(240, 173, 78); stroke-opacity: 1; stroke-width: 2px; opacity: 1;"/></g><g class="points"/><g class="text"/></g><g class="trace scatter trace48a335" style="stroke-miterlimit: 2; opacity: 1;"><g class="fills"/><g class="errorbars"/><g class="lines"><path class="js-line" d="M0,385L192.47,384.25L202.6,384.18L222.86,383.45L232.99,382.71L253.25,380.8L263.38,378.49L283.64,372.06L293.77,361.32L303.9,349.63L314.03,343.38L324.16,338.68L334.29,330.6L354.55,304.64L364.68,278.5L374.81,250.11L384.94,224.93L395.07,227.19L405.2,253.93L415.33,254.97L425.46,247.76L435.59,238.7L445.72,209.22L455.85,184.79L465.98,152.77L476.11,134.89L486.24,132.6L496.37,149.54L506.5,182.17L516.63,168.85L526.76,138.59L536.89,137.39L547.02,162.77L557.15,170.27L567.28,193.5L577.41,224.34L587.54,233.16L607.8,244.76L617.93,261.53L638.19,291.1L648.32,311.68L658.45,328.47L668.58,338.29L688.84,351.99L698.97,360.36L709.1,367.39L719.23,372.06L739.49,378.82L749.62,381.04L769.88,383.68L780.01,384.2L820.53,384.93L830.66,384.97L1013,385" style="vector-effect: none; fill: none; stroke: rgb(240, 173, 78); stroke-opacity: 1; stroke-width: 2px; opacity: 1;"/></g><g class="points"/><g class="text"/></g><g class="trace scatter trace2127ea" style="stroke-miterlimit: 2; opacity: 1;"><g class="fills"/><g class="errorbars"/><g class="lines"><path class="js-line" d="M0,385L202.6,384.27L212.73,384.05L253.25,380.94L263.38,379.01L273.51,376.91L283.64,373.18L293.77,367.6L303.9,356.49L314.03,336.07L324.16,324.65L334.29,324.7L344.42,308.95L354.55,289.75L364.68,276.74L374.81,263.75L384.94,246.37L395.07,234.27L405.2,233.49L415.33,242.4L425.46,257.35L435.59,251.03L445.72,223.79L455.85,207.5L465.98,199.32L476.11,169.35L486.24,132.2L496.37,133.03L506.5,158.99L516.63,175.55L526.76,174.41L536.89,164.73L547.02,162.25L557.15,162.69L567.28,177.79L577.41,194.42L587.54,196.14L597.67,210.95L607.8,237.55L617.93,261.65L628.06,281.33L638.19,292.26L648.32,305.56L658.45,322.88L668.58,337.51L678.71,346.02L688.84,352.84L719.23,370.68L729.36,374.69L739.49,378.07L749.62,380.03L769.88,382.83L780.01,383.45L820.53,384.79L830.66,384.84L962.35,385L972.48,385L1013,385" style="vector-effect: none; fill: none; stroke: rgb(240, 173, 78); stroke-opacity: 1; stroke-width: 2px; opacity: 1;"/></g><g class="points"/><g class="text"/></g><g class="trace scatter tracef13379" style="stroke-miterlimit: 2; opacity: 1;"><g class="fills"/><g class="errorbars"/><g class="lines"><path class="js-line" d="M0,385L202.6,384.37L212.73,384.08L232.99,383.45L243.12,382.73L263.38,381.25L273.51,379.41L283.64,376.23L293.77,364.44L303.9,350.29L314.03,343.14L324.16,339.02L334.29,330.93L354.55,304.47L364.68,276.92L374.81,243.44L384.94,219.58L395.07,223.65L405.2,243.77L415.33,242.05L425.46,238.06L435.59,228.11L445.72,189.41L455.85,154.84L465.98,109.64L476.11,84.1L486.24,86.17L496.37,107.73L506.5,143.43L516.63,130.15L526.76,95.46L536.89,89.87L547.02,117.84L557.15,127.33L567.28,159.16L577.41,200.45L587.54,206.44L597.67,212.34L607.8,222.14L617.93,242.69L628.06,258.51L638.19,272.25L648.32,294.76L658.45,316.54L668.58,329.56L688.84,343.78L698.97,353.42L709.1,362.91L719.23,368.59L729.36,371.58L739.49,375.52L749.62,379.18L759.75,381.56L790.14,383.94L800.27,384.51L840.79,384.98L850.92,384.97L1013,385" style="vector-effect: none; fill: none; stroke: rgb(240, 173, 78); stroke-opacity: 1; stroke-width: 2px; opacity: 1;"/></g><g class="points"/><g class="text"/></g><g class="trace scatter trace3bff78" style="stroke-miterlimit: 2; opacity: 1;"><g class="fills"/><g class="errorbars"/><g class="lines"><path class="js-line" d="M0,385L212.73,384.44L222.86,383.99L253.25,382.76L263.38,381.13L273.51,379.81L283.64,376.89L293.77,371.86L303.9,360.67L314.03,339.53L324.16,329.32L334.29,329.3L344.42,311.78L354.55,288.77L364.68,273.84L374.81,260.33L384.94,238.04L395.07,221.77L405.2,214.74L415.33,223.84L425.46,244.88L435.59,233.87L445.72,200.55L455.85,180.33L465.98,172.88L476.11,133.95L486.24,87.19L496.37,92.14L506.5,123.12L516.63,138.57L526.76,130.93L536.89,119.05L547.02,118.1L557.15,124.75L567.28,139.9L577.41,161.71L587.54,164.35L597.67,178.9L607.8,213.82L617.93,241.34L628.06,262.68L638.19,273.53L648.32,289.56L658.45,310.41L668.58,328.01L678.71,338.85L688.84,345.34L698.97,350.2L709.1,357.97L719.23,366.44L729.36,371.3L739.49,374.91L749.62,377.72L769.88,381.65L780.01,382.5L810.4,384.27L820.53,384.7L861.05,384.97L871.18,384.98L1013,385" style="vector-effect: none; fill: none; stroke: rgb(240, 173, 78); stroke-opacity: 1; stroke-width: 2px; opacity: 1;"/></g><g class="points"/><g class="text"/></g></g></g></g><path class="xlines-above crisp" d="M0,0" style="fill: none;"/><path class="ylines-above crisp" d="M0,0" style="fill: none;"/><g class="overlines-above"/><g class="xaxislayer-above"><g class="xtick"><text text-anchor="middle" x="0" y="451" transform="translate(61,0)" style="font-family: 'Lucida Grande', 'Open Sans', verdana, arial, sans-serif; font-size: 10px; fill: rgb(0, 0, 0); fill-opacity: 1; white-space: pre; opacity: 1;">0%</text></g><g class="xtick"><text text-anchor="middle" x="0" y="451" style="font-family: 'Lucida Grande', 'Open Sans', verdana, arial, sans-serif; font-size: 10px; fill: rgb(0, 0, 0); fill-opacity: 1; white-space: pre; opacity: 1;" transform="translate(263.6,0)">20%</text></g><g class="xtick"><text text-anchor="middle" x="0" y="451" style="font-family: 'Lucida Grande', 'Open Sans', verdana, arial, sans-serif; font-size: 10px; fill: rgb(0, 0, 0); fill-opacity: 1; white-space: pre; opacity: 1;" transform="translate(466.2,0)">40%</text></g><g class="xtick"><text text-anchor="middle" x="0" y="451" style="font-family: 'Lucida Grande', 'Open Sans', verdana, arial, sans-serif; font-size: 10px; fill: rgb(0, 0, 0); fill-opacity: 1; white-space: pre; opacity: 1;" transform="translate(668.8,0)">60%</text></g><g class="xtick"><text text-anchor="middle" x="0" y="451" style="font-family: 'Lucida Grande', 'Open Sans', verdana, arial, sans-serif; font-size: 10px; fill: rgb(0, 0, 0); fill-opacity: 1; white-space: pre; opacity: 1;" transform="translate(871.4,0)">80%</text></g><g class="xtick"><text text-anchor="middle" x="0" y="451" style="font-family: 'Lucida Grande', 'Open Sans', verdana, arial, sans-serif; font-size: 10px; fill: rgb(0, 0, 0); fill-opacity: 1; white-space: pre; opacity: 1;" transform="translate(1074,0)">100%</text></g></g><g class="yaxislayer-above"><g class="ytick"><text text-anchor="end" x="55" y="3.5" transform="translate(0,435)" style="font-family: 'Lucida Grande', 'Open Sans', verdana, arial, sans-serif; font-size: 10px; fill: rgb(0, 0, 0); fill-opacity: 1; white-space: pre; opacity: 1;">0</text></g><g class="ytick"><text text-anchor="end" x="55" y="3.5" style="font-family: 'Lucida Grande', 'Open Sans', verdana, arial, sans-serif; font-size: 10px; fill: rgb(0, 0, 0); fill-opacity: 1; white-space: pre; opacity: 1;" transform="translate(0,365.55)">2k</text></g><g class="ytick"><text text-anchor="end" x="55" y="3.5" style="font-family: 'Lucida Grande', 'Open Sans', verdana, arial, sans-serif; font-size: 10px; fill: rgb(0, 0, 0); fill-opacity: 1; white-space: pre; opacity: 1;" transform="translate(0,296.1)">4k</text></g><g class="ytick"><text text-anchor="end" x="55" y="3.5" style="font-family: 'Lucida Grande', 'Open Sans', verdana, arial, sans-serif; font-size: 10px; fill: rgb(0, 0, 0); fill-opacity: 1; white-space: pre; opacity: 1;" transform="translate(0,226.64)">6k</text></g><g class="ytick"><text text-anchor="end" x="55" y="3.5" style="font-family: 'Lucida Grande', 'Open Sans', verdana, arial, sans-serif; font-size: 10px; fill: rgb(0, 0, 0); fill-opacity: 1; white-space: pre; opacity: 1;" transform="translate(0,157.19)">8k</text></g><g class="ytick"><text text-anchor="end" x="55" y="3.5" style="font-family: 'Lucida Grande', 'Open Sans', verdana, arial, sans-serif; font-size: 10px; fill: rgb(0, 0, 0); fill-opacity: 1; white-space: pre; opacity: 1;" transform="translate(0,87.74000000000001)">10k</text></g></g><g class="overaxes-above"/></g></g><g class="polarlayer"/><g class="smithlayer"/><g class="ternarylayer"/><g class="geolayer"/><g class="funnelarealayer"/><g class="pielayer"/><g class="iciclelayer"/><g class="treemaplayer"/><g class="sunburstlayer"/><g class="glimages"/><defs id="topdefs-f66dbc"><g class="clips"/></defs><g class="layer-above"><g class="imagelayer"/><g class="shapelayer"/></g><g class="infolayer"><g class="g-gtitle"><text class="gtitle" x="550" y="25" text-anchor="middle" dy="0em" style="opacity: 1; font-family: 'Lucida Grande', 'Open Sans', verdana, arial, sans-serif; font-size: 20px; fill: rgb(42, 63, 95); fill-opacity: 1; white-space: pre;"><tspan class="line" dy="0em" x="550" y="25">FastQC: Per Sequence GC Content</tspan><tspan class="line" dy="1.3em" x="550" y="25">​<tspan style="font-size:70%" dy="-0.6em">Counts, 12 samples</tspan><tspan dy="0.42em">​</tspan></tspan></text></g><g class="g-xtitle"><text class="xtitle" x="567.5" y="472.3" text-anchor="middle" style="opacity: 0.3; font-family: 'Lucida Grande', 'Open Sans', verdana, arial, sans-serif; font-size: 14px; fill: rgb(0, 0, 0); fill-opacity: 1; white-space: pre;">% GC</text></g><g class="g-ytitle"><text class="ytitle" transform="rotate(-90,22.084375,242.5)" x="22.084375" y="242.5" text-anchor="middle" style="opacity: 0.3; font-family: 'Lucida Grande', 'Open Sans', verdana, arial, sans-serif; font-size: 14px; fill: rgb(0, 0, 0); fill-opacity: 1; white-space: pre;">Count</text></g></g></svg>