<svg class="main-svg" xmlns="http://www.w3.org/2000/svg" xmlns:xlink="http://www.w3.org/1999/xlink" width="2200" height="1000" style="" viewBox="0 0 1100 500"><rect x="0" y="0" width="1100" height="500" style="fill: rgb(255, 255, 255); fill-opacity: 1;"/><defs id="defs-2797d6"><g class="clips"><clipPath id="clip2797d6xyplot" class="plotclip"><rect width="1013" height="265"/></clipPath><clipPath class="axesclip" id="clip2797d6x"><rect x="71" y="0" width="1013" height="500"/></clipPath><clipPath class="axesclip" id="clip2797d6y"><rect x="0" y="50" width="1100" height="265"/></clipPath><clipPath class="axesclip" id="clip2797d6xy"><rect x="71" y="50" width="1013" height="265"/></clipPath></g><g class="gradients"/><g class="patterns"/></defs><g class="bglayer"/><g class="layer-below"><g class="imagelayer"/><g class="shapelayer"/></g><g class="cartesianlayer"><g class="subplot xy"><g class="layer-subplot"><g class="shapelayer"/><g class="imagelayer"/></g><g class="minor-gridlayer"><g class="x"/><g class="y"/></g><g class="gridlayer"><g class="x"><path class="xgrid crisp" transform="translate(91.26,0)" d="M0,50v265" style="stroke: rgb(0, 0, 0); stroke-opacity: 0.05; stroke-width: 1px;"/><path class="xgrid crisp" transform="translate(111.52000000000001,0)" d="M0,50v265" style="stroke: rgb(0, 0, 0); stroke-opacity: 0.05; stroke-width: 1px;"/><path class="xgrid crisp" transform="translate(131.78,0)" d="M0,50v265" style="stroke: rgb(0, 0, 0); stroke-opacity: 0.05; stroke-width: 1px;"/><path class="xgrid crisp" transform="translate(152.04000000000002,0)" d="M0,50v265" style="stroke: rgb(0, 0, 0); stroke-opacity: 0.05; stroke-width: 1px;"/><path class="xgrid crisp" transform="translate(172.3,0)" d="M0,50v265" style="stroke: rgb(0, 0, 0); stroke-opacity: 0.05; stroke-width: 1px;"/><path class="xgrid crisp" transform="translate(192.56,0)" d="M0,50v265" style="stroke: rgb(0, 0, 0); stroke-opacity: 0.05; stroke-width: 1px;"/><path class="xgrid crisp" transform="translate(212.82,0)" d="M0,50v265" style="stroke: rgb(0, 0, 0); stroke-opacity: 0.05; stroke-width: 1px;"/><path class="xgrid crisp" transform="translate(233.08,0)" d="M0,50v265" style="stroke: rgb(0, 0, 0); stroke-opacity: 0.05; stroke-width: 1px;"/><path class="xgrid crisp" transform="translate(253.34,0)" d="M0,50v265" style="stroke: rgb(0, 0, 0); stroke-opacity: 0.05; stroke-width: 1px;"/><path class="xgrid crisp" transform="translate(273.6,0)" d="M0,50v265" style="stroke: rgb(0, 0, 0); stroke-opacity: 0.05; stroke-width: 1px;"/><path class="xgrid crisp" transform="translate(293.86,0)" d="M0,50v265" style="stroke: rgb(0, 0, 0); stroke-opacity: 0.05; stroke-width: 1px;"/><path class="xgrid crisp" transform="translate(314.12,0)" d="M0,50v265" style="stroke: rgb(0, 0, 0); stroke-opacity: 0.05; stroke-width: 1px;"/><path class="xgrid crisp" transform="translate(334.38,0)" d="M0,50v265" style="stroke: rgb(0, 0, 0); stroke-opacity: 0.05; stroke-width: 1px;"/><path class="xgrid crisp" transform="translate(354.64,0)" d="M0,50v265" style="stroke: rgb(0, 0, 0); stroke-opacity: 0.05; stroke-width: 1px;"/><path class="xgrid crisp" transform="translate(374.9,0)" d="M0,50v265" style="stroke: rgb(0, 0, 0); stroke-opacity: 0.05; stroke-width: 1px;"/><path class="xgrid crisp" transform="translate(395.16,0)" d="M0,50v265" style="stroke: rgb(0, 0, 0); stroke-opacity: 0.05; stroke-width: 1px;"/><path class="xgrid crisp" transform="translate(415.42,0)" d="M0,50v265" style="stroke: rgb(0, 0, 0); stroke-opacity: 0.05; stroke-width: 1px;"/><path class="xgrid crisp" transform="translate(435.68,0)" d="M0,50v265" style="stroke: rgb(0, 0, 0); stroke-opacity: 0.05; stroke-width: 1px;"/><path class="xgrid crisp" transform="translate(455.94,0)" d="M0,50v265" style="stroke: rgb(0, 0, 0); stroke-opacity: 0.05; stroke-width: 1px;"/><path class="xgrid crisp" transform="translate(476.2,0)" d="M0,50v265" style="stroke: rgb(0, 0, 0); stroke-opacity: 0.05; stroke-width: 1px;"/><path class="xgrid crisp" transform="translate(496.46,0)" d="M0,50v265" style="stroke: rgb(0, 0, 0); stroke-opacity: 0.05; stroke-width: 1px;"/><path class="xgrid crisp" transform="translate(516.72,0)" d="M0,50v265" style="stroke: rgb(0, 0, 0); stroke-opacity: 0.05; stroke-width: 1px;"/><path class="xgrid crisp" transform="translate(536.98,0)" d="M0,50v265" style="stroke: rgb(0, 0, 0); stroke-opacity: 0.05; stroke-width: 1px;"/><path class="xgrid crisp" transform="translate(557.24,0)" d="M0,50v265" style="stroke: rgb(0, 0, 0); stroke-opacity: 0.05; stroke-width: 1px;"/><path class="xgrid crisp" transform="translate(577.5,0)" d="M0,50v265" style="stroke: rgb(0, 0, 0); stroke-opacity: 0.05; stroke-width: 1px;"/><path class="xgrid crisp" transform="translate(597.76,0)" d="M0,50v265" style="stroke: rgb(0, 0, 0); stroke-opacity: 0.05; stroke-width: 1px;"/><path class="xgrid crisp" transform="translate(618.02,0)" d="M0,50v265" style="stroke: rgb(0, 0, 0); stroke-opacity: 0.05; stroke-width: 1px;"/><path class="xgrid crisp" transform="translate(638.28,0)" d="M0,50v265" style="stroke: rgb(0, 0, 0); stroke-opacity: 0.05; stroke-width: 1px;"/><path class="xgrid crisp" transform="translate(658.54,0)" d="M0,50v265" style="stroke: rgb(0, 0, 0); stroke-opacity: 0.05; stroke-width: 1px;"/><path class="xgrid crisp" transform="translate(678.8,0)" d="M0,50v265" style="stroke: rgb(0, 0, 0); stroke-opacity: 0.05; stroke-width: 1px;"/><path class="xgrid crisp" transform="translate(699.06,0)" d="M0,50v265" style="stroke: rgb(0, 0, 0); stroke-opacity: 0.05; stroke-width: 1px;"/><path class="xgrid crisp" transform="translate(719.32,0)" d="M0,50v265" style="stroke: rgb(0, 0, 0); stroke-opacity: 0.05; stroke-width: 1px;"/><path class="xgrid crisp" transform="translate(739.58,0)" d="M0,50v265" style="stroke: rgb(0, 0, 0); stroke-opacity: 0.05; stroke-width: 1px;"/><path class="xgrid crisp" transform="translate(759.84,0)" d="M0,50v265" style="stroke: rgb(0, 0, 0); stroke-opacity: 0.05; stroke-width: 1px;"/><path class="xgrid crisp" transform="translate(780.1,0)" d="M0,50v265" style="stroke: rgb(0, 0, 0); stroke-opacity: 0.05; stroke-width: 1px;"/><path class="xgrid crisp" transform="translate(800.36,0)" d="M0,50v265" style="stroke: rgb(0, 0, 0); stroke-opacity: 0.05; stroke-width: 1px;"/><path class="xgrid crisp" transform="translate(820.62,0)" d="M0,50v265" style="stroke: rgb(0, 0, 0); stroke-opacity: 0.05; stroke-width: 1px;"/><path class="xgrid crisp" transform="translate(840.88,0)" d="M0,50v265" style="stroke: rgb(0, 0, 0); stroke-opacity: 0.05; stroke-width: 1px;"/><path class="xgrid crisp" transform="translate(861.14,0)" d="M0,50v265" style="stroke: rgb(0, 0, 0); stroke-opacity: 0.05; stroke-width: 1px;"/><path class="xgrid crisp" transform="translate(881.4,0)" d="M0,50v265" style="stroke: rgb(0, 0, 0); stroke-opacity: 0.05; stroke-width: 1px;"/><path class="xgrid crisp" transform="translate(901.66,0)" d="M0,50v265" style="stroke: rgb(0, 0, 0); stroke-opacity: 0.05; stroke-width: 1px;"/><path class="xgrid crisp" transform="translate(921.92,0)" d="M0,50v265" style="stroke: rgb(0, 0, 0); stroke-opacity: 0.05; stroke-width: 1px;"/><path class="xgrid crisp" transform="translate(942.18,0)" d="M0,50v265" style="stroke: rgb(0, 0, 0); stroke-opacity: 0.05; stroke-width: 1px;"/><path class="xgrid crisp" transform="translate(962.44,0)" d="M0,50v265" style="stroke: rgb(0, 0, 0); stroke-opacity: 0.05; stroke-width: 1px;"/><path class="xgrid crisp" transform="translate(982.7,0)" d="M0,50v265" style="stroke: rgb(0, 0, 0); stroke-opacity: 0.05; stroke-width: 1px;"/><path class="xgrid crisp" transform="translate(1002.96,0)" d="M0,50v265" style="stroke: rgb(0, 0, 0); stroke-opacity: 0.05; stroke-width: 1px;"/><path class="xgrid crisp" transform="translate(1023.22,0)" d="M0,50v265" style="stroke: rgb(0, 0, 0); stroke-opacity: 0.05; stroke-width: 1px;"/><path class="xgrid crisp" transform="translate(1043.48,0)" d="M0,50v265" style="stroke: rgb(0, 0, 0); stroke-opacity: 0.05; stroke-width: 1px;"/><path class="xgrid crisp" transform="translate(1063.74,0)" d="M0,50v265" style="stroke: rgb(0, 0, 0); stroke-opacity: 0.05; stroke-width: 1px;"/></g><g class="y"><path class="ygrid crisp" transform="translate(0,260.63)" d="M71,0h1013" style="stroke: rgb(0, 0, 0); stroke-opacity: 0.05; stroke-width: 1px;"/><path class="ygrid crisp" transform="translate(0,219.51)" d="M71,0h1013" style="stroke: rgb(0, 0, 0); stroke-opacity: 0.05; stroke-width: 1px;"/><path class="ygrid crisp" transform="translate(0,178.39)" d="M71,0h1013" style="stroke: rgb(0, 0, 0); stroke-opacity: 0.05; stroke-width: 1px;"/><path class="ygrid crisp" transform="translate(0,137.26999999999998)" d="M71,0h1013" style="stroke: rgb(0, 0, 0); stroke-opacity: 0.05; stroke-width: 1px;"/><path class="ygrid crisp" transform="translate(0,96.15)" d="M71,0h1013" style="stroke: rgb(0, 0, 0); stroke-opacity: 0.05; stroke-width: 1px;"/><path class="ygrid crisp" transform="translate(0,55.03)" d="M71,0h1013" style="stroke: rgb(0, 0, 0); stroke-opacity: 0.05; stroke-width: 1px;"/></g></g><g class="zerolinelayer"><path class="yzl zl crisp" transform="translate(0,301.75)" d="M71,0h1013" style="stroke: rgb(0, 0, 0); stroke-opacity: 0.05; stroke-width: 2px;"/></g><g class="layer-between"><g class="shapelayer"/><g class="imagelayer"/></g><path class="xlines-below"/><path class="ylines-below"/><g class="overlines-below"/><g class="xaxislayer-below"/><g class="yaxislayer-below"/><g class="overaxes-below"/><g class="overplot"><g class="xy" transform="translate(71,50)" clip-path="url(#clip2797d6xyplot)"><g class="scatterlayer mlayer"><g class="trace scatter trace5aec1a" style="stroke-miterlimit: 2; opacity: 1;"><g class="fills"/><g class="errorbars"/><g class="lines"><path class="js-line" d="M0,251.75L405.2,251.75L425.46,103.72L445.72,251.75L465.98,251.75L526.76,251.75L547.02,111.94L567.28,251.75L587.54,202.41L607.8,235.3L628.06,251.75L769.88,251.75" style="vector-effect: none; fill: none; stroke: rgb(124, 181, 236); stroke-opacity: 1; stroke-width: 2px; opacity: 1;"/></g><g class="points"/><g class="text"/></g><g class="trace scatter tracea53ec1" style="stroke-miterlimit: 2; opacity: 1;"><g class="fills"/><g class="errorbars"/><g class="lines"><path class="js-line" d="M0,251.75L405.2,251.75L425.46,62.59L445.72,251.75L465.98,251.75L810.4,251.75L526.76,251.75L547.02,70.82L567.28,251.75L587.54,185.96L607.8,227.08L628.06,251.75L648.32,251.75L668.58,243.53L688.84,251.75L729.36,251.75L769.88,251.75" style="vector-effect: none; fill: none; stroke: rgb(67, 67, 72); stroke-opacity: 1; stroke-width: 2px; opacity: 1;"/></g><g class="points"/><g class="text"/></g><g class="trace scatter tracee927f0" style="stroke-miterlimit: 2; opacity: 1;"><g class="fills"/><g class="errorbars"/><g class="lines"><path class="js-line" d="M0,251.75L405.2,251.75L425.46,95.49L445.72,251.75L465.98,251.75L830.66,251.75L526.76,251.75L547.02,87.27L567.28,251.75L587.54,202.41L607.8,243.53L628.06,251.75L850.92,251.75L769.88,251.75" style="vector-effect: none; fill: none; stroke: rgb(144, 237, 125); stroke-opacity: 1; stroke-width: 2px; opacity: 1;"/></g><g class="points"/><g class="text"/></g><g class="trace scatter trace9c4b3e" style="stroke-miterlimit: 2; opacity: 1;"><g class="fills"/><g class="errorbars"/><g class="lines"><path class="js-line" d="M0,251.75L405.2,251.75L425.46,13.25L445.72,251.75L465.98,251.75L526.76,251.75L547.02,202.41L587.54,185.96L871.18,251.75L607.8,218.85L628.06,251.75L891.44,251.75L850.92,251.75L668.58,243.53L911.7,251.75L688.84,251.75L769.88,251.75" style="vector-effect: none; fill: none; stroke: rgb(247, 163, 92); stroke-opacity: 1; stroke-width: 2px; opacity: 1;"/></g><g class="points"/><g class="text"/></g><g class="trace scatter tracee49285" style="stroke-miterlimit: 2; opacity: 1;"><g class="fills"/><g class="errorbars"/><g class="lines"><path class="js-line" d="M0,251.75L405.2,251.75L425.46,79.04L445.72,251.75L465.98,251.75L931.96,251.75L506.5,251.75L526.76,243.53L547.02,210.63L952.22,251.75L567.28,243.53L587.54,210.63L972.48,251.75L992.74,251.75L871.18,251.75L607.8,227.08L628.06,251.75L891.44,251.75L648.32,251.75L911.7,251.75L769.88,251.75" style="vector-effect: none; fill: none; stroke: rgb(128, 133, 233); stroke-opacity: 1; stroke-width: 2px; opacity: 1;"/></g><g class="points"/><g class="text"/></g><g class="trace scatter trace997fa7" style="stroke-miterlimit: 2; opacity: 1;"><g class="fills"/><g class="errorbars"/><g class="lines"><path class="js-line" d="M0,251.75L405.2,251.75L425.46,62.59L445.72,251.75L465.98,251.75L526.76,251.75L547.02,202.41L587.54,202.41L1013,251.75L607.8,218.85L628.06,251.75L891.44,251.75L850.92,251.75L668.58,243.53L911.7,251.75L688.84,251.75L769.88,251.75" style="vector-effect: none; fill: none; stroke: rgb(241, 92, 128); stroke-opacity: 1; stroke-width: 2px; opacity: 1;"/></g><g class="points"/><g class="text"/></g></g></g></g><path class="xlines-above crisp" d="M0,0" style="fill: none;"/><path class="ylines-above crisp" d="M0,0" style="fill: none;"/><g class="overlines-above"/><g class="xaxislayer-above"><g class="xtick"><text text-anchor="start" x="0" y="331" transform="translate(71,0) rotate(90,0,326)" style="font-family: 'Lucida Grande', 'Open Sans', verdana, arial, sans-serif; font-size: 10px; fill: rgb(0, 0, 0); fill-opacity: 1; white-space: pre; opacity: 1;">chr1</text></g><g class="xtick"><text text-anchor="start" x="0" y="331" transform="translate(91.26,0) rotate(90,0,326)" style="font-family: 'Lucida Grande', 'Open Sans', verdana, arial, sans-serif; font-size: 10px; fill: rgb(0, 0, 0); fill-opacity: 1; white-space: pre; opacity: 1;">chr2</text></g><g class="xtick"><text text-anchor="start" x="0" y="331" transform="translate(111.52000000000001,0) rotate(90,0,326)" style="font-family: 'Lucida Grande', 'Open Sans', verdana, arial, sans-serif; font-size: 10px; fill: rgb(0, 0, 0); fill-opacity: 1; white-space: pre; opacity: 1;">chr3</text></g><g class="xtick"><text text-anchor="start" x="0" y="331" transform="translate(131.78,0) rotate(90,0,326)" style="font-family: 'Lucida Grande', 'Open Sans', verdana, arial, sans-serif; font-size: 10px; fill: rgb(0, 0, 0); fill-opacity: 1; white-space: pre; opacity: 1;">chr4</text></g><g class="xtick"><text text-anchor="start" x="0" y="331" transform="translate(152.04000000000002,0) rotate(90,0,326)" style="font-family: 'Lucida Grande', 'Open Sans', verdana, arial, sans-serif; font-size: 10px; fill: rgb(0, 0, 0); fill-opacity: 1; white-space: pre; opacity: 1;">chr5</text></g><g class="xtick"><text text-anchor="start" x="0" y="331" transform="translate(172.3,0) rotate(90,0,326)" style="font-family: 'Lucida Grande', 'Open Sans', verdana, arial, sans-serif; font-size: 10px; fill: rgb(0, 0, 0); fill-opacity: 1; white-space: pre; opacity: 1;">chr6</text></g><g class="xtick"><text text-anchor="start" x="0" y="331" transform="translate(192.56,0) rotate(90,0,326)" style="font-family: 'Lucida Grande', 'Open Sans', verdana, arial, sans-serif; font-size: 10px; fill: rgb(0, 0, 0); fill-opacity: 1; white-space: pre; opacity: 1;">chr7</text></g><g class="xtick"><text text-anchor="start" x="0" y="331" transform="translate(212.82,0) rotate(90,0,326)" style="font-family: 'Lucida Grande', 'Open Sans', verdana, arial, sans-serif; font-size: 10px; fill: rgb(0, 0, 0); fill-opacity: 1; white-space: pre; opacity: 1;">chr8</text></g><g class="xtick"><text text-anchor="start" x="0" y="331" transform="translate(233.08,0) rotate(90,0,326)" style="font-family: 'Lucida Grande', 'Open Sans', verdana, arial, sans-serif; font-size: 10px; fill: rgb(0, 0, 0); fill-opacity: 1; white-space: pre; opacity: 1;">chr9</text></g><g class="xtick"><text text-anchor="start" x="0" y="331" transform="translate(253.34,0) rotate(90,0,326)" style="font-family: 'Lucida Grande', 'Open Sans', verdana, arial, sans-serif; font-size: 10px; fill: rgb(0, 0, 0); fill-opacity: 1; white-space: pre; opacity: 1;">chr10</text></g><g class="xtick"><text text-anchor="start" x="0" y="331" transform="translate(273.6,0) rotate(90,0,326)" style="font-family: 'Lucida Grande', 'Open Sans', verdana, arial, sans-serif; font-size: 10px; fill: rgb(0, 0, 0); fill-opacity: 1; white-space: pre; opacity: 1;">chr11</text></g><g class="xtick"><text text-anchor="start" x="0" y="331" transform="translate(293.86,0) rotate(90,0,326)" style="font-family: 'Lucida Grande', 'Open Sans', verdana, arial, sans-serif; font-size: 10px; fill: rgb(0, 0, 0); fill-opacity: 1; white-space: pre; opacity: 1;">chr12</text></g><g class="xtick"><text text-anchor="start" x="0" y="331" transform="translate(314.12,0) rotate(90,0,326)" style="font-family: 'Lucida Grande', 'Open Sans', verdana, arial, sans-serif; font-size: 10px; fill: rgb(0, 0, 0); fill-opacity: 1; white-space: pre; opacity: 1;">chr13</text></g><g class="xtick"><text text-anchor="start" x="0" y="331" transform="translate(334.38,0) rotate(90,0,326)" style="font-family: 'Lucida Grande', 'Open Sans', verdana, arial, sans-serif; font-size: 10px; fill: rgb(0, 0, 0); fill-opacity: 1; white-space: pre; opacity: 1;">chr14</text></g><g class="xtick"><text text-anchor="start" x="0" y="331" transform="translate(354.64,0) rotate(90,0,326)" style="font-family: 'Lucida Grande', 'Open Sans', verdana, arial, sans-serif; font-size: 10px; fill: rgb(0, 0, 0); fill-opacity: 1; white-space: pre; opacity: 1;">chr15</text></g><g class="xtick"><text text-anchor="start" x="0" y="331" transform="translate(374.9,0) rotate(90,0,326)" style="font-family: 'Lucida Grande', 'Open Sans', verdana, arial, sans-serif; font-size: 10px; fill: rgb(0, 0, 0); fill-opacity: 1; white-space: pre; opacity: 1;">chr16</text></g><g class="xtick"><text text-anchor="start" x="0" y="331" transform="translate(395.16,0) rotate(90,0,326)" style="font-family: 'Lucida Grande', 'Open Sans', verdana, arial, sans-serif; font-size: 10px; fill: rgb(0, 0, 0); fill-opacity: 1; white-space: pre; opacity: 1;">chr17</text></g><g class="xtick"><text text-anchor="start" x="0" y="331" transform="translate(415.42,0) rotate(90,0,326)" style="font-family: 'Lucida Grande', 'Open Sans', verdana, arial, sans-serif; font-size: 10px; fill: rgb(0, 0, 0); fill-opacity: 1; white-space: pre; opacity: 1;">chr18</text></g><g class="xtick"><text text-anchor="start" x="0" y="331" transform="translate(435.68,0) rotate(90,0,326)" style="font-family: 'Lucida Grande', 'Open Sans', verdana, arial, sans-serif; font-size: 10px; fill: rgb(0, 0, 0); fill-opacity: 1; white-space: pre; opacity: 1;">chr19</text></g><g class="xtick"><text text-anchor="start" x="0" y="331" transform="translate(455.94,0) rotate(90,0,326)" style="font-family: 'Lucida Grande', 'Open Sans', verdana, arial, sans-serif; font-size: 10px; fill: rgb(0, 0, 0); fill-opacity: 1; white-space: pre; opacity: 1;">chr20</text></g><g class="xtick"><text text-anchor="start" x="0" y="331" transform="translate(476.2,0) rotate(90,0,326)" style="font-family: 'Lucida Grande', 'Open Sans', verdana, arial, sans-serif; font-size: 10px; fill: rgb(0, 0, 0); fill-opacity: 1; white-space: pre; opacity: 1;">chr21</text></g><g class="xtick"><text text-anchor="start" x="0" y="331" transform="translate(496.46,0) rotate(90,0,326)" style="font-family: 'Lucida Grande', 'Open Sans', verdana, arial, sans-serif; font-size: 10px; fill: rgb(0, 0, 0); fill-opacity: 1; white-space: pre; opacity: 1;">chr22</text></g><g class="xtick"><text text-anchor="start" x="0" y="331" transform="translate(516.72,0) rotate(90,0,326)" style="font-family: 'Lucida Grande', 'Open Sans', verdana, arial, sans-serif; font-size: 10px; fill: rgb(0, 0, 0); fill-opacity: 1; white-space: pre; opacity: 1;">chrX</text></g><g class="xtick"><text text-anchor="start" x="0" y="331" transform="translate(536.98,0) rotate(90,0,326)" style="font-family: 'Lucida Grande', 'Open Sans', verdana, arial, sans-serif; font-size: 10px; fill: rgb(0, 0, 0); fill-opacity: 1; white-space: pre; opacity: 1;">chrY</text></g><g class="xtick"><text text-anchor="start" x="0" y="331" transform="translate(557.24,0) rotate(90,0,326)" style="font-family: 'Lucida Grande', 'Open Sans', verdana, arial, sans-serif; font-size: 10px; fill: rgb(0, 0, 0); fill-opacity: 1; white-space: pre; opacity: 1;">chr1_KI270712v1_random</text></g><g class="xtick"><text text-anchor="start" x="0" y="331" transform="translate(577.5,0) rotate(90,0,326)" style="font-family: 'Lucida Grande', 'Open Sans', verdana, arial, sans-serif; font-size: 10px; fill: rgb(0, 0, 0); fill-opacity: 1; white-space: pre; opacity: 1;">chr16_KI270728v1_random</text></g><g class="xtick"><text text-anchor="start" x="0" y="331" transform="translate(597.76,0) rotate(90,0,326)" style="font-family: 'Lucida Grande', 'Open Sans', verdana, arial, sans-serif; font-size: 10px; fill: rgb(0, 0, 0); fill-opacity: 1; white-space: pre; opacity: 1;">chr22_KI270731v1_random</text></g><g class="xtick"><text text-anchor="start" x="0" y="331" transform="translate(618.02,0) rotate(90,0,326)" style="font-family: 'Lucida Grande', 'Open Sans', verdana, arial, sans-serif; font-size: 10px; fill: rgb(0, 0, 0); fill-opacity: 1; white-space: pre; opacity: 1;">chr22_KI270734v1_random</text></g><g class="xtick"><text text-anchor="start" x="0" y="331" transform="translate(638.28,0) rotate(90,0,326)" style="font-family: 'Lucida Grande', 'Open Sans', verdana, arial, sans-serif; font-size: 10px; fill: rgb(0, 0, 0); fill-opacity: 1; white-space: pre; opacity: 1;">chrUn_KI270745v1</text></g><g class="xtick"><text text-anchor="start" x="0" y="331" transform="translate(658.54,0) rotate(90,0,326)" style="font-family: 'Lucida Grande', 'Open Sans', verdana, arial, sans-serif; font-size: 10px; fill: rgb(0, 0, 0); fill-opacity: 1; white-space: pre; opacity: 1;">chrUn_KI270755v1</text></g><g class="xtick"><text text-anchor="start" x="0" y="331" transform="translate(678.8,0) rotate(90,0,326)" style="font-family: 'Lucida Grande', 'Open Sans', verdana, arial, sans-serif; font-size: 10px; fill: rgb(0, 0, 0); fill-opacity: 1; white-space: pre; opacity: 1;">chr22_KI270879v1_alt</text></g><g class="xtick"><text text-anchor="start" x="0" y="331" transform="translate(699.06,0) rotate(90,0,326)" style="font-family: 'Lucida Grande', 'Open Sans', verdana, arial, sans-serif; font-size: 10px; fill: rgb(0, 0, 0); fill-opacity: 1; white-space: pre; opacity: 1;">chr22_KI270876v1_alt</text></g><g class="xtick"><text text-anchor="start" x="0" y="331" transform="translate(719.32,0) rotate(90,0,326)" style="font-family: 'Lucida Grande', 'Open Sans', verdana, arial, sans-serif; font-size: 10px; fill: rgb(0, 0, 0); fill-opacity: 1; white-space: pre; opacity: 1;">chr22_GL383582v2_alt</text></g><g class="xtick"><text text-anchor="start" x="0" y="331" transform="translate(739.58,0) rotate(90,0,326)" style="font-family: 'Lucida Grande', 'Open Sans', verdana, arial, sans-serif; font-size: 10px; fill: rgb(0, 0, 0); fill-opacity: 1; white-space: pre; opacity: 1;">chr22_KB663609v1_alt</text></g><g class="xtick"><text text-anchor="start" x="0" y="331" transform="translate(759.84,0) rotate(90,0,326)" style="font-family: 'Lucida Grande', 'Open Sans', verdana, arial, sans-serif; font-size: 10px; fill: rgb(0, 0, 0); fill-opacity: 1; white-space: pre; opacity: 1;">chr22_KI270928v1_alt</text></g><g class="xtick"><text text-anchor="start" x="0" y="331" transform="translate(780.1,0) rotate(90,0,326)" style="font-family: 'Lucida Grande', 'Open Sans', verdana, arial, sans-serif; font-size: 10px; fill: rgb(0, 0, 0); fill-opacity: 1; white-space: pre; opacity: 1;">chr6_GL000253v2_alt</text></g><g class="xtick"><text text-anchor="start" x="0" y="331" transform="translate(800.36,0) rotate(90,0,326)" style="font-family: 'Lucida Grande', 'Open Sans', verdana, arial, sans-serif; font-size: 10px; fill: rgb(0, 0, 0); fill-opacity: 1; white-space: pre; opacity: 1;">chr6_GL000254v2_alt</text></g><g class="xtick"><text text-anchor="start" x="0" y="331" transform="translate(820.62,0) rotate(90,0,326)" style="font-family: 'Lucida Grande', 'Open Sans', verdana, arial, sans-serif; font-size: 10px; fill: rgb(0, 0, 0); fill-opacity: 1; white-space: pre; opacity: 1;">chr6_GL000255v2_alt</text></g><g class="xtick"><text text-anchor="start" x="0" y="331" transform="translate(840.88,0) rotate(90,0,326)" style="font-family: 'Lucida Grande', 'Open Sans', verdana, arial, sans-serif; font-size: 10px; fill: rgb(0, 0, 0); fill-opacity: 1; white-space: pre; opacity: 1;">chr6_GL000256v2_alt</text></g><g class="xtick"><text text-anchor="start" x="0" y="331" transform="translate(861.14,0) rotate(90,0,326)" style="font-family: 'Lucida Grande', 'Open Sans', verdana, arial, sans-serif; font-size: 10px; fill: rgb(0, 0, 0); fill-opacity: 1; white-space: pre; opacity: 1;">chrM</text></g><g class="xtick"><text text-anchor="start" x="0" y="331" transform="translate(881.4,0) rotate(90,0,326)" style="font-family: 'Lucida Grande', 'Open Sans', verdana, arial, sans-serif; font-size: 10px; fill: rgb(0, 0, 0); fill-opacity: 1; white-space: pre; opacity: 1;">chr9_KI270717v1_random</text></g><g class="xtick"><text text-anchor="start" x="0" y="331" transform="translate(901.66,0) rotate(90,0,326)" style="font-family: 'Lucida Grande', 'Open Sans', verdana, arial, sans-serif; font-size: 10px; fill: rgb(0, 0, 0); fill-opacity: 1; white-space: pre; opacity: 1;">chr9_KI270720v1_random</text></g><g class="xtick"><text text-anchor="start" x="0" y="331" transform="translate(921.92,0) rotate(90,0,326)" style="font-family: 'Lucida Grande', 'Open Sans', verdana, arial, sans-serif; font-size: 10px; fill: rgb(0, 0, 0); fill-opacity: 1; white-space: pre; opacity: 1;">chr6_GL000251v2_alt</text></g><g class="xtick"><text text-anchor="start" x="0" y="331" transform="translate(942.18,0) rotate(90,0,326)" style="font-family: 'Lucida Grande', 'Open Sans', verdana, arial, sans-serif; font-size: 10px; fill: rgb(0, 0, 0); fill-opacity: 1; white-space: pre; opacity: 1;">chr22_KI270878v1_alt</text></g><g class="xtick"><text text-anchor="start" x="0" y="331" transform="translate(962.44,0) rotate(90,0,326)" style="font-family: 'Lucida Grande', 'Open Sans', verdana, arial, sans-serif; font-size: 10px; fill: rgb(0, 0, 0); fill-opacity: 1; white-space: pre; opacity: 1;">chr22_KI270877v1_alt</text></g><g class="xtick"><text text-anchor="start" x="0" y="331" transform="translate(982.7,0) rotate(90,0,326)" style="font-family: 'Lucida Grande', 'Open Sans', verdana, arial, sans-serif; font-size: 10px; fill: rgb(0, 0, 0); fill-opacity: 1; white-space: pre; opacity: 1;">chr6_GL000252v2_alt</text></g><g class="xtick"><text text-anchor="start" x="0" y="331" transform="translate(1002.96,0) rotate(90,0,326)" style="font-family: 'Lucida Grande', 'Open Sans', verdana, arial, sans-serif; font-size: 10px; fill: rgb(0, 0, 0); fill-opacity: 1; white-space: pre; opacity: 1;">chr14_KI270725v1_random</text></g><g class="xtick"><text text-anchor="start" x="0" y="331" transform="translate(1023.22,0) rotate(90,0,326)" style="font-family: 'Lucida Grande', 'Open Sans', verdana, arial, sans-serif; font-size: 10px; fill: rgb(0, 0, 0); fill-opacity: 1; white-space: pre; opacity: 1;">chr22_KI270737v1_random</text></g><g class="xtick"><text text-anchor="start" x="0" y="331" transform="translate(1043.48,0) rotate(90,0,326)" style="font-family: 'Lucida Grande', 'Open Sans', verdana, arial, sans-serif; font-size: 10px; fill: rgb(0, 0, 0); fill-opacity: 1; white-space: pre; opacity: 1;">chr19_GL383576v1_alt</text></g><g class="xtick"><text text-anchor="start" x="0" y="331" transform="translate(1063.74,0) rotate(90,0,326)" style="font-family: 'Lucida Grande', 'Open Sans', verdana, arial, sans-serif; font-size: 10px; fill: rgb(0, 0, 0); fill-opacity: 1; white-space: pre; opacity: 1;">chr22_KI270875v1_alt</text></g><g class="xtick"><text text-anchor="start" x="0" y="331" transform="translate(1084,0) rotate(90,0,326)" style="font-family: 'Lucida Grande', 'Open Sans', verdana, arial, sans-serif; font-size: 10px; fill: rgb(0, 0, 0); fill-opacity: 1; white-space: pre; opacity: 1;">chr19_GL383575v2_alt</text></g></g><g class="yaxislayer-above"><g class="ytick"><text text-anchor="end" x="65" y="3.5" transform="translate(0,301.75)" style="font-family: 'Lucida Grande', 'Open Sans', verdana, arial, sans-serif; font-size: 10px; fill: rgb(0, 0, 0); fill-opacity: 1; white-space: pre; opacity: 1;">0x</text></g><g class="ytick"><text text-anchor="end" x="65" y="3.5" style="font-family: 'Lucida Grande', 'Open Sans', verdana, arial, sans-serif; font-size: 10px; fill: rgb(0, 0, 0); fill-opacity: 1; white-space: pre; opacity: 1;" transform="translate(0,260.63)">0.05x</text></g><g class="ytick"><text text-anchor="end" x="65" y="3.5" style="font-family: 'Lucida Grande', 'Open Sans', verdana, arial, sans-serif; font-size: 10px; fill: rgb(0, 0, 0); fill-opacity: 1; white-space: pre; opacity: 1;" transform="translate(0,219.51)">0.1x</text></g><g class="ytick"><text text-anchor="end" x="65" y="3.5" style="font-family: 'Lucida Grande', 'Open Sans', verdana, arial, sans-serif; font-size: 10px; fill: rgb(0, 0, 0); fill-opacity: 1; white-space: pre; opacity: 1;" transform="translate(0,178.39)">0.15x</text></g><g class="ytick"><text text-anchor="end" x="65" y="3.5" style="font-family: 'Lucida Grande', 'Open Sans', verdana, arial, sans-serif; font-size: 10px; fill: rgb(0, 0, 0); fill-opacity: 1; white-space: pre; opacity: 1;" transform="translate(0,137.26999999999998)">0.2x</text></g><g class="ytick"><text text-anchor="end" x="65" y="3.5" style="font-family: 'Lucida Grande', 'Open Sans', verdana, arial, sans-serif; font-size: 10px; fill: rgb(0, 0, 0); fill-opacity: 1; white-space: pre; opacity: 1;" transform="translate(0,96.15)">0.25x</text></g><g class="ytick"><text text-anchor="end" x="65" y="3.5" style="font-family: 'Lucida Grande', 'Open Sans', verdana, arial, sans-serif; font-size: 10px; fill: rgb(0, 0, 0); fill-opacity: 1; white-space: pre; opacity: 1;" transform="translate(0,55.03)">0.3x</text></g></g><g class="overaxes-above"/></g></g><g class="polarlayer"/><g class="smithlayer"/><g class="ternarylayer"/><g class="geolayer"/><g class="funnelarealayer"/><g class="pielayer"/><g class="iciclelayer"/><g class="treemaplayer"/><g class="sunburstlayer"/><g class="glimages"/><defs id="topdefs-2797d6"><g class="clips"/></defs><g class="layer-above"><g class="imagelayer"/><g class="shapelayer"/></g><g class="infolayer"><g class="g-gtitle"><text class="gtitle" x="550" y="25" text-anchor="middle" dy="0em" style="opacity: 1; font-family: 'Lucida Grande', 'Open Sans', verdana, arial, sans-serif; font-size: 20px; fill: rgb(42, 63, 95); fill-opacity: 1; white-space: pre;"><tspan class="line" dy="0em" x="550" y="25">Mosdepth: Coverage per contig</tspan><tspan class="line" dy="1.3em" x="550" y="25">​<tspan style="font-size:70%" dy="-0.6em">6 samples</tspan><tspan dy="0.42em">​</tspan></tspan></text></g><g class="g-xtitle"><text class="xtitle" x="577.5" y="482.721875" text-anchor="middle" style="opacity: 0.3; font-family: 'Lucida Grande', 'Open Sans', verdana, arial, sans-serif; font-size: 14px; fill: rgb(0, 0, 0); fill-opacity: 1; white-space: pre;">Region</text></g><g class="g-ytitle"><text class="ytitle" transform="rotate(-90,22.4125,182.5)" x="22.4125" y="182.5" text-anchor="middle" style="opacity: 0.3; font-family: 'Lucida Grande', 'Open Sans', verdana, arial, sans-serif; font-size: 14px; fill: rgb(0, 0, 0); fill-opacity: 1; white-space: pre;">Average Coverage</text></g></g></svg>