<svg class="main-svg" xmlns="http://www.w3.org/2000/svg" xmlns:xlink="http://www.w3.org/1999/xlink" width="2200" height="1000" style="" viewBox="0 0 1100 500"><rect x="0" y="0" width="1100" height="500" style="fill: rgb(255, 255, 255); fill-opacity: 1;"/><defs id="defs-648e34"><g class="clips"><clipPath id="clip648e34xyplot" class="plotclip"><rect width="1025" height="385"/></clipPath><clipPath class="axesclip" id="clip648e34x"><rect x="60" y="0" width="1025" height="500"/></clipPath><clipPath class="axesclip" id="clip648e34y"><rect x="0" y="50" width="1100" height="385"/></clipPath><clipPath class="axesclip" id="clip648e34xy"><rect x="60" y="50" width="1025" height="385"/></clipPath></g><g class="gradients"/><g class="patterns"/></defs><g class="bglayer"/><g class="layer-below"><g class="imagelayer"/><g class="shapelayer"/></g><g class="cartesianlayer"><g class="subplot xy"><g class="layer-subplot"><g class="shapelayer"/><g class="imagelayer"/></g><g class="minor-gridlayer"><g class="x"/><g class="y"/></g><g class="gridlayer"><g class="x"><path class="xgrid crisp" transform="translate(209.96,0)" d="M0,50v385" style="stroke: rgb(0, 0, 0); stroke-opacity: 0.05; stroke-width: 1px;"/><path class="xgrid crisp" transform="translate(359.92,0)" d="M0,50v385" style="stroke: rgb(0, 0, 0); stroke-opacity: 0.05; stroke-width: 1px;"/><path class="xgrid crisp" transform="translate(509.89,0)" d="M0,50v385" style="stroke: rgb(0, 0, 0); stroke-opacity: 0.05; stroke-width: 1px;"/><path class="xgrid crisp" transform="translate(659.85,0)" d="M0,50v385" style="stroke: rgb(0, 0, 0); stroke-opacity: 0.05; stroke-width: 1px;"/><path class="xgrid crisp" transform="translate(809.81,0)" d="M0,50v385" style="stroke: rgb(0, 0, 0); stroke-opacity: 0.05; stroke-width: 1px;"/><path class="xgrid crisp" transform="translate(959.77,0)" d="M0,50v385" style="stroke: rgb(0, 0, 0); stroke-opacity: 0.05; stroke-width: 1px;"/></g><g class="y"><path class="ygrid crisp" transform="translate(0,347.92)" d="M60,0h1025" style="stroke: rgb(0, 0, 0); stroke-opacity: 0.05; stroke-width: 1px;"/><path class="ygrid crisp" transform="translate(0,260.83000000000004)" d="M60,0h1025" style="stroke: rgb(0, 0, 0); stroke-opacity: 0.05; stroke-width: 1px;"/><path class="ygrid crisp" transform="translate(0,173.75)" d="M60,0h1025" style="stroke: rgb(0, 0, 0); stroke-opacity: 0.05; stroke-width: 1px;"/><path class="ygrid crisp" transform="translate(0,86.67)" d="M60,0h1025" style="stroke: rgb(0, 0, 0); stroke-opacity: 0.05; stroke-width: 1px;"/></g></g><g class="zerolinelayer"><path class="xzl zl crisp" transform="translate(60,0)" d="M0,50v385" style="stroke: rgb(0, 0, 0); stroke-opacity: 0.05; stroke-width: 2px;"/><path class="yzl zl crisp" transform="translate(0,435)" d="M60,0h1025" style="stroke: rgb(0, 0, 0); stroke-opacity: 0.05; stroke-width: 2px;"/></g><g class="layer-between"><g class="shapelayer"/><g class="imagelayer"/></g><path class="xlines-below"/><path class="ylines-below"/><g class="overlines-below"/><g class="xaxislayer-below"/><g class="yaxislayer-below"/><g class="overaxes-below"/><g class="overplot"><g class="xy" transform="translate(60,50)" clip-path="url(#clip648e34xyplot)"><g class="scatterlayer mlayer"><g class="trace scatter trace402b1c" style="stroke-miterlimit: 2; opacity: 1;"><g class="fills"/><g class="errorbars"/><g class="lines"><path class="js-line" d="M2.3,340.62L2.5,340.14L2.6,340.2L2.66,336.12L2.75,335.83L3.17,340L3.2,339.92L3.27,339.66L3.65,339.44L4.37,342.05L4.52,341.89L4.55,341.55L4.62,341.27L4.94,342.63L5,342.89L5.05,343.25L5.75,341.5L5.75,341.57L5.76,341.38L6.05,338L6.57,339.19L6.65,339.29L7.77,341.35L7.81,341.46L7.85,341.3L8.18,342.33L8.45,341.9L8.52,342.24L8.63,342.46L8.85,341.29L8.92,341.4L8.97,341.23L9.07,341.52L9.12,341.34L9.14,339.42L9.68,338.56L9.8,338.84L9.95,339.55L10.34,338.46L10.55,338.9L10.72,339.19L11.47,341.31L11.77,340.54L11.82,339.65L12.38,340.67L12.45,339.42L12.46,337.24L13.32,338.98L13.54,338.68L13.62,338.18L14.32,338.94L14.37,338.43L14.44,338.09L14.62,338.16L15,337.05L15.14,337.46L15.22,337.67L15.37,336.95L15.64,337.79L15.81,338L16.35,332.75L16.56,333.25L16.65,333.51L17.4,330.84L17.89,331.09L17.97,331.37L18.6,325.6L18.94,325.91L19.27,322.65L19.72,324.74L19.8,325.09L20.37,325.78L20.59,324.93L20.7,325.64L20.85,323.12L21.12,324.6L21.37,323.28L21.6,317.82L22.12,321.14L22.2,321.97L22.5,320.86L22.57,322.93L22.65,323.37L23.82,317.82L24.37,319.31L24.49,320.81L25.17,320.46L25.27,320.97L25.84,323.02L25.95,320.39L28.95,323.76L29.32,320.74L30,322.54L30.3,323.14L32.25,329.75L32.59,327.77L32.62,323.37L33,324.39L34.5,325.09L34.54,322.59L35.83,322.15L36.15,328.21L37.87,329.72L39.07,335.02L39.37,332.75L40.1,331.01L40.27,331.88L42.67,329.08L44.54,330.92L44.69,320.78L44.99,317.66L45.61,318.82L46.01,319.98L46.42,323.46L47.51,324.62L48.22,325.78L48.37,321.55L49.57,318.24L49.79,312.17L50.47,313.75L51.67,308.37L52.19,311.85L52.57,305.66L53.62,297.92L53.92,287.96L54.89,290.45L55.57,280.5L56.32,286.31L58.49,292.11L58.56,295.01L59.46,297.92L59.91,303.72L61.49,290.95L63.06,297.92L63.66,276.15L64.94,280.5L69.21,289.21L69.81,297.92L70.98,302.27L73.19,274.69L76.56,286.31L78.66,236.96L90.06,245.67L93.73,254.38L96.81,271.79L100.18,176" style="vector-effect: none; fill: none; stroke: rgb(124, 181, 236); stroke-opacity: 1; stroke-width: 2px; opacity: 1;"/><path class="js-line" d="M169.24,383.31" style="vector-effect: none; fill: none; stroke: rgb(124, 181, 236); stroke-opacity: 1; stroke-width: 2px; opacity: 1;"/></g><g class="points"/><g class="text"/></g><g class="trace scatter trace12328c" style="stroke-miterlimit: 2; opacity: 1;"><g class="fills"/><g class="errorbars"/><g class="lines"><path class="js-line" d="M2.3,338.77L2.66,335.06L2.82,340.91L2.9,340.84L4.3,342.57L4.37,343.23L4.62,342.45L5.09,343.23L5.2,343.1L5.75,342.85L5.76,342.76L5.77,342.44L5.8,342.14L6.12,344.51L6.29,344.16L6.36,344.31L6.95,347.33L7.25,346.99L7.26,346.98L7.36,347.29L7.73,346.12L7.77,346.29L7.8,346.19L8.45,345.1L8.71,345.56L8.75,345.84L9.12,346.41L9.31,345.71L9.38,345.59L9.95,346.84L10.19,346.48L10.25,346.35L10.62,346.93L10.7,346.45L10.79,346.64L10.87,346.85L11.07,346.47L11.6,346.84L11.67,346.95L11.82,346.24L12.39,347.26L12.42,346.99L12.44,347.11L12.64,345.25L13.17,345.37L13.32,345.19L13.64,345.03L13.8,345.88L14.1,345.34L14.17,345.3L15.07,344.41L15.07,344.05L15.6,344.31L15.87,343L16.02,343.34L16.24,342.43L16.32,341.99L17.22,340.32L17.37,341.08L17.44,341.46L18.27,338.9L18.45,339.51L18.9,339.18L22.02,331.43L22.17,331.69L22.17,331.96L22.59,323.04L23.44,323.37L23.82,320.91L24.15,321.26L24.52,321.95L24.87,322.3L25.12,321.38L25.42,322.8L25.87,321.86L25.95,320.08L26.29,314.46L26.85,315.77L27.3,316.2L27.57,314.44L28.42,312.51L28.69,312.98L29.32,297.92L30.07,300.92L30.45,301.52L30.74,302.12L31.77,295.98L32.47,290.25L32.7,292.84L33.51,295.01L33.79,291.1L34.09,292.62L34.65,289.21L34.84,286.31L35.32,288.79L35.66,290.45L36.3,297.05L36.67,298.79L38.84,301.4L39.44,303.42L42.22,312.58L42.82,316.25L43.09,313.4L43.34,314.37L45.22,316.3L45.79,318.24L46.54,315.33L47.47,317.51L48.52,315.33L49.09,316.49L49.27,307.29L49.57,302.27L49.87,303.72L51.04,308.08L51.67,309.53L53.77,312.43L54.06,305.83L54.89,307.42L56.32,312.17L57.52,315.33L58.64,308.37L59.39,310.11L64.76,291.39L65.39,293.56L66.44,308.8L67.64,310.98L68.99,300.4L70.86,297.92L72.74,300.82L79.03,294.43L80.43,301.4L84.81,308.37L89.38,289.21L90.66,293.56L94.63,302.27L95.31,306.63L106.93,315.33L109.22,319.69L110.23,303.72L113.38,315.33L113.68,326.94L117.05,228.25L122,263.08L136.85,315.33" style="vector-effect: none; fill: none; stroke: rgb(67, 67, 72); stroke-opacity: 1; stroke-width: 2px; opacity: 1;"/></g><g class="points"/><g class="text"/></g><g class="trace scatter trace9ccf03" style="stroke-miterlimit: 2; opacity: 1;"><g class="fills"/><g class="errorbars"/><g class="lines"><path class="js-line" d="M2.3,341.91L2.8,338.05L3.12,340.41L3.2,340.63L3.7,341.53L4.02,340.92L4.07,340.82L4.17,340.44L4.4,341.64L4.77,341.04L4.85,341.04L5,341.6L5.15,340.56L5.24,340.69L5.3,340.5L5.45,341.46L5.6,340.87L5.75,340.17L5.76,340.37L5.97,338.24L6.42,338.74L6.44,338.59L6.96,339.55L7.1,338.75L7.11,338.33L7.73,336.21L8.01,337.37L8.11,337.48L8.45,338.01L8.52,336.8L8.86,337.5L8.9,337.61L9.16,335.85L9.37,336.88L9.42,337.69L10.05,338.9L10.1,337.84L10.17,337.48L10.57,337.86L10.58,338L10.64,337.53L11.07,339.41L11.22,339.69L11.26,339.97L11.45,338.46L11.75,339.1L11.82,338.2L11.99,339.11L12.37,338.93L12.46,337.1L12.64,337.15L12.82,335.24L13.32,335.65L13.42,335.1L14.07,333.37L14.32,333.58L14.82,333.17L15.22,334.45L15.49,334.04L15.75,332.3L15.9,330.33L15.9,330.57L16.5,329.52L16.69,328.71L17.14,328.85L17.48,327.04L17.62,327.58L17.92,328.4L18.29,326.57L18.45,325.61L18.82,326.47L18.9,325.78L19.02,325.07L19.87,328.32L20.1,327.27L20.17,326.18L20.77,327.49L21,326.72L21.45,329.07L21.67,327.97L21.81,325.64L22.46,326.71L22.54,324.23L22.84,324.62L23.25,323.65L23.4,324.04L23.77,322.62L24.19,322.38L24.27,322.8L24.3,321.71L24.92,323.4L24.97,322.3L25.05,321.14L25.1,319.46L25.72,321.75L25.95,321.62L26.33,324.04L26.39,322.8L26.85,323.3L27.57,318.6L27.82,320.78L27.87,321.32L28.2,320.95L28.5,322.08L28.56,321.14L29.32,325.65L29.32,323.37L29.62,324.04L30.12,322.3L33.37,329.27L33.75,331.36L34.39,333.45L35.14,334.84L36.07,338.32L36.3,339.72L37.02,335.78L37.12,336.54L38.14,335.92L38.39,333.58L38.54,334.41L39.44,332.75L39.86,326.94L40.27,328.88L41.69,331.78L42.82,328.4L44.62,332.75L44.84,329.27L45.64,330.43L46.12,322.03L46.19,323.37L47.32,319.69L48.49,324.04L48.97,320.08L49.04,321.67L49.57,317.08L50.17,318.82L51.11,320.56L52.94,315.33L54.82,306.63L56.32,310.98L58.71,317.51L59.24,307.87L60.74,310.36L63.06,303.72L64.11,306.63L66.44,315.33L66.66,318.24L68.61,324.04L71.69,315.33L73.26,318.82L76.98,325.78L83.38,329.27L83.38,332.75L88.93,339.72L90.06,328.4L94.71,337.1L96.66,332.75L99.73,338.56L102.05,315.33L112.55,324.04" style="vector-effect: none; fill: none; stroke: rgb(144, 237, 125); stroke-opacity: 1; stroke-width: 2px; opacity: 1;"/></g><g class="points"/><g class="text"/></g><g class="trace scatter trace3a51d5" style="stroke-miterlimit: 2; opacity: 1;"><g class="fills"/><g class="errorbars"/><g class="lines"><path class="js-line" d="M2.28,342.59L2.52,342.9L2.8,340.98L2.82,343.39L3.95,345.15L4.07,344.86L4.15,344.97L4.4,345.62L4.47,345.81L4.6,345.26L5.05,345.99L5.15,345.88L5.22,346L5.3,345.81L5.67,346.6L5.75,346.75L5.84,347.1L6.27,343.76L6.35,343.95L6.36,343.86L7.13,344.59L7.17,344.56L7.25,344.7L7.58,344.61L7.7,344.38L7.73,343.87L8.93,341.18L8.99,341.3L9.01,341.46L9.14,338.82L9.5,339.57L9.57,339.66L10.35,340.27L10.42,340.12L10.55,339.68L10.64,339.87L11.03,339L11.17,339.2L11.3,338.98L12.07,339.82L12.14,339.66L12.29,340.16L12.46,338.56L12.6,338.38L12.67,338.19L13.12,338.63L13.27,338.95L13.47,339.21L13.77,338.37L13.92,338.71L14.02,338.52L14.17,338.33L14.54,338.94L14.92,339.17L15.75,338.36L15.82,336.54L16.2,336.08L16.54,336.49L16.69,337.01L17.14,338.17L17.77,337.76L17.85,337.54L19.35,334.15L19.77,334.93L19.92,335.55L20.55,333.89L20.7,334.7L20.85,335.03L21.9,336.53L22.24,336.23L22.27,335.29L22.87,335.89L23.02,335.56L23.32,335.92L24.42,334.79L24.49,334.62L25.05,334.09L25.12,334.66L25.32,335.05L26.44,336.23L26.85,335.86L29.1,334.51L29.4,331.81L30.67,330.3L30.9,330.79L30.94,331.03L31.27,330.51L31.72,329.97L33.07,331.24L33.82,330.7L34.95,331.98L35.25,331.71L36,332.23L37.2,329.16L37.65,329.43L38.81,328.82L39.44,329.32L39.71,328.69L40.64,326.74L42.94,328.55L43.09,329.15L43.26,329.75L43.42,329.08L45.34,328.71L46.04,328L46.19,328.23L46.63,326.05L46.87,326.72L47.81,325.92L49.39,323.32L49.57,323.86L50.06,324.6L51.44,324.8L51.74,323.85L53.62,325.63L54.52,326.42L56.62,325.1L57.89,324.04L58.41,324.91L59.91,325.78L60.96,326.22L62.24,325.16L62.84,326.05L63.29,321.14L68.88,318.41L69.66,316.39L70.71,315.33L73.19,315.33L75.06,313.59L78.36,315.91L78.85,314.73L81.81,315.93L81.85,316.53L83.98,317.74L87.28,309.97L88.71,311.31L90.36,312.65L95.72,313.99L97.85,311.15L99.88,312.55L101.83,313.94L103.55,311.7L104.87,309.28L105.43,306.63L107.9,312.17L111.2,313.75L115.78,315.33L117.05,316.92L118.4,316.16L119.75,317.82L121.92,311.67L122.9,313.5L127.62,311.46L133.92,313.4L139.17,317.27L142.39,318.24L146.74,315.33L148.32,317.38L153.27,319.43L154.39,316.42L158.06,318.6L159.94,320.78L160.91,318.82L161.96,321.14L163.84,323.46L164.51,325.78L165.19,328.11L169.24,319.35L171.04,309L182.13,303.14L189.33,313.59L197.65,297.92L209.05,304.45L215.8,295.43L228.1,300.4L228.4,289.21L234.47,245.67L244.14,205.03L245.72,210.83L250.52,222.44L253.29,149.87L265.81,167.29L274.96,184.71L281.41,19.25L286.06,54.08L299.1,71.5L316.2,106.33L326.25,141.17L333.6,193.42" style="vector-effect: none; fill: none; stroke: rgb(247, 163, 92); stroke-opacity: 1; stroke-width: 2px; opacity: 1;"/><path class="js-line" d="M1025,378.03" style="vector-effect: none; fill: none; stroke: rgb(247, 163, 92); stroke-opacity: 1; stroke-width: 2px; opacity: 1;"/></g><g class="points"/><g class="text"/></g><g class="trace scatter trace7558af" style="stroke-miterlimit: 2; opacity: 1;"><g class="fills"/><g class="errorbars"/><g class="lines"><path class="js-line" d="M2.3,344.96L2.6,344.38L2.65,344.4L2.66,341.99L2.75,342.14L2.8,342.1L2.82,344.95L3.35,344.8L3.4,344.65L3.44,344.25L3.55,344.09L3.8,344.79L3.92,344.63L3.95,344.89L4.4,344.43L4.79,346.31L5.01,345.91L5.07,345.4L5.39,345.48L5.91,343.63L5.97,343.86L6.38,343.67L6.42,343.92L6.5,343.37L6.51,343.54L7.21,342.68L7.28,342.64L7.92,343.57L8.03,342.96L8.07,342.82L9.06,339.93L9.08,339.97L9.14,336.16L9.27,336.06L9.87,336.86L9.97,336.76L11.54,338.95L11.6,338.15L11.9,337.31L12.34,337.86L12.46,338.17L12.97,337.7L13.32,338.76L13.47,338.35L14.29,337.02L14.47,337.5L14.52,337.82L15.19,338.07L15.45,337.19L15.75,338.01L15.83,337.06L16.02,337.23L16.32,337.58L17.29,339.13L17.37,338.85L18.12,336.87L18.27,337.43L18.37,337.99L18.45,337.67L18.75,339L18.94,339.19L19.02,339.38L19.19,336.44L19.72,334.87L19.99,335.09L20.32,335.51L20.62,335.72L20.85,335.12L21,334.71L21.27,333.43L21.67,334.79L21.9,334.35L22.99,329.58L23.17,330.38L23.52,330.64L24.45,330.03L25.2,329.16L25.95,329.94L26.52,329.61L26.55,329.89L27.77,329.27L28.57,325.78L29.02,326.42L29.29,327.68L29.32,329.52L30.67,328.81L30.97,327.73L31.2,329.4L31.69,328.99L32.7,330.31L32.85,331.01L34.5,330.26L34.57,330.62L35.25,328.3L36.26,329.41L37.12,328.21L37.27,326.94L38.62,326.42L39.07,326.81L39.44,323.82L39.74,324.26L40.27,321.45L40.34,321.92L41.77,320.66L43.12,324.53L43.79,323.3L45.37,323.79L45.52,322.5L45.59,320.61L45.67,321.14L46.34,320.78L46.52,319.27L47.17,320.39L48.07,322.08L49.57,320.56L51.71,321.14L52.42,322.3L52.94,320.14L53.77,321.34L54.59,319.07L56.09,320.31L56.69,320.93L58.49,319.2L59.69,321.14L61.04,319.35L61.61,316.73L64.68,318.12L65.39,318.82L66.44,317.51L68.84,321.14L69.81,324.77L71.69,322.91L72.51,320.87L77.05,321.67L78.51,319.48L79.93,324.46L80.31,322.3L80.83,323.17L83.65,324.91L86.28,326.65L87.13,324.5L88.11,325.42L88.93,327.25L90.48,321.48L91.71,322.5L95.46,319.69L95.61,320.78L95.68,321.86L97.77,318.82L99.95,319.98L102.2,309.97L103.48,303.72L107.3,306.63L108.2,309.53L108.58,312.43L112.1,316.78L113.08,319.69L116.04,313.75L123.2,318.5L130.1,320.08L130.47,321.67L132.5,324.83L133.92,318.82L139.17,313.4L139.92,315.33L146.52,308.8L147.12,297.92L149.97,302.89L154.47,305.38L156.27,292.11L162.64,277.02L163.54,205.03L167.44,216.64L170.29,222.44L180.11,234.06L182.06,239.86L185.43,245.67L189.48,257.28L190.31,268.89L199.83,286.31L200.95,245.67L207.93,271.79L218.12,193.42L223.52,228.25L232.07,245.67" style="vector-effect: none; fill: none; stroke: rgb(128, 133, 233); stroke-opacity: 1; stroke-width: 2px; opacity: 1;"/><path class="js-line" d="M704.6,382.49" style="vector-effect: none; fill: none; stroke: rgb(128, 133, 233); stroke-opacity: 1; stroke-width: 2px; opacity: 1;"/></g><g class="points"/><g class="text"/></g><g class="trace scatter traceaf4b07" style="stroke-miterlimit: 2; opacity: 1;"><g class="fills"/><g class="errorbars"/><g class="lines"><path class="js-line" d="M2.3,342.82L2.72,340.06L2.8,343.51L2.95,343.33L3.02,343.26L4.62,344.51L4.67,344.45L4.79,344.84L5.12,344.2L5.3,344.46L5.31,343.63L5.76,344.05L5.85,343.5L5.9,339.85L7.47,343.58L7.56,343.55L7.62,343.5L9.12,341.5L9.14,340.27L9.65,338.92L9.89,339.42L10.12,339.92L10.42,339.8L10.7,340.5L10.96,340.19L11,340.29L11.78,339.2L11.85,339.63L11.97,339.06L12.57,337.55L12.82,338.16L12.89,338.4L13.8,337.73L13.92,337.85L14.07,337.55L14.37,338.3L14.62,338.56L14.74,338.68L14.92,338.04L15.07,338.34L15.12,337.99L15.49,338.56L15.6,337.61L15.9,338.08L16.04,337.83L16.1,337.73L16.5,338.31L16.72,338.11L16.94,338.41L18.37,340.15L18.6,339.5L18.94,339.24L19.12,339.72L19.32,339.1L19.57,338.39L19.72,338.72L19.87,338.28L20.22,337.99L21.12,336.62L21.27,336.97L22.2,335.34L22.42,335.71L22.57,336.35L22.72,335.27L22.99,335.85L23.47,335.49L23.55,335.88L23.77,335.15L23.89,335.55L24.34,335.18L24.45,335.38L24.72,333.8L27,337.44L27.12,337.05L27.82,337.5L27.97,337.73L28.39,337.33L28.57,337.16L29.32,336.14L29.52,336.38L30.42,335.94L32.51,337.48L32.7,336.13L33.97,334.38L34.57,333.86L34.87,334.13L35.06,332.46L35.85,330.05L36.07,330.61L36.79,329.95L37.04,328.23L38.54,326.26L39.14,326.94L40.12,324.4L40.57,325.13L40.87,322.53L41.24,322.91L41.84,321.91L43.16,323.46L43.72,322.06L46.04,324.04L46.19,323.43L48.07,324.24L48.74,324.04L49.49,320.99L49.57,319.35L51.07,320.25L52.94,322.48L55.42,321.29L56.11,319.57L57.14,320.51L57.37,321.45L58.94,320.17L59.69,318.41L60.29,319.43L60.96,320.46L61.34,316.97L61.71,314.77L63.06,313.59L64.04,311.73L65.99,309.74L67.34,311.46L68.66,309.3L69.21,309.97L69.74,312.65L70.49,312.55L71.61,310.25L73.11,310.98L74.31,308.52L75.14,305.83L75.74,307.42L77.98,312.17L82.03,313.75L85.78,316.12L88.48,318.5L89.53,320.08L92.01,317.82L92.23,318.65L96.81,317.08L98.42,318.82L98.68,320.56L99.35,321.43L100.18,319.92L102.95,312.26L104.68,314.31L105.05,317.38L108.88,319.43L113.38,324.55L116.08,322.95L117.72,325.13L120.87,326.22L121.55,328.4L122.45,325.78L124.55,328.11L129.05,329.27L132.95,326.53L136.02,319.69L140.22,306.63L142.47,308.37L145.09,311.85L145.69,307.59L154.02,315.33L154.32,295.43L156.34,283.4L157.17,286.31L159.41,292.11L165.79,297.92L176.74,283.98L182.51,287.47L184.46,267.44L186.11,234.06L193.76,167.29L194.21,176L213.33,193.42L230.35,36.67L237.69,71.5L251.64,88.92L255.69,123.75L266.41,176L276.83,210.83L279.01,245.67" style="vector-effect: none; fill: none; stroke: rgb(241, 92, 128); stroke-opacity: 1; stroke-width: 2px; opacity: 1;"/></g><g class="points"/><g class="text"/></g></g></g></g><path class="xlines-above crisp" d="M0,0" style="fill: none;"/><path class="ylines-above crisp" d="M0,0" style="fill: none;"/><g class="overlines-above"/><g class="xaxislayer-above"><g class="xtick"><text text-anchor="middle" x="0" y="451" transform="translate(60,0)" style="font-family: 'Lucida Grande', 'Open Sans', verdana, arial, sans-serif; font-size: 10px; fill: rgb(0, 0, 0); fill-opacity: 1; white-space: pre; opacity: 1;">0</text></g><g class="xtick"><text text-anchor="middle" x="0" y="451" style="font-family: 'Lucida Grande', 'Open Sans', verdana, arial, sans-serif; font-size: 10px; fill: rgb(0, 0, 0); fill-opacity: 1; white-space: pre; opacity: 1;" transform="translate(209.96,0)">2k</text></g><g class="xtick"><text text-anchor="middle" x="0" y="451" style="font-family: 'Lucida Grande', 'Open Sans', verdana, arial, sans-serif; font-size: 10px; fill: rgb(0, 0, 0); fill-opacity: 1; white-space: pre; opacity: 1;" transform="translate(359.92,0)">4k</text></g><g class="xtick"><text text-anchor="middle" x="0" y="451" style="font-family: 'Lucida Grande', 'Open Sans', verdana, arial, sans-serif; font-size: 10px; fill: rgb(0, 0, 0); fill-opacity: 1; white-space: pre; opacity: 1;" transform="translate(509.89,0)">6k</text></g><g class="xtick"><text text-anchor="middle" x="0" y="451" style="font-family: 'Lucida Grande', 'Open Sans', verdana, arial, sans-serif; font-size: 10px; fill: rgb(0, 0, 0); fill-opacity: 1; white-space: pre; opacity: 1;" transform="translate(659.85,0)">8k</text></g><g class="xtick"><text text-anchor="middle" x="0" y="451" style="font-family: 'Lucida Grande', 'Open Sans', verdana, arial, sans-serif; font-size: 10px; fill: rgb(0, 0, 0); fill-opacity: 1; white-space: pre; opacity: 1;" transform="translate(809.81,0)">10k</text></g><g class="xtick"><text text-anchor="middle" x="0" y="451" style="font-family: 'Lucida Grande', 'Open Sans', verdana, arial, sans-serif; font-size: 10px; fill: rgb(0, 0, 0); fill-opacity: 1; white-space: pre; opacity: 1;" transform="translate(959.77,0)">12k</text></g></g><g class="yaxislayer-above"><g class="ytick"><text text-anchor="end" x="54" y="3.5" transform="translate(0,435)" style="font-family: 'Lucida Grande', 'Open Sans', verdana, arial, sans-serif; font-size: 10px; fill: rgb(0, 0, 0); fill-opacity: 1; white-space: pre; opacity: 1;">0</text></g><g class="ytick"><text text-anchor="end" x="54" y="3.5" style="font-family: 'Lucida Grande', 'Open Sans', verdana, arial, sans-serif; font-size: 10px; fill: rgb(0, 0, 0); fill-opacity: 1; white-space: pre; opacity: 1;" transform="translate(0,347.92)">5</text></g><g class="ytick"><text text-anchor="end" x="54" y="3.5" style="font-family: 'Lucida Grande', 'Open Sans', verdana, arial, sans-serif; font-size: 10px; fill: rgb(0, 0, 0); fill-opacity: 1; white-space: pre; opacity: 1;" transform="translate(0,260.83000000000004)">10</text></g><g class="ytick"><text text-anchor="end" x="54" y="3.5" style="font-family: 'Lucida Grande', 'Open Sans', verdana, arial, sans-serif; font-size: 10px; fill: rgb(0, 0, 0); fill-opacity: 1; white-space: pre; opacity: 1;" transform="translate(0,173.75)">15</text></g><g class="ytick"><text text-anchor="end" x="54" y="3.5" style="font-family: 'Lucida Grande', 'Open Sans', verdana, arial, sans-serif; font-size: 10px; fill: rgb(0, 0, 0); fill-opacity: 1; white-space: pre; opacity: 1;" transform="translate(0,86.67)">20</text></g></g><g class="overaxes-above"/></g></g><g class="polarlayer"/><g class="smithlayer"/><g class="ternarylayer"/><g class="geolayer"/><g class="funnelarealayer"/><g class="pielayer"/><g class="iciclelayer"/><g class="treemaplayer"/><g class="sunburstlayer"/><g class="glimages"/><defs id="topdefs-648e34"><g class="clips"/></defs><g class="layer-above"><g class="imagelayer"/><g class="shapelayer"/></g><g class="infolayer"><g class="g-gtitle"><text class="gtitle" x="550" y="25" text-anchor="middle" dy="0em" style="opacity: 1; font-family: 'Lucida Grande', 'Open Sans', verdana, arial, sans-serif; font-size: 20px; fill: rgb(42, 63, 95); fill-opacity: 1; white-space: pre;"><tspan class="line" dy="0em" x="550" y="25">VCFTools: TsTv by Qual</tspan><tspan class="line" dy="1.3em" x="550" y="25">​<tspan style="font-size:70%" dy="-0.6em">6 samples</tspan><tspan dy="0.42em">​</tspan></tspan></text></g><g class="g-xtitle"><text class="xtitle" x="572.5" y="472.3" text-anchor="middle" style="opacity: 0.3; font-family: 'Lucida Grande', 'Open Sans', verdana, arial, sans-serif; font-size: 14px; fill: rgb(0, 0, 0); fill-opacity: 1; white-space: pre;">SNP Quality Threshold</text></g><g class="g-ytitle"><text class="ytitle" transform="rotate(-90,26.865625,242.5)" x="26.865625" y="242.5" text-anchor="middle" style="opacity: 0.3; font-family: 'Lucida Grande', 'Open Sans', verdana, arial, sans-serif; font-size: 14px; fill: rgb(0, 0, 0); fill-opacity: 1; white-space: pre;">TsTv Ratio</text></g></g></svg>