<svg class="main-svg" xmlns="http://www.w3.org/2000/svg" xmlns:xlink="http://www.w3.org/1999/xlink" width="2200" height="1000" style="" viewBox="0 0 1100 500"><rect x="0" y="0" width="1100" height="500" style="fill: rgb(255, 255, 255); fill-opacity: 1;"/><defs id="defs-f9f7e7"><g class="clips"><clipPath id="clipf9f7e7xyplot" class="plotclip"><rect width="1009" height="385"/></clipPath><clipPath class="axesclip" id="clipf9f7e7x"><rect x="62" y="0" width="1009" height="500"/></clipPath><clipPath class="axesclip" id="clipf9f7e7y"><rect x="0" y="50" width="1100" height="385"/></clipPath><clipPath class="axesclip" id="clipf9f7e7xy"><rect x="62" y="50" width="1009" height="385"/></clipPath></g><g class="gradients"/><g class="patterns"/></defs><g class="bglayer"/><g class="layer-below"><g class="imagelayer"/><g class="shapelayer"/></g><g class="cartesianlayer"><g class="subplot xy"><g class="layer-subplot"><g class="shapelayer"/><g class="imagelayer"/></g><g class="minor-gridlayer"><g class="x"/><g class="y"/></g><g class="gridlayer"><g class="x"><path class="xgrid crisp" transform="translate(153.73000000000002,0)" d="M0,50v385" style="stroke: rgb(0, 0, 0); stroke-opacity: 0.05; stroke-width: 1px;"/><path class="xgrid crisp" transform="translate(255.65,0)" d="M0,50v385" style="stroke: rgb(0, 0, 0); stroke-opacity: 0.05; stroke-width: 1px;"/><path class="xgrid crisp" transform="translate(357.57,0)" d="M0,50v385" style="stroke: rgb(0, 0, 0); stroke-opacity: 0.05; stroke-width: 1px;"/><path class="xgrid crisp" transform="translate(459.48,0)" d="M0,50v385" style="stroke: rgb(0, 0, 0); stroke-opacity: 0.05; stroke-width: 1px;"/><path class="xgrid crisp" transform="translate(561.4,0)" d="M0,50v385" style="stroke: rgb(0, 0, 0); stroke-opacity: 0.05; stroke-width: 1px;"/><path class="xgrid crisp" transform="translate(663.32,0)" d="M0,50v385" style="stroke: rgb(0, 0, 0); stroke-opacity: 0.05; stroke-width: 1px;"/><path class="xgrid crisp" transform="translate(765.24,0)" d="M0,50v385" style="stroke: rgb(0, 0, 0); stroke-opacity: 0.05; stroke-width: 1px;"/><path class="xgrid crisp" transform="translate(867.16,0)" d="M0,50v385" style="stroke: rgb(0, 0, 0); stroke-opacity: 0.05; stroke-width: 1px;"/><path class="xgrid crisp" transform="translate(969.08,0)" d="M0,50v385" style="stroke: rgb(0, 0, 0); stroke-opacity: 0.05; stroke-width: 1px;"/></g><g class="y"><path class="ygrid crisp" transform="translate(0,386.23)" d="M62,0h1009" style="stroke: rgb(0, 0, 0); stroke-opacity: 0.05; stroke-width: 1px;"/><path class="ygrid crisp" transform="translate(0,337.47)" d="M62,0h1009" style="stroke: rgb(0, 0, 0); stroke-opacity: 0.05; stroke-width: 1px;"/><path class="ygrid crisp" transform="translate(0,288.7)" d="M62,0h1009" style="stroke: rgb(0, 0, 0); stroke-opacity: 0.05; stroke-width: 1px;"/><path class="ygrid crisp" transform="translate(0,239.93)" d="M62,0h1009" style="stroke: rgb(0, 0, 0); stroke-opacity: 0.05; stroke-width: 1px;"/><path class="ygrid crisp" transform="translate(0,191.17)" d="M62,0h1009" style="stroke: rgb(0, 0, 0); stroke-opacity: 0.05; stroke-width: 1px;"/><path class="ygrid crisp" transform="translate(0,142.4)" d="M62,0h1009" style="stroke: rgb(0, 0, 0); stroke-opacity: 0.05; stroke-width: 1px;"/><path class="ygrid crisp" transform="translate(0,93.63)" d="M62,0h1009" style="stroke: rgb(0, 0, 0); stroke-opacity: 0.05; stroke-width: 1px;"/></g></g><g class="zerolinelayer"><path class="yzl zl crisp" transform="translate(0,435)" d="M62,0h1009" style="stroke: rgb(0, 0, 0); stroke-opacity: 0.05; stroke-width: 2px;"/></g><g class="layer-between"><g class="shapelayer"/><g class="imagelayer"/></g><path class="xlines-below"/><path class="ylines-below"/><g class="overlines-below"/><g class="xaxislayer-below"/><g class="yaxislayer-below"/><g class="overaxes-below"/><g class="overplot"><g class="xy" transform="translate(62,50)" clip-path="url(#clipf9f7e7xyplot)"><g class="scatterlayer mlayer"><g class="trace scatter trace50464e" style="stroke-miterlimit: 2; opacity: 1;"><g class="fills"/><g class="errorbars"/><g class="lines"><path class="js-line" d="M0,382.5L20.38,381.77L30.58,382.57L40.77,382.22L50.96,377.66L61.15,380.26L71.34,383.65L81.54,370.37L91.73,165.55L101.92,380.12L112.11,380.12L163.07,380.12L183.45,382.56L407.68,382.56L417.87,380.12L448.44,382.56L458.64,382.56L754.2,382.56L774.59,380.12L998.81,380.12L1009,382.56" style="vector-effect: none; fill: none; stroke: rgb(124, 181, 236); stroke-opacity: 1; stroke-width: 2px; opacity: 1;"/></g><g class="points"/><g class="text"/></g><g class="trace scatter trace4ad589" style="stroke-miterlimit: 2; opacity: 1;"><g class="fills"/><g class="errorbars"/><g class="lines"><path class="js-line" d="M0,382.56L10.19,382.31L20.38,380.84L30.58,382.02L40.77,382.39L50.96,377.74L61.15,376.87L71.34,371.45L81.54,375.25L91.73,311.85L101.92,380.12L203.84,380.12L234.41,382.56L264.99,382.56L275.18,380.12L305.76,380.12L356.72,375.25L366.91,380.12L387.29,382.56L417.87,380.12L438.25,382.56L509.6,380.12L529.98,382.56L560.56,380.12L580.94,380.12L621.71,380.12L662.47,382.56L774.59,382.56L784.78,380.12L835.74,377.69L856.12,377.69L896.89,382.56L927.46,382.56L998.81,382.56L1009,380.12" style="vector-effect: none; fill: none; stroke: rgb(67, 67, 72); stroke-opacity: 1; stroke-width: 2px; opacity: 1;"/></g><g class="points"/><g class="text"/></g><g class="trace scatter trace1b3b2f" style="stroke-miterlimit: 2; opacity: 1;"><g class="fills"/><g class="errorbars"/><g class="lines"><path class="js-line" d="M0,382.47L40.77,382L50.96,377.22L61.15,381.95L71.34,382.78L81.54,368.74L91.73,336.23L101.92,382.56L122.3,382.56L132.49,380.12L142.69,382.56L163.07,380.12L173.26,382.56L417.87,382.56L519.79,380.12L529.98,382.56L652.28,382.56L754.2,382.56L764.39,380.12L784.78,382.56L794.97,382.56L907.08,382.56L927.46,380.12L937.66,380.12L968.23,382.56L988.62,377.69L998.81,380.12L1009,382.56" style="vector-effect: none; fill: none; stroke: rgb(144, 237, 125); stroke-opacity: 1; stroke-width: 2px; opacity: 1;"/></g><g class="points"/><g class="text"/></g><g class="trace scatter traceb2367b" style="stroke-miterlimit: 2; opacity: 1;"><g class="fills"/><g class="errorbars"/><g class="lines"><path class="js-line" d="M0,382.58L10.19,382.39L20.38,380.96L40.77,382.83L50.96,378.04L61.15,373.92L71.34,375.03L81.54,372.81L91.73,214.32L101.92,382.56L132.49,382.56L152.88,380.12L203.84,382.56L224.22,382.56L244.61,380.12L254.8,382.56L285.37,382.56L295.57,380.12L326.14,382.56L417.87,382.56L438.25,380.12L468.83,380.12L499.4,382.56L509.6,377.69L519.79,382.56L611.52,382.56L621.71,377.69L642.09,382.56L672.67,377.69L693.05,382.56L703.24,382.56L723.63,382.56L733.82,380.12L764.39,382.56L774.59,380.12L835.74,380.12L856.12,382.56L866.31,382.56L958.04,380.12L978.42,382.56L988.62,380.12L998.81,382.56L1009,382.56" style="vector-effect: none; fill: none; stroke: rgb(247, 163, 92); stroke-opacity: 1; stroke-width: 2px; opacity: 1;"/></g><g class="points"/><g class="text"/></g><g class="trace scatter trace604dac" style="stroke-miterlimit: 2; opacity: 1;"><g class="fills"/><g class="errorbars"/><g class="lines"><path class="js-line" d="M0,382.51L20.38,381.72L30.58,382.44L40.77,382.13L50.96,377.69L61.15,380.68L71.34,382.56L81.54,365.49L91.73,311.85L101.92,375.25L193.65,382.56L214.03,382.56L224.22,377.69L244.61,382.56L305.76,382.56L377.1,382.56L407.68,380.12L438.25,382.56L479.02,382.56L621.71,382.56L642.09,380.12L662.47,382.56L672.67,382.56L703.24,382.56L723.63,380.12L774.59,382.56L794.97,382.56L978.42,382.56L998.81,377.69" style="vector-effect: none; fill: none; stroke: rgb(128, 133, 233); stroke-opacity: 1; stroke-width: 2px; opacity: 1;"/></g><g class="points"/><g class="text"/></g><g class="trace scatter trace82e4ff" style="stroke-miterlimit: 2; opacity: 1;"><g class="fills"/><g class="errorbars"/><g class="lines"><path class="js-line" d="M0,382.58L10.19,382.28L20.38,381L40.77,382.44L50.96,378.69L61.15,377.59L71.34,371.59L81.54,360.62L91.73,19.25L101.92,382.56L163.07,382.56L295.57,382.56L336.33,380.12L356.72,380.12L377.1,382.56L417.87,382.56L438.25,377.69L509.6,382.56L529.98,382.56L540.17,380.12L570.75,382.56L601.32,382.56L611.52,380.12L621.71,372.81L652.28,380.12L682.86,380.12L693.05,382.56L744.01,382.56L764.39,380.12L774.59,377.69L784.78,382.56L958.04,382.56" style="vector-effect: none; fill: none; stroke: rgb(241, 92, 128); stroke-opacity: 1; stroke-width: 2px; opacity: 1;"/></g><g class="points"/><g class="text"/></g><g class="trace scatter trace3826ae" style="stroke-miterlimit: 2; opacity: 1;"><g class="fills"/><g class="errorbars"/><g class="lines"><path class="js-line" d="M0,382.58L20.38,381.93L30.58,382.32L40.77,382.1L50.96,383.51L61.15,380.97L71.34,384.3L91.73,299.66L101.92,336.23L142.69,382.56L254.8,382.56L275.18,377.69L285.37,382.56L295.57,382.56L387.29,380.12L397.48,382.56L428.06,382.56L458.64,380.12L479.02,382.56L856.12,382.56L866.31,380.12L927.46,382.56L998.81,380.12" style="vector-effect: none; fill: none; stroke: rgb(228, 211, 84); stroke-opacity: 1; stroke-width: 2px; opacity: 1;"/></g><g class="points"/><g class="text"/></g><g class="trace scatter trace74c1d1" style="stroke-miterlimit: 2; opacity: 1;"><g class="fills"/><g class="errorbars"/><g class="lines"><path class="js-line" d="M0,382.34L20.38,382.59L30.58,382.06L40.77,383.56L50.96,383.15L61.15,384.47L193.65,382.56L499.4,380.12L764.39,382.56L845.93,382.56" style="vector-effect: none; fill: none; stroke: rgb(43, 144, 143); stroke-opacity: 1; stroke-width: 2px; opacity: 1;"/></g><g class="points"/><g class="text"/></g><g class="trace scatter trace791081" style="stroke-miterlimit: 2; opacity: 1;"><g class="fills"/><g class="errorbars"/><g class="lines"><path class="js-line" d="M0,382.57L20.38,381.71L30.58,382.43L40.77,381.28L50.96,377.06L61.15,380.57L71.34,376.22L81.54,364.68L91.73,263.08L101.92,380.12L112.11,382.56L142.69,382.56L173.26,377.69L193.65,382.56L203.84,382.56L224.22,380.12L234.41,382.56L305.76,382.56L326.14,380.12L336.33,382.56L356.72,382.56L377.1,382.56L407.68,380.12L417.87,380.12L438.25,382.56L550.36,382.56L570.75,380.12L591.13,382.56L601.32,382.56L672.67,382.56L693.05,380.12L754.2,382.56L784.78,382.56L794.97,380.12L815.35,377.69L856.12,382.56L876.51,380.12L927.46,380.12L958.04,382.56L978.42,382.56L1009,380.12" style="vector-effect: none; fill: none; stroke: rgb(244, 91, 91); stroke-opacity: 1; stroke-width: 2px; opacity: 1;"/></g><g class="points"/><g class="text"/></g><g class="trace scatter trace601492" style="stroke-miterlimit: 2; opacity: 1;"><g class="fills"/><g class="errorbars"/><g class="lines"><path class="js-line" d="M0,382.66L10.19,382.41L20.38,381.19L30.58,382.28L40.77,382.57L61.15,378.35L71.34,377.2L81.54,376.87L91.73,348.43L101.92,377.69L122.3,382.56L152.88,382.56L163.07,380.12L183.45,380.12L203.84,377.69L224.22,382.56L254.8,382.56L356.72,382.56L387.29,380.12L407.68,382.56L438.25,380.12L448.44,382.56L468.83,382.56L479.02,382.56L509.6,377.69L519.79,377.69L550.36,382.56L570.75,382.56L591.13,377.69L611.52,382.56L621.71,377.69L642.09,380.12L703.24,382.56L723.63,382.56L733.82,375.25L774.59,380.12L784.78,380.12L805.16,382.56L815.35,382.56L835.74,372.81L845.93,382.56L907.08,382.56L917.27,380.12L927.46,382.56L958.04,382.56L988.62,382.56L998.81,380.12L1009,380.12" style="vector-effect: none; fill: none; stroke: rgb(145, 232, 225); stroke-opacity: 1; stroke-width: 2px; opacity: 1;"/></g><g class="points"/><g class="text"/></g><g class="trace scatter trace41948d" style="stroke-miterlimit: 2; opacity: 1;"><g class="fills"/><g class="errorbars"/><g class="lines"><path class="js-line" d="M0,382.58L20.38,381.94L30.58,382.27L61.15,382.41L71.34,384.13L91.73,348.43L101.92,382.56L112.11,382.56L152.88,377.69L244.61,382.56L295.57,382.56L366.91,382.56L387.29,380.12L428.06,382.56L448.44,382.56L479.02,380.12L499.4,382.56L876.51,382.56L886.7,380.12L998.81,382.56" style="vector-effect: none; fill: none; stroke: rgb(124, 181, 236); stroke-opacity: 1; stroke-width: 2px; opacity: 1;"/></g><g class="points"/><g class="text"/></g><g class="trace scatter trace271602" style="stroke-miterlimit: 2; opacity: 1;"><g class="fills"/><g class="errorbars"/><g class="lines"><path class="js-line" d="M0,382.38L20.38,382.54L30.58,381.83L40.77,383.59L50.96,383.17L61.15,384.78L81.54,378.03L733.82,382.56L978.42,382.56" style="vector-effect: none; fill: none; stroke: rgb(67, 67, 72); stroke-opacity: 1; stroke-width: 2px; opacity: 1;"/></g><g class="points"/><g class="text"/></g></g></g></g><path class="xlines-above crisp" d="M0,0" style="fill: none;"/><path class="ylines-above crisp" d="M0,0" style="fill: none;"/><g class="overlines-above"/><g class="xaxislayer-above"><g class="xtick"><text text-anchor="middle" x="0" y="451" transform="translate(153.73000000000002,0)" style="font-family: 'Lucida Grande', 'Open Sans', verdana, arial, sans-serif; font-size: 10px; fill: rgb(0, 0, 0); fill-opacity: 1; white-space: pre; opacity: 1;">10 bp</text></g><g class="xtick"><text text-anchor="middle" x="0" y="451" style="font-family: 'Lucida Grande', 'Open Sans', verdana, arial, sans-serif; font-size: 10px; fill: rgb(0, 0, 0); fill-opacity: 1; white-space: pre; opacity: 1;" transform="translate(255.65,0)">20 bp</text></g><g class="xtick"><text text-anchor="middle" x="0" y="451" style="font-family: 'Lucida Grande', 'Open Sans', verdana, arial, sans-serif; font-size: 10px; fill: rgb(0, 0, 0); fill-opacity: 1; white-space: pre; opacity: 1;" transform="translate(357.57,0)">30 bp</text></g><g class="xtick"><text text-anchor="middle" x="0" y="451" style="font-family: 'Lucida Grande', 'Open Sans', verdana, arial, sans-serif; font-size: 10px; fill: rgb(0, 0, 0); fill-opacity: 1; white-space: pre; opacity: 1;" transform="translate(459.48,0)">40 bp</text></g><g class="xtick"><text text-anchor="middle" x="0" y="451" style="font-family: 'Lucida Grande', 'Open Sans', verdana, arial, sans-serif; font-size: 10px; fill: rgb(0, 0, 0); fill-opacity: 1; white-space: pre; opacity: 1;" transform="translate(561.4,0)">50 bp</text></g><g class="xtick"><text text-anchor="middle" x="0" y="451" style="font-family: 'Lucida Grande', 'Open Sans', verdana, arial, sans-serif; font-size: 10px; fill: rgb(0, 0, 0); fill-opacity: 1; white-space: pre; opacity: 1;" transform="translate(663.32,0)">60 bp</text></g><g class="xtick"><text text-anchor="middle" x="0" y="451" style="font-family: 'Lucida Grande', 'Open Sans', verdana, arial, sans-serif; font-size: 10px; fill: rgb(0, 0, 0); fill-opacity: 1; white-space: pre; opacity: 1;" transform="translate(765.24,0)">70 bp</text></g><g class="xtick"><text text-anchor="middle" x="0" y="451" style="font-family: 'Lucida Grande', 'Open Sans', verdana, arial, sans-serif; font-size: 10px; fill: rgb(0, 0, 0); fill-opacity: 1; white-space: pre; opacity: 1;" transform="translate(867.16,0)">80 bp</text></g><g class="xtick"><text text-anchor="middle" x="0" y="451" style="font-family: 'Lucida Grande', 'Open Sans', verdana, arial, sans-serif; font-size: 10px; fill: rgb(0, 0, 0); fill-opacity: 1; white-space: pre; opacity: 1;" transform="translate(969.08,0)">90 bp</text></g><g class="xtick"><text text-anchor="middle" x="0" y="451" style="font-family: 'Lucida Grande', 'Open Sans', verdana, arial, sans-serif; font-size: 10px; fill: rgb(0, 0, 0); fill-opacity: 1; white-space: pre; opacity: 1;" transform="translate(1071,0)">100 bp</text></g></g><g class="yaxislayer-above"><g class="ytick"><text text-anchor="end" x="56" y="3.5" transform="translate(0,435)" style="font-family: 'Lucida Grande', 'Open Sans', verdana, arial, sans-serif; font-size: 10px; fill: rgb(0, 0, 0); fill-opacity: 1; white-space: pre; opacity: 1;">0</text></g><g class="ytick"><text text-anchor="end" x="56" y="3.5" style="font-family: 'Lucida Grande', 'Open Sans', verdana, arial, sans-serif; font-size: 10px; fill: rgb(0, 0, 0); fill-opacity: 1; white-space: pre; opacity: 1;" transform="translate(0,386.23)">20</text></g><g class="ytick"><text text-anchor="end" x="56" y="3.5" style="font-family: 'Lucida Grande', 'Open Sans', verdana, arial, sans-serif; font-size: 10px; fill: rgb(0, 0, 0); fill-opacity: 1; white-space: pre; opacity: 1;" transform="translate(0,337.47)">40</text></g><g class="ytick"><text text-anchor="end" x="56" y="3.5" style="font-family: 'Lucida Grande', 'Open Sans', verdana, arial, sans-serif; font-size: 10px; fill: rgb(0, 0, 0); fill-opacity: 1; white-space: pre; opacity: 1;" transform="translate(0,288.7)">60</text></g><g class="ytick"><text text-anchor="end" x="56" y="3.5" style="font-family: 'Lucida Grande', 'Open Sans', verdana, arial, sans-serif; font-size: 10px; fill: rgb(0, 0, 0); fill-opacity: 1; white-space: pre; opacity: 1;" transform="translate(0,239.93)">80</text></g><g class="ytick"><text text-anchor="end" x="56" y="3.5" style="font-family: 'Lucida Grande', 'Open Sans', verdana, arial, sans-serif; font-size: 10px; fill: rgb(0, 0, 0); fill-opacity: 1; white-space: pre; opacity: 1;" transform="translate(0,191.17)">100</text></g><g class="ytick"><text text-anchor="end" x="56" y="3.5" style="font-family: 'Lucida Grande', 'Open Sans', verdana, arial, sans-serif; font-size: 10px; fill: rgb(0, 0, 0); fill-opacity: 1; white-space: pre; opacity: 1;" transform="translate(0,142.4)">120</text></g><g class="ytick"><text text-anchor="end" x="56" y="3.5" style="font-family: 'Lucida Grande', 'Open Sans', verdana, arial, sans-serif; font-size: 10px; fill: rgb(0, 0, 0); fill-opacity: 1; white-space: pre; opacity: 1;" transform="translate(0,93.63)">140</text></g></g><g class="overaxes-above"/></g></g><g class="polarlayer"/><g class="smithlayer"/><g class="ternarylayer"/><g class="geolayer"/><g class="funnelarealayer"/><g class="pielayer"/><g class="iciclelayer"/><g class="treemaplayer"/><g class="sunburstlayer"/><g class="glimages"/><defs id="topdefs-f9f7e7"><g class="clips"/></defs><g class="layer-above"><g class="imagelayer"/><g class="shapelayer"/></g><g class="infolayer"><g class="g-gtitle"><text class="gtitle" x="550" y="25" text-anchor="middle" dy="0em" style="opacity: 1; font-family: 'Lucida Grande', 'Open Sans', verdana, arial, sans-serif; font-size: 20px; fill: rgb(42, 63, 95); fill-opacity: 1; white-space: pre;"><tspan class="line" dy="0em" x="550" y="25">Cutadapt: Lengths of Trimmed Sequences (3' end)</tspan><tspan class="line" dy="1.3em" x="550" y="25">​<tspan style="font-size:70%" dy="-0.6em">Obs/Exp, 12 samples</tspan><tspan dy="0.42em">​</tspan></tspan></text></g><g class="g-xtitle"><text class="xtitle" x="566.5" y="472.3" text-anchor="middle" style="opacity: 0.3; font-family: 'Lucida Grande', 'Open Sans', verdana, arial, sans-serif; font-size: 14px; fill: rgb(0, 0, 0); fill-opacity: 1; white-space: pre;">Length Trimmed (bp)</text></g><g class="g-ytitle"><text class="ytitle" transform="rotate(-90,22.50625,242.5)" x="22.50625" y="242.5" text-anchor="middle" style="opacity: 0.3; font-family: 'Lucida Grande', 'Open Sans', verdana, arial, sans-serif; font-size: 14px; fill: rgb(0, 0, 0); fill-opacity: 1; white-space: pre;">Observed / Expected</text></g></g></svg>