<svg class="main-svg" xmlns="http://www.w3.org/2000/svg" xmlns:xlink="http://www.w3.org/1999/xlink" width="2200" height="1000" style="" viewBox="0 0 1100 500"><rect x="0" y="0" width="1100" height="500" style="fill: rgb(255, 255, 255); fill-opacity: 1;"/><defs id="defs-23c6f3"><g class="clips"><clipPath id="clip23c6f3xyplot" class="plotclip"><rect width="1013" height="385"/></clipPath><clipPath class="axesclip" id="clip23c6f3x"><rect x="61" y="0" width="1013" height="500"/></clipPath><clipPath class="axesclip" id="clip23c6f3y"><rect x="0" y="50" width="1100" height="385"/></clipPath><clipPath class="axesclip" id="clip23c6f3xy"><rect x="61" y="50" width="1013" height="385"/></clipPath></g><g class="gradients"/><g class="patterns"/></defs><g class="bglayer"/><g class="layer-below"><g class="imagelayer"/><g class="shapelayer"/></g><g class="cartesianlayer"><g class="subplot xy"><g class="layer-subplot"><g class="shapelayer"/><g class="imagelayer"/></g><g class="minor-gridlayer"><g class="x"/><g class="y"/></g><g class="gridlayer"><g class="x"><path class="xgrid crisp" transform="translate(263.6,0)" d="M0,50v385" style="stroke: rgb(0, 0, 0); stroke-opacity: 0.05; stroke-width: 1px;"/><path class="xgrid crisp" transform="translate(466.2,0)" d="M0,50v385" style="stroke: rgb(0, 0, 0); stroke-opacity: 0.05; stroke-width: 1px;"/><path class="xgrid crisp" transform="translate(668.8,0)" d="M0,50v385" style="stroke: rgb(0, 0, 0); stroke-opacity: 0.05; stroke-width: 1px;"/><path class="xgrid crisp" transform="translate(871.4,0)" d="M0,50v385" style="stroke: rgb(0, 0, 0); stroke-opacity: 0.05; stroke-width: 1px;"/></g><g class="y"><path class="ygrid crisp" transform="translate(0,363.57)" d="M61,0h1013" style="stroke: rgb(0, 0, 0); stroke-opacity: 0.05; stroke-width: 1px;"/><path class="ygrid crisp" transform="translate(0,292.14)" d="M61,0h1013" style="stroke: rgb(0, 0, 0); stroke-opacity: 0.05; stroke-width: 1px;"/><path class="ygrid crisp" transform="translate(0,220.71)" d="M61,0h1013" style="stroke: rgb(0, 0, 0); stroke-opacity: 0.05; stroke-width: 1px;"/><path class="ygrid crisp" transform="translate(0,149.29000000000002)" d="M61,0h1013" style="stroke: rgb(0, 0, 0); stroke-opacity: 0.05; stroke-width: 1px;"/><path class="ygrid crisp" transform="translate(0,77.86)" d="M61,0h1013" style="stroke: rgb(0, 0, 0); stroke-opacity: 0.05; stroke-width: 1px;"/></g></g><g class="zerolinelayer"><path class="xzl zl crisp" transform="translate(61,0)" d="M0,50v385" style="stroke: rgb(0, 0, 0); stroke-opacity: 0.05; stroke-width: 2px;"/><path class="yzl zl crisp" transform="translate(0,435)" d="M61,0h1013" style="stroke: rgb(0, 0, 0); stroke-opacity: 0.05; stroke-width: 2px;"/></g><g class="layer-between"><g class="shapelayer"/><g class="imagelayer"/></g><path class="xlines-below"/><path class="ylines-below"/><g class="overlines-below"/><g class="xaxislayer-below"/><g class="yaxislayer-below"/><g class="overaxes-below"/><g class="overplot"><g class="xy" transform="translate(61,50)" clip-path="url(#clip23c6f3xyplot)"><g class="scatterlayer mlayer"><g class="trace scatter traceac79de" style="stroke-miterlimit: 2; opacity: 1;"><g class="fills"/><g class="errorbars"/><g class="lines"><path class="js-line" d="M0,385L212.73,384.3L222.86,384.04L253.25,382.57L263.38,381.48L283.64,377.88L293.77,371.25L303.9,361.05L314.03,353.54L324.16,351.75L334.29,344.93L354.55,323.63L364.68,296.86L374.81,271.7L384.94,262.63L395.07,276.09L405.2,303.36L415.33,305.25L425.46,298.55L435.59,296.21L445.72,278.95L455.85,264.07L465.98,246.7L476.11,235.36L486.24,236.36L496.37,233.04L506.5,226.14L516.63,205.64L526.76,173.79L536.89,171.95L547.02,199.43L557.15,212.57L567.28,227.68L577.41,242.29L587.54,247.73L607.8,280.79L617.93,290.32L628.06,293.5L638.19,301.52L648.32,315.96L658.45,325.84L668.58,333.66L678.71,343.04L688.84,351.82L698.97,358.71L709.1,364.54L719.23,369.41L729.36,373.91L739.49,376.96L759.75,380.7L769.88,382.34L790.14,383.32L800.27,383.91L840.79,384.91L850.92,384.95L1013,385" style="vector-effect: none; fill: none; stroke: rgb(240, 173, 78); stroke-opacity: 1; stroke-width: 2px; opacity: 1;"/></g><g class="points"/><g class="text"/></g><g class="trace scatter trace9ea745" style="stroke-miterlimit: 2; opacity: 1;"><g class="fills"/><g class="errorbars"/><g class="lines"><path class="js-line" d="M0,385L212.73,384.48L222.86,384.18L253.25,383L263.38,381.59L273.51,380.41L283.64,378.09L293.77,374.16L303.9,359.77L314.03,350.48L324.16,347.43L334.29,341.79L344.42,332.09L354.55,315.95L364.68,302.84L374.81,292.18L384.94,285.79L395.07,278.02L405.2,281.39L415.33,298.46L425.46,305.11L435.59,300.8L445.72,288.14L465.98,254.2L476.11,242.39L486.24,235.29L496.37,227.21L506.5,229.07L516.63,222.34L526.76,197.21L536.89,180.41L547.02,186.93L557.15,199.89L567.28,209.88L577.41,223.75L587.54,231.54L597.67,249.48L607.8,274.46L617.93,285.38L638.19,302.57L648.32,314.27L658.45,325.95L668.58,334.45L688.84,349.91L698.97,356.75L709.1,362.61L719.23,367.3L749.62,376.73L759.75,379.41L810.4,383.61L820.53,383.93L861.05,384.89L871.18,384.89L1013,385" style="vector-effect: none; fill: none; stroke: rgb(240, 173, 78); stroke-opacity: 1; stroke-width: 2px; opacity: 1;"/></g><g class="points"/><g class="text"/></g><g class="trace scatter trace9ebddf" style="stroke-miterlimit: 2; opacity: 1;"><g class="fills"/><g class="errorbars"/><g class="lines"><path class="js-line" d="M0,385L202.6,384.5L212.73,384.23L232.99,383.71L243.12,382.82L273.51,380.25L283.64,377.61L293.77,368.84L303.9,357.3L314.03,348.41L324.16,346.86L334.29,342.11L344.42,330.61L354.55,317.29L364.68,287.34L374.81,256.14L384.94,243.64L395.07,255.88L405.2,286.96L415.33,291.09L425.46,282.55L435.59,276.29L445.72,254.09L455.85,238.13L465.98,218.96L476.11,199.46L486.24,194.63L496.37,194.2L506.5,187.57L516.63,160.25L526.76,122.79L536.89,122.34L547.02,154.66L557.15,170.02L567.28,190.21L577.41,210.07L587.54,215.93L607.8,253.64L617.93,265.02L628.06,270.88L638.19,281.66L648.32,297.39L658.45,310.3L668.58,322.2L678.71,332.86L698.97,352.48L709.1,360.29L719.23,365.5L729.36,369.82L739.49,374.32L749.62,376.8L769.88,380.73L780.01,381.63L820.53,384.46L830.66,384.64L881.31,384.93L891.44,384.96L1013,385" style="vector-effect: none; fill: none; stroke: rgb(240, 173, 78); stroke-opacity: 1; stroke-width: 2px; opacity: 1;"/></g><g class="points"/><g class="text"/></g><g class="trace scatter trace375656" style="stroke-miterlimit: 2; opacity: 1;"><g class="fills"/><g class="errorbars"/><g class="lines"><path class="js-line" d="M0,385L222.86,384.29L232.99,383.7L263.38,381.8L273.51,380.32L283.64,377.79L293.77,373.2L303.9,360.25L314.03,351.36L324.16,345.84L334.29,339.34L344.42,328.55L354.55,309.16L364.68,290.5L374.81,274.3L384.94,265.07L395.07,257.5L405.2,260.09L415.33,280.89L425.46,291.3L435.59,280.98L455.85,242.93L465.98,225.45L476.11,209.59L486.24,200.5L496.37,192.68L506.5,194.34L516.63,181.52L526.76,145.07L536.89,128.79L547.02,139.29L557.15,157.32L567.28,172.52L587.54,194.27L597.67,216.61L607.8,245.63L617.93,262.45L628.06,273.71L638.19,282.93L658.45,308.75L668.58,319.95L678.71,332.73L688.84,341.3L709.1,356.23L719.23,361.88L729.36,366.96L739.49,370.59L759.75,377.23L769.88,378.79L790.14,381.29L800.27,382.25L820.53,383.66L830.66,383.89L861.05,384.75L871.18,384.88L1013,385" style="vector-effect: none; fill: none; stroke: rgb(240, 173, 78); stroke-opacity: 1; stroke-width: 2px; opacity: 1;"/></g><g class="points"/><g class="text"/></g><g class="trace scatter trace29a6e8" style="stroke-miterlimit: 2; opacity: 1;"><g class="fills"/><g class="errorbars"/><g class="lines"><path class="js-line" d="M0,385L202.6,384.57L212.73,384.23L243.12,383.14L253.25,382.25L263.38,381.43L273.51,379.8L283.64,377.02L293.77,369.05L303.9,359.55L314.03,352.46L324.16,351.2L334.29,344.77L354.55,319.61L364.68,291.45L374.81,260.95L384.94,250.02L395.07,266.38L405.2,295.79L415.33,297.25L425.46,288.43L435.59,284.43L445.72,267.46L455.85,253.16L465.98,233.25L476.11,221.14L486.24,222.38L496.37,216.88L506.5,209.25L516.63,185.64L526.76,149.82L536.89,150.8L547.02,184.36L557.15,199.16L567.28,212.2L577.41,228.73L587.54,236.52L597.67,250.89L607.8,267.75L617.93,279.64L628.06,285.54L638.19,293.79L648.32,307.5L658.45,319.96L668.58,329.57L678.71,340.34L688.84,349.55L709.1,362.63L719.23,367.46L739.49,375.39L749.62,377.7L769.88,381.71L780.01,382.55L830.66,384.8L840.79,384.89L1013,385" style="vector-effect: none; fill: none; stroke: rgb(240, 173, 78); stroke-opacity: 1; stroke-width: 2px; opacity: 1;"/></g><g class="points"/><g class="text"/></g><g class="trace scatter trace796574" style="stroke-miterlimit: 2; opacity: 1;"><g class="fills"/><g class="errorbars"/><g class="lines"><path class="js-line" d="M0,385L222.86,384.36L232.99,383.86L253.25,382.7L263.38,381.64L273.51,380.27L283.64,377.52L293.77,373.36L303.9,359.04L314.03,350.48L324.16,345.73L334.29,337.71L344.42,327.34L354.55,309.8L364.68,294.75L374.81,283.04L384.94,275.84L395.07,268.07L405.2,271.36L415.33,289.11L425.46,297.45L435.59,291.5L445.72,274.63L455.85,257.23L465.98,243.95L476.11,231.14L486.24,220.73L496.37,213.84L506.5,217.45L516.63,203.95L526.76,173.41L536.89,162.16L547.02,170.16L567.28,195.09L577.41,207.68L587.54,216.38L597.67,235.54L607.8,259.57L617.93,275.21L628.06,286.93L638.19,296.29L648.32,308.93L658.45,319.41L668.58,328.25L678.71,338.52L698.97,355.23L709.1,360.3L719.23,363.91L729.36,368.88L739.49,372.93L749.62,375.98L759.75,378.79L769.88,380.48L820.53,384.04L830.66,384.38L881.31,384.84L891.44,384.86L1013,385" style="vector-effect: none; fill: none; stroke: rgb(240, 173, 78); stroke-opacity: 1; stroke-width: 2px; opacity: 1;"/></g><g class="points"/><g class="text"/></g><g class="trace scatter traced6dfdd" style="stroke-miterlimit: 2; opacity: 1;"><g class="fills"/><g class="errorbars"/><g class="lines"><path class="js-line" d="M0,385L182.34,384.64L192.47,384.21L232.99,382.82L243.12,381.55L263.38,378.52L273.51,374.61L283.64,368.91L293.77,356.75L303.9,341.02L314.03,328.13L324.16,319.38L334.29,309.07L354.55,274.84L364.68,240.14L374.81,200.84L384.94,179.21L395.07,191.32L405.2,209.18L415.33,204.09L425.46,196.39L435.59,175.04L445.72,125.05L455.85,62.07L465.98,35.73L476.11,35.11L486.24,19.25L496.37,43.27L506.5,82.36L516.63,59.34L526.76,22.73L536.89,20.82L547.02,51.63L557.15,60.86L567.28,97.3L577.41,149.68L587.54,159.68L597.67,161.29L607.8,171.73L617.93,198.63L628.06,216.36L638.19,234.43L648.32,265.73L658.45,295.38L668.58,313.23L678.71,325.45L688.84,336L698.97,347.8L709.1,357.96L719.23,364.73L729.36,370.02L739.49,374.84L749.62,378.55L759.75,381L769.88,382.39L790.14,384.04L800.27,384.27L820.53,384.93L830.66,384.86L1002.87,385L1013,385" style="vector-effect: none; fill: none; stroke: rgb(240, 173, 78); stroke-opacity: 1; stroke-width: 2px; opacity: 1;"/></g><g class="points"/><g class="text"/></g><g class="trace scatter trace8cc153" style="stroke-miterlimit: 2; opacity: 1;"><g class="fills"/><g class="errorbars"/><g class="lines"><path class="js-line" d="M0,385L182.34,384.52L192.47,384.21L212.73,383.93L222.86,383.18L253.25,380.59L263.38,377.93L273.51,375.55L283.64,369.8L293.77,361.71L303.9,349.93L314.03,317.79L324.16,301.54L334.29,304.96L344.42,284.5L354.55,249.88L364.68,239.14L374.81,226.77L384.94,185.41L405.2,173.43L415.33,179.18L425.46,202.39L435.59,171.38L445.72,134L455.85,118L476.11,42.16L486.24,20.41L496.37,34.36L506.5,59.02L516.63,61.77L526.76,61.84L536.89,40.02L547.02,47.25L557.15,59.11L567.28,73.09L577.41,92.38L587.54,96.07L607.8,161.75L617.93,190.21L628.06,225.75L638.19,245.02L648.32,265.96L658.45,294.23L668.58,312.61L678.71,324.86L698.97,342.54L709.1,354.48L719.23,362.43L729.36,367.43L749.62,376.02L759.75,379.07L780.01,382.16L790.14,383.04L840.79,384.7L850.92,384.79L1013,385" style="vector-effect: none; fill: none; stroke: rgb(240, 173, 78); stroke-opacity: 1; stroke-width: 2px; opacity: 1;"/></g><g class="points"/><g class="text"/></g><g class="trace scatter trace79daa1" style="stroke-miterlimit: 2; opacity: 1;"><g class="fills"/><g class="errorbars"/><g class="lines"><path class="js-line" d="M0,385L182.34,384.43L192.47,384.16L222.86,383.07L232.99,382.18L253.25,380.09L263.38,377.43L273.51,373.36L283.64,367.75L293.77,358.04L303.9,347.13L314.03,338.88L324.16,336.04L334.29,326L344.42,312.89L354.55,299.55L364.68,264.21L374.81,224.57L384.94,211.23L395.07,231.64L405.2,261.95L415.33,245.2L425.46,226.27L435.59,225.46L445.72,198.93L455.85,168.45L465.98,133.36L476.11,113.64L486.24,125.77L496.37,153.13L506.5,167.09L516.63,156.45L526.76,132.09L536.89,134.07L547.02,163.54L557.15,172.04L567.28,195.43L577.41,223.46L587.54,228.2L597.67,231.39L607.8,243.41L617.93,264.3L628.06,276.25L638.19,292.43L648.32,314.59L658.45,329.75L668.58,339.36L678.71,345.18L688.84,352.5L698.97,361.98L709.1,368.52L729.36,376.02L739.49,379.3L749.62,381.32L759.75,382.52L780.01,384.29L790.14,384.54L911.7,385L921.83,385L1013,385" style="vector-effect: none; fill: none; stroke: rgb(240, 173, 78); stroke-opacity: 1; stroke-width: 2px; opacity: 1;"/></g><g class="points"/><g class="text"/></g><g class="trace scatter trace725e08" style="stroke-miterlimit: 2; opacity: 1;"><g class="fills"/><g class="errorbars"/><g class="lines"><path class="js-line" d="M0,385L182.34,384.43L192.47,384.2L222.86,383.32L232.99,382.48L253.25,380.32L263.38,378.05L273.51,375.18L283.64,370.96L293.77,364.13L303.9,342.57L314.03,330.77L324.16,326.36L334.29,316.02L344.42,299.95L354.55,279.48L364.68,265.88L374.81,251.59L384.94,240.38L395.07,227.41L405.2,230.36L415.33,239.41L425.46,237L435.59,235.38L445.72,214.84L455.85,193.52L465.98,180.57L476.11,146.57L486.24,116.95L496.37,125.64L506.5,154.52L516.63,162.98L526.76,154.43L536.89,149.79L547.02,154.04L557.15,158.96L567.28,165.46L577.41,183.09L587.54,194.79L597.67,208L607.8,233.14L617.93,256.75L628.06,276.93L658.45,322.43L668.58,335.32L678.71,345.7L688.84,351.89L719.23,369.45L729.36,374.48L739.49,377.66L749.62,379.18L769.88,382.04L780.01,383.05L800.27,384.18L810.4,384.48L861.05,384.82L871.18,384.8L1013,385" style="vector-effect: none; fill: none; stroke: rgb(92, 184, 92); stroke-opacity: 1; stroke-width: 2px; opacity: 1;"/></g><g class="points"/><g class="text"/></g><g class="trace scatter tracea7fdfd" style="stroke-miterlimit: 2; opacity: 1;"><g class="fills"/><g class="errorbars"/><g class="lines"><path class="js-line" d="M0,385L192.47,384.45L202.6,384.23L232.99,383.2L243.12,382.3L253.25,382.05L263.38,380.95L273.51,378.14L283.64,373.61L293.77,362.63L303.9,348.68L314.03,340.32L324.16,334.64L334.29,326.43L344.42,313.45L354.55,300.11L364.68,272.09L374.81,235.77L384.94,215.66L395.07,221.43L405.2,236.89L415.33,235.25L425.46,228.45L435.59,212.93L445.72,175.63L455.85,121.93L465.98,98.77L476.11,98.2L486.24,79.11L496.37,93.54L506.5,130.23L516.63,119.29L526.76,88.2L536.89,86.04L547.02,109.75L557.15,120.8L567.28,153.2L577.41,192.55L587.54,199.88L597.67,207.32L607.8,217.84L617.93,238.25L628.06,252.86L638.19,267L648.32,292.05L658.45,315.3L668.58,328.18L678.71,334.55L688.84,341.88L709.1,361.13L719.23,366.8L739.49,374.8L749.62,378.86L759.75,381.45L769.88,382.43L790.14,383.64L800.27,384.36L840.79,384.95L850.92,384.98L1013,385" style="vector-effect: none; fill: none; stroke: rgb(240, 173, 78); stroke-opacity: 1; stroke-width: 2px; opacity: 1;"/></g><g class="points"/><g class="text"/></g><g class="trace scatter trace80753d" style="stroke-miterlimit: 2; opacity: 1;"><g class="fills"/><g class="errorbars"/><g class="lines"><path class="js-line" d="M0,385L202.6,384.54L212.73,384.2L253.25,381.95L263.38,380.46L273.51,378.88L283.64,374.23L293.77,367.48L303.9,358.05L314.03,333.89L324.16,322.04L334.29,323.63L344.42,306.43L354.55,278.32L364.68,266.63L374.81,252.29L384.94,217.27L395.07,213.2L405.2,211.11L415.33,217.52L425.46,233.89L435.59,208.64L445.72,177.89L455.85,160.64L465.98,137.73L476.11,103.63L486.24,77.34L496.37,92.34L506.5,116.25L526.76,122.16L536.89,105.95L547.02,107.52L557.15,116.09L567.28,130.88L577.41,152.29L587.54,155.16L597.67,180.36L607.8,210.88L617.93,235.02L628.06,258.25L638.19,273.8L648.32,289.89L658.45,310.84L668.58,326.25L678.71,336.14L688.84,341.64L698.97,349.11L709.1,359.43L719.23,365.14L739.49,374.2L749.62,377.2L769.88,381.04L780.01,381.93L830.66,384.54L840.79,384.71L972.48,385L982.61,385L1013,385" style="vector-effect: none; fill: none; stroke: rgb(240, 173, 78); stroke-opacity: 1; stroke-width: 2px; opacity: 1;"/></g><g class="points"/><g class="text"/></g></g></g></g><path class="xlines-above crisp" d="M0,0" style="fill: none;"/><path class="ylines-above crisp" d="M0,0" style="fill: none;"/><g class="overlines-above"/><g class="xaxislayer-above"><g class="xtick"><text text-anchor="middle" x="0" y="451" transform="translate(61,0)" style="font-family: 'Lucida Grande', 'Open Sans', verdana, arial, sans-serif; font-size: 10px; fill: rgb(0, 0, 0); fill-opacity: 1; white-space: pre; opacity: 1;">0%</text></g><g class="xtick"><text text-anchor="middle" x="0" y="451" style="font-family: 'Lucida Grande', 'Open Sans', verdana, arial, sans-serif; font-size: 10px; fill: rgb(0, 0, 0); fill-opacity: 1; white-space: pre; opacity: 1;" transform="translate(263.6,0)">20%</text></g><g class="xtick"><text text-anchor="middle" x="0" y="451" style="font-family: 'Lucida Grande', 'Open Sans', verdana, arial, sans-serif; font-size: 10px; fill: rgb(0, 0, 0); fill-opacity: 1; white-space: pre; opacity: 1;" transform="translate(466.2,0)">40%</text></g><g class="xtick"><text text-anchor="middle" x="0" y="451" style="font-family: 'Lucida Grande', 'Open Sans', verdana, arial, sans-serif; font-size: 10px; fill: rgb(0, 0, 0); fill-opacity: 1; white-space: pre; opacity: 1;" transform="translate(668.8,0)">60%</text></g><g class="xtick"><text text-anchor="middle" x="0" y="451" style="font-family: 'Lucida Grande', 'Open Sans', verdana, arial, sans-serif; font-size: 10px; fill: rgb(0, 0, 0); fill-opacity: 1; white-space: pre; opacity: 1;" transform="translate(871.4,0)">80%</text></g><g class="xtick"><text text-anchor="middle" x="0" y="451" style="font-family: 'Lucida Grande', 'Open Sans', verdana, arial, sans-serif; font-size: 10px; fill: rgb(0, 0, 0); fill-opacity: 1; white-space: pre; opacity: 1;" transform="translate(1074,0)">100%</text></g></g><g class="yaxislayer-above"><g class="ytick"><text text-anchor="end" x="55" y="3.5" transform="translate(0,435)" style="font-family: 'Lucida Grande', 'Open Sans', verdana, arial, sans-serif; font-size: 10px; fill: rgb(0, 0, 0); fill-opacity: 1; white-space: pre; opacity: 1;">0</text></g><g class="ytick"><text text-anchor="end" x="55" y="3.5" style="font-family: 'Lucida Grande', 'Open Sans', verdana, arial, sans-serif; font-size: 10px; fill: rgb(0, 0, 0); fill-opacity: 1; white-space: pre; opacity: 1;" transform="translate(0,363.57)">2k</text></g><g class="ytick"><text text-anchor="end" x="55" y="3.5" style="font-family: 'Lucida Grande', 'Open Sans', verdana, arial, sans-serif; font-size: 10px; fill: rgb(0, 0, 0); fill-opacity: 1; white-space: pre; opacity: 1;" transform="translate(0,292.14)">4k</text></g><g class="ytick"><text text-anchor="end" x="55" y="3.5" style="font-family: 'Lucida Grande', 'Open Sans', verdana, arial, sans-serif; font-size: 10px; fill: rgb(0, 0, 0); fill-opacity: 1; white-space: pre; opacity: 1;" transform="translate(0,220.71)">6k</text></g><g class="ytick"><text text-anchor="end" x="55" y="3.5" style="font-family: 'Lucida Grande', 'Open Sans', verdana, arial, sans-serif; font-size: 10px; fill: rgb(0, 0, 0); fill-opacity: 1; white-space: pre; opacity: 1;" transform="translate(0,149.29000000000002)">8k</text></g><g class="ytick"><text text-anchor="end" x="55" y="3.5" style="font-family: 'Lucida Grande', 'Open Sans', verdana, arial, sans-serif; font-size: 10px; fill: rgb(0, 0, 0); fill-opacity: 1; white-space: pre; opacity: 1;" transform="translate(0,77.86)">10k</text></g></g><g class="overaxes-above"/></g></g><g class="polarlayer"/><g class="smithlayer"/><g class="ternarylayer"/><g class="geolayer"/><g class="funnelarealayer"/><g class="pielayer"/><g class="iciclelayer"/><g class="treemaplayer"/><g class="sunburstlayer"/><g class="glimages"/><defs id="topdefs-23c6f3"><g class="clips"/></defs><g class="layer-above"><g class="imagelayer"/><g class="shapelayer"/></g><g class="infolayer"><g class="g-gtitle"><text class="gtitle" x="550" y="25" text-anchor="middle" dy="0em" style="opacity: 1; font-family: 'Lucida Grande', 'Open Sans', verdana, arial, sans-serif; font-size: 20px; fill: rgb(42, 63, 95); fill-opacity: 1; white-space: pre;"><tspan class="line" dy="0em" x="550" y="25">FastQC: Per Sequence GC Content</tspan><tspan class="line" dy="1.3em" x="550" y="25">​<tspan style="font-size:70%" dy="-0.6em">Counts, 12 samples</tspan><tspan dy="0.42em">​</tspan></tspan></text></g><g class="g-xtitle"><text class="xtitle" x="567.5" y="472.3" text-anchor="middle" style="opacity: 0.3; font-family: 'Lucida Grande', 'Open Sans', verdana, arial, sans-serif; font-size: 14px; fill: rgb(0, 0, 0); fill-opacity: 1; white-space: pre;">% GC</text></g><g class="g-ytitle"><text class="ytitle" transform="rotate(-90,22.084375,242.5)" x="22.084375" y="242.5" text-anchor="middle" style="opacity: 0.3; font-family: 'Lucida Grande', 'Open Sans', verdana, arial, sans-serif; font-size: 14px; fill: rgb(0, 0, 0); fill-opacity: 1; white-space: pre;">Count</text></g></g></svg>