<svg class="main-svg" xmlns="http://www.w3.org/2000/svg" xmlns:xlink="http://www.w3.org/1999/xlink" width="2200" height="1000" style="" viewBox="0 0 1100 500"><rect x="0" y="0" width="1100" height="500" style="fill: rgb(255, 255, 255); fill-opacity: 1;"/><defs id="defs-146aad"><g class="clips"><clipPath id="clip146aadxyplot" class="plotclip"><rect width="1014" height="385"/></clipPath><clipPath class="axesclip" id="clip146aadx"><rect x="60" y="0" width="1014" height="500"/></clipPath><clipPath class="axesclip" id="clip146aady"><rect x="0" y="50" width="1100" height="385"/></clipPath><clipPath class="axesclip" id="clip146aadxy"><rect x="60" y="50" width="1014" height="385"/></clipPath></g><g class="gradients"/><g class="patterns"/></defs><g class="bglayer"/><g class="layer-below"><g class="imagelayer"/><g class="shapelayer"/></g><g class="cartesianlayer"><g class="subplot xy"><g class="layer-subplot"><g class="shapelayer"/><g class="imagelayer"/></g><g class="minor-gridlayer"><g class="x"/><g class="y"/></g><g class="gridlayer"><g class="x"><path class="xgrid crisp" transform="translate(262.8,0)" d="M0,50v385" style="stroke: rgb(0, 0, 0); stroke-opacity: 0.05; stroke-width: 1px;"/><path class="xgrid crisp" transform="translate(465.6,0)" d="M0,50v385" style="stroke: rgb(0, 0, 0); stroke-opacity: 0.05; stroke-width: 1px;"/><path class="xgrid crisp" transform="translate(668.4,0)" d="M0,50v385" style="stroke: rgb(0, 0, 0); stroke-opacity: 0.05; stroke-width: 1px;"/><path class="xgrid crisp" transform="translate(871.2,0)" d="M0,50v385" style="stroke: rgb(0, 0, 0); stroke-opacity: 0.05; stroke-width: 1px;"/></g><g class="y"><path class="ygrid crisp" transform="translate(0,365.5)" d="M60,0h1014" style="stroke: rgb(0, 0, 0); stroke-opacity: 0.05; stroke-width: 1px;"/><path class="ygrid crisp" transform="translate(0,296)" d="M60,0h1014" style="stroke: rgb(0, 0, 0); stroke-opacity: 0.05; stroke-width: 1px;"/><path class="ygrid crisp" transform="translate(0,226.5)" d="M60,0h1014" style="stroke: rgb(0, 0, 0); stroke-opacity: 0.05; stroke-width: 1px;"/><path class="ygrid crisp" transform="translate(0,157)" d="M60,0h1014" style="stroke: rgb(0, 0, 0); stroke-opacity: 0.05; stroke-width: 1px;"/><path class="ygrid crisp" transform="translate(0,87.5)" d="M60,0h1014" style="stroke: rgb(0, 0, 0); stroke-opacity: 0.05; stroke-width: 1px;"/></g></g><g class="zerolinelayer"><path class="xzl zl crisp" transform="translate(60,0)" d="M0,50v385" style="stroke: rgb(0, 0, 0); stroke-opacity: 0.05; stroke-width: 2px;"/><path class="yzl zl crisp" transform="translate(0,435)" d="M60,0h1014" style="stroke: rgb(0, 0, 0); stroke-opacity: 0.05; stroke-width: 2px;"/></g><g class="layer-between"><g class="shapelayer"/><g class="imagelayer"/></g><path class="xlines-below"/><path class="ylines-below"/><g class="overlines-below"/><g class="xaxislayer-below"/><g class="yaxislayer-below"/><g class="overaxes-below"/><g class="overplot"><g class="xy" transform="translate(60,50)" clip-path="url(#clip146aadxyplot)"><g class="scatterlayer mlayer"><g class="trace scatter trace44bc7a" style="stroke-miterlimit: 2; opacity: 1;"><g class="fills"/><g class="errorbars"/><g class="lines"><path class="js-line" d="M0,385L202.8,384.33L212.94,384.03L243.36,382.39L253.5,381.75L263.64,380.37L273.78,377.56L283.92,375.36L294.06,364.84L304.2,349.1L314.34,338.08L324.48,332.16L334.62,322.11L344.76,306.72L354.9,288.17L375.18,221.46L385.32,192.65L395.46,199.19L405.6,234.68L415.74,245.67L425.88,253.23L436.02,251.83L446.16,221.23L456.3,196.35L466.44,169.38L476.58,148.57L486.72,142.1L496.86,136.59L507,137.14L517.14,109.24L527.28,42.51L537.42,26.98L547.56,69.3L557.7,91.45L567.84,122.49L577.98,148.25L588.12,158.39L598.26,180.31L608.4,208.19L618.54,228.79L628.68,237.85L638.82,245.5L648.96,262.2L659.1,283.71L669.24,297.69L699.66,340.48L709.8,349.13L730.08,364.92L740.22,370.61L750.36,374.83L760.5,377.35L770.64,380.37L780.78,381.86L851.76,384.91L861.9,384.94L993.72,385L1003.86,385L1014,385" style="vector-effect: none; fill: none; stroke: rgb(240, 173, 78); stroke-opacity: 1; stroke-width: 2px; opacity: 1;"/></g><g class="points"/><g class="text"/></g><g class="trace scatter trace63f9a4" style="stroke-miterlimit: 2; opacity: 1;"><g class="fills"/><g class="errorbars"/><g class="lines"><path class="js-line" d="M0,385L212.94,384.38L223.08,383.74L243.36,382.66L253.5,382.25L273.78,378.55L283.92,374.74L294.06,369.91L304.2,360.23L314.34,332.19L324.48,316.1L334.62,319.94L344.76,305.43L354.9,277.53L365.04,260.59L375.18,241.71L385.32,216.45L395.46,218.62L405.6,213.37L415.74,228.76L425.88,261.47L436.02,256.51L446.16,232.75L456.3,209.95L466.44,185.18L476.58,156.93L486.72,145.41L496.86,138.49L507,135.65L517.14,125.89L527.28,89.81L537.42,56.69L547.56,54.17L557.7,79.41L567.84,101.98L577.98,121.44L588.12,130.32L598.26,152.85L608.4,197.14L618.54,223.92L628.68,239.87L638.82,244.76L648.96,263.37L659.1,285.5L669.24,300.36L689.52,324.16L699.66,338.05L709.8,347.13L719.94,354.67L730.08,361.26L740.22,366.04L750.36,371.34L760.5,375.33L780.78,379.4L790.92,380.9L811.2,383.21L821.34,384.06L851.76,384.85L861.9,385L1014,385" style="vector-effect: none; fill: none; stroke: rgb(240, 173, 78); stroke-opacity: 1; stroke-width: 2px; opacity: 1;"/></g><g class="points"/><g class="text"/></g><g class="trace scatter trace052984" style="stroke-miterlimit: 2; opacity: 1;"><g class="fills"/><g class="errorbars"/><g class="lines"><path class="js-line" d="M0,385L202.8,384.47L212.94,384.23L243.36,382.7L253.5,381.5L263.64,380.92L273.78,379.53L283.92,376.96L294.06,365.42L304.2,350.74L314.34,340.87L334.62,329.45L344.76,316.26L354.9,296.96L365.04,266.95L375.18,231.77L385.32,201.83L395.46,210.94L405.6,241.54L415.74,249.55L425.88,254.9L436.02,249.14L446.16,219.97L456.3,199.14L466.44,176.1L476.58,147.79L486.72,132.26L496.86,130.15L507,132.26L517.14,103.35L527.28,40.05L537.42,19.25L547.56,59.18L557.7,86.24L567.84,119.31L577.98,147.05L588.12,158.47L598.26,177.64L608.4,201.49L618.54,224.33L628.68,235.15L638.82,243.38L648.96,260.42L659.1,280.82L669.24,296.15L699.66,338.67L709.8,348.43L730.08,363.79L740.22,369.12L760.5,376.29L770.64,378.83L790.92,381.88L801.06,382.34L821.34,384.28L831.48,384.4L861.9,384.93L872.04,384.98L1014,385" style="vector-effect: none; fill: none; stroke: rgb(240, 173, 78); stroke-opacity: 1; stroke-width: 2px; opacity: 1;"/></g><g class="points"/><g class="text"/></g><g class="trace scatter trace9208f3" style="stroke-miterlimit: 2; opacity: 1;"><g class="fills"/><g class="errorbars"/><g class="lines"><path class="js-line" d="M0,385L212.94,384.42L223.08,384.11L253.5,382.5L263.64,381.02L273.78,379.39L283.92,376.31L294.06,372.14L304.2,364.15L314.34,343.51L324.48,328.64L334.62,328.61L344.76,315.73L354.9,289.02L365.04,269.06L375.18,250.08L385.32,219.29L395.46,221.14L405.6,215.93L415.74,230.31L425.88,267.62L436.02,256.72L446.16,226.49L466.44,184.52L476.58,155.47L486.72,142.97L496.86,136.46L507,135.53L517.14,121.35L527.28,75.47L537.42,47.42L547.56,48.28L557.7,73.48L567.84,103.57L577.98,120.51L588.12,127.75L598.26,148.32L608.4,192.06L618.54,223.52L628.68,239.45L638.82,242.93L659.1,280.7L669.24,294.54L679.38,310.88L689.52,324.56L699.66,336.24L709.8,345.98L719.94,354L730.08,360.02L750.36,370.29L760.5,374.15L780.78,378.67L790.92,380.2L821.34,383.87L831.48,384.26L882.18,384.98L892.32,385L1014,385" style="vector-effect: none; fill: none; stroke: rgb(240, 173, 78); stroke-opacity: 1; stroke-width: 2px; opacity: 1;"/></g><g class="points"/><g class="text"/></g><g class="trace scatter traced8f7a1" style="stroke-miterlimit: 2; opacity: 1;"><g class="fills"/><g class="errorbars"/><g class="lines"><path class="js-line" d="M0,385L202.8,384.54L212.94,383.88L233.22,383.69L243.36,382.46L273.78,378.57L283.92,375.2L294.06,363.47L304.2,349.98L314.34,341.25L324.48,335.28L334.62,327.41L344.76,310.62L354.9,290.64L365.04,258.09L375.18,221.24L385.32,192.17L395.46,201.88L405.6,235.3L415.74,244.89L425.88,249.09L436.02,245.61L446.16,220.84L456.3,197.47L466.44,168.6L476.58,148.12L486.72,143.3L496.86,136.95L507,137.06L517.14,108.41L527.28,39.84L537.42,21.34L547.56,69.48L577.98,148.55L588.12,164.83L598.26,179.96L608.4,200.52L618.54,225.63L628.68,240.33L638.82,246.04L648.96,259.37L659.1,283.74L669.24,299.72L679.38,313.27L689.52,328.13L699.66,340.45L709.8,348.59L730.08,364.54L740.22,369.31L760.5,376.11L770.64,379.3L780.78,381.57L790.92,382.3L811.2,383.55L821.34,384.41L861.9,384.92L872.04,384.95L1014,385" style="vector-effect: none; fill: none; stroke: rgb(240, 173, 78); stroke-opacity: 1; stroke-width: 2px; opacity: 1;"/></g><g class="points"/><g class="text"/></g><g class="trace scatter trace77c5e1" style="stroke-miterlimit: 2; opacity: 1;"><g class="fills"/><g class="errorbars"/><g class="lines"><path class="js-line" d="M0,385L212.94,384.46L223.08,384.17L253.5,382L263.64,380.5L273.78,378.65L283.92,374.75L294.06,370.73L304.2,359.88L314.34,336.51L324.48,322.8L334.62,322.96L344.76,305.32L354.9,276.99L365.04,260.82L375.18,241.38L385.32,214.33L395.46,216.58L405.6,214.84L415.74,229.92L425.88,263.71L436.02,254.18L446.16,226.76L456.3,208.1L466.44,185.61L476.58,159.66L486.72,145.44L496.86,138.75L507,138.88L517.14,121.72L527.28,82.09L537.42,56.84L547.56,55.72L567.84,106.4L577.98,121.37L588.12,130.53L598.26,152.78L608.4,192.97L618.54,223.04L628.68,239.85L638.82,246.57L659.1,283.55L669.24,298.17L689.52,325.96L699.66,338.65L709.8,347.09L719.94,352.49L740.22,365.83L750.36,371.08L760.5,375.71L770.64,378.33L821.34,383.93L831.48,384.41L882.18,385L892.32,385L1014,385" style="vector-effect: none; fill: none; stroke: rgb(240, 173, 78); stroke-opacity: 1; stroke-width: 2px; opacity: 1;"/></g><g class="points"/><g class="text"/></g><g class="trace scatter trace509097" style="stroke-miterlimit: 2; opacity: 1;"><g class="fills"/><g class="errorbars"/><g class="lines"><path class="js-line" d="M0,385L202.8,384.34L212.94,384.01L233.22,383.53L243.36,382.4L263.64,379.77L273.78,377.62L283.92,374.04L294.06,361.24L304.2,347.1L314.34,337.43L324.48,332.49L334.62,323.55L354.9,292.6L365.04,262.42L375.18,231.99L385.32,209.09L395.46,214.65L405.6,235.8L415.74,234.61L425.88,230.7L436.02,215.55L446.16,171.13L456.3,135.75L466.44,89.6L476.58,63.08L486.72,71.18L496.86,98.98L507,130.57L517.14,108.71L527.28,74.47L537.42,70.46L547.56,100.03L557.7,106.65L567.84,138.47L577.98,183.95L588.12,193.09L598.26,194.9L608.4,203.14L618.54,227.5L628.68,242.54L638.82,256.55L648.96,282.43L659.1,308.33L669.24,324.27L679.38,334.69L689.52,343.19L709.8,362.31L719.94,368.3L740.22,376.43L750.36,379.7L760.5,381.88L770.64,382.94L790.92,384.25L801.06,384.5L841.62,384.94L851.76,385L1014,385" style="vector-effect: none; fill: none; stroke: rgb(240, 173, 78); stroke-opacity: 1; stroke-width: 2px; opacity: 1;"/></g><g class="points"/><g class="text"/></g><g class="trace scatter trace5aebe3" style="stroke-miterlimit: 2; opacity: 1;"><g class="fills"/><g class="errorbars"/><g class="lines"><path class="js-line" d="M0,385L212.94,384.33L223.08,383.75L253.5,381.96L263.64,379.85L273.78,378.15L283.92,374.29L294.06,368.71L304.2,357.49L314.34,332.09L324.48,318.32L334.62,322.28L344.76,303.61L354.9,276.6L365.04,265.17L375.18,253.97L385.32,231.69L395.46,212.94L405.6,201.19L415.74,212.02L425.88,235.91L436.02,223.7L446.16,187.63L456.3,170.77L466.44,157.8L476.58,113.04L486.72,72.04L496.86,78.09L507,106.05L517.14,122.67L527.28,111.77L537.42,95.14L547.56,99.73L557.7,109.31L567.84,122.02L577.98,139.05L588.12,141.14L598.26,157.07L608.4,190.78L628.68,248.97L638.82,263.48L648.96,281.8L659.1,305.23L669.24,323.11L679.38,335.06L689.52,343.19L699.66,349.09L719.94,364.9L730.08,370.79L740.22,375.01L750.36,378.05L760.5,380.61L770.64,382.11L790.92,383.87L801.06,384.22L861.9,385L872.04,385L1014,385" style="vector-effect: none; fill: none; stroke: rgb(240, 173, 78); stroke-opacity: 1; stroke-width: 2px; opacity: 1;"/></g><g class="points"/><g class="text"/></g><g class="trace scatter trace79675d" style="stroke-miterlimit: 2; opacity: 1;"><g class="fills"/><g class="errorbars"/><g class="lines"><path class="js-line" d="M0,385L182.52,384.44L192.66,384.08L223.08,383.1L233.22,382.17L253.5,379.82L263.64,376.97L283.92,369.06L294.06,355.81L304.2,341.4L314.34,333.7L324.48,327.9L334.62,317.95L354.9,285.95L365.04,253.72L375.18,218.73L385.32,187.7L395.46,190.48L405.6,223.44L415.74,224.72L425.88,215.84L436.02,204.67L446.16,168.33L456.3,138.22L466.44,98.75L476.58,76.71L486.72,73.88L496.86,94.77L507,134.99L517.14,118.57L527.28,81.27L537.42,79.79L547.56,111.08L557.7,120.33L567.84,148.96L577.98,186.97L588.12,197.84L608.4,212.14L618.54,232.81L638.82,269.26L648.96,294.62L659.1,315.32L669.24,327.43L689.52,344.32L699.66,354.63L709.8,363.3L719.94,369.06L740.22,377.38L750.36,380.12L770.64,383.37L780.78,384.02L811.2,384.83L821.34,384.91L983.58,385L993.72,385L1014,385" style="vector-effect: none; fill: none; stroke: rgb(240, 173, 78); stroke-opacity: 1; stroke-width: 2px; opacity: 1;"/></g><g class="points"/><g class="text"/></g><g class="trace scatter trace3522dd" style="stroke-miterlimit: 2; opacity: 1;"><g class="fills"/><g class="errorbars"/><g class="lines"><path class="js-line" d="M0,385L182.52,384.53L192.66,384.1L212.94,383.82L223.08,383.1L253.5,379.99L263.64,377.62L273.78,375.03L283.92,370.43L294.06,363.56L304.2,349.86L314.34,324.69L324.48,310.61L334.62,310.67L344.76,291.26L354.9,267.59L365.04,251.56L375.18,235.55L385.32,214.13L395.46,199.21L405.6,198.25L415.74,209.23L425.88,227.66L436.02,219.87L446.16,186.29L456.3,166.21L466.44,156.13L476.58,119.19L486.72,73.39L496.86,74.42L507,106.42L517.14,126.83L527.28,125.42L537.42,113.5L547.56,110.44L557.7,110.97L567.84,129.59L577.98,150.1L588.12,152.21L598.26,170.47L608.4,203.26L618.54,232.96L628.68,257.21L638.82,270.69L648.96,287.09L659.1,308.43L669.24,326.47L679.38,336.95L689.52,345.36L719.94,367.34L730.08,372.29L740.22,376.46L750.36,378.88L770.64,382.32L780.78,383.1L821.34,384.74L831.48,384.81L943.02,385L953.16,385L1014,385" style="vector-effect: none; fill: none; stroke: rgb(240, 173, 78); stroke-opacity: 1; stroke-width: 2px; opacity: 1;"/></g><g class="points"/><g class="text"/></g><g class="trace scatter tracea0bb52" style="stroke-miterlimit: 2; opacity: 1;"><g class="fills"/><g class="errorbars"/><g class="lines"><path class="js-line" d="M0,385L202.8,384.33L212.94,384.01L233.22,383.33L243.36,382.55L263.64,380.95L273.78,378.97L283.92,375.54L294.06,362.81L304.2,347.54L314.34,339.82L324.48,335.38L334.62,326.65L354.9,298.09L365.04,268.35L375.18,232.22L385.32,206.47L395.46,210.86L405.6,232.57L415.74,230.72L425.88,226.41L436.02,215.67L446.16,173.9L456.3,136.59L466.44,87.81L476.58,60.25L486.72,62.48L496.86,85.75L507,124.28L517.14,109.95L527.28,72.5L537.42,66.47L547.56,96.66L557.7,106.91L567.84,141.26L577.98,185.82L588.12,192.29L598.26,198.66L608.4,209.23L618.54,231.41L628.68,248.48L638.82,263.31L648.96,287.61L659.1,311.11L669.24,325.17L689.52,340.51L699.66,350.91L709.8,361.16L719.94,367.29L730.08,370.51L740.22,374.77L750.36,378.72L760.5,381.29L780.78,382.99L790.92,383.86L811.2,384.79L821.34,384.93L1014,385" style="vector-effect: none; fill: none; stroke: rgb(240, 173, 78); stroke-opacity: 1; stroke-width: 2px; opacity: 1;"/></g><g class="points"/><g class="text"/></g><g class="trace scatter trace89555d" style="stroke-miterlimit: 2; opacity: 1;"><g class="fills"/><g class="errorbars"/><g class="lines"><path class="js-line" d="M0,385L212.94,384.4L223.08,383.91L253.5,382.58L263.64,380.82L273.78,379.4L283.92,376.25L294.06,370.81L304.2,358.75L314.34,335.92L324.48,324.9L334.62,324.88L344.76,305.98L354.9,281.15L365.04,265.03L375.18,250.45L385.32,226.39L395.46,208.83L405.6,201.24L415.74,211.06L425.88,233.77L436.02,221.89L446.16,185.93L456.3,164.1L466.44,156.06L476.58,114.05L486.72,63.58L496.86,68.92L507,102.36L517.14,119.03L527.28,110.79L537.42,97.97L547.56,96.94L557.7,104.12L567.84,120.48L577.98,144.01L588.12,146.86L598.26,162.57L608.4,200.25L618.54,229.95L628.68,252.98L638.82,264.69L648.96,281.99L659.1,304.5L669.24,323.5L679.38,335.19L689.52,342.2L699.66,347.45L709.8,355.82L719.94,364.97L730.08,370.21L740.22,374.11L750.36,377.15L760.5,379.66L770.64,381.38L801.06,383.71L811.2,384.21L841.62,384.94L851.76,384.93L1014,385" style="vector-effect: none; fill: none; stroke: rgb(240, 173, 78); stroke-opacity: 1; stroke-width: 2px; opacity: 1;"/></g><g class="points"/><g class="text"/></g></g></g></g><path class="xlines-above crisp" d="M0,0" style="fill: none;"/><path class="ylines-above crisp" d="M0,0" style="fill: none;"/><g class="overlines-above"/><g class="xaxislayer-above"><g class="xtick"><text text-anchor="middle" x="0" y="451" transform="translate(60,0)" style="font-family: 'Lucida Grande', 'Open Sans', verdana, arial, sans-serif; font-size: 10px; fill: rgb(0, 0, 0); fill-opacity: 1; white-space: pre; opacity: 1;">0%</text></g><g class="xtick"><text text-anchor="middle" x="0" y="451" style="font-family: 'Lucida Grande', 'Open Sans', verdana, arial, sans-serif; font-size: 10px; fill: rgb(0, 0, 0); fill-opacity: 1; white-space: pre; opacity: 1;" transform="translate(262.8,0)">20%</text></g><g class="xtick"><text text-anchor="middle" x="0" y="451" style="font-family: 'Lucida Grande', 'Open Sans', verdana, arial, sans-serif; font-size: 10px; fill: rgb(0, 0, 0); fill-opacity: 1; white-space: pre; opacity: 1;" transform="translate(465.6,0)">40%</text></g><g class="xtick"><text text-anchor="middle" x="0" y="451" style="font-family: 'Lucida Grande', 'Open Sans', verdana, arial, sans-serif; font-size: 10px; fill: rgb(0, 0, 0); fill-opacity: 1; white-space: pre; opacity: 1;" transform="translate(668.4,0)">60%</text></g><g class="xtick"><text text-anchor="middle" x="0" y="451" style="font-family: 'Lucida Grande', 'Open Sans', verdana, arial, sans-serif; font-size: 10px; fill: rgb(0, 0, 0); fill-opacity: 1; white-space: pre; opacity: 1;" transform="translate(871.2,0)">80%</text></g><g class="xtick"><text text-anchor="middle" x="0" y="451" style="font-family: 'Lucida Grande', 'Open Sans', verdana, arial, sans-serif; font-size: 10px; fill: rgb(0, 0, 0); fill-opacity: 1; white-space: pre; opacity: 1;" transform="translate(1074,0)">100%</text></g></g><g class="yaxislayer-above"><g class="ytick"><text text-anchor="end" x="54" y="3.5" transform="translate(0,435)" style="font-family: 'Lucida Grande', 'Open Sans', verdana, arial, sans-serif; font-size: 10px; fill: rgb(0, 0, 0); fill-opacity: 1; white-space: pre; opacity: 1;">0%</text></g><g class="ytick"><text text-anchor="end" x="54" y="3.5" style="font-family: 'Lucida Grande', 'Open Sans', verdana, arial, sans-serif; font-size: 10px; fill: rgb(0, 0, 0); fill-opacity: 1; white-space: pre; opacity: 1;" transform="translate(0,365.5)">1%</text></g><g class="ytick"><text text-anchor="end" x="54" y="3.5" style="font-family: 'Lucida Grande', 'Open Sans', verdana, arial, sans-serif; font-size: 10px; fill: rgb(0, 0, 0); fill-opacity: 1; white-space: pre; opacity: 1;" transform="translate(0,296)">2%</text></g><g class="ytick"><text text-anchor="end" x="54" y="3.5" style="font-family: 'Lucida Grande', 'Open Sans', verdana, arial, sans-serif; font-size: 10px; fill: rgb(0, 0, 0); fill-opacity: 1; white-space: pre; opacity: 1;" transform="translate(0,226.5)">3%</text></g><g class="ytick"><text text-anchor="end" x="54" y="3.5" style="font-family: 'Lucida Grande', 'Open Sans', verdana, arial, sans-serif; font-size: 10px; fill: rgb(0, 0, 0); fill-opacity: 1; white-space: pre; opacity: 1;" transform="translate(0,157)">4%</text></g><g class="ytick"><text text-anchor="end" x="54" y="3.5" style="font-family: 'Lucida Grande', 'Open Sans', verdana, arial, sans-serif; font-size: 10px; fill: rgb(0, 0, 0); fill-opacity: 1; white-space: pre; opacity: 1;" transform="translate(0,87.5)">5%</text></g></g><g class="overaxes-above"/></g></g><g class="polarlayer"/><g class="smithlayer"/><g class="ternarylayer"/><g class="geolayer"/><g class="funnelarealayer"/><g class="pielayer"/><g class="iciclelayer"/><g class="treemaplayer"/><g class="sunburstlayer"/><g class="glimages"/><defs id="topdefs-146aad"><g class="clips"/></defs><g class="layer-above"><g class="imagelayer"/><g class="shapelayer"/></g><g class="infolayer"><g class="g-gtitle"><text class="gtitle" x="550" y="25" text-anchor="middle" dy="0em" style="opacity: 1; font-family: 'Lucida Grande', 'Open Sans', verdana, arial, sans-serif; font-size: 20px; fill: rgb(42, 63, 95); fill-opacity: 1; white-space: pre;"><tspan class="line" dy="0em" x="550" y="25">FastQC: Per Sequence GC Content</tspan><tspan class="line" dy="1.3em" x="550" y="25">​<tspan style="font-size:70%" dy="-0.6em">Percentages, 12 samples</tspan><tspan dy="0.42em">​</tspan></tspan></text></g><g class="g-xtitle"><text class="xtitle" x="567" y="472.3" text-anchor="middle" style="opacity: 0.3; font-family: 'Lucida Grande', 'Open Sans', verdana, arial, sans-serif; font-size: 14px; fill: rgb(0, 0, 0); fill-opacity: 1; white-space: pre;">% GC</text></g><g class="g-ytitle"><text class="ytitle" transform="rotate(-90,23.725,242.5)" x="23.725" y="242.5" text-anchor="middle" style="opacity: 0.3; font-family: 'Lucida Grande', 'Open Sans', verdana, arial, sans-serif; font-size: 14px; fill: rgb(0, 0, 0); fill-opacity: 1; white-space: pre;">Percentage</text></g></g></svg>