<svg class="main-svg" xmlns="http://www.w3.org/2000/svg" xmlns:xlink="http://www.w3.org/1999/xlink" width="2200" height="1000" style="" viewBox="0 0 1100 500"><rect x="0" y="0" width="1100" height="500" style="fill: rgb(255, 255, 255); fill-opacity: 1;"/><defs id="defs-929c57"><g class="clips"><clipPath id="clip929c57xyplot" class="plotclip"><rect width="1014" height="385"/></clipPath><clipPath class="axesclip" id="clip929c57x"><rect x="60" y="0" width="1014" height="500"/></clipPath><clipPath class="axesclip" id="clip929c57y"><rect x="0" y="50" width="1100" height="385"/></clipPath><clipPath class="axesclip" id="clip929c57xy"><rect x="60" y="50" width="1014" height="385"/></clipPath></g><g class="gradients"/><g class="patterns"/></defs><g class="bglayer"/><g class="layer-below"><g class="imagelayer"/><g class="shapelayer"/></g><g class="cartesianlayer"><g class="subplot xy"><g class="layer-subplot"><g class="shapelayer"/><g class="imagelayer"/></g><g class="minor-gridlayer"><g class="x"/><g class="y"/></g><g class="gridlayer"><g class="x"><path class="xgrid crisp" transform="translate(262.8,0)" d="M0,50v385" style="stroke: rgb(0, 0, 0); stroke-opacity: 0.05; stroke-width: 1px;"/><path class="xgrid crisp" transform="translate(465.6,0)" d="M0,50v385" style="stroke: rgb(0, 0, 0); stroke-opacity: 0.05; stroke-width: 1px;"/><path class="xgrid crisp" transform="translate(668.4,0)" d="M0,50v385" style="stroke: rgb(0, 0, 0); stroke-opacity: 0.05; stroke-width: 1px;"/><path class="xgrid crisp" transform="translate(871.2,0)" d="M0,50v385" style="stroke: rgb(0, 0, 0); stroke-opacity: 0.05; stroke-width: 1px;"/></g><g class="y"><path class="ygrid crisp" transform="translate(0,362.3)" d="M60,0h1014" style="stroke: rgb(0, 0, 0); stroke-opacity: 0.05; stroke-width: 1px;"/><path class="ygrid crisp" transform="translate(0,289.6)" d="M60,0h1014" style="stroke: rgb(0, 0, 0); stroke-opacity: 0.05; stroke-width: 1px;"/><path class="ygrid crisp" transform="translate(0,216.89)" d="M60,0h1014" style="stroke: rgb(0, 0, 0); stroke-opacity: 0.05; stroke-width: 1px;"/><path class="ygrid crisp" transform="translate(0,144.19)" d="M60,0h1014" style="stroke: rgb(0, 0, 0); stroke-opacity: 0.05; stroke-width: 1px;"/><path class="ygrid crisp" transform="translate(0,71.49)" d="M60,0h1014" style="stroke: rgb(0, 0, 0); stroke-opacity: 0.05; stroke-width: 1px;"/></g></g><g class="zerolinelayer"><path class="xzl zl crisp" transform="translate(60,0)" d="M0,50v385" style="stroke: rgb(0, 0, 0); stroke-opacity: 0.05; stroke-width: 2px;"/><path class="yzl zl crisp" transform="translate(0,435)" d="M60,0h1014" style="stroke: rgb(0, 0, 0); stroke-opacity: 0.05; stroke-width: 2px;"/></g><g class="layer-between"><g class="shapelayer"/><g class="imagelayer"/></g><path class="xlines-below"/><path class="ylines-below"/><g class="overlines-below"/><g class="xaxislayer-below"/><g class="yaxislayer-below"/><g class="overaxes-below"/><g class="overplot"><g class="xy" transform="translate(60,50)" clip-path="url(#clip929c57xyplot)"><g class="scatterlayer mlayer"><g class="trace scatter traced9283d" style="stroke-miterlimit: 2; opacity: 1;"><g class="fills"/><g class="errorbars"/><g class="lines"><path class="js-line" d="M0,385L202.8,384.3L212.94,383.81L243.36,382.14L253.5,380.87L263.64,379.01L273.78,376.37L283.92,372.87L294.06,361.59L304.2,344.24L314.34,331.44L324.48,328.4L334.62,316.79L354.9,280.53L365.04,234.96L375.18,192.13L385.32,176.69L395.46,199.61L405.6,246.03L415.74,249.25L425.88,237.85L436.02,233.87L446.16,204.47L456.3,179.15L466.44,149.58L476.58,130.27L486.72,131.98L496.86,126.32L507,114.59L517.14,79.69L527.28,25.47L537.42,22.34L547.56,69.12L557.7,91.49L567.84,117.2L577.98,142.07L588.12,151.34L608.4,207.6L618.54,223.84L628.68,229.25L638.82,242.9L648.96,267.49L659.1,284.3L669.24,297.61L679.38,313.57L689.52,328.52L699.66,340.26L709.8,350.17L719.94,358.46L730.08,366.12L740.22,371.32L750.36,375.03L760.5,377.67L770.64,380.47L780.78,381.81L801.06,383.15L811.2,383.84L851.76,384.91L861.9,384.91L1014,385" style="vector-effect: none; fill: none; stroke: rgb(240, 173, 78); stroke-opacity: 1; stroke-width: 2px; opacity: 1;"/></g><g class="points"/><g class="text"/></g><g class="trace scatter trace83d432" style="stroke-miterlimit: 2; opacity: 1;"><g class="fills"/><g class="errorbars"/><g class="lines"><path class="js-line" d="M0,385L202.8,384.28L212.94,384.13L253.5,381.63L263.64,379.25L273.78,377.26L283.92,373.34L294.06,366.72L304.2,342.44L314.34,326.77L324.48,321.62L334.62,312.1L344.76,295.75L354.9,268.51L365.04,246.4L375.18,228.42L385.32,217.64L395.46,204.53L405.6,210.23L415.74,239.02L425.88,250.23L436.02,242.97L446.16,221.61L466.44,164.35L476.58,144.44L486.72,132.45L496.86,118.83L507,121.97L517.14,110.61L527.28,68.23L537.42,39.88L547.56,50.88L557.7,72.75L567.84,89.58L577.98,112.99L588.12,126.12L598.26,156.4L608.4,198.54L618.54,216.94L638.82,245.95L648.96,265.68L659.1,285.38L669.24,299.72L679.38,313.55L689.52,325.81L699.66,337.35L709.8,347.23L719.94,355.15L730.08,360.72L740.22,365.12L750.36,371.05L760.5,375.57L770.64,377.23L780.78,378.31L790.92,380.36L801.06,382.11L811.2,382.65L851.76,384.73L861.9,384.82L1014,385" style="vector-effect: none; fill: none; stroke: rgb(240, 173, 78); stroke-opacity: 1; stroke-width: 2px; opacity: 1;"/></g><g class="points"/><g class="text"/></g><g class="trace scatter trace776c1c" style="stroke-miterlimit: 2; opacity: 1;"><g class="fills"/><g class="errorbars"/><g class="lines"><path class="js-line" d="M0,385L202.8,384.3L212.94,383.93L233.22,383.21L243.36,381.97L273.78,378.39L283.92,374.71L294.06,362.5L304.2,346.43L314.34,334.05L324.48,331.89L334.62,325.27L344.76,309.26L354.9,290.71L365.04,249.01L375.18,205.57L385.32,188.16L395.46,205.2L405.6,248.49L415.74,254.23L425.88,242.35L436.02,233.62L446.16,202.71L456.3,180.48L466.44,153.8L476.58,126.65L486.72,119.91L496.86,119.31L507,110.08L517.14,72.04L527.28,19.87L537.42,19.25L547.56,64.26L557.7,85.64L567.84,113.76L577.98,141.42L588.12,149.57L608.4,202.09L618.54,217.93L628.68,226.08L638.82,241.1L648.96,263.01L659.1,280.99L669.24,297.55L679.38,312.39L699.66,339.72L709.8,350.59L719.94,357.85L730.08,363.86L740.22,370.13L750.36,373.59L770.64,379.06L780.78,380.3L821.34,384.25L831.48,384.5L872.04,384.93L882.18,384.9L1014,385" style="vector-effect: none; fill: none; stroke: rgb(240, 173, 78); stroke-opacity: 1; stroke-width: 2px; opacity: 1;"/></g><g class="points"/><g class="text"/></g><g class="trace scatter trace54111c" style="stroke-miterlimit: 2; opacity: 1;"><g class="fills"/><g class="errorbars"/><g class="lines"><path class="js-line" d="M0,385L212.94,384.38L223.08,384.01L253.5,382.19L263.64,380.59L273.78,378.54L283.92,375.04L294.06,368.71L304.2,350.84L314.34,338.57L324.48,330.95L334.62,321.98L344.76,307.09L365.04,254.57L375.18,232.22L385.32,219.48L395.46,209.03L405.6,212.6L415.74,241.31L425.88,255.68L436.02,241.44L456.3,188.92L466.44,164.79L476.58,142.9L486.72,130.36L496.86,119.56L507,121.86L517.14,104.16L527.28,53.86L537.42,31.38L547.56,45.87L557.7,70.76L567.84,91.74L588.12,121.76L598.26,152.59L608.4,192.64L618.54,215.86L628.68,231.41L638.82,244.12L659.1,279.76L669.24,295.22L679.38,312.86L689.52,324.69L709.8,345.3L719.94,353.08L730.08,360.11L740.22,365.11L760.5,374.28L770.64,376.42L790.92,379.87L801.06,381.2L811.2,382.68L821.34,383.15L882.18,384.85L892.32,384.85L1014,385" style="vector-effect: none; fill: none; stroke: rgb(240, 173, 78); stroke-opacity: 1; stroke-width: 2px; opacity: 1;"/></g><g class="points"/><g class="text"/></g><g class="trace scatter traced5e6b1" style="stroke-miterlimit: 2; opacity: 1;"><g class="fills"/><g class="errorbars"/><g class="lines"><path class="js-line" d="M0,385L202.8,384.33L212.94,383.81L233.22,383.39L243.36,382.12L263.64,379.45L273.78,376.93L283.92,372.6L294.06,360.23L304.2,345.48L314.34,334.47L324.48,332.5L334.62,322.52L354.9,283.44L365.04,239.71L375.18,192.34L385.32,175.37L395.46,200.77L405.6,246.45L415.74,248.72L425.88,235.02L436.02,228.81L446.16,202.46L456.3,180.25L466.44,149.33L476.58,130.53L486.72,132.44L496.86,123.9L507,112.06L517.14,75.39L527.28,19.76L537.42,21.29L547.56,73.4L557.7,96.39L567.84,116.63L577.98,142.31L588.12,154.4L598.26,176.73L608.4,202.91L618.54,221.38L628.68,230.53L638.82,243.34L648.96,264.64L659.1,284L669.24,298.92L679.38,315.64L689.52,329.95L699.66,340.79L709.8,350.25L730.08,364.48L740.22,370.08L760.5,376.93L770.64,379.9L790.92,382L801.06,382.64L821.34,384.5L831.48,384.69L902.46,385L912.6,385L1014,385" style="vector-effect: none; fill: none; stroke: rgb(240, 173, 78); stroke-opacity: 1; stroke-width: 2px; opacity: 1;"/></g><g class="points"/><g class="text"/></g><g class="trace scatter traceac303d" style="stroke-miterlimit: 2; opacity: 1;"><g class="fills"/><g class="errorbars"/><g class="lines"><path class="js-line" d="M0,385L212.94,384.26L223.08,384.01L253.5,381.45L263.64,379.83L273.78,377.71L283.92,373.48L294.06,367.07L304.2,345.01L314.34,331.83L324.48,324.51L334.62,312.16L344.76,296.18L354.9,269.17L365.04,245.99L375.18,227.94L385.32,216.86L395.46,204.89L405.6,209.95L415.74,237.29L425.88,250.14L436.02,240.98L446.16,214.99L456.3,188.2L466.44,167.73L476.58,148.01L486.72,131.97L496.86,121.36L507,126.91L517.14,106.12L527.28,59.08L537.42,41.75L547.56,54.08L567.84,92.48L577.98,111.87L588.12,125.26L598.26,154.78L608.4,191.8L618.54,215.89L628.68,233.94L638.82,248.35L648.96,267.82L659.1,283.97L669.24,297.59L679.38,313.4L699.66,339.15L709.8,346.96L719.94,352.52L730.08,360.16L740.22,366.41L750.36,371.11L760.5,375.43L770.64,378.04L811.2,383.02L821.34,383.51L851.76,384.48L861.9,384.56L1003.86,385L1014,385" style="vector-effect: none; fill: none; stroke: rgb(240, 173, 78); stroke-opacity: 1; stroke-width: 2px; opacity: 1;"/></g><g class="points"/><g class="text"/></g><g class="trace scatter traced0a441" style="stroke-miterlimit: 2; opacity: 1;"><g class="fills"/><g class="errorbars"/><g class="lines"><path class="js-line" d="M0,385L192.66,384.3L202.8,384.05L223.08,383.81L233.22,383.07L263.64,379.26L273.78,375.8L283.92,370.76L294.06,360L304.2,346.07L314.34,334.66L324.48,326.92L334.62,317.8L354.9,287.5L365.04,256.8L375.18,222.01L385.32,202.87L395.46,213.59L405.6,229.39L415.74,224.89L425.88,218.07L436.02,199.17L446.16,154.94L456.3,99.19L466.44,75.88L476.58,75.33L486.72,61.3L496.86,82.55L507,117.15L517.14,96.78L527.28,64.38L537.42,62.69L547.56,89.95L557.7,98.12L567.84,130.38L577.98,176.73L588.12,185.58L598.26,187L608.4,196.25L618.54,220.05L628.68,235.74L638.82,251.74L648.96,279.44L659.1,305.68L669.24,321.48L679.38,332.29L689.52,341.63L699.66,352.08L709.8,361.07L719.94,367.06L730.08,371.74L740.22,376.01L750.36,379.29L760.5,381.46L770.64,382.69L790.92,384.15L801.06,384.35L831.48,384.87L841.62,384.92L943.02,385L953.16,385L1014,385" style="vector-effect: none; fill: none; stroke: rgb(240, 173, 78); stroke-opacity: 1; stroke-width: 2px; opacity: 1;"/></g><g class="points"/><g class="text"/></g><g class="trace scatter trace3cddb1" style="stroke-miterlimit: 2; opacity: 1;"><g class="fills"/><g class="errorbars"/><g class="lines"><path class="js-line" d="M0,385L202.8,384.3L212.94,384.07L253.5,381.17L263.64,378.86L273.78,376.8L283.92,371.8L294.06,364.78L304.2,354.55L314.34,326.64L324.48,312.52L334.62,315.5L344.76,297.73L354.9,267.67L365.04,258.35L375.18,247.6L385.32,211.69L405.6,201.28L415.74,206.28L425.88,226.43L436.02,199.5L446.16,167.05L456.3,153.15L476.58,87.3L486.72,68.41L496.86,80.52L507,101.94L517.14,104.32L527.28,104.39L537.42,85.44L547.56,91.72L557.7,102.01L567.84,114.16L577.98,130.9L588.12,134.11L608.4,191.14L618.54,215.86L628.68,246.72L638.82,263.45L648.96,281.64L659.1,306.18L669.24,322.14L679.38,332.78L699.66,348.13L709.8,358.5L719.94,365.4L730.08,369.74L750.36,377.2L760.5,379.85L780.78,382.53L790.92,383.29L841.62,384.74L851.76,384.81L1014,385" style="vector-effect: none; fill: none; stroke: rgb(240, 173, 78); stroke-opacity: 1; stroke-width: 2px; opacity: 1;"/></g><g class="points"/><g class="text"/></g><g class="trace scatter tracee2fdbe" style="stroke-miterlimit: 2; opacity: 1;"><g class="fills"/><g class="errorbars"/><g class="lines"><path class="js-line" d="M0,385L182.52,384.29L192.66,383.96L223.08,382.61L233.22,381.5L253.5,378.91L263.64,375.62L273.78,370.57L283.92,363.62L294.06,351.59L304.2,338.07L314.34,327.84L324.48,324.32L334.62,311.89L344.76,295.64L354.9,279.11L365.04,235.32L375.18,186.2L385.32,169.67L395.46,194.96L405.6,232.51L415.74,211.76L425.88,188.3L436.02,187.3L446.16,154.42L456.3,116.65L466.44,73.16L476.58,48.73L486.72,63.76L496.86,97.66L507,114.97L517.14,101.78L527.28,71.59L537.42,74.05L547.56,110.56L557.7,121.1L567.84,150.08L577.98,184.83L588.12,190.69L598.26,194.65L608.4,209.54L618.54,235.43L628.68,250.24L638.82,270.29L648.96,297.75L659.1,316.53L669.24,328.44L679.38,335.65L689.52,344.73L699.66,356.48L709.8,364.58L730.08,373.87L740.22,377.94L750.36,380.44L760.5,381.92L770.64,383.45L780.78,384.11L821.34,384.89L831.48,384.87L973.44,385L983.58,385L1014,385" style="vector-effect: none; fill: none; stroke: rgb(240, 173, 78); stroke-opacity: 1; stroke-width: 2px; opacity: 1;"/></g><g class="points"/><g class="text"/></g><g class="trace scatter trace58ff2e" style="stroke-miterlimit: 2; opacity: 1;"><g class="fills"/><g class="errorbars"/><g class="lines"><path class="js-line" d="M0,385L182.52,384.3L192.66,384.02L212.94,383.52L223.08,382.96L253.5,379.31L263.64,376.55L273.78,373.05L283.92,367.93L294.06,359.61L304.2,333.39L314.34,319.03L324.48,313.67L334.62,301.09L344.76,281.54L354.9,256.65L365.04,240.1L375.18,222.72L385.32,209.08L395.46,193.31L405.6,196.89L415.74,207.91L425.88,204.97L436.02,203L446.16,178.02L456.3,152.08L466.44,136.33L476.58,94.98L486.72,58.94L496.86,69.52L507,104.64L517.14,114.94L527.28,104.53L537.42,98.89L547.56,104.06L557.7,110.05L567.84,117.96L577.98,139.4L588.12,153.62L598.26,169.7L608.4,200.28L618.54,229L628.68,253.54L659.1,308.89L669.24,324.57L679.38,337.19L689.52,344.73L699.66,351.64L709.8,359.52L730.08,372.21L740.22,376.07L770.64,381.39L780.78,382.63L801.06,384L811.2,384.37L861.9,384.78L872.04,384.76L1014,385" style="vector-effect: none; fill: none; stroke: rgb(92, 184, 92); stroke-opacity: 1; stroke-width: 2px; opacity: 1;"/></g><g class="points"/><g class="text"/></g><g class="trace scatter trace68795c" style="stroke-miterlimit: 2; opacity: 1;"><g class="fills"/><g class="errorbars"/><g class="lines"><path class="js-line" d="M0,385L192.66,384.4L202.8,384.17L233.22,383.04L243.36,382.08L253.5,381.8L263.64,380.6L273.78,377.56L283.92,372.64L294.06,360.74L304.2,345.61L314.34,336.55L324.48,330.39L334.62,321.48L344.76,307.4L354.9,292.94L365.04,262.55L375.18,223.16L385.32,201.36L395.46,207.61L405.6,224.38L415.74,222.6L425.88,215.23L436.02,198.4L446.16,157.94L456.3,99.71L466.44,74.6L476.58,73.98L486.72,53.27L496.86,68.92L507,108.72L517.14,96.85L527.28,63.13L537.42,60.79L547.56,86.5L557.7,98.49L567.84,133.62L577.98,176.3L588.12,184.24L598.26,192.32L608.4,203.72L618.54,225.86L628.68,241.7L638.82,257.03L648.96,284.2L659.1,309.42L669.24,323.38L679.38,330.29L689.52,338.23L709.8,359.11L719.94,365.27L740.22,373.94L750.36,378.34L760.5,381.15L770.64,382.21L790.92,383.53L801.06,384.3L831.48,384.85L841.62,384.94L1014,385" style="vector-effect: none; fill: none; stroke: rgb(240, 173, 78); stroke-opacity: 1; stroke-width: 2px; opacity: 1;"/></g><g class="points"/><g class="text"/></g><g class="trace scatter traceba9700" style="stroke-miterlimit: 2; opacity: 1;"><g class="fills"/><g class="errorbars"/><g class="lines"><path class="js-line" d="M0,385L202.8,384.51L212.94,384.14L253.5,381.74L263.64,380.16L273.78,378.47L283.92,373.52L294.06,366.33L304.2,356.27L314.34,330.52L324.48,317.88L334.62,319.57L344.76,301.24L354.9,271.28L365.04,258.81L375.18,243.52L385.32,206.19L395.46,201.85L405.6,199.62L415.74,206.46L425.88,223.91L436.02,196.99L446.16,164.21L456.3,145.82L466.44,121.4L476.58,85.04L486.72,57.02L496.86,73.01L507,98.5L527.28,104.8L537.42,87.51L547.56,89.19L557.7,98.33L567.84,114.09L577.98,136.91L588.12,139.98L598.26,166.84L608.4,199.37L618.54,225.11L628.68,249.88L638.82,266.46L648.96,283.61L659.1,305.94L669.24,322.37L679.38,332.92L689.52,338.78L699.66,346.74L709.8,357.74L719.94,363.83L740.22,373.48L750.36,376.68L760.5,379.14L770.64,380.77L801.06,383.08L811.2,383.71L841.62,384.7L851.76,384.77L1014,385" style="vector-effect: none; fill: none; stroke: rgb(240, 173, 78); stroke-opacity: 1; stroke-width: 2px; opacity: 1;"/></g><g class="points"/><g class="text"/></g></g></g></g><path class="xlines-above crisp" d="M0,0" style="fill: none;"/><path class="ylines-above crisp" d="M0,0" style="fill: none;"/><g class="overlines-above"/><g class="xaxislayer-above"><g class="xtick"><text text-anchor="middle" x="0" y="451" transform="translate(60,0)" style="font-family: 'Lucida Grande', 'Open Sans', verdana, arial, sans-serif; font-size: 10px; fill: rgb(0, 0, 0); fill-opacity: 1; white-space: pre; opacity: 1;">0%</text></g><g class="xtick"><text text-anchor="middle" x="0" y="451" style="font-family: 'Lucida Grande', 'Open Sans', verdana, arial, sans-serif; font-size: 10px; fill: rgb(0, 0, 0); fill-opacity: 1; white-space: pre; opacity: 1;" transform="translate(262.8,0)">20%</text></g><g class="xtick"><text text-anchor="middle" x="0" y="451" style="font-family: 'Lucida Grande', 'Open Sans', verdana, arial, sans-serif; font-size: 10px; fill: rgb(0, 0, 0); fill-opacity: 1; white-space: pre; opacity: 1;" transform="translate(465.6,0)">40%</text></g><g class="xtick"><text text-anchor="middle" x="0" y="451" style="font-family: 'Lucida Grande', 'Open Sans', verdana, arial, sans-serif; font-size: 10px; fill: rgb(0, 0, 0); fill-opacity: 1; white-space: pre; opacity: 1;" transform="translate(668.4,0)">60%</text></g><g class="xtick"><text text-anchor="middle" x="0" y="451" style="font-family: 'Lucida Grande', 'Open Sans', verdana, arial, sans-serif; font-size: 10px; fill: rgb(0, 0, 0); fill-opacity: 1; white-space: pre; opacity: 1;" transform="translate(871.2,0)">80%</text></g><g class="xtick"><text text-anchor="middle" x="0" y="451" style="font-family: 'Lucida Grande', 'Open Sans', verdana, arial, sans-serif; font-size: 10px; fill: rgb(0, 0, 0); fill-opacity: 1; white-space: pre; opacity: 1;" transform="translate(1074,0)">100%</text></g></g><g class="yaxislayer-above"><g class="ytick"><text text-anchor="end" x="54" y="3.5" transform="translate(0,435)" style="font-family: 'Lucida Grande', 'Open Sans', verdana, arial, sans-serif; font-size: 10px; fill: rgb(0, 0, 0); fill-opacity: 1; white-space: pre; opacity: 1;">0%</text></g><g class="ytick"><text text-anchor="end" x="54" y="3.5" style="font-family: 'Lucida Grande', 'Open Sans', verdana, arial, sans-serif; font-size: 10px; fill: rgb(0, 0, 0); fill-opacity: 1; white-space: pre; opacity: 1;" transform="translate(0,362.3)">1%</text></g><g class="ytick"><text text-anchor="end" x="54" y="3.5" style="font-family: 'Lucida Grande', 'Open Sans', verdana, arial, sans-serif; font-size: 10px; fill: rgb(0, 0, 0); fill-opacity: 1; white-space: pre; opacity: 1;" transform="translate(0,289.6)">2%</text></g><g class="ytick"><text text-anchor="end" x="54" y="3.5" style="font-family: 'Lucida Grande', 'Open Sans', verdana, arial, sans-serif; font-size: 10px; fill: rgb(0, 0, 0); fill-opacity: 1; white-space: pre; opacity: 1;" transform="translate(0,216.89)">3%</text></g><g class="ytick"><text text-anchor="end" x="54" y="3.5" style="font-family: 'Lucida Grande', 'Open Sans', verdana, arial, sans-serif; font-size: 10px; fill: rgb(0, 0, 0); fill-opacity: 1; white-space: pre; opacity: 1;" transform="translate(0,144.19)">4%</text></g><g class="ytick"><text text-anchor="end" x="54" y="3.5" style="font-family: 'Lucida Grande', 'Open Sans', verdana, arial, sans-serif; font-size: 10px; fill: rgb(0, 0, 0); fill-opacity: 1; white-space: pre; opacity: 1;" transform="translate(0,71.49)">5%</text></g></g><g class="overaxes-above"/></g></g><g class="polarlayer"/><g class="smithlayer"/><g class="ternarylayer"/><g class="geolayer"/><g class="funnelarealayer"/><g class="pielayer"/><g class="iciclelayer"/><g class="treemaplayer"/><g class="sunburstlayer"/><g class="glimages"/><defs id="topdefs-929c57"><g class="clips"/></defs><g class="layer-above"><g class="imagelayer"/><g class="shapelayer"/></g><g class="infolayer"><g class="g-gtitle"><text class="gtitle" x="550" y="25" text-anchor="middle" dy="0em" style="opacity: 1; font-family: 'Lucida Grande', 'Open Sans', verdana, arial, sans-serif; font-size: 20px; fill: rgb(42, 63, 95); fill-opacity: 1; white-space: pre;"><tspan class="line" dy="0em" x="550" y="25">FastQC: Per Sequence GC Content</tspan><tspan class="line" dy="1.3em" x="550" y="25">​<tspan style="font-size:70%" dy="-0.6em">Percentages, 12 samples</tspan><tspan dy="0.42em">​</tspan></tspan></text></g><g class="g-xtitle"><text class="xtitle" x="567" y="472.3" text-anchor="middle" style="opacity: 0.3; font-family: 'Lucida Grande', 'Open Sans', verdana, arial, sans-serif; font-size: 14px; fill: rgb(0, 0, 0); fill-opacity: 1; white-space: pre;">% GC</text></g><g class="g-ytitle"><text class="ytitle" transform="rotate(-90,23.725,242.5)" x="23.725" y="242.5" text-anchor="middle" style="opacity: 0.3; font-family: 'Lucida Grande', 'Open Sans', verdana, arial, sans-serif; font-size: 14px; fill: rgb(0, 0, 0); fill-opacity: 1; white-space: pre;">Percentage</text></g></g></svg>