<svg class="main-svg" xmlns="http://www.w3.org/2000/svg" xmlns:xlink="http://www.w3.org/1999/xlink" width="2200" height="1000" style="" viewBox="0 0 1100 500"><rect x="0" y="0" width="1100" height="500" style="fill: rgb(255, 255, 255); fill-opacity: 1;"/><defs id="defs-b6ddfd"><g class="clips"><clipPath id="clipb6ddfdxyplot" class="plotclip"><rect width="1021" height="385"/></clipPath><clipPath class="axesclip" id="clipb6ddfdx"><rect x="61" y="0" width="1021" height="500"/></clipPath><clipPath class="axesclip" id="clipb6ddfdy"><rect x="0" y="50" width="1100" height="385"/></clipPath><clipPath class="axesclip" id="clipb6ddfdxy"><rect x="61" y="50" width="1021" height="385"/></clipPath></g><g class="gradients"/><g class="patterns"/></defs><g class="bglayer"/><g class="layer-below"><g class="imagelayer"/><g class="shapelayer"><g class="shape-group" data-index="0" clip-path="url(#clipb6ddfdx)"><path data-index="0" fill-rule="evenodd" d="M775.7,435H2613.5V50H775.7Z" style="opacity: 1; stroke: rgb(0, 0, 0); stroke-opacity: 0; fill: rgb(195, 230, 195); fill-opacity: 1; stroke-width: 0px;"/></g><g class="shape-group" data-index="1" clip-path="url(#clipb6ddfdx)"><path data-index="1" fill-rule="evenodd" d="M571.5,435H775.7V50H571.5Z" style="opacity: 1; stroke: rgb(0, 0, 0); stroke-opacity: 0; fill: rgb(230, 220, 195); fill-opacity: 1; stroke-width: 0px;"/></g><g class="shape-group" data-index="2" clip-path="url(#clipb6ddfdx)"><path data-index="2" fill-rule="evenodd" d="M61,435H571.5V50H61Z" style="opacity: 1; stroke: rgb(0, 0, 0); stroke-opacity: 0; fill: rgb(230, 195, 195); fill-opacity: 1; stroke-width: 0px;"/></g></g></g><g class="cartesianlayer"><g class="subplot xy"><g class="layer-subplot"><g class="shapelayer"/><g class="imagelayer"/></g><g class="minor-gridlayer"><g class="x"/><g class="y"/></g><g class="gridlayer"><g class="x"><path class="xgrid crisp" transform="translate(188.63,0)" d="M0,50v385" style="stroke: rgb(0, 0, 0); stroke-opacity: 0.05; stroke-width: 1px;"/><path class="xgrid crisp" transform="translate(316.25,0)" d="M0,50v385" style="stroke: rgb(0, 0, 0); stroke-opacity: 0.05; stroke-width: 1px;"/><path class="xgrid crisp" transform="translate(443.88,0)" d="M0,50v385" style="stroke: rgb(0, 0, 0); stroke-opacity: 0.05; stroke-width: 1px;"/><path class="xgrid crisp" transform="translate(571.5,0)" d="M0,50v385" style="stroke: rgb(0, 0, 0); stroke-opacity: 0.05; stroke-width: 1px;"/><path class="xgrid crisp" transform="translate(699.13,0)" d="M0,50v385" style="stroke: rgb(0, 0, 0); stroke-opacity: 0.05; stroke-width: 1px;"/><path class="xgrid crisp" transform="translate(826.75,0)" d="M0,50v385" style="stroke: rgb(0, 0, 0); stroke-opacity: 0.05; stroke-width: 1px;"/><path class="xgrid crisp" transform="translate(954.38,0)" d="M0,50v385" style="stroke: rgb(0, 0, 0); stroke-opacity: 0.05; stroke-width: 1px;"/></g><g class="y"><path class="ygrid crisp" transform="translate(0,369.13)" d="M61,0h1021" style="stroke: rgb(0, 0, 0); stroke-opacity: 0.05; stroke-width: 1px;"/><path class="ygrid crisp" transform="translate(0,303.26)" d="M61,0h1021" style="stroke: rgb(0, 0, 0); stroke-opacity: 0.05; stroke-width: 1px;"/><path class="ygrid crisp" transform="translate(0,237.38)" d="M61,0h1021" style="stroke: rgb(0, 0, 0); stroke-opacity: 0.05; stroke-width: 1px;"/><path class="ygrid crisp" transform="translate(0,171.51)" d="M61,0h1021" style="stroke: rgb(0, 0, 0); stroke-opacity: 0.05; stroke-width: 1px;"/><path class="ygrid crisp" transform="translate(0,105.64)" d="M61,0h1021" style="stroke: rgb(0, 0, 0); stroke-opacity: 0.05; stroke-width: 1px;"/></g></g><g class="zerolinelayer"><path class="xzl zl crisp" transform="translate(61,0)" d="M0,50v385" style="stroke: rgb(0, 0, 0); stroke-opacity: 0.05; stroke-width: 2px;"/><path class="yzl zl crisp" transform="translate(0,435)" d="M61,0h1021" style="stroke: rgb(0, 0, 0); stroke-opacity: 0.05; stroke-width: 2px;"/></g><g class="layer-between"><g class="shapelayer"/><g class="imagelayer"/></g><path class="xlines-below"/><path class="ylines-below"/><g class="overlines-below"/><g class="xaxislayer-below"/><g class="yaxislayer-below"/><g class="overaxes-below"/><g class="overplot"><g class="xy" transform="translate(61,50)" clip-path="url(#clipb6ddfdxyplot)"><g class="scatterlayer mlayer"><g class="trace scatter tracedbd96c" style="stroke-miterlimit: 2; opacity: 1;"><g class="fills"/><g class="errorbars"/><g class="lines"><path class="js-line" d="M561.55,384.99L638.13,384.24L663.65,383.39L714.7,380.46L740.22,377.98L765.75,375.55L791.28,372.17L816.8,367.93L842.33,361.35L867.85,349.34L893.38,324.54L918.9,254.82L944.43,165.87L969.95,194.72L995.47,320.88L1021,384.88" style="vector-effect: none; fill: none; stroke: rgb(92, 184, 92); stroke-opacity: 1; stroke-width: 2px; opacity: 1;"/></g><g class="points"/><g class="text"/></g><g class="trace scatter trace3ca992" style="stroke-miterlimit: 2; opacity: 1;"><g class="fills"/><g class="errorbars"/><g class="lines"><path class="js-line" d="M510.5,384.97L587.07,384.29L612.6,383.74L663.65,381.46L689.18,379.67L714.7,378.75L740.22,376.53L765.75,373.97L791.28,370.17L816.8,366.66L842.33,358.58L867.85,347.87L893.38,322.8L918.9,247.16L944.43,158.49L969.95,228.24L995.47,324.14L1021,384.95" style="vector-effect: none; fill: none; stroke: rgb(92, 184, 92); stroke-opacity: 1; stroke-width: 2px; opacity: 1;"/></g><g class="points"/><g class="text"/></g><g class="trace scatter trace4a405c" style="stroke-miterlimit: 2; opacity: 1;"><g class="fills"/><g class="errorbars"/><g class="lines"><path class="js-line" d="M536.03,384.99L612.6,384.67L638.13,384.05L689.18,381.23L714.7,379.08L765.75,373.08L791.28,369.14L816.8,364.16L842.33,355.73L867.85,340L893.38,308.15L918.9,223.97L944.43,114.21L969.95,157.27L995.47,313.92L1021,384.85" style="vector-effect: none; fill: none; stroke: rgb(92, 184, 92); stroke-opacity: 1; stroke-width: 2px; opacity: 1;"/></g><g class="points"/><g class="text"/></g><g class="trace scatter trace13c648" style="stroke-miterlimit: 2; opacity: 1;"><g class="fills"/><g class="errorbars"/><g class="lines"><path class="js-line" d="M484.98,384.99L561.55,384.53L587.07,383.95L638.13,381.86L663.65,380.49L714.7,376.97L740.22,374.27L765.75,371.41L791.28,366.12L816.8,361.52L842.33,351.99L867.85,338.09L893.38,305.96L918.9,214.31L944.43,108.47L969.95,197.76L995.47,317.51L1021,384.97" style="vector-effect: none; fill: none; stroke: rgb(92, 184, 92); stroke-opacity: 1; stroke-width: 2px; opacity: 1;"/></g><g class="points"/><g class="text"/></g><g class="trace scatter trace203d1f" style="stroke-miterlimit: 2; opacity: 1;"><g class="fills"/><g class="errorbars"/><g class="lines"><path class="js-line" d="M561.55,384.97L638.13,384.01L663.65,382.87L714.7,379.61L740.22,377.26L791.28,371.56L816.8,366.53L842.33,359.26L867.85,345.9L893.38,317.74L918.9,243.4L944.43,144.2L969.95,176.96L995.47,316.45L1021,384.89" style="vector-effect: none; fill: none; stroke: rgb(92, 184, 92); stroke-opacity: 1; stroke-width: 2px; opacity: 1;"/></g><g class="points"/><g class="text"/></g><g class="trace scatter trace9a06e0" style="stroke-miterlimit: 2; opacity: 1;"><g class="fills"/><g class="errorbars"/><g class="lines"><path class="js-line" d="M510.5,384.99L587.07,384.16L612.6,383.36L663.65,380.8L689.18,379.19L714.7,377.72L740.22,375.18L765.75,372.6L791.28,368.82L816.8,364.51L842.33,356.58L867.85,343.39L893.38,317.19L918.9,235.63L944.43,136.42L969.95,213.74L995.47,320.29L1021,384.93" style="vector-effect: none; fill: none; stroke: rgb(92, 184, 92); stroke-opacity: 1; stroke-width: 2px; opacity: 1;"/></g><g class="points"/><g class="text"/></g><g class="trace scatter tracef701b5" style="stroke-miterlimit: 2; opacity: 1;"><g class="fills"/><g class="errorbars"/><g class="lines"><path class="js-line" d="M561.55,384.93L612.6,383.77L638.13,381.88L689.18,373.77L714.7,366.98L740.22,360.07L765.75,352.31L791.28,341.91L816.8,329.72L842.33,312.91L867.85,286.2L893.38,240.65L918.9,138.29L944.43,19.25L969.95,93.19L995.47,306.57L1021,384.86" style="vector-effect: none; fill: none; stroke: rgb(92, 184, 92); stroke-opacity: 1; stroke-width: 2px; opacity: 1;"/></g><g class="points"/><g class="text"/></g><g class="trace scatter trace347ea8" style="stroke-miterlimit: 2; opacity: 1;"><g class="fills"/><g class="errorbars"/><g class="lines"><path class="js-line" d="M484.98,384.99L536.03,384.38L561.55,383.26L587.07,381.55L612.6,378.95L638.13,374.38L663.65,370.58L689.18,365.13L714.7,358.45L740.22,351.93L765.75,343.97L791.28,333.99L816.8,322.42L842.33,302.9L867.85,279.1L893.38,230.88L918.9,127L944.43,39.7L969.95,170.1L995.47,321.45L1021,384.99" style="vector-effect: none; fill: none; stroke: rgb(92, 184, 92); stroke-opacity: 1; stroke-width: 2px; opacity: 1;"/></g><g class="points"/><g class="text"/></g><g class="trace scatter trace0c2428" style="stroke-miterlimit: 2; opacity: 1;"><g class="fills"/><g class="errorbars"/><g class="lines"><path class="js-line" d="M536.03,384.99L587.07,384.68L612.6,383.81L638.13,382.21L663.65,379.67L689.18,375.48L714.7,369.8L740.22,365.68L765.75,359.91L816.8,345.54L842.33,333.3L867.85,316.2L893.38,285.95L918.9,216.44L944.43,129.36L969.95,172.24L995.47,324.8L1021,384.86" style="vector-effect: none; fill: none; stroke: rgb(92, 184, 92); stroke-opacity: 1; stroke-width: 2px; opacity: 1;"/></g><g class="points"/><g class="text"/></g><g class="trace scatter traceaa5d78" style="stroke-miterlimit: 2; opacity: 1;"><g class="fills"/><g class="errorbars"/><g class="lines"><path class="js-line" d="M484.98,384.97L536.03,384.55L561.55,383.8L587.07,382.57L612.6,380.57L663.65,374.43L689.18,370.65L740.22,361.22L765.75,355.46L791.28,349.22L816.8,341.58L842.33,328.97L867.85,311.43L893.38,278.56L918.9,206.2L944.43,140.96L969.95,220.65L995.47,333.78L1021,384.87" style="vector-effect: none; fill: none; stroke: rgb(92, 184, 92); stroke-opacity: 1; stroke-width: 2px; opacity: 1;"/></g><g class="points"/><g class="text"/></g><g class="trace scatter traceacea47" style="stroke-miterlimit: 2; opacity: 1;"><g class="fills"/><g class="errorbars"/><g class="lines"><path class="js-line" d="M536.03,384.99L587.07,384.62L612.6,383.87L638.13,382.21L663.65,379.41L714.7,369.99L740.22,364.05L791.28,349.46L816.8,338.3L842.33,325.37L867.85,303.7L893.38,267.64L918.9,183.29L944.43,86.87L969.95,151.1L995.47,323.92L1021,384.88" style="vector-effect: none; fill: none; stroke: rgb(92, 184, 92); stroke-opacity: 1; stroke-width: 2px; opacity: 1;"/></g><g class="points"/><g class="text"/></g><g class="trace scatter tracea32351" style="stroke-miterlimit: 2; opacity: 1;"><g class="fills"/><g class="errorbars"/><g class="lines"><path class="js-line" d="M484.98,384.99L561.55,384.03L587.07,382.62L612.6,380.47L638.13,377.53L689.18,369.24L714.7,364.19L740.22,359.69L765.75,352.43L791.28,344.56L816.8,334L842.33,319.45L867.85,297.53L893.38,259.24L918.9,171.44L944.43,96.27L969.95,210.31L995.47,334.43L1021,384.98" style="vector-effect: none; fill: none; stroke: rgb(92, 184, 92); stroke-opacity: 1; stroke-width: 2px; opacity: 1;"/></g><g class="points"/><g class="text"/></g></g></g></g><path class="xlines-above crisp" d="M0,0" style="fill: none;"/><path class="ylines-above crisp" d="M0,0" style="fill: none;"/><g class="overlines-above"/><g class="xaxislayer-above"><g class="xtick"><text text-anchor="middle" x="0" y="451" transform="translate(61,0)" style="font-family: 'Lucida Grande', 'Open Sans', verdana, arial, sans-serif; font-size: 10px; fill: rgb(0, 0, 0); fill-opacity: 1; white-space: pre; opacity: 1;">0</text></g><g class="xtick"><text text-anchor="middle" x="0" y="451" style="font-family: 'Lucida Grande', 'Open Sans', verdana, arial, sans-serif; font-size: 10px; fill: rgb(0, 0, 0); fill-opacity: 1; white-space: pre; opacity: 1;" transform="translate(188.63,0)">5</text></g><g class="xtick"><text text-anchor="middle" x="0" y="451" style="font-family: 'Lucida Grande', 'Open Sans', verdana, arial, sans-serif; font-size: 10px; fill: rgb(0, 0, 0); fill-opacity: 1; white-space: pre; opacity: 1;" transform="translate(316.25,0)">10</text></g><g class="xtick"><text text-anchor="middle" x="0" y="451" style="font-family: 'Lucida Grande', 'Open Sans', verdana, arial, sans-serif; font-size: 10px; fill: rgb(0, 0, 0); fill-opacity: 1; white-space: pre; opacity: 1;" transform="translate(443.88,0)">15</text></g><g class="xtick"><text text-anchor="middle" x="0" y="451" style="font-family: 'Lucida Grande', 'Open Sans', verdana, arial, sans-serif; font-size: 10px; fill: rgb(0, 0, 0); fill-opacity: 1; white-space: pre; opacity: 1;" transform="translate(571.5,0)">20</text></g><g class="xtick"><text text-anchor="middle" x="0" y="451" style="font-family: 'Lucida Grande', 'Open Sans', verdana, arial, sans-serif; font-size: 10px; fill: rgb(0, 0, 0); fill-opacity: 1; white-space: pre; opacity: 1;" transform="translate(699.13,0)">25</text></g><g class="xtick"><text text-anchor="middle" x="0" y="451" style="font-family: 'Lucida Grande', 'Open Sans', verdana, arial, sans-serif; font-size: 10px; fill: rgb(0, 0, 0); fill-opacity: 1; white-space: pre; opacity: 1;" transform="translate(826.75,0)">30</text></g><g class="xtick"><text text-anchor="middle" x="0" y="451" style="font-family: 'Lucida Grande', 'Open Sans', verdana, arial, sans-serif; font-size: 10px; fill: rgb(0, 0, 0); fill-opacity: 1; white-space: pre; opacity: 1;" transform="translate(954.38,0)">35</text></g><g class="xtick"><text text-anchor="middle" x="0" y="451" style="font-family: 'Lucida Grande', 'Open Sans', verdana, arial, sans-serif; font-size: 10px; fill: rgb(0, 0, 0); fill-opacity: 1; white-space: pre; opacity: 1;" transform="translate(1082,0)">40</text></g></g><g class="yaxislayer-above"><g class="ytick"><text text-anchor="end" x="55" y="3.5" transform="translate(0,435)" style="font-family: 'Lucida Grande', 'Open Sans', verdana, arial, sans-serif; font-size: 10px; fill: rgb(0, 0, 0); fill-opacity: 1; white-space: pre; opacity: 1;">0</text></g><g class="ytick"><text text-anchor="end" x="55" y="3.5" style="font-family: 'Lucida Grande', 'Open Sans', verdana, arial, sans-serif; font-size: 10px; fill: rgb(0, 0, 0); fill-opacity: 1; white-space: pre; opacity: 1;" transform="translate(0,369.13)">10k</text></g><g class="ytick"><text text-anchor="end" x="55" y="3.5" style="font-family: 'Lucida Grande', 'Open Sans', verdana, arial, sans-serif; font-size: 10px; fill: rgb(0, 0, 0); fill-opacity: 1; white-space: pre; opacity: 1;" transform="translate(0,303.26)">20k</text></g><g class="ytick"><text text-anchor="end" x="55" y="3.5" style="font-family: 'Lucida Grande', 'Open Sans', verdana, arial, sans-serif; font-size: 10px; fill: rgb(0, 0, 0); fill-opacity: 1; white-space: pre; opacity: 1;" transform="translate(0,237.38)">30k</text></g><g class="ytick"><text text-anchor="end" x="55" y="3.5" style="font-family: 'Lucida Grande', 'Open Sans', verdana, arial, sans-serif; font-size: 10px; fill: rgb(0, 0, 0); fill-opacity: 1; white-space: pre; opacity: 1;" transform="translate(0,171.51)">40k</text></g><g class="ytick"><text text-anchor="end" x="55" y="3.5" style="font-family: 'Lucida Grande', 'Open Sans', verdana, arial, sans-serif; font-size: 10px; fill: rgb(0, 0, 0); fill-opacity: 1; white-space: pre; opacity: 1;" transform="translate(0,105.64)">50k</text></g></g><g class="overaxes-above"/></g></g><g class="polarlayer"/><g class="smithlayer"/><g class="ternarylayer"/><g class="geolayer"/><g class="funnelarealayer"/><g class="pielayer"/><g class="iciclelayer"/><g class="treemaplayer"/><g class="sunburstlayer"/><g class="glimages"/><defs id="topdefs-b6ddfd"><g class="clips"/></defs><g class="layer-above"><g class="imagelayer"/><g class="shapelayer"/></g><g class="infolayer"><g class="g-gtitle"><text class="gtitle" x="550" y="25" text-anchor="middle" dy="0em" style="opacity: 1; font-family: 'Lucida Grande', 'Open Sans', verdana, arial, sans-serif; font-size: 20px; fill: rgb(42, 63, 95); fill-opacity: 1; white-space: pre;"><tspan class="line" dy="0em" x="550" y="25">FastQC: Per Sequence Quality Scores</tspan><tspan class="line" dy="1.3em" x="550" y="25">​<tspan style="font-size:70%" dy="-0.6em">12 samples</tspan><tspan dy="0.42em">​</tspan></tspan></text></g><g class="g-xtitle"><text class="xtitle" x="571.5" y="472.3" text-anchor="middle" style="opacity: 0.3; font-family: 'Lucida Grande', 'Open Sans', verdana, arial, sans-serif; font-size: 14px; fill: rgb(0, 0, 0); fill-opacity: 1; white-space: pre;">Mean Sequence Quality (Phred Score)</text></g><g class="g-ytitle"><text class="ytitle" transform="rotate(-90,22.084375,242.5)" x="22.084375" y="242.5" text-anchor="middle" style="opacity: 0.3; font-family: 'Lucida Grande', 'Open Sans', verdana, arial, sans-serif; font-size: 14px; fill: rgb(0, 0, 0); fill-opacity: 1; white-space: pre;">Count</text></g></g></svg>