<svg class="main-svg" xmlns="http://www.w3.org/2000/svg" xmlns:xlink="http://www.w3.org/1999/xlink" width="2200" height="1000" style="" viewBox="0 0 1100 500"><rect x="0" y="0" width="1100" height="500" style="fill: rgb(255, 255, 255); fill-opacity: 1;"/><defs id="defs-298370"><g class="clips"><clipPath id="clip298370xyplot" class="plotclip"><rect width="1011" height="385"/></clipPath><clipPath class="axesclip" id="clip298370x"><rect x="60" y="0" width="1011" height="500"/></clipPath><clipPath class="axesclip" id="clip298370y"><rect x="0" y="50" width="1100" height="385"/></clipPath><clipPath class="axesclip" id="clip298370xy"><rect x="60" y="50" width="1011" height="385"/></clipPath></g><g class="gradients"/><g class="patterns"/></defs><g class="bglayer"/><g class="layer-below"><g class="imagelayer"/><g class="shapelayer"><g class="shape-group" data-index="0" clip-path="url(#clip298370y)"><path data-index="0" fill-rule="evenodd" d="M60,176.75H1071V-487.30999999999995H60Z" style="opacity: 1; stroke: rgb(0, 0, 0); stroke-opacity: 0; fill: rgb(195, 230, 195); fill-opacity: 1; stroke-width: 0px;"/></g><g class="shape-group" data-index="1" clip-path="url(#clip298370y)"><path data-index="1" fill-rule="evenodd" d="M60,250.54H1071V176.75H60Z" style="opacity: 1; stroke: rgb(0, 0, 0); stroke-opacity: 0; fill: rgb(230, 220, 195); fill-opacity: 1; stroke-width: 0px;"/></g><g class="shape-group" data-index="2" clip-path="url(#clip298370y)"><path data-index="2" fill-rule="evenodd" d="M60,435H1071V250.54H60Z" style="opacity: 1; stroke: rgb(0, 0, 0); stroke-opacity: 0; fill: rgb(230, 195, 195); fill-opacity: 1; stroke-width: 0px;"/></g></g></g><g class="cartesianlayer"><g class="subplot xy"><g class="layer-subplot"><g class="shapelayer"/><g class="imagelayer"/></g><g class="minor-gridlayer"><g class="x"/><g class="y"/></g><g class="gridlayer"><g class="x"><path class="xgrid crisp" transform="translate(262.2,0)" d="M0,50v385" style="stroke: rgb(0, 0, 0); stroke-opacity: 0.05; stroke-width: 1px;"/><path class="xgrid crisp" transform="translate(464.4,0)" d="M0,50v385" style="stroke: rgb(0, 0, 0); stroke-opacity: 0.05; stroke-width: 1px;"/><path class="xgrid crisp" transform="translate(666.6,0)" d="M0,50v385" style="stroke: rgb(0, 0, 0); stroke-opacity: 0.05; stroke-width: 1px;"/><path class="xgrid crisp" transform="translate(868.8,0)" d="M0,50v385" style="stroke: rgb(0, 0, 0); stroke-opacity: 0.05; stroke-width: 1px;"/></g><g class="y"><path class="ygrid crisp" transform="translate(0,388.88)" d="M60,0h1011" style="stroke: rgb(0, 0, 0); stroke-opacity: 0.05; stroke-width: 1px;"/><path class="ygrid crisp" transform="translate(0,342.77)" d="M60,0h1011" style="stroke: rgb(0, 0, 0); stroke-opacity: 0.05; stroke-width: 1px;"/><path class="ygrid crisp" transform="translate(0,296.65)" d="M60,0h1011" style="stroke: rgb(0, 0, 0); stroke-opacity: 0.05; stroke-width: 1px;"/><path class="ygrid crisp" transform="translate(0,250.54)" d="M60,0h1011" style="stroke: rgb(0, 0, 0); stroke-opacity: 0.05; stroke-width: 1px;"/><path class="ygrid crisp" transform="translate(0,204.42)" d="M60,0h1011" style="stroke: rgb(0, 0, 0); stroke-opacity: 0.05; stroke-width: 1px;"/><path class="ygrid crisp" transform="translate(0,158.31)" d="M60,0h1011" style="stroke: rgb(0, 0, 0); stroke-opacity: 0.05; stroke-width: 1px;"/><path class="ygrid crisp" transform="translate(0,112.19)" d="M60,0h1011" style="stroke: rgb(0, 0, 0); stroke-opacity: 0.05; stroke-width: 1px;"/><path class="ygrid crisp" transform="translate(0,66.08)" d="M60,0h1011" style="stroke: rgb(0, 0, 0); stroke-opacity: 0.05; stroke-width: 1px;"/></g></g><g class="zerolinelayer"><path class="xzl zl crisp" transform="translate(60,0)" d="M0,50v385" style="stroke: rgb(0, 0, 0); stroke-opacity: 0.05; stroke-width: 2px;"/><path class="yzl zl crisp" transform="translate(0,435)" d="M60,0h1011" style="stroke: rgb(0, 0, 0); stroke-opacity: 0.05; stroke-width: 2px;"/></g><g class="layer-between"><g class="shapelayer"/><g class="imagelayer"/></g><path class="xlines-below"/><path class="ylines-below"/><g class="overlines-below"/><g class="xaxislayer-below"/><g class="yaxislayer-below"/><g class="overaxes-below"/><g class="overplot"><g class="xy" transform="translate(60,50)" clip-path="url(#clip298370xyplot)"><g class="scatterlayer mlayer"><g class="trace scatter trace2ae499" style="stroke-miterlimit: 2; opacity: 1;"><g class="fills"/><g class="errorbars"/><g class="lines"><path class="js-line" d="M10.11,81.31L20.22,79.5L30.33,78.95L40.44,48.35L50.55,48.99L80.88,49.19L90.99,32.39L121.32,32.64L141.54,18.33L242.64,20.15L262.86,20.93L343.74,24.96L363.96,26.51L384.18,27.87L404.4,28.24L444.84,28.32L465.06,29.75L485.28,30.82L505.5,32.83L566.16,39.27L586.38,42.02L687.48,56.41L707.7,58.81L748.14,64.18L768.36,78.15L788.58,69.64L808.8,69.87L909.9,78.27L930.12,79.16L1011,86.01" style="vector-effect: none; fill: none; stroke: rgb(92, 184, 92); stroke-opacity: 1; stroke-width: 2px; opacity: 1;"/></g><g class="points"/><g class="text"/></g><g class="trace scatter traceb4b5c6" style="stroke-miterlimit: 2; opacity: 1;"><g class="fills"/><g class="errorbars"/><g class="lines"><path class="js-line" d="M10.11,83.17L20.22,82.15L30.33,81.96L40.44,50.79L50.55,51.02L80.88,50.7L90.99,34.21L121.32,34.74L141.54,20.79L283.08,24.99L303.3,26.02L384.18,30.45L404.4,32.19L444.84,35.56L465.06,34.25L485.28,33.89L505.5,46.91L525.72,45.91L545.94,40.78L566.16,42.26L586.38,44.6L707.7,61.86L727.92,64.23L849.24,78.1L869.46,79.73L970.56,89L990.78,91.22L1011,93.04" style="vector-effect: none; fill: none; stroke: rgb(92, 184, 92); stroke-opacity: 1; stroke-width: 2px; opacity: 1;"/></g><g class="points"/><g class="text"/></g><g class="trace scatter trace353549" style="stroke-miterlimit: 2; opacity: 1;"><g class="fills"/><g class="errorbars"/><g class="lines"><path class="js-line" d="M10.11,81.46L20.22,79.73L30.33,79.11L40.44,48.53L50.55,49.12L80.88,49.33L90.99,32.47L121.32,32.88L141.54,18.57L242.64,20.43L262.86,21.29L323.52,24.1L343.74,25.37L384.18,28.4L404.4,28.68L444.84,28.82L465.06,30.35L485.28,31.43L505.5,33.58L566.16,39.97L586.38,42.94L647.04,51.79L667.26,54.92L748.14,65.02L768.36,78.96L788.58,70.44L808.8,70.69L909.9,78.96L930.12,79.82L970.56,83.22L990.78,85.33L1011,86.66" style="vector-effect: none; fill: none; stroke: rgb(92, 184, 92); stroke-opacity: 1; stroke-width: 2px; opacity: 1;"/></g><g class="points"/><g class="text"/></g><g class="trace scatter tracec5b70f" style="stroke-miterlimit: 2; opacity: 1;"><g class="fills"/><g class="errorbars"/><g class="lines"><path class="js-line" d="M10.11,83.52L30.33,82.27L40.44,51.05L60.66,51.22L70.77,50.83L80.88,50.85L90.99,34.36L101.1,34.85L121.32,35.02L141.54,21.17L161.76,21.8L222.42,23.27L242.64,23.95L303.3,26.45L323.52,27.45L384.18,31.12L404.4,32.96L444.84,36.27L465.06,34.78L485.28,34.56L505.5,47.7L525.72,46.82L545.94,41.63L566.16,43.1L586.38,45.51L687.48,60.59L707.7,62.93L829.02,76.98L849.24,79.01L970.56,89.6L990.78,91.94L1011,93.91" style="vector-effect: none; fill: none; stroke: rgb(92, 184, 92); stroke-opacity: 1; stroke-width: 2px; opacity: 1;"/></g><g class="points"/><g class="text"/></g><g class="trace scatter tracea39ad4" style="stroke-miterlimit: 2; opacity: 1;"><g class="fills"/><g class="errorbars"/><g class="lines"><path class="js-line" d="M10.11,81.43L20.22,79.59L30.33,79.01L40.44,48.49L50.55,49.13L80.88,49.35L90.99,32.47L121.32,32.83L141.54,18.45L242.64,20.28L262.86,21.08L323.52,23.82L343.74,25.28L384.18,28.07L404.4,28.48L444.84,28.5L465.06,29.91L485.28,31.14L505.5,33.16L566.16,39.57L586.38,42.38L687.48,56.58L707.7,59.17L748.14,64.54L768.36,78.43L788.58,69.97L808.8,70.21L909.9,78.77L930.12,79.62L970.56,82.94L990.78,85.05L1011,86.51" style="vector-effect: none; fill: none; stroke: rgb(92, 184, 92); stroke-opacity: 1; stroke-width: 2px; opacity: 1;"/></g><g class="points"/><g class="text"/></g><g class="trace scatter trace34d691" style="stroke-miterlimit: 2; opacity: 1;"><g class="fills"/><g class="errorbars"/><g class="lines"><path class="js-line" d="M10.11,83.45L20.22,82.39L30.33,82.24L40.44,51.09L50.55,51.28L80.88,50.95L90.99,34.4L121.32,35.18L141.54,21.28L262.86,24.47L283.08,25.46L384.18,30.91L404.4,32.71L444.84,35.87L465.06,34.54L485.28,34.47L505.5,47.35L525.72,46.31L545.94,41.11L566.16,42.59L586.38,45.11L687.48,60.12L707.7,62.38L849.24,78.92L869.46,80.67L970.56,89.79L990.78,92.14L1011,93.89" style="vector-effect: none; fill: none; stroke: rgb(92, 184, 92); stroke-opacity: 1; stroke-width: 2px; opacity: 1;"/></g><g class="points"/><g class="text"/></g><g class="trace scatter trace77ecde" style="stroke-miterlimit: 2; opacity: 1;"><g class="fills"/><g class="errorbars"/><g class="lines"><path class="js-line" d="M10.11,86.11L20.22,84.64L30.33,84.7L40.44,52.46L50.55,53.28L70.77,53.35L80.88,53.39L90.99,37.44L101.1,38.04L121.32,38.37L141.54,25.77L222.42,26.88L242.64,27.63L343.74,32.5L363.96,33.62L444.84,39.32L465.06,39.66L505.5,41.62L525.72,43.77L566.16,46.15L586.38,48.6L647.04,57.56L667.26,60.45L707.7,65.39L727.92,68.48L748.14,70.78L768.36,85.82L788.58,76.85L808.8,76.2L930.12,85.51L950.34,86.76L990.78,91.37L1011,92.7" style="vector-effect: none; fill: none; stroke: rgb(92, 184, 92); stroke-opacity: 1; stroke-width: 2px; opacity: 1;"/></g><g class="points"/><g class="text"/></g><g class="trace scatter trace407e18" style="stroke-miterlimit: 2; opacity: 1;"><g class="fills"/><g class="errorbars"/><g class="lines"><path class="js-line" d="M10.11,91L20.22,89.98L30.33,89.77L40.44,57.33L50.55,57.16L80.88,56.88L90.99,41.87L101.1,42.52L121.32,42.72L141.54,30.78L161.76,31.32L242.64,33.66L262.86,34.43L384.18,41.7L404.4,43.42L444.84,48.3L465.06,46.42L485.28,46.88L505.5,60.22L525.72,59.54L545.94,52.21L566.16,53.15L586.38,55.73L647.04,65.09L667.26,68.4L707.7,73.9L727.92,76.4L849.24,91.48L869.46,93.53L950.34,102.36L970.56,105.18L1011,110.44" style="vector-effect: none; fill: none; stroke: rgb(92, 184, 92); stroke-opacity: 1; stroke-width: 2px; opacity: 1;"/></g><g class="points"/><g class="text"/></g><g class="trace scatter tracee87031" style="stroke-miterlimit: 2; opacity: 1;"><g class="fills"/><g class="errorbars"/><g class="lines"><path class="js-line" d="M10.11,86.4L20.22,84.82L30.33,85.11L40.44,52.86L50.55,53.85L60.66,54.3L70.77,53.96L80.88,53.99L90.99,38.17L101.1,38.91L121.32,39.2L141.54,26.69L161.76,27.09L202.2,27.23L222.42,27.88L262.86,29.31L283.08,30.57L343.74,33.33L363.96,34.35L444.84,40.1L465.06,40.39L505.5,42.2L525.72,44.07L566.16,46.3L586.38,48.72L626.82,54.59L647.04,57.63L748.14,70.94L768.36,86.29L788.58,77.22L808.8,76.63L869.46,81.62L889.68,83.45L909.9,85.38L930.12,86.31L950.34,87.52L970.56,89.82L990.78,92.35L1011,93.65" style="vector-effect: none; fill: none; stroke: rgb(92, 184, 92); stroke-opacity: 1; stroke-width: 2px; opacity: 1;"/></g><g class="points"/><g class="text"/></g><g class="trace scatter trace1f094a" style="stroke-miterlimit: 2; opacity: 1;"><g class="fills"/><g class="errorbars"/><g class="lines"><path class="js-line" d="M10.11,91.04L20.22,89.73L30.33,89.72L40.44,57.32L50.55,57.39L80.88,57.06L90.99,41.97L101.1,42.74L121.32,43L141.54,31.13L161.76,31.64L242.64,33.9L262.86,34.58L404.4,43.19L424.62,45.51L444.84,47.81L465.06,45.83L485.28,46.23L505.5,59.51L525.72,58.91L545.94,51.31L566.16,52.1L586.38,54.71L647.04,63.87L667.26,67.15L727.92,75.21L748.14,77.7L808.8,85.8L829.02,88.23L889.68,94.91L909.9,97.05L950.34,101.43L970.56,104.22L1011,109.78" style="vector-effect: none; fill: none; stroke: rgb(92, 184, 92); stroke-opacity: 1; stroke-width: 2px; opacity: 1;"/></g><g class="points"/><g class="text"/></g><g class="trace scatter trace49194b" style="stroke-miterlimit: 2; opacity: 1;"><g class="fills"/><g class="errorbars"/><g class="lines"><path class="js-line" d="M10.11,86.19L20.22,84.58L30.33,84.73L40.44,52.56L50.55,53.55L70.77,53.59L80.88,53.63L90.99,37.71L101.1,38.42L121.32,38.71L141.54,26.13L222.42,27.45L242.64,28.02L363.96,34.06L384.18,35.5L444.84,39.99L465.06,40.2L505.5,42.27L525.72,44.33L566.16,46.76L586.38,49.25L626.82,55.1L647.04,58.29L727.92,69.01L748.14,71.35L768.36,86.63L788.58,77.42L808.8,76.78L829.02,78.22L909.9,85.13L930.12,85.86L950.34,87.08L970.56,89.18L990.78,91.9L1011,93.23" style="vector-effect: none; fill: none; stroke: rgb(92, 184, 92); stroke-opacity: 1; stroke-width: 2px; opacity: 1;"/></g><g class="points"/><g class="text"/></g><g class="trace scatter trace92b809" style="stroke-miterlimit: 2; opacity: 1;"><g class="fills"/><g class="errorbars"/><g class="lines"><path class="js-line" d="M10.11,90.47L20.22,89.26L30.33,89.01L40.44,56.63L50.55,56.65L80.88,56.28L90.99,41.27L101.1,41.85L121.32,42.03L141.54,29.9L161.76,30.48L242.64,32.99L262.86,33.62L303.3,36.03L323.52,36.98L384.18,40.87L404.4,42.71L444.84,47.47L465.06,45.55L485.28,46.13L505.5,59.42L525.72,58.88L545.94,51.51L566.16,52.4L586.38,54.98L707.7,73.1L727.92,75.64L909.9,96.66L930.12,98.58L970.56,103.54L990.78,106.47L1011,108.88" style="vector-effect: none; fill: none; stroke: rgb(92, 184, 92); stroke-opacity: 1; stroke-width: 2px; opacity: 1;"/></g><g class="points"/><g class="text"/></g></g></g></g><path class="xlines-above crisp" d="M0,0" style="fill: none;"/><path class="ylines-above crisp" d="M0,0" style="fill: none;"/><g class="overlines-above"/><g class="xaxislayer-above"><g class="xtick"><text text-anchor="middle" x="0" y="451" transform="translate(60,0)" style="font-family: 'Lucida Grande', 'Open Sans', verdana, arial, sans-serif; font-size: 10px; fill: rgb(0, 0, 0); fill-opacity: 1; white-space: pre; opacity: 1;">0 bp</text></g><g class="xtick"><text text-anchor="middle" x="0" y="451" style="font-family: 'Lucida Grande', 'Open Sans', verdana, arial, sans-serif; font-size: 10px; fill: rgb(0, 0, 0); fill-opacity: 1; white-space: pre; opacity: 1;" transform="translate(262.2,0)">20 bp</text></g><g class="xtick"><text text-anchor="middle" x="0" y="451" style="font-family: 'Lucida Grande', 'Open Sans', verdana, arial, sans-serif; font-size: 10px; fill: rgb(0, 0, 0); fill-opacity: 1; white-space: pre; opacity: 1;" transform="translate(464.4,0)">40 bp</text></g><g class="xtick"><text text-anchor="middle" x="0" y="451" style="font-family: 'Lucida Grande', 'Open Sans', verdana, arial, sans-serif; font-size: 10px; fill: rgb(0, 0, 0); fill-opacity: 1; white-space: pre; opacity: 1;" transform="translate(666.6,0)">60 bp</text></g><g class="xtick"><text text-anchor="middle" x="0" y="451" style="font-family: 'Lucida Grande', 'Open Sans', verdana, arial, sans-serif; font-size: 10px; fill: rgb(0, 0, 0); fill-opacity: 1; white-space: pre; opacity: 1;" transform="translate(868.8,0)">80 bp</text></g><g class="xtick"><text text-anchor="middle" x="0" y="451" style="font-family: 'Lucida Grande', 'Open Sans', verdana, arial, sans-serif; font-size: 10px; fill: rgb(0, 0, 0); fill-opacity: 1; white-space: pre; opacity: 1;" transform="translate(1071,0)">100 bp</text></g></g><g class="yaxislayer-above"><g class="ytick"><text text-anchor="end" x="54" y="3.5" transform="translate(0,435)" style="font-family: 'Lucida Grande', 'Open Sans', verdana, arial, sans-serif; font-size: 10px; fill: rgb(0, 0, 0); fill-opacity: 1; white-space: pre; opacity: 1;">0</text></g><g class="ytick"><text text-anchor="end" x="54" y="3.5" style="font-family: 'Lucida Grande', 'Open Sans', verdana, arial, sans-serif; font-size: 10px; fill: rgb(0, 0, 0); fill-opacity: 1; white-space: pre; opacity: 1;" transform="translate(0,388.88)">5</text></g><g class="ytick"><text text-anchor="end" x="54" y="3.5" style="font-family: 'Lucida Grande', 'Open Sans', verdana, arial, sans-serif; font-size: 10px; fill: rgb(0, 0, 0); fill-opacity: 1; white-space: pre; opacity: 1;" transform="translate(0,342.77)">10</text></g><g class="ytick"><text text-anchor="end" x="54" y="3.5" style="font-family: 'Lucida Grande', 'Open Sans', verdana, arial, sans-serif; font-size: 10px; fill: rgb(0, 0, 0); fill-opacity: 1; white-space: pre; opacity: 1;" transform="translate(0,296.65)">15</text></g><g class="ytick"><text text-anchor="end" x="54" y="3.5" style="font-family: 'Lucida Grande', 'Open Sans', verdana, arial, sans-serif; font-size: 10px; fill: rgb(0, 0, 0); fill-opacity: 1; white-space: pre; opacity: 1;" transform="translate(0,250.54)">20</text></g><g class="ytick"><text text-anchor="end" x="54" y="3.5" style="font-family: 'Lucida Grande', 'Open Sans', verdana, arial, sans-serif; font-size: 10px; fill: rgb(0, 0, 0); fill-opacity: 1; white-space: pre; opacity: 1;" transform="translate(0,204.42)">25</text></g><g class="ytick"><text text-anchor="end" x="54" y="3.5" style="font-family: 'Lucida Grande', 'Open Sans', verdana, arial, sans-serif; font-size: 10px; fill: rgb(0, 0, 0); fill-opacity: 1; white-space: pre; opacity: 1;" transform="translate(0,158.31)">30</text></g><g class="ytick"><text text-anchor="end" x="54" y="3.5" style="font-family: 'Lucida Grande', 'Open Sans', verdana, arial, sans-serif; font-size: 10px; fill: rgb(0, 0, 0); fill-opacity: 1; white-space: pre; opacity: 1;" transform="translate(0,112.19)">35</text></g><g class="ytick"><text text-anchor="end" x="54" y="3.5" style="font-family: 'Lucida Grande', 'Open Sans', verdana, arial, sans-serif; font-size: 10px; fill: rgb(0, 0, 0); fill-opacity: 1; white-space: pre; opacity: 1;" transform="translate(0,66.08)">40</text></g></g><g class="overaxes-above"/></g></g><g class="polarlayer"/><g class="smithlayer"/><g class="ternarylayer"/><g class="geolayer"/><g class="funnelarealayer"/><g class="pielayer"/><g class="iciclelayer"/><g class="treemaplayer"/><g class="sunburstlayer"/><g class="glimages"/><defs id="topdefs-298370"><g class="clips"/></defs><g class="layer-above"><g class="imagelayer"/><g class="shapelayer"/></g><g class="infolayer"><g class="g-gtitle"><text class="gtitle" x="550" y="25" text-anchor="middle" dy="0em" style="opacity: 1; font-family: 'Lucida Grande', 'Open Sans', verdana, arial, sans-serif; font-size: 20px; fill: rgb(42, 63, 95); fill-opacity: 1; white-space: pre;"><tspan class="line" dy="0em" x="550" y="25">FastQC: Mean Quality Scores</tspan><tspan class="line" dy="1.3em" x="550" y="25">​<tspan style="font-size:70%" dy="-0.6em">12 samples</tspan><tspan dy="0.42em">​</tspan></tspan></text></g><g class="g-xtitle"><text class="xtitle" x="565.5" y="472.3" text-anchor="middle" style="opacity: 0.3; font-family: 'Lucida Grande', 'Open Sans', verdana, arial, sans-serif; font-size: 14px; fill: rgb(0, 0, 0); fill-opacity: 1; white-space: pre;">Position (bp)</text></g><g class="g-ytitle"><text class="ytitle" transform="rotate(-90,26.865625,242.5)" x="26.865625" y="242.5" text-anchor="middle" style="opacity: 0.3; font-family: 'Lucida Grande', 'Open Sans', verdana, arial, sans-serif; font-size: 14px; fill: rgb(0, 0, 0); fill-opacity: 1; white-space: pre;">Phred Score</text></g></g></svg>