<svg class="main-svg" xmlns="http://www.w3.org/2000/svg" xmlns:xlink="http://www.w3.org/1999/xlink" width="2200" height="1000" style="" viewBox="0 0 1100 500"><rect x="0" y="0" width="1100" height="500" style="fill: rgb(255, 255, 255); fill-opacity: 1;"/><defs id="defs-be2832"><g class="clips"><clipPath id="clipbe2832xyplot" class="plotclip"><rect width="1011" height="385"/></clipPath><clipPath class="axesclip" id="clipbe2832x"><rect x="60" y="0" width="1011" height="500"/></clipPath><clipPath class="axesclip" id="clipbe2832y"><rect x="0" y="50" width="1100" height="385"/></clipPath><clipPath class="axesclip" id="clipbe2832xy"><rect x="60" y="50" width="1011" height="385"/></clipPath></g><g class="gradients"/><g class="patterns"/></defs><g class="bglayer"/><g class="layer-below"><g class="imagelayer"/><g class="shapelayer"><g class="shape-group" data-index="0" clip-path="url(#clipbe2832y)"><path data-index="0" fill-rule="evenodd" d="M60,176.79000000000002H1071V-487.17999999999995H60Z" style="opacity: 1; stroke: rgb(0, 0, 0); stroke-opacity: 0; fill: rgb(195, 230, 195); fill-opacity: 1; stroke-width: 0px;"/></g><g class="shape-group" data-index="1" clip-path="url(#clipbe2832y)"><path data-index="1" fill-rule="evenodd" d="M60,250.56H1071V176.79000000000002H60Z" style="opacity: 1; stroke: rgb(0, 0, 0); stroke-opacity: 0; fill: rgb(230, 220, 195); fill-opacity: 1; stroke-width: 0px;"/></g><g class="shape-group" data-index="2" clip-path="url(#clipbe2832y)"><path data-index="2" fill-rule="evenodd" d="M60,435H1071V250.56H60Z" style="opacity: 1; stroke: rgb(0, 0, 0); stroke-opacity: 0; fill: rgb(230, 195, 195); fill-opacity: 1; stroke-width: 0px;"/></g></g></g><g class="cartesianlayer"><g class="subplot xy"><g class="layer-subplot"><g class="shapelayer"/><g class="imagelayer"/></g><g class="minor-gridlayer"><g class="x"/><g class="y"/></g><g class="gridlayer"><g class="x"><path class="xgrid crisp" transform="translate(262.2,0)" d="M0,50v385" style="stroke: rgb(0, 0, 0); stroke-opacity: 0.05; stroke-width: 1px;"/><path class="xgrid crisp" transform="translate(464.4,0)" d="M0,50v385" style="stroke: rgb(0, 0, 0); stroke-opacity: 0.05; stroke-width: 1px;"/><path class="xgrid crisp" transform="translate(666.6,0)" d="M0,50v385" style="stroke: rgb(0, 0, 0); stroke-opacity: 0.05; stroke-width: 1px;"/><path class="xgrid crisp" transform="translate(868.8,0)" d="M0,50v385" style="stroke: rgb(0, 0, 0); stroke-opacity: 0.05; stroke-width: 1px;"/></g><g class="y"><path class="ygrid crisp" transform="translate(0,388.89)" d="M60,0h1011" style="stroke: rgb(0, 0, 0); stroke-opacity: 0.05; stroke-width: 1px;"/><path class="ygrid crisp" transform="translate(0,342.78)" d="M60,0h1011" style="stroke: rgb(0, 0, 0); stroke-opacity: 0.05; stroke-width: 1px;"/><path class="ygrid crisp" transform="translate(0,296.66999999999996)" d="M60,0h1011" style="stroke: rgb(0, 0, 0); stroke-opacity: 0.05; stroke-width: 1px;"/><path class="ygrid crisp" transform="translate(0,250.56)" d="M60,0h1011" style="stroke: rgb(0, 0, 0); stroke-opacity: 0.05; stroke-width: 1px;"/><path class="ygrid crisp" transform="translate(0,204.46)" d="M60,0h1011" style="stroke: rgb(0, 0, 0); stroke-opacity: 0.05; stroke-width: 1px;"/><path class="ygrid crisp" transform="translate(0,158.35)" d="M60,0h1011" style="stroke: rgb(0, 0, 0); stroke-opacity: 0.05; stroke-width: 1px;"/><path class="ygrid crisp" transform="translate(0,112.24000000000001)" d="M60,0h1011" style="stroke: rgb(0, 0, 0); stroke-opacity: 0.05; stroke-width: 1px;"/><path class="ygrid crisp" transform="translate(0,66.13)" d="M60,0h1011" style="stroke: rgb(0, 0, 0); stroke-opacity: 0.05; stroke-width: 1px;"/></g></g><g class="zerolinelayer"><path class="xzl zl crisp" transform="translate(60,0)" d="M0,50v385" style="stroke: rgb(0, 0, 0); stroke-opacity: 0.05; stroke-width: 2px;"/><path class="yzl zl crisp" transform="translate(0,435)" d="M60,0h1011" style="stroke: rgb(0, 0, 0); stroke-opacity: 0.05; stroke-width: 2px;"/></g><g class="layer-between"><g class="shapelayer"/><g class="imagelayer"/></g><path class="xlines-below"/><path class="ylines-below"/><g class="overlines-below"/><g class="xaxislayer-below"/><g class="yaxislayer-below"/><g class="overaxes-below"/><g class="overplot"><g class="xy" transform="translate(60,50)" clip-path="url(#clipbe2832xyplot)"><g class="scatterlayer mlayer"><g class="trace scatter trace623cda" style="stroke-miterlimit: 2; opacity: 1;"><g class="fills"/><g class="errorbars"/><g class="lines"><path class="js-line" d="M10.11,81.33L20.22,79.52L30.33,78.96L40.44,48.36L50.55,49.01L80.88,49.2L90.99,32.39L121.32,32.64L141.54,18.33L242.64,20.13L262.86,20.91L343.74,24.89L363.96,26.43L384.18,27.76L404.4,28.11L444.84,28.13L465.06,29.53L485.28,30.58L505.5,32.54L566.16,38.8L586.38,41.49L687.48,55.33L707.7,57.58L748.14,62.6L768.36,76.45L788.58,67.75L808.8,67.79L889.68,73.01L909.9,74.09L990.78,74.49L1011,73.76" style="vector-effect: none; fill: none; stroke: rgb(92, 184, 92); stroke-opacity: 1; stroke-width: 2px; opacity: 1;"/></g><g class="points"/><g class="text"/></g><g class="trace scatter tracee94a61" style="stroke-miterlimit: 2; opacity: 1;"><g class="fills"/><g class="errorbars"/><g class="lines"><path class="js-line" d="M10.11,83.09L20.22,82.07L30.33,81.88L40.44,50.7L50.55,50.91L80.88,50.6L90.99,34.09L121.32,34.58L141.54,20.61L283.08,24.66L303.3,25.63L384.18,29.75L404.4,31.4L444.84,34.58L465.06,33.16L485.28,32.71L505.5,45.64L525.72,44.53L545.94,39.3L566.16,40.68L586.38,42.89L707.7,58.95L727.92,61.09L849.24,72.77L869.46,73.78L930.12,76.3L950.34,76.67L990.78,76.29L1011,75.25" style="vector-effect: none; fill: none; stroke: rgb(92, 184, 92); stroke-opacity: 1; stroke-width: 2px; opacity: 1;"/></g><g class="points"/><g class="text"/></g><g class="trace scatter trace423088" style="stroke-miterlimit: 2; opacity: 1;"><g class="fills"/><g class="errorbars"/><g class="lines"><path class="js-line" d="M10.11,81.47L20.22,79.74L30.33,79.11L40.44,48.55L50.55,49.13L80.88,49.34L90.99,32.47L121.32,32.88L141.54,18.56L242.64,20.4L262.86,21.24L323.52,24.01L343.74,25.26L384.18,28.22L404.4,28.49L444.84,28.59L465.06,30.08L485.28,31.11L505.5,33.21L566.16,39.4L586.38,42.28L687.48,56.11L707.7,58.43L748.14,63.31L768.36,77.11L788.58,68.36L808.8,68.4L889.68,73.49L909.9,74.61L990.78,74.67L1011,74.05" style="vector-effect: none; fill: none; stroke: rgb(92, 184, 92); stroke-opacity: 1; stroke-width: 2px; opacity: 1;"/></g><g class="points"/><g class="text"/></g><g class="trace scatter trace27f922" style="stroke-miterlimit: 2; opacity: 1;"><g class="fills"/><g class="errorbars"/><g class="lines"><path class="js-line" d="M10.11,83.42L30.33,82.17L40.44,50.94L60.66,51.1L70.77,50.72L80.88,50.73L90.99,34.21L101.1,34.69L121.32,34.85L141.54,20.96L161.76,21.58L222.42,22.99L242.64,23.63L303.3,25.98L323.52,26.94L384.18,30.35L404.4,32.12L444.84,35.23L465.06,33.63L485.28,33.29L505.5,46.32L525.72,45.32L545.94,39.99L566.16,41.33L586.38,43.59L687.48,57.71L707.7,59.83L808.8,70.45L829.02,71.91L869.46,74.51L889.68,75.38L930.12,76.81L950.34,77.06L990.78,76.52L1011,75.58" style="vector-effect: none; fill: none; stroke: rgb(92, 184, 92); stroke-opacity: 1; stroke-width: 2px; opacity: 1;"/></g><g class="points"/><g class="text"/></g><g class="trace scatter tracedd4a54" style="stroke-miterlimit: 2; opacity: 1;"><g class="fills"/><g class="errorbars"/><g class="lines"><path class="js-line" d="M10.11,81.43L20.22,79.6L30.33,79.01L40.44,48.5L50.55,49.13L80.88,49.35L90.99,32.47L121.32,32.82L141.54,18.42L242.64,20.24L262.86,21.02L323.52,23.72L343.74,25.16L384.18,27.9L404.4,28.29L444.84,28.27L465.06,29.63L485.28,30.82L505.5,32.79L566.16,39.01L586.38,41.75L687.48,55.36L707.7,57.79L748.14,62.76L768.36,76.53L788.58,67.85L808.8,67.88L889.68,73.08L909.9,74.29L990.78,74.55L1011,73.95" style="vector-effect: none; fill: none; stroke: rgb(92, 184, 92); stroke-opacity: 1; stroke-width: 2px; opacity: 1;"/></g><g class="points"/><g class="text"/></g><g class="trace scatter traceb539dc" style="stroke-miterlimit: 2; opacity: 1;"><g class="fills"/><g class="errorbars"/><g class="lines"><path class="js-line" d="M10.11,83.31L20.22,82.26L30.33,82.1L40.44,50.94L50.55,51.12L80.88,50.78L90.99,34.2L121.32,34.95L141.54,21.02L262.86,24.05L283.08,25L384.18,30.13L404.4,31.85L444.84,34.83L465.06,33.37L485.28,33.12L505.5,45.9L525.72,44.75L545.94,39.42L566.16,40.78L586.38,43.18L687.48,57.17L707.7,59.2L808.8,69.85L829.02,71.31L869.46,74.11L889.68,75.09L950.34,76.92L970.56,76.86L1011,75.15" style="vector-effect: none; fill: none; stroke: rgb(92, 184, 92); stroke-opacity: 1; stroke-width: 2px; opacity: 1;"/></g><g class="points"/><g class="text"/></g><g class="trace scatter trace98de58" style="stroke-miterlimit: 2; opacity: 1;"><g class="fills"/><g class="errorbars"/><g class="lines"><path class="js-line" d="M10.11,86.09L20.22,84.62L30.33,84.68L40.44,52.45L50.55,53.26L70.77,53.32L80.88,53.35L90.99,37.4L101.1,38L121.32,38.32L141.54,25.72L222.42,26.81L242.64,27.55L343.74,32.32L363.96,33.41L444.84,38.94L465.06,39.23L505.5,41.04L525.72,43.13L566.16,45.34L586.38,47.67L647.04,56.24L667.26,58.99L707.7,63.52L727.92,66.35L748.14,68.38L768.36,83.27L788.58,74.03L808.8,73.11L909.9,78.72L930.12,78.49L990.78,77.28L1011,75.6" style="vector-effect: none; fill: none; stroke: rgb(92, 184, 92); stroke-opacity: 1; stroke-width: 2px; opacity: 1;"/></g><g class="points"/><g class="text"/></g><g class="trace scatter traceb35611" style="stroke-miterlimit: 2; opacity: 1;"><g class="fills"/><g class="errorbars"/><g class="lines"><path class="js-line" d="M10.11,90.73L20.22,89.71L30.33,89.51L40.44,57.03L50.55,56.84L80.88,56.53L90.99,41.49L101.1,42.11L121.32,42.29L141.54,30.31L161.76,30.81L242.64,32.94L262.86,33.65L404.4,41.78L424.62,43.76L444.84,46.25L465.06,44.11L485.28,44.31L505.5,57.45L525.72,56.57L545.94,48.98L566.16,49.67L586.38,51.99L647.04,60.34L667.26,63.29L707.7,67.96L727.92,69.96L829.02,79.44L849.24,80.92L909.9,83.65L930.12,83.9L970.56,83.41L990.78,81.73L1011,78.31" style="vector-effect: none; fill: none; stroke: rgb(92, 184, 92); stroke-opacity: 1; stroke-width: 2px; opacity: 1;"/></g><g class="points"/><g class="text"/></g><g class="trace scatter tracee98ba1" style="stroke-miterlimit: 2; opacity: 1;"><g class="fills"/><g class="errorbars"/><g class="lines"><path class="js-line" d="M10.11,86.37L20.22,84.79L30.33,85.08L40.44,52.82L50.55,53.8L60.66,54.25L70.77,53.92L80.88,53.95L90.99,38.1L101.1,38.85L121.32,39.13L141.54,26.6L161.76,26.99L202.2,27.15L222.42,27.79L262.86,29.18L283.08,30.41L343.74,33.11L363.96,34.1L444.84,39.67L465.06,39.91L505.5,41.57L525.72,43.35L566.16,45.36L586.38,47.69L626.82,53.27L647.04,56.13L748.14,68.16L768.36,83.36L788.58,74.01L808.8,73.12L909.9,78.92L930.12,78.8L990.78,77.81L1011,76.48" style="vector-effect: none; fill: none; stroke: rgb(92, 184, 92); stroke-opacity: 1; stroke-width: 2px; opacity: 1;"/></g><g class="points"/><g class="text"/></g><g class="trace scatter trace09f1d7" style="stroke-miterlimit: 2; opacity: 1;"><g class="fills"/><g class="errorbars"/><g class="lines"><path class="js-line" d="M10.11,90.77L20.22,89.46L30.33,89.44L40.44,57.01L50.55,57.08L80.88,56.7L90.99,41.58L101.1,42.32L121.32,42.54L141.54,30.62L161.76,31.1L242.64,33.15L262.86,33.77L404.4,41.54L424.62,43.65L444.84,45.76L465.06,43.53L485.28,43.69L505.5,56.75L525.72,55.91L545.94,48.06L566.16,48.61L586.38,50.92L707.7,66.61L727.92,68.62L829.02,78.57L849.24,80.2L909.9,82.99L930.12,83.25L970.56,82.79L990.78,81.52L1011,79.75" style="vector-effect: none; fill: none; stroke: rgb(92, 184, 92); stroke-opacity: 1; stroke-width: 2px; opacity: 1;"/></g><g class="points"/><g class="text"/></g><g class="trace scatter trace58100c" style="stroke-miterlimit: 2; opacity: 1;"><g class="fills"/><g class="errorbars"/><g class="lines"><path class="js-line" d="M10.11,86.18L20.22,84.57L30.33,84.71L40.44,52.55L50.55,53.53L70.77,53.57L80.88,53.61L90.99,37.68L101.1,38.38L121.32,38.67L141.54,26.07L222.42,27.4L242.64,27.96L363.96,33.86L384.18,35.27L444.84,39.61L465.06,39.77L505.5,41.7L525.72,43.67L566.16,45.91L586.38,48.28L626.82,53.86L647.04,56.91L687.48,61.64L707.7,63.94L727.92,66.77L748.14,68.82L768.36,83.94L788.58,74.45L808.8,73.53L829.02,74.64L869.46,77.02L889.68,77.99L909.9,79.12L930.12,78.8L990.78,77.56L1011,75.8" style="vector-effect: none; fill: none; stroke: rgb(92, 184, 92); stroke-opacity: 1; stroke-width: 2px; opacity: 1;"/></g><g class="points"/><g class="text"/></g><g class="trace scatter trace539289" style="stroke-miterlimit: 2; opacity: 1;"><g class="fills"/><g class="errorbars"/><g class="lines"><path class="js-line" d="M10.11,90.27L20.22,89.05L30.33,88.8L40.44,56.4L50.55,56.4L80.88,56L90.99,40.96L101.1,41.53L121.32,41.69L141.54,29.51L161.76,30.07L242.64,32.37L262.86,32.96L303.3,35.21L323.52,36.06L384.18,39.57L404.4,41.26L444.84,45.61L465.06,43.47L485.28,43.79L505.5,56.94L525.72,56.21L545.94,48.58L566.16,49.23L586.38,51.52L687.48,65.53L707.7,67.56L808.8,77.47L829.02,79.02L889.68,82.51L909.9,83.35L970.56,83.04L990.78,81.48L1011,78.14" style="vector-effect: none; fill: none; stroke: rgb(92, 184, 92); stroke-opacity: 1; stroke-width: 2px; opacity: 1;"/></g><g class="points"/><g class="text"/></g></g></g></g><path class="xlines-above crisp" d="M0,0" style="fill: none;"/><path class="ylines-above crisp" d="M0,0" style="fill: none;"/><g class="overlines-above"/><g class="xaxislayer-above"><g class="xtick"><text text-anchor="middle" x="0" y="451" transform="translate(60,0)" style="font-family: 'Lucida Grande', 'Open Sans', verdana, arial, sans-serif; font-size: 10px; fill: rgb(0, 0, 0); fill-opacity: 1; white-space: pre; opacity: 1;">0 bp</text></g><g class="xtick"><text text-anchor="middle" x="0" y="451" style="font-family: 'Lucida Grande', 'Open Sans', verdana, arial, sans-serif; font-size: 10px; fill: rgb(0, 0, 0); fill-opacity: 1; white-space: pre; opacity: 1;" transform="translate(262.2,0)">20 bp</text></g><g class="xtick"><text text-anchor="middle" x="0" y="451" style="font-family: 'Lucida Grande', 'Open Sans', verdana, arial, sans-serif; font-size: 10px; fill: rgb(0, 0, 0); fill-opacity: 1; white-space: pre; opacity: 1;" transform="translate(464.4,0)">40 bp</text></g><g class="xtick"><text text-anchor="middle" x="0" y="451" style="font-family: 'Lucida Grande', 'Open Sans', verdana, arial, sans-serif; font-size: 10px; fill: rgb(0, 0, 0); fill-opacity: 1; white-space: pre; opacity: 1;" transform="translate(666.6,0)">60 bp</text></g><g class="xtick"><text text-anchor="middle" x="0" y="451" style="font-family: 'Lucida Grande', 'Open Sans', verdana, arial, sans-serif; font-size: 10px; fill: rgb(0, 0, 0); fill-opacity: 1; white-space: pre; opacity: 1;" transform="translate(868.8,0)">80 bp</text></g><g class="xtick"><text text-anchor="middle" x="0" y="451" style="font-family: 'Lucida Grande', 'Open Sans', verdana, arial, sans-serif; font-size: 10px; fill: rgb(0, 0, 0); fill-opacity: 1; white-space: pre; opacity: 1;" transform="translate(1071,0)">100 bp</text></g></g><g class="yaxislayer-above"><g class="ytick"><text text-anchor="end" x="54" y="3.5" transform="translate(0,435)" style="font-family: 'Lucida Grande', 'Open Sans', verdana, arial, sans-serif; font-size: 10px; fill: rgb(0, 0, 0); fill-opacity: 1; white-space: pre; opacity: 1;">0</text></g><g class="ytick"><text text-anchor="end" x="54" y="3.5" style="font-family: 'Lucida Grande', 'Open Sans', verdana, arial, sans-serif; font-size: 10px; fill: rgb(0, 0, 0); fill-opacity: 1; white-space: pre; opacity: 1;" transform="translate(0,388.89)">5</text></g><g class="ytick"><text text-anchor="end" x="54" y="3.5" style="font-family: 'Lucida Grande', 'Open Sans', verdana, arial, sans-serif; font-size: 10px; fill: rgb(0, 0, 0); fill-opacity: 1; white-space: pre; opacity: 1;" transform="translate(0,342.78)">10</text></g><g class="ytick"><text text-anchor="end" x="54" y="3.5" style="font-family: 'Lucida Grande', 'Open Sans', verdana, arial, sans-serif; font-size: 10px; fill: rgb(0, 0, 0); fill-opacity: 1; white-space: pre; opacity: 1;" transform="translate(0,296.66999999999996)">15</text></g><g class="ytick"><text text-anchor="end" x="54" y="3.5" style="font-family: 'Lucida Grande', 'Open Sans', verdana, arial, sans-serif; font-size: 10px; fill: rgb(0, 0, 0); fill-opacity: 1; white-space: pre; opacity: 1;" transform="translate(0,250.56)">20</text></g><g class="ytick"><text text-anchor="end" x="54" y="3.5" style="font-family: 'Lucida Grande', 'Open Sans', verdana, arial, sans-serif; font-size: 10px; fill: rgb(0, 0, 0); fill-opacity: 1; white-space: pre; opacity: 1;" transform="translate(0,204.46)">25</text></g><g class="ytick"><text text-anchor="end" x="54" y="3.5" style="font-family: 'Lucida Grande', 'Open Sans', verdana, arial, sans-serif; font-size: 10px; fill: rgb(0, 0, 0); fill-opacity: 1; white-space: pre; opacity: 1;" transform="translate(0,158.35)">30</text></g><g class="ytick"><text text-anchor="end" x="54" y="3.5" style="font-family: 'Lucida Grande', 'Open Sans', verdana, arial, sans-serif; font-size: 10px; fill: rgb(0, 0, 0); fill-opacity: 1; white-space: pre; opacity: 1;" transform="translate(0,112.24000000000001)">35</text></g><g class="ytick"><text text-anchor="end" x="54" y="3.5" style="font-family: 'Lucida Grande', 'Open Sans', verdana, arial, sans-serif; font-size: 10px; fill: rgb(0, 0, 0); fill-opacity: 1; white-space: pre; opacity: 1;" transform="translate(0,66.13)">40</text></g></g><g class="overaxes-above"/></g></g><g class="polarlayer"/><g class="smithlayer"/><g class="ternarylayer"/><g class="geolayer"/><g class="funnelarealayer"/><g class="pielayer"/><g class="iciclelayer"/><g class="treemaplayer"/><g class="sunburstlayer"/><g class="glimages"/><defs id="topdefs-be2832"><g class="clips"/></defs><g class="layer-above"><g class="imagelayer"/><g class="shapelayer"/></g><g class="infolayer"><g class="g-gtitle"><text class="gtitle" x="550" y="25" text-anchor="middle" dy="0em" style="opacity: 1; font-family: 'Lucida Grande', 'Open Sans', verdana, arial, sans-serif; font-size: 20px; fill: rgb(42, 63, 95); fill-opacity: 1; white-space: pre;"><tspan class="line" dy="0em" x="550" y="25">FastQC: Mean Quality Scores</tspan><tspan class="line" dy="1.3em" x="550" y="25">​<tspan style="font-size:70%" dy="-0.6em">12 samples</tspan><tspan dy="0.42em">​</tspan></tspan></text></g><g class="g-xtitle"><text class="xtitle" x="565.5" y="472.3" text-anchor="middle" style="opacity: 0.3; font-family: 'Lucida Grande', 'Open Sans', verdana, arial, sans-serif; font-size: 14px; fill: rgb(0, 0, 0); fill-opacity: 1; white-space: pre;">Position (bp)</text></g><g class="g-ytitle"><text class="ytitle" transform="rotate(-90,26.865625,242.5)" x="26.865625" y="242.5" text-anchor="middle" style="opacity: 0.3; font-family: 'Lucida Grande', 'Open Sans', verdana, arial, sans-serif; font-size: 14px; fill: rgb(0, 0, 0); fill-opacity: 1; white-space: pre;">Phred Score</text></g></g></svg>