<svg class="main-svg" xmlns="http://www.w3.org/2000/svg" xmlns:xlink="http://www.w3.org/1999/xlink" width="2200" height="1000" style="" viewBox="0 0 1100 500"><rect x="0" y="0" width="1100" height="500" style="fill: rgb(255, 255, 255); fill-opacity: 1;"/><defs id="defs-98e1b0"><g class="clips"><clipPath id="clip98e1b0xyplot" class="plotclip"><rect width="1012" height="385"/></clipPath><clipPath class="axesclip" id="clip98e1b0x"><rect x="62" y="0" width="1012" height="500"/></clipPath><clipPath class="axesclip" id="clip98e1b0y"><rect x="0" y="50" width="1100" height="385"/></clipPath><clipPath class="axesclip" id="clip98e1b0xy"><rect x="62" y="50" width="1012" height="385"/></clipPath></g><g class="gradients"/><g class="patterns"/></defs><g class="bglayer"/><g class="layer-below"><g class="imagelayer"/><g class="shapelayer"/></g><g class="cartesianlayer"><g class="subplot xy"><g class="layer-subplot"><g class="shapelayer"/><g class="imagelayer"/></g><g class="minor-gridlayer"><g class="x"/><g class="y"/></g><g class="gridlayer"><g class="x"><path class="xgrid crisp" transform="translate(264.4,0)" d="M0,50v385" style="stroke: rgb(0, 0, 0); stroke-opacity: 0.05; stroke-width: 1px;"/><path class="xgrid crisp" transform="translate(466.8,0)" d="M0,50v385" style="stroke: rgb(0, 0, 0); stroke-opacity: 0.05; stroke-width: 1px;"/><path class="xgrid crisp" transform="translate(669.2,0)" d="M0,50v385" style="stroke: rgb(0, 0, 0); stroke-opacity: 0.05; stroke-width: 1px;"/><path class="xgrid crisp" transform="translate(871.6,0)" d="M0,50v385" style="stroke: rgb(0, 0, 0); stroke-opacity: 0.05; stroke-width: 1px;"/></g><g class="y"><path class="ygrid crisp" transform="translate(0,389.96)" d="M62,0h1012" style="stroke: rgb(0, 0, 0); stroke-opacity: 0.05; stroke-width: 1px;"/><path class="ygrid crisp" transform="translate(0,344.91)" d="M62,0h1012" style="stroke: rgb(0, 0, 0); stroke-opacity: 0.05; stroke-width: 1px;"/><path class="ygrid crisp" transform="translate(0,299.87)" d="M62,0h1012" style="stroke: rgb(0, 0, 0); stroke-opacity: 0.05; stroke-width: 1px;"/><path class="ygrid crisp" transform="translate(0,254.83)" d="M62,0h1012" style="stroke: rgb(0, 0, 0); stroke-opacity: 0.05; stroke-width: 1px;"/><path class="ygrid crisp" transform="translate(0,209.78)" d="M62,0h1012" style="stroke: rgb(0, 0, 0); stroke-opacity: 0.05; stroke-width: 1px;"/><path class="ygrid crisp" transform="translate(0,164.74)" d="M62,0h1012" style="stroke: rgb(0, 0, 0); stroke-opacity: 0.05; stroke-width: 1px;"/><path class="ygrid crisp" transform="translate(0,119.7)" d="M62,0h1012" style="stroke: rgb(0, 0, 0); stroke-opacity: 0.05; stroke-width: 1px;"/><path class="ygrid crisp" transform="translate(0,74.65)" d="M62,0h1012" style="stroke: rgb(0, 0, 0); stroke-opacity: 0.05; stroke-width: 1px;"/></g></g><g class="zerolinelayer"><path class="xzl zl crisp" transform="translate(62,0)" d="M0,50v385" style="stroke: rgb(0, 0, 0); stroke-opacity: 0.05; stroke-width: 2px;"/><path class="yzl zl crisp" transform="translate(0,435)" d="M62,0h1012" style="stroke: rgb(0, 0, 0); stroke-opacity: 0.05; stroke-width: 2px;"/></g><g class="layer-between"><g class="shapelayer"/><g class="imagelayer"/></g><path class="xlines-below"/><path class="ylines-below"/><g class="overlines-below"/><g class="xaxislayer-below"/><g class="yaxislayer-below"/><g class="overaxes-below"/><g class="overplot"><g class="xy" transform="translate(62,50)" clip-path="url(#clip98e1b0xyplot)"><g class="scatterlayer mlayer"><g class="trace scatter trace810e50" style="stroke-miterlimit: 2; opacity: 1;"><g class="fills"/><g class="errorbars"/><g class="lines"><path class="js-line" d="M0,336.03L40.48,288.35L50.6,279.88L60.72,269.46L70.84,260.27L80.96,250.44L91.08,245.93L101.2,243.98L111.32,240.18L131.56,231.85L141.68,229.2L151.8,225.25L161.92,222.54L182.16,221.49L192.28,221.94L212.52,222.38L222.64,220.81L242.88,217.52L253,219.96L263.12,220.69L273.24,223.8L283.36,227.49L293.48,228.32L303.6,229.99L313.72,227.78L323.84,226.93L333.96,226.9L344.08,225.56L354.2,222.2L374.44,216L384.56,211.88L404.8,215.14L414.92,212.68L425.04,215L435.16,215.64L455.4,220.08L465.52,220.45L475.64,219.46L485.76,223.53L495.88,222.86L506,223.16L516.12,225.91L526.24,226.41L536.36,225.37L546.48,228.36L556.6,232.93L566.72,233.85L576.84,234.76L586.96,234.84L607.2,233.01L617.32,234.15L627.44,236.13L637.56,235.92L647.68,232.6L657.8,228.38L678.04,231.12L688.16,231.28L698.28,234.33L708.4,236.19L748.88,237.54L759,239.6L769.12,241.54L779.24,244.8L799.48,248.85L809.6,253.07L819.72,262.69L829.84,268.56L839.96,272.62L850.08,274.57L860.2,275.35L870.32,278.11L880.44,281.86L890.56,286.97L910.8,300.56L920.92,305.69L941.16,323.1L951.28,331.99L961.4,339.07L971.52,348L981.64,357.43L991.76,367.95L1001.88,379.87" style="vector-effect: none; fill: none; stroke: rgb(124, 181, 236); stroke-opacity: 1; stroke-width: 2px; opacity: 1;"/></g><g class="points"/><g class="text"/></g><g class="trace scatter trace95b500" style="stroke-miterlimit: 2; opacity: 1;"><g class="fills"/><g class="errorbars"/><g class="lines"><path class="js-line" d="M0,324.7L40.48,265.84L50.6,254.29L70.84,229.48L80.96,218.4L91.08,212.98L101.2,210.28L121.44,201.28L131.56,196.54L161.92,184.96L172.04,184.45L182.16,185.76L192.28,188.04L212.52,186.23L222.64,184.38L232.76,182.18L242.88,178.81L253,182.23L263.12,182.9L273.24,186.05L283.36,190.11L293.48,190.07L303.6,191.56L313.72,189.12L323.84,187.49L333.96,187.9L344.08,186.43L354.2,181.6L364.32,177.82L374.44,174.43L384.56,169.41L404.8,174.95L414.92,172.38L425.04,175.09L435.16,176.79L445.28,179.34L455.4,181.04L475.64,180L485.76,185.42L506,186.89L516.12,190.68L526.24,191.42L536.36,189.81L546.48,194L556.6,199.53L576.84,202.17L586.96,202.14L597.08,201.87L607.2,200.53L617.32,202.48L627.44,206.48L637.56,208.07L647.68,204.8L657.8,200.56L667.92,201.42L688.16,204.65L698.28,207.71L708.4,209.97L718.52,209.01L738.76,209.31L748.88,209.74L769.12,214.16L779.24,217.75L809.6,226.27L819.72,236.15L829.84,242.16L839.96,246.74L850.08,249.99L860.2,250.84L870.32,254.59L880.44,259.31L890.56,265.1L900.68,273.25L920.92,286.52L931.04,297.37L981.64,353.04L991.76,365.49L1001.88,379.01" style="vector-effect: none; fill: none; stroke: rgb(67, 67, 72); stroke-opacity: 1; stroke-width: 2px; opacity: 1;"/></g><g class="points"/><g class="text"/></g><g class="trace scatter trace38744f" style="stroke-miterlimit: 2; opacity: 1;"><g class="fills"/><g class="errorbars"/><g class="lines"><path class="js-line" d="M0,332.49L40.48,278.65L50.6,269.51L70.84,246.59L80.96,237.28L91.08,232.12L101.2,229.11L111.32,223.96L121.44,220.49L131.56,216.73L141.68,213.89L161.92,207.29L172.04,206.36L182.16,206.42L192.28,207.93L212.52,208.08L222.64,206.46L232.76,204.35L242.88,201.31L253,204.2L263.12,205.39L283.36,213.76L293.48,214.93L303.6,216L313.72,213.87L323.84,212.02L333.96,211.71L344.08,209.87L354.2,205.75L374.44,198.63L384.56,194.16L394.68,196.19L404.8,199.24L414.92,196.24L425.04,199.13L445.28,202.06L455.4,203.23L475.64,202.78L485.76,207.33L506,209.15L516.12,212.24L526.24,212.34L536.36,210.4L546.48,213.47L556.6,218.57L576.84,221.01L586.96,220.2L597.08,219.64L607.2,218.08L617.32,218.22L627.44,220.13L637.56,221.61L647.68,218.96L657.8,215.13L667.92,215.85L688.16,218.11L698.28,222.2L708.4,224.82L718.52,224.98L738.76,226.12L748.88,226.24L769.12,232.46L779.24,236.02L799.48,239.63L809.6,243.39L819.72,252.97L829.84,258.92L839.96,263.53L850.08,266.18L860.2,266.68L870.32,270.79L890.56,278.48L900.68,285.27L920.92,297.66L931.04,307L951.28,326.83L961.4,335L981.64,355.2L991.76,366.61L1001.88,379.32" style="vector-effect: none; fill: none; stroke: rgb(144, 237, 125); stroke-opacity: 1; stroke-width: 2px; opacity: 1;"/></g><g class="points"/><g class="text"/></g><g class="trace scatter trace99c681" style="stroke-miterlimit: 2; opacity: 1;"><g class="fills"/><g class="errorbars"/><g class="lines"><path class="js-line" d="M0,276.58L10.12,253.89L20.24,229.08L40.48,181.89L50.6,165.49L60.72,145.68L70.84,128.53L80.96,110.02L91.08,99.77L101.2,94.63L111.32,91.11L121.44,77.65L131.56,65.44L141.68,58.4L151.8,49.62L161.92,44.03L172.04,44.11L182.16,35.58L192.28,35.95L202.4,31.77L212.52,32.64L222.64,34.22L232.76,34.39L242.88,30.53L253,35.09L263.12,36.12L273.24,40.78L283.36,43.87L293.48,41.83L303.6,39.4L313.72,38.07L323.84,39.68L333.96,36.16L344.08,35.17L354.2,31.46L384.56,19.25L394.68,22.11L404.8,27.02L414.92,24.57L425.04,30.58L435.16,31.61L445.28,34.63L455.4,34.9L465.52,36.89L475.64,34.17L485.76,37.06L495.88,35.71L506,35.56L516.12,37.94L526.24,35.79L536.36,35.21L546.48,38.24L556.6,45.74L576.84,52.89L586.96,53.2L597.08,53.43L607.2,54.66L617.32,55.38L627.44,60.77L637.56,62.5L647.68,60.85L657.8,57.3L667.92,57.61L688.16,57.92L698.28,62.06L708.4,64.46L718.52,61.01L728.64,59.43L738.76,61.52L759,65.71L769.12,65.54L799.48,80.71L809.6,89.38L829.84,112.85L839.96,124.76L850.08,131.38L860.2,129.65L870.32,133.65L880.44,145.48L890.56,159L900.68,178.89L910.8,198.7L920.92,216.17L941.16,258.63L951.28,278.21L961.4,292.81L971.52,315L981.64,332.28L991.76,352.43L1001.88,374.14" style="vector-effect: none; fill: none; stroke: rgb(247, 163, 92); stroke-opacity: 1; stroke-width: 2px; opacity: 1;"/></g><g class="points"/><g class="text"/></g><g class="trace scatter trace412e24" style="stroke-miterlimit: 2; opacity: 1;"><g class="fills"/><g class="errorbars"/><g class="lines"><path class="js-line" d="M0,313.62L20.24,280.66L30.36,264.25L40.48,246.68L50.6,235.39L70.84,209.12L80.96,196.4L91.08,189.67L101.2,187.03L111.32,184.03L121.44,176.66L131.56,170.07L141.68,167.04L151.8,161.53L161.92,158.51L172.04,157.5L182.16,151.21L192.28,151.56L202.4,149.54L212.52,151.69L222.64,154.77L232.76,154.67L242.88,152.3L263.12,157.63L273.24,162.26L283.36,164.05L293.48,162.06L313.72,159.49L323.84,160.44L333.96,159.31L344.08,159.13L364.32,155.3L374.44,152.64L384.56,148.41L394.68,149.74L404.8,152.62L414.92,149.55L425.04,153.06L435.16,153.75L455.4,156.26L465.52,157.04L475.64,157.09L485.76,160.1L495.88,158.59L506,159.87L516.12,163.16L526.24,161.61L536.36,160.15L546.48,163.57L556.6,167.93L566.72,169.26L576.84,171.51L586.96,172.47L607.2,171.24L617.32,170.46L627.44,171.52L637.56,170.94L647.68,168.67L657.8,160.67L667.92,161.25L678.04,160.69L688.16,159.96L698.28,163.96L708.4,166.39L718.52,165.07L728.64,164.23L738.76,166.37L748.88,170.5L759,173.14L769.12,173.88L779.24,176.62L789.36,178.91L799.48,183.58L809.6,189.16L819.72,199.44L829.84,207.52L839.96,213.4L850.08,216.48L860.2,215.41L870.32,219.56L880.44,227.49L890.56,237.36L900.68,250.06L910.8,263.83L920.92,274.43L941.16,302.23L951.28,315.31L961.4,324.35L971.52,338.38L981.64,350.27L991.76,363.34L1001.88,377.84" style="vector-effect: none; fill: none; stroke: rgb(128, 133, 233); stroke-opacity: 1; stroke-width: 2px; opacity: 1;"/></g><g class="points"/><g class="text"/></g><g class="trace scatter trace7b4d48" style="stroke-miterlimit: 2; opacity: 1;"><g class="fills"/><g class="errorbars"/><g class="lines"><path class="js-line" d="M0,293.55L10.12,274.8L20.24,253.82L40.48,212.77L50.6,198.96L60.72,182.67L70.84,167.9L80.96,153.53L91.08,145.54L101.2,141.5L111.32,138.48L121.44,127.86L131.56,118.92L141.68,113.91L151.8,107.24L161.92,104.41L172.04,104.26L182.16,97.63L192.28,98.24L202.4,95.01L212.52,96.77L222.64,99.48L232.76,100.66L242.88,97.05L253,100.09L263.12,102.58L273.24,108.98L283.36,112.38L293.48,110.14L313.72,104.33L323.84,104.73L344.08,100.4L354.2,98.17L374.44,91.56L384.56,88.32L394.68,90.3L404.8,93.68L414.92,90.69L425.04,95.32L435.16,95.41L445.28,97.46L455.4,99.88L465.52,101.38L475.64,100.23L485.76,104.4L495.88,102.66L506,103.78L516.12,106.96L526.24,104.45L536.36,103.44L546.48,105.44L556.6,110.24L566.72,111.92L576.84,116.16L586.96,117.5L617.32,118.79L627.44,122L637.56,121.79L647.68,119.4L657.8,114.03L667.92,114.88L678.04,113.57L688.16,113.06L698.28,116.7L708.4,118.93L728.64,115.29L738.76,116.37L759,121.89L769.12,122.83L779.24,127.55L789.36,131.12L799.48,135.62L809.6,141.79L819.72,151.14L829.84,159.4L839.96,168.15L850.08,174.01L860.2,173.88L870.32,176.7L880.44,187.31L890.56,199.91L910.8,233.22L920.92,245.97L951.28,295.47L961.4,307.44L971.52,326.4L981.64,341.23L991.76,357.75L1001.88,375.96" style="vector-effect: none; fill: none; stroke: rgb(241, 92, 128); stroke-opacity: 1; stroke-width: 2px; opacity: 1;"/></g><g class="points"/><g class="text"/></g></g></g></g><path class="xlines-above crisp" d="M0,0" style="fill: none;"/><path class="ylines-above crisp" d="M0,0" style="fill: none;"/><g class="overlines-above"/><g class="xaxislayer-above"><g class="xtick"><text text-anchor="middle" x="0" y="451" transform="translate(62,0)" style="font-family: 'Lucida Grande', 'Open Sans', verdana, arial, sans-serif; font-size: 10px; fill: rgb(0, 0, 0); fill-opacity: 1; white-space: pre; opacity: 1;">0%</text></g><g class="xtick"><text text-anchor="middle" x="0" y="451" style="font-family: 'Lucida Grande', 'Open Sans', verdana, arial, sans-serif; font-size: 10px; fill: rgb(0, 0, 0); fill-opacity: 1; white-space: pre; opacity: 1;" transform="translate(264.4,0)">20%</text></g><g class="xtick"><text text-anchor="middle" x="0" y="451" style="font-family: 'Lucida Grande', 'Open Sans', verdana, arial, sans-serif; font-size: 10px; fill: rgb(0, 0, 0); fill-opacity: 1; white-space: pre; opacity: 1;" transform="translate(466.8,0)">40%</text></g><g class="xtick"><text text-anchor="middle" x="0" y="451" style="font-family: 'Lucida Grande', 'Open Sans', verdana, arial, sans-serif; font-size: 10px; fill: rgb(0, 0, 0); fill-opacity: 1; white-space: pre; opacity: 1;" transform="translate(669.2,0)">60%</text></g><g class="xtick"><text text-anchor="middle" x="0" y="451" style="font-family: 'Lucida Grande', 'Open Sans', verdana, arial, sans-serif; font-size: 10px; fill: rgb(0, 0, 0); fill-opacity: 1; white-space: pre; opacity: 1;" transform="translate(871.6,0)">80%</text></g><g class="xtick"><text text-anchor="middle" x="0" y="451" style="font-family: 'Lucida Grande', 'Open Sans', verdana, arial, sans-serif; font-size: 10px; fill: rgb(0, 0, 0); fill-opacity: 1; white-space: pre; opacity: 1;" transform="translate(1074,0)">100%</text></g></g><g class="yaxislayer-above"><g class="ytick"><text text-anchor="end" x="56" y="3.5" transform="translate(0,435)" style="font-family: 'Lucida Grande', 'Open Sans', verdana, arial, sans-serif; font-size: 10px; fill: rgb(0, 0, 0); fill-opacity: 1; white-space: pre; opacity: 1;">0</text></g><g class="ytick"><text text-anchor="end" x="56" y="3.5" style="font-family: 'Lucida Grande', 'Open Sans', verdana, arial, sans-serif; font-size: 10px; fill: rgb(0, 0, 0); fill-opacity: 1; white-space: pre; opacity: 1;" transform="translate(0,389.96)">100</text></g><g class="ytick"><text text-anchor="end" x="56" y="3.5" style="font-family: 'Lucida Grande', 'Open Sans', verdana, arial, sans-serif; font-size: 10px; fill: rgb(0, 0, 0); fill-opacity: 1; white-space: pre; opacity: 1;" transform="translate(0,344.91)">200</text></g><g class="ytick"><text text-anchor="end" x="56" y="3.5" style="font-family: 'Lucida Grande', 'Open Sans', verdana, arial, sans-serif; font-size: 10px; fill: rgb(0, 0, 0); fill-opacity: 1; white-space: pre; opacity: 1;" transform="translate(0,299.87)">300</text></g><g class="ytick"><text text-anchor="end" x="56" y="3.5" style="font-family: 'Lucida Grande', 'Open Sans', verdana, arial, sans-serif; font-size: 10px; fill: rgb(0, 0, 0); fill-opacity: 1; white-space: pre; opacity: 1;" transform="translate(0,254.83)">400</text></g><g class="ytick"><text text-anchor="end" x="56" y="3.5" style="font-family: 'Lucida Grande', 'Open Sans', verdana, arial, sans-serif; font-size: 10px; fill: rgb(0, 0, 0); fill-opacity: 1; white-space: pre; opacity: 1;" transform="translate(0,209.78)">500</text></g><g class="ytick"><text text-anchor="end" x="56" y="3.5" style="font-family: 'Lucida Grande', 'Open Sans', verdana, arial, sans-serif; font-size: 10px; fill: rgb(0, 0, 0); fill-opacity: 1; white-space: pre; opacity: 1;" transform="translate(0,164.74)">600</text></g><g class="ytick"><text text-anchor="end" x="56" y="3.5" style="font-family: 'Lucida Grande', 'Open Sans', verdana, arial, sans-serif; font-size: 10px; fill: rgb(0, 0, 0); fill-opacity: 1; white-space: pre; opacity: 1;" transform="translate(0,119.7)">700</text></g><g class="ytick"><text text-anchor="end" x="56" y="3.5" style="font-family: 'Lucida Grande', 'Open Sans', verdana, arial, sans-serif; font-size: 10px; fill: rgb(0, 0, 0); fill-opacity: 1; white-space: pre; opacity: 1;" transform="translate(0,74.65)">800</text></g></g><g class="overaxes-above"/></g></g><g class="polarlayer"/><g class="smithlayer"/><g class="ternarylayer"/><g class="geolayer"/><g class="funnelarealayer"/><g class="pielayer"/><g class="iciclelayer"/><g class="treemaplayer"/><g class="sunburstlayer"/><g class="glimages"/><defs id="topdefs-98e1b0"><g class="clips"/></defs><g class="layer-above"><g class="imagelayer"/><g class="shapelayer"/></g><g class="infolayer"><g class="g-gtitle"><text class="gtitle" x="550" y="25" text-anchor="middle" dy="0em" style="opacity: 1; font-family: 'Lucida Grande', 'Open Sans', verdana, arial, sans-serif; font-size: 20px; fill: rgb(42, 63, 95); fill-opacity: 1; white-space: pre;"><tspan class="line" dy="0em" x="550" y="25">QualiMap: RNAseq: Coverage Profile Along Genes (total)</tspan><tspan class="line" dy="1.3em" x="550" y="25">​<tspan style="font-size:70%" dy="-0.6em">Counts, 6 samples</tspan><tspan dy="0.42em">​</tspan></tspan></text></g><g class="g-xtitle"><text class="xtitle" x="568" y="472.3" text-anchor="middle" style="opacity: 0.3; font-family: 'Lucida Grande', 'Open Sans', verdana, arial, sans-serif; font-size: 14px; fill: rgb(0, 0, 0); fill-opacity: 1; white-space: pre;">Transcript Position (%)</text></g><g class="g-ytitle"><text class="ytitle" transform="rotate(-90,22.50625,242.5)" x="22.50625" y="242.5" text-anchor="middle" style="opacity: 0.3; font-family: 'Lucida Grande', 'Open Sans', verdana, arial, sans-serif; font-size: 14px; fill: rgb(0, 0, 0); fill-opacity: 1; white-space: pre;">Cumulative mapped-read depth</text></g></g></svg>