<svg class="main-svg" xmlns="http://www.w3.org/2000/svg" xmlns:xlink="http://www.w3.org/1999/xlink" width="2200" height="1000" style="" viewBox="0 0 1100 500"><rect x="0" y="0" width="1100" height="500" style="fill: rgb(255, 255, 255); fill-opacity: 1;"/><defs id="defs-b90b8e"><g class="clips"><clipPath id="clipb90b8exyplot" class="plotclip"><rect width="1006" height="385"/></clipPath><clipPath class="axesclip" id="clipb90b8ex"><rect x="68" y="0" width="1006" height="500"/></clipPath><clipPath class="axesclip" id="clipb90b8ey"><rect x="0" y="50" width="1100" height="385"/></clipPath><clipPath class="axesclip" id="clipb90b8exy"><rect x="68" y="50" width="1006" height="385"/></clipPath></g><g class="gradients"/><g class="patterns"/></defs><g class="bglayer"/><g class="layer-below"><g class="imagelayer"/><g class="shapelayer"/></g><g class="cartesianlayer"><g class="subplot xy"><g class="layer-subplot"><g class="shapelayer"/><g class="imagelayer"/></g><g class="minor-gridlayer"><g class="x"/><g class="y"/></g><g class="gridlayer"><g class="x"><path class="xgrid crisp" transform="translate(269.2,0)" d="M0,50v385" style="stroke: rgb(0, 0, 0); stroke-opacity: 0.05; stroke-width: 1px;"/><path class="xgrid crisp" transform="translate(470.4,0)" d="M0,50v385" style="stroke: rgb(0, 0, 0); stroke-opacity: 0.05; stroke-width: 1px;"/><path class="xgrid crisp" transform="translate(671.6,0)" d="M0,50v385" style="stroke: rgb(0, 0, 0); stroke-opacity: 0.05; stroke-width: 1px;"/><path class="xgrid crisp" transform="translate(872.8,0)" d="M0,50v385" style="stroke: rgb(0, 0, 0); stroke-opacity: 0.05; stroke-width: 1px;"/></g><g class="y"><path class="ygrid crisp" transform="translate(0,378.78)" d="M68,0h1006" style="stroke: rgb(0, 0, 0); stroke-opacity: 0.05; stroke-width: 1px;"/><path class="ygrid crisp" transform="translate(0,322.56)" d="M68,0h1006" style="stroke: rgb(0, 0, 0); stroke-opacity: 0.05; stroke-width: 1px;"/><path class="ygrid crisp" transform="translate(0,266.34000000000003)" d="M68,0h1006" style="stroke: rgb(0, 0, 0); stroke-opacity: 0.05; stroke-width: 1px;"/><path class="ygrid crisp" transform="translate(0,210.12)" d="M68,0h1006" style="stroke: rgb(0, 0, 0); stroke-opacity: 0.05; stroke-width: 1px;"/><path class="ygrid crisp" transform="translate(0,153.9)" d="M68,0h1006" style="stroke: rgb(0, 0, 0); stroke-opacity: 0.05; stroke-width: 1px;"/><path class="ygrid crisp" transform="translate(0,97.68)" d="M68,0h1006" style="stroke: rgb(0, 0, 0); stroke-opacity: 0.05; stroke-width: 1px;"/></g></g><g class="zerolinelayer"><path class="xzl zl crisp" transform="translate(68,0)" d="M0,50v385" style="stroke: rgb(0, 0, 0); stroke-opacity: 0.05; stroke-width: 2px;"/><path class="yzl zl crisp" transform="translate(0,435)" d="M68,0h1006" style="stroke: rgb(0, 0, 0); stroke-opacity: 0.05; stroke-width: 2px;"/></g><g class="layer-between"><g class="shapelayer"/><g class="imagelayer"/></g><path class="xlines-below"/><path class="ylines-below"/><g class="overlines-below"/><g class="xaxislayer-below"/><g class="yaxislayer-below"/><g class="overaxes-below"/><g class="overplot"><g class="xy" transform="translate(68,50)" clip-path="url(#clipb90b8exyplot)"><g class="scatterlayer mlayer"><g class="trace scatter trace7693c1" style="stroke-miterlimit: 2; opacity: 1;"><g class="fills"/><g class="errorbars"/><g class="lines"><path class="js-line" d="M0,283.53L40.24,184.73L50.3,167.18L60.36,145.58L70.42,126.54L80.48,106.17L90.54,96.84L100.6,92.79L110.66,84.91L120.72,76.98L130.78,67.67L140.84,62.17L150.9,53.99L160.96,48.37L171.02,46.96L181.08,46.18L191.14,47.13L211.26,48.03L221.32,44.78L231.38,41.9L241.44,37.97L251.5,43.01L261.56,44.54L271.62,50.98L281.68,58.63L291.74,60.33L301.8,63.81L311.86,59.22L321.92,57.46L331.98,57.4L342.04,54.62L352.1,47.67L362.16,41.76L372.22,34.82L382.28,26.29L402.4,33.04L412.46,27.94L422.52,32.74L432.58,34.07L452.7,43.27L462.76,44.03L472.82,41.99L482.88,50.42L492.94,49.02L503,49.65L513.06,55.35L523.12,56.39L533.18,54.22L543.24,60.42L553.3,69.9L563.36,71.81L573.42,73.69L583.48,73.86L603.6,70.06L613.66,72.42L623.72,76.53L633.78,76.1L643.84,69.2L653.9,60.47L674.02,66.15L684.08,66.47L694.14,72.81L704.2,76.66L724.32,77.25L734.38,77.69L744.44,79.44L754.5,83.71L764.56,87.74L774.62,94.49L794.74,102.89L804.8,111.62L814.86,131.55L824.92,143.73L834.98,152.14L845.04,156.18L855.1,157.79L865.16,163.51L875.22,171.28L885.28,181.87L905.4,210.04L915.46,220.65L935.58,256.74L945.64,275.16L955.7,289.83L965.76,308.33L975.82,327.87L985.88,349.67L995.94,374.37" style="vector-effect: none; fill: none; stroke: rgb(124, 181, 236); stroke-opacity: 1; stroke-width: 2px; opacity: 1;"/></g><g class="points"/><g class="text"/></g><g class="trace scatter trace7a17a3" style="stroke-miterlimit: 2; opacity: 1;"><g class="fills"/><g class="errorbars"/><g class="lines"><path class="js-line" d="M0,282.71L30.18,209.02L40.24,182.84L50.3,163.25L60.36,141.67L70.42,121.15L80.48,102.36L90.54,93.17L100.6,88.58L120.72,73.32L130.78,65.27L140.84,58.6L150.9,50.94L160.96,45.62L171.02,44.77L181.08,46.98L191.14,50.85L211.26,47.78L221.32,44.64L231.38,40.91L241.44,35.2L251.5,40.99L261.56,42.13L271.62,47.47L281.68,54.35L291.74,54.29L301.8,56.83L311.86,52.69L321.92,49.92L331.98,50.62L342.04,48.13L352.1,39.92L362.16,33.5L372.22,27.77L382.28,19.25L402.4,28.64L412.46,24.28L422.52,28.87L432.58,31.76L442.64,36.09L452.7,38.97L472.82,37.21L482.88,46.41L492.94,47.24L503,48.9L513.06,55.33L523.12,56.58L533.18,53.86L543.24,60.97L553.3,70.34L563.36,72.93L573.42,74.82L583.48,74.77L593.54,74.32L603.6,72.04L613.66,75.34L623.72,82.13L633.78,84.84L643.84,79.29L653.9,72.1L663.96,73.54L684.08,79.02L694.14,84.21L704.2,88.06L714.26,86.42L734.38,86.93L744.44,87.66L754.5,91L764.56,95.17L774.62,101.25L784.68,105.9L794.74,109.88L804.8,115.72L814.86,132.48L824.92,142.67L834.98,150.43L845.04,155.95L855.1,157.39L865.16,163.76L875.22,171.76L885.28,181.59L895.34,195.4L905.4,207.14L915.46,217.92L925.52,236.33L975.82,330.78L985.88,351.9L995.94,374.84" style="vector-effect: none; fill: none; stroke: rgb(67, 67, 72); stroke-opacity: 1; stroke-width: 2px; opacity: 1;"/></g><g class="points"/><g class="text"/></g><g class="trace scatter traceebce88" style="stroke-miterlimit: 2; opacity: 1;"><g class="fills"/><g class="errorbars"/><g class="lines"><path class="js-line" d="M0,285.26L40.24,183L50.3,165.64L70.42,122.12L80.48,104.42L90.54,94.63L100.6,88.91L110.66,79.13L120.72,72.53L130.78,65.39L140.84,59.99L150.9,53.02L160.96,47.46L171.02,45.7L181.08,45.81L191.14,48.69L201.2,48.73L211.26,48.97L221.32,45.9L231.38,41.88L241.44,36.1L251.5,41.6L261.56,43.86L281.68,59.76L291.74,61.97L301.8,64L311.86,59.96L321.92,56.45L331.98,55.87L342.04,52.36L352.1,44.54L372.22,31.02L382.28,22.53L392.34,26.38L402.4,32.17L412.46,26.48L422.52,31.96L432.58,35.19L442.64,37.52L452.7,39.76L462.76,39.51L472.82,38.9L482.88,47.55L503,51L513.06,56.88L523.12,57.06L533.18,53.37L543.24,59.21L553.3,68.89L563.36,71.73L573.42,73.52L593.54,70.93L603.6,67.96L613.66,68.22L623.72,71.86L633.78,74.66L643.84,69.63L653.9,62.35L663.96,63.72L674.02,65.31L684.08,68.01L694.14,75.79L704.2,80.76L714.26,81.07L724.32,82.69L744.44,83.45L754.5,89.09L774.62,102.04L784.68,106.18L794.74,108.88L804.8,116.04L814.86,134.24L824.92,145.54L834.98,154.29L845.04,159.33L855.1,160.27L865.16,168.07L875.22,176.11L885.28,182.68L905.4,207.96L915.46,219.11L935.58,255.35L945.64,274.51L955.7,290.03L965.76,309.56L975.82,328.4L985.88,350.07L995.94,374.22" style="vector-effect: none; fill: none; stroke: rgb(144, 237, 125); stroke-opacity: 1; stroke-width: 2px; opacity: 1;"/></g><g class="points"/><g class="text"/></g><g class="trace scatter traced7a191" style="stroke-miterlimit: 2; opacity: 1;"><g class="fills"/><g class="errorbars"/><g class="lines"><path class="js-line" d="M0,280.81L10.06,259.01L20.12,235.16L40.24,189.82L50.3,174.05L60.36,155.02L70.42,138.53L80.48,120.74L90.54,110.9L100.6,105.96L110.66,102.58L130.78,77.91L140.84,71.15L150.9,62.7L160.96,57.33L171.02,57.41L181.08,49.21L191.14,49.57L201.2,45.55L231.38,48.07L241.44,44.36L251.5,48.74L261.56,49.73L271.62,54.21L281.68,57.18L311.86,51.6L321.92,53.15L331.98,49.77L342.04,48.82L362.16,41.2L372.22,37.21L382.28,33.52L392.34,36.26L402.4,40.98L412.46,38.63L422.52,44.41L432.58,45.4L442.64,48.3L452.7,48.56L462.76,50.47L472.82,47.86L482.88,50.63L492.94,49.34L503,49.19L513.06,51.48L523.12,49.41L533.18,48.86L543.24,51.76L553.3,58.97L573.42,65.84L583.48,66.14L593.54,66.36L603.6,67.54L613.66,68.24L623.72,73.42L633.78,75.08L643.84,73.5L653.9,70.08L663.96,70.38L684.08,70.68L694.14,74.66L704.2,76.97L714.26,73.65L724.32,72.13L734.38,74.14L754.5,78.16L764.56,78.01L794.74,92.58L804.8,100.91L824.92,123.47L834.98,134.91L845.04,141.28L855.1,139.61L865.16,143.46L875.22,154.82L885.28,167.81L895.34,186.93L905.4,205.97L915.46,222.76L935.58,263.56L945.64,282.38L955.7,296.41L965.76,317.73L975.82,334.34L985.88,353.7L995.94,374.56" style="vector-effect: none; fill: none; stroke: rgb(247, 163, 92); stroke-opacity: 1; stroke-width: 2px; opacity: 1;"/></g><g class="points"/><g class="text"/></g><g class="trace scatter tracecc4ea6" style="stroke-miterlimit: 2; opacity: 1;"><g class="fills"/><g class="errorbars"/><g class="lines"><path class="js-line" d="M0,280.96L20.12,232.92L30.18,209L40.24,183.38L50.3,166.93L70.42,128.64L80.48,110.1L90.54,100.29L100.6,96.44L110.66,92.07L120.72,81.32L130.78,71.72L140.84,67.31L150.9,59.27L160.96,54.87L171.02,53.39L181.08,44.22L191.14,44.74L201.2,41.79L211.26,44.93L221.32,49.41L231.38,49.27L241.44,45.82L261.56,53.58L271.62,60.34L281.68,62.95L291.74,60.05L311.86,56.3L321.92,57.69L331.98,56.03L342.04,55.77L362.16,50.18L372.22,46.31L382.28,40.15L392.34,42.09L402.4,46.29L412.46,41.81L422.52,46.93L432.58,47.94L442.64,50.15L452.7,51.59L462.76,52.72L472.82,52.8L482.88,57.19L492.94,54.98L503,56.85L513.06,61.64L533.18,57.26L543.24,62.25L553.3,68.6L563.36,70.53L573.42,73.82L583.48,75.21L603.6,73.42L613.66,72.29L623.72,73.83L633.78,72.98L643.84,69.68L653.9,58.02L663.96,58.86L674.02,58.05L684.08,56.98L694.14,62.82L704.2,66.36L714.26,64.42L724.32,63.2L734.38,66.33L744.44,72.34L754.5,76.19L764.56,77.27L774.62,81.27L784.68,84.61L794.74,91.41L804.8,99.54L814.86,114.53L824.92,126.3L834.98,134.87L845.04,139.37L855.1,137.81L865.16,143.85L875.22,155.42L885.28,169.8L895.34,188.32L905.4,208.38L915.46,223.83L925.52,245.01L935.58,264.36L945.64,283.41L955.7,296.6L965.76,317.05L975.82,334.38L985.88,353.43L995.94,374.56" style="vector-effect: none; fill: none; stroke: rgb(128, 133, 233); stroke-opacity: 1; stroke-width: 2px; opacity: 1;"/></g><g class="points"/><g class="text"/></g><g class="trace scatter trace2f4355" style="stroke-miterlimit: 2; opacity: 1;"><g class="fills"/><g class="errorbars"/><g class="lines"><path class="js-line" d="M0,277.77L10.06,255.78L20.12,231.18L40.24,183.05L50.3,166.86L60.36,147.76L70.42,130.44L80.48,113.59L90.54,104.22L100.6,99.49L110.66,95.95L120.72,83.49L130.78,73.01L140.84,67.14L150.9,59.31L160.96,55.99L171.02,55.82L181.08,48.05L191.14,48.76L201.2,44.97L211.26,47.03L221.32,50.21L231.38,51.6L241.44,47.37L251.5,50.94L261.56,53.85L271.62,61.36L281.68,65.34L291.74,62.71L301.8,58.9L311.86,55.9L321.92,56.38L331.98,53.45L352.1,48.67L362.16,44.48L382.28,37.13L392.34,39.45L402.4,43.42L412.46,39.91L422.52,45.34L432.58,45.44L462.76,52.44L472.82,51.1L482.88,55.98L492.94,53.94L503,55.25L513.06,58.99L523.12,56.04L533.18,54.86L543.24,57.21L553.3,62.83L563.36,64.8L573.42,69.77L583.48,71.35L593.54,72.04L613.66,72.85L623.72,76.62L633.78,76.37L643.84,73.57L653.9,67.28L663.96,68.27L674.02,66.73L684.08,66.13L694.14,70.4L704.2,73.02L724.32,68.76L734.38,70.01L754.5,76.5L764.56,77.59L774.62,83.12L784.68,87.32L794.74,92.59L804.8,99.82L814.86,110.79L824.92,120.47L834.98,130.74L845.04,137.61L855.1,137.45L865.16,140.76L875.22,153.2L885.28,167.98L905.4,207.03L915.46,221.98L945.64,280.02L955.7,294.06L965.76,316.29L975.82,333.68L985.88,353.04L995.94,374.41" style="vector-effect: none; fill: none; stroke: rgb(241, 92, 128); stroke-opacity: 1; stroke-width: 2px; opacity: 1;"/></g><g class="points"/><g class="text"/></g></g></g></g><path class="xlines-above crisp" d="M0,0" style="fill: none;"/><path class="ylines-above crisp" d="M0,0" style="fill: none;"/><g class="overlines-above"/><g class="xaxislayer-above"><g class="xtick"><text text-anchor="middle" x="0" y="451" transform="translate(68,0)" style="font-family: 'Lucida Grande', 'Open Sans', verdana, arial, sans-serif; font-size: 10px; fill: rgb(0, 0, 0); fill-opacity: 1; white-space: pre; opacity: 1;">0%</text></g><g class="xtick"><text text-anchor="middle" x="0" y="451" style="font-family: 'Lucida Grande', 'Open Sans', verdana, arial, sans-serif; font-size: 10px; fill: rgb(0, 0, 0); fill-opacity: 1; white-space: pre; opacity: 1;" transform="translate(269.2,0)">20%</text></g><g class="xtick"><text text-anchor="middle" x="0" y="451" style="font-family: 'Lucida Grande', 'Open Sans', verdana, arial, sans-serif; font-size: 10px; fill: rgb(0, 0, 0); fill-opacity: 1; white-space: pre; opacity: 1;" transform="translate(470.4,0)">40%</text></g><g class="xtick"><text text-anchor="middle" x="0" y="451" style="font-family: 'Lucida Grande', 'Open Sans', verdana, arial, sans-serif; font-size: 10px; fill: rgb(0, 0, 0); fill-opacity: 1; white-space: pre; opacity: 1;" transform="translate(671.6,0)">60%</text></g><g class="xtick"><text text-anchor="middle" x="0" y="451" style="font-family: 'Lucida Grande', 'Open Sans', verdana, arial, sans-serif; font-size: 10px; fill: rgb(0, 0, 0); fill-opacity: 1; white-space: pre; opacity: 1;" transform="translate(872.8,0)">80%</text></g><g class="xtick"><text text-anchor="middle" x="0" y="451" style="font-family: 'Lucida Grande', 'Open Sans', verdana, arial, sans-serif; font-size: 10px; fill: rgb(0, 0, 0); fill-opacity: 1; white-space: pre; opacity: 1;" transform="translate(1074,0)">100%</text></g></g><g class="yaxislayer-above"><g class="ytick"><text text-anchor="end" x="62" y="3.5" transform="translate(0,435)" style="font-family: 'Lucida Grande', 'Open Sans', verdana, arial, sans-serif; font-size: 10px; fill: rgb(0, 0, 0); fill-opacity: 1; white-space: pre; opacity: 1;">0%</text></g><g class="ytick"><text text-anchor="end" x="62" y="3.5" style="font-family: 'Lucida Grande', 'Open Sans', verdana, arial, sans-serif; font-size: 10px; fill: rgb(0, 0, 0); fill-opacity: 1; white-space: pre; opacity: 1;" transform="translate(0,378.78)">0.2%</text></g><g class="ytick"><text text-anchor="end" x="62" y="3.5" style="font-family: 'Lucida Grande', 'Open Sans', verdana, arial, sans-serif; font-size: 10px; fill: rgb(0, 0, 0); fill-opacity: 1; white-space: pre; opacity: 1;" transform="translate(0,322.56)">0.4%</text></g><g class="ytick"><text text-anchor="end" x="62" y="3.5" style="font-family: 'Lucida Grande', 'Open Sans', verdana, arial, sans-serif; font-size: 10px; fill: rgb(0, 0, 0); fill-opacity: 1; white-space: pre; opacity: 1;" transform="translate(0,266.34000000000003)">0.6%</text></g><g class="ytick"><text text-anchor="end" x="62" y="3.5" style="font-family: 'Lucida Grande', 'Open Sans', verdana, arial, sans-serif; font-size: 10px; fill: rgb(0, 0, 0); fill-opacity: 1; white-space: pre; opacity: 1;" transform="translate(0,210.12)">0.8%</text></g><g class="ytick"><text text-anchor="end" x="62" y="3.5" style="font-family: 'Lucida Grande', 'Open Sans', verdana, arial, sans-serif; font-size: 10px; fill: rgb(0, 0, 0); fill-opacity: 1; white-space: pre; opacity: 1;" transform="translate(0,153.9)">1%</text></g><g class="ytick"><text text-anchor="end" x="62" y="3.5" style="font-family: 'Lucida Grande', 'Open Sans', verdana, arial, sans-serif; font-size: 10px; fill: rgb(0, 0, 0); fill-opacity: 1; white-space: pre; opacity: 1;" transform="translate(0,97.68)">1.2%</text></g></g><g class="overaxes-above"/></g></g><g class="polarlayer"/><g class="smithlayer"/><g class="ternarylayer"/><g class="geolayer"/><g class="funnelarealayer"/><g class="pielayer"/><g class="iciclelayer"/><g class="treemaplayer"/><g class="sunburstlayer"/><g class="glimages"/><defs id="topdefs-b90b8e"><g class="clips"/></defs><g class="layer-above"><g class="imagelayer"/><g class="shapelayer"/></g><g class="infolayer"><g class="g-gtitle"><text class="gtitle" x="550" y="25" text-anchor="middle" dy="0em" style="opacity: 1; font-family: 'Lucida Grande', 'Open Sans', verdana, arial, sans-serif; font-size: 20px; fill: rgb(42, 63, 95); fill-opacity: 1; white-space: pre;"><tspan class="line" dy="0em" x="550" y="25">QualiMap: RNAseq: Coverage Profile Along Genes (total)</tspan><tspan class="line" dy="1.3em" x="550" y="25">​<tspan style="font-size:70%" dy="-0.6em">Normalised, 6 samples</tspan><tspan dy="0.42em">​</tspan></tspan></text></g><g class="g-xtitle"><text class="xtitle" x="571" y="472.3" text-anchor="middle" style="opacity: 0.3; font-family: 'Lucida Grande', 'Open Sans', verdana, arial, sans-serif; font-size: 14px; fill: rgb(0, 0, 0); fill-opacity: 1; white-space: pre;">Transcript Position (%)</text></g><g class="g-ytitle"><text class="ytitle" transform="rotate(-90,22.19375,242.5)" x="22.19375" y="242.5" text-anchor="middle" style="opacity: 0.3; font-family: 'Lucida Grande', 'Open Sans', verdana, arial, sans-serif; font-size: 14px; fill: rgb(0, 0, 0); fill-opacity: 1; white-space: pre;">Percentage total cumulative mapped-read depth</text></g></g></svg>