<svg class="main-svg" xmlns="http://www.w3.org/2000/svg" xmlns:xlink="http://www.w3.org/1999/xlink" width="2200" height="1000" style="" viewBox="0 0 1100 500"><rect x="0" y="0" width="1100" height="500" style="fill: rgb(255, 255, 255); fill-opacity: 1;"/><defs id="defs-01091d"><g class="clips"><clipPath id="clip01091dxyplot" class="plotclip"><rect width="1025" height="385"/></clipPath><clipPath class="axesclip" id="clip01091dx"><rect x="60" y="0" width="1025" height="500"/></clipPath><clipPath class="axesclip" id="clip01091dy"><rect x="0" y="50" width="1100" height="385"/></clipPath><clipPath class="axesclip" id="clip01091dxy"><rect x="60" y="50" width="1025" height="385"/></clipPath></g><g class="gradients"/><g class="patterns"/></defs><g class="bglayer"/><g class="layer-below"><g class="imagelayer"/><g class="shapelayer"/></g><g class="cartesianlayer"><g class="subplot xy"><g class="layer-subplot"><g class="shapelayer"/><g class="imagelayer"/></g><g class="minor-gridlayer"><g class="x"/><g class="y"/></g><g class="gridlayer"><g class="x"><path class="xgrid crisp" transform="translate(158.36,0)" d="M0,50v385" style="stroke: rgb(0, 0, 0); stroke-opacity: 0.05; stroke-width: 1px;"/><path class="xgrid crisp" transform="translate(261.89,0)" d="M0,50v385" style="stroke: rgb(0, 0, 0); stroke-opacity: 0.05; stroke-width: 1px;"/><path class="xgrid crisp" transform="translate(365.43,0)" d="M0,50v385" style="stroke: rgb(0, 0, 0); stroke-opacity: 0.05; stroke-width: 1px;"/><path class="xgrid crisp" transform="translate(468.96,0)" d="M0,50v385" style="stroke: rgb(0, 0, 0); stroke-opacity: 0.05; stroke-width: 1px;"/><path class="xgrid crisp" transform="translate(676.04,0)" d="M0,50v385" style="stroke: rgb(0, 0, 0); stroke-opacity: 0.05; stroke-width: 1px;"/><path class="xgrid crisp" transform="translate(779.57,0)" d="M0,50v385" style="stroke: rgb(0, 0, 0); stroke-opacity: 0.05; stroke-width: 1px;"/><path class="xgrid crisp" transform="translate(883.11,0)" d="M0,50v385" style="stroke: rgb(0, 0, 0); stroke-opacity: 0.05; stroke-width: 1px;"/><path class="xgrid crisp" transform="translate(986.64,0)" d="M0,50v385" style="stroke: rgb(0, 0, 0); stroke-opacity: 0.05; stroke-width: 1px;"/></g><g class="y"><path class="ygrid crisp" transform="translate(0,343.51)" d="M60,0h1025" style="stroke: rgb(0, 0, 0); stroke-opacity: 0.05; stroke-width: 1px;"/><path class="ygrid crisp" transform="translate(0,271.27)" d="M60,0h1025" style="stroke: rgb(0, 0, 0); stroke-opacity: 0.05; stroke-width: 1px;"/><path class="ygrid crisp" transform="translate(0,199.02)" d="M60,0h1025" style="stroke: rgb(0, 0, 0); stroke-opacity: 0.05; stroke-width: 1px;"/><path class="ygrid crisp" transform="translate(0,126.78)" d="M60,0h1025" style="stroke: rgb(0, 0, 0); stroke-opacity: 0.05; stroke-width: 1px;"/><path class="ygrid crisp" transform="translate(0,54.54)" d="M60,0h1025" style="stroke: rgb(0, 0, 0); stroke-opacity: 0.05; stroke-width: 1px;"/></g></g><g class="zerolinelayer"><path class="xzl zl crisp" transform="translate(572.5,0)" d="M0,50v385" style="stroke: rgb(0, 0, 0); stroke-opacity: 0.05; stroke-width: 2px;"/><path class="yzl zl crisp" transform="translate(0,415.75)" d="M60,0h1025" style="stroke: rgb(0, 0, 0); stroke-opacity: 0.05; stroke-width: 2px;"/></g><g class="layer-between"><g class="shapelayer"/><g class="imagelayer"/></g><path class="xlines-below"/><path class="ylines-below"/><g class="overlines-below"/><g class="xaxislayer-below"/><g class="yaxislayer-below"/><g class="overaxes-below"/><g class="overplot"><g class="xy" transform="translate(60,50)" clip-path="url(#clip01091dxyplot)"><g class="scatterlayer mlayer"><g class="trace scatter tracecddb18" style="stroke-miterlimit: 2; opacity: 1;"><g class="fills"/><g class="errorbars"/><g class="lines"><path class="js-line" d="M0,365.75L289.9,365.75L300.25,356.75L310.61,237.84L320.96,211.07L331.31,152.62L341.67,121.02L352.02,91.15L362.37,64.38L372.73,38.03L383.08,39.61L393.43,32.92L403.79,34.94L414.14,41.56L424.49,47.03L434.85,71.29L445.2,81.36L455.56,101.52L465.91,118.94L476.26,129.95L486.62,144.13L496.97,158.31L507.32,175.37L517.68,193.65L528.03,201.57L538.38,221L548.74,228.05L559.09,236.19L569.44,247.49L600.51,282.61L610.86,291.97L621.21,294.06L631.57,299.39L641.92,309.68L652.27,307.74L662.63,315.65L672.98,320.62L683.33,323.43L693.69,327.75L704.04,334.08L714.39,334.94L724.75,337.32L735.1,336.31L745.45,341.13L755.81,343.15L766.16,345.81L776.52,347.4L786.87,349.99L797.22,350.92L817.93,354.38L828.28,354.31L838.64,354.95L848.99,356.61L859.34,358.05L869.7,357.98L880.05,359.42L890.4,358.91L900.76,361.36L911.11,360.71L921.46,360.71L931.82,364.24L973.23,365.46L983.59,365.46L1004.29,365.53L1014.65,365.61L1025,365.39" style="vector-effect: none; fill: none; stroke: rgb(124, 181, 236); stroke-opacity: 1; stroke-width: 2px; opacity: 1;"/></g><g class="points"/><g class="text"/></g><g class="trace scatter traceefa456" style="stroke-miterlimit: 2; opacity: 1;"><g class="fills"/><g class="errorbars"/><g class="lines"><path class="js-line" d="M0,365.75L289.9,365.75L300.25,354.49L310.61,210.57L320.96,175.09L341.67,90.57L352.02,63.41L362.37,39.61L372.73,19.25L383.08,24.97L393.43,27.32L403.79,33.11L414.14,40.76L424.49,58.04L434.85,63.83L455.56,109.07L465.91,122.8L476.26,132.62L486.62,156.66L496.97,169.79L507.32,176.96L517.68,202.08L528.03,207.38L538.38,225.69L548.74,235.45L559.09,249.73L569.44,256.72L590.15,279.61L600.51,282.8L610.86,290.15L621.21,303.34L631.57,307.02L641.92,311.53L652.27,314.12L662.63,320.45L672.98,326.35L683.33,329.73L693.69,333.88L704.04,333.76L714.39,337.68L724.75,340.69L735.1,343.4L745.45,344.67L755.81,345.09L766.16,348.94L776.52,350.09L786.87,352.5L797.22,352.62L807.58,355.15L828.28,356.17L838.64,357.62L848.99,357.5L859.34,359.67L869.7,359.18L880.05,361.41L921.46,362.2L931.82,364.61L952.53,365.51L962.88,365.09L993.94,365.45L1004.29,365.69L1014.65,365.27L1025,365.69" style="vector-effect: none; fill: none; stroke: rgb(67, 67, 72); stroke-opacity: 1; stroke-width: 2px; opacity: 1;"/></g><g class="points"/><g class="text"/></g><g class="trace scatter tracea712fa" style="stroke-miterlimit: 2; opacity: 1;"><g class="fills"/><g class="errorbars"/><g class="lines"><path class="js-line" d="M0,365.75L289.9,365.75L300.25,357.6L310.61,227.67L320.96,202.21L331.31,151.77L341.67,115.84L352.02,80.04L362.37,52L372.73,36.55L383.08,26.01L403.79,32.84L414.14,37.28L424.49,57.1L434.85,62.74L445.2,84.08L455.56,101.12L465.91,121.47L476.26,133.01L486.62,144.28L496.97,168.34L507.32,172.91L517.68,196.38L528.03,211.03L538.38,219.78L548.74,231.45L559.09,245.37L569.44,251.8L579.8,262.01L600.51,281.43L610.86,289.65L621.21,294.09L631.57,303.3L652.27,313.98L662.63,319.81L672.98,320.21L683.33,324.78L693.69,327.37L704.04,331.88L714.39,335.59L724.75,337.31L735.1,340.49L745.45,342.22L755.81,342.61L766.16,345.53L776.52,349.97L786.87,350.11L797.22,351.63L807.58,351.63L817.93,355.08L828.28,354.48L838.64,356.34L848.99,356.2L869.7,359.98L880.05,360.25L890.4,361.18L900.76,360.71L911.11,360.91L921.46,361.91L931.82,364.62L942.17,364.95L973.23,365.42L983.59,365.42L1025,365.42" style="vector-effect: none; fill: none; stroke: rgb(144, 237, 125); stroke-opacity: 1; stroke-width: 2px; opacity: 1;"/></g><g class="points"/><g class="text"/></g><g class="trace scatter trace19b9e1" style="stroke-miterlimit: 2; opacity: 1;"><g class="fills"/><g class="errorbars"/><g class="lines"><path class="js-line" d="M0,365.75L289.9,365.75L300.25,361.61L310.61,295.12L320.96,268.07L331.31,237.79L341.67,197.4L352.02,159.83L362.37,134.39L372.73,110.28L383.08,83.94L393.43,74.2L403.79,67.04L414.14,64.22L424.49,64.97L434.85,66.66L445.2,72.96L455.56,88.99L465.91,102.74L476.26,105.48L486.62,124.58L496.97,140.4L507.32,141.39L517.68,166.41L528.03,173.04L538.38,186.71L548.74,207.18L559.09,216.08L569.44,227.68L579.8,237.58L590.15,244.29L600.51,258.63L610.86,264.59L621.21,271.05L631.57,280.75L641.92,287.25L652.27,296.2L662.63,299.3L672.98,304.48L693.69,318.15L704.04,320.6L714.39,324.78L724.75,325.49L735.1,330.33L745.45,332.78L755.81,334.85L766.16,334.81L776.52,339.32L786.87,341.48L797.22,345.87L807.58,347.73L838.64,352L848.99,353.57L911.11,358.83L921.46,359.58L931.82,362.81L942.17,364.22L962.88,365.09L973.23,364.8L1014.65,365.17L1025,365.38" style="vector-effect: none; fill: none; stroke: rgb(247, 163, 92); stroke-opacity: 1; stroke-width: 2px; opacity: 1;"/></g><g class="points"/><g class="text"/></g><g class="trace scatter trace02bfc5" style="stroke-miterlimit: 2; opacity: 1;"><g class="fills"/><g class="errorbars"/><g class="lines"><path class="js-line" d="M0,365.75L289.9,365.75L300.25,354.54L310.61,232L320.96,206.36L331.31,154.73L341.67,124.12L352.02,80.58L362.37,65.97L372.73,44.34L383.08,33.42L393.43,33.58L403.79,44.12L414.14,38.99L424.49,54.55L434.85,67.09L445.2,75.34L455.56,90.12L465.91,107.62L486.62,145.31L496.97,154.17L517.68,193.14L528.03,205.3L538.38,222.3L548.74,232.78L559.09,245.33L569.44,255.59L579.8,260.49L590.15,275.71L600.51,282.07L610.86,289.76L621.21,301.08L631.57,306.21L641.92,304.03L652.27,313.12L662.63,317.92L672.98,321.26L683.33,325.78L693.69,327.67L714.39,338.26L724.75,338.88L735.1,340.83L745.45,340.33L755.81,343.62L766.16,345.07L776.52,345.68L786.87,349.47L797.22,350.14L807.58,351.76L817.93,354.49L828.28,354.21L838.64,355.27L848.99,353.43L859.34,357.61L869.7,355.99L880.05,358.73L890.4,359.45L911.11,361.12L921.46,360.01L931.82,363.3L942.17,364.47L973.23,365.08L983.59,364.91L1025,365.58" style="vector-effect: none; fill: none; stroke: rgb(128, 133, 233); stroke-opacity: 1; stroke-width: 2px; opacity: 1;"/></g><g class="points"/><g class="text"/></g><g class="trace scatter trace3d9eb9" style="stroke-miterlimit: 2; opacity: 1;"><g class="fills"/><g class="errorbars"/><g class="lines"><path class="js-line" d="M0,365.75L289.9,365.75L300.25,358.46L310.61,216.62L320.96,193.56L341.67,107.39L352.02,75.34L362.37,51.52L372.73,34.5L383.08,24.76L393.43,28.41L403.79,33.1L414.14,44.23L424.49,55.77L434.85,61.41L445.2,82.93L455.56,99.15L476.26,134L486.62,144.98L496.97,165.55L507.32,171.19L517.68,197.15L528.03,206.94L538.38,218.12L548.74,232.35L559.09,244.78L569.44,255.97L579.8,264.7L590.15,271.59L600.51,285.62L610.86,289.91L631.57,306.04L641.92,310.03L652.27,315.68L662.63,318.67L683.33,325.61L693.69,328.61L704.04,337.59L714.39,337.34L724.75,339.94L735.1,341.04L745.45,342.63L755.81,347.73L766.16,347.58L776.52,348.78L817.93,355.86L828.28,355.22L838.64,357.86L848.99,356.96L869.7,360.21L880.05,360.06L900.76,361.46L911.11,361.21L921.46,362.01L931.82,363.95L952.53,365.35L962.88,365.05L1025,365.65" style="vector-effect: none; fill: none; stroke: rgb(241, 92, 128); stroke-opacity: 1; stroke-width: 2px; opacity: 1;"/></g><g class="points"/><g class="text"/></g></g></g></g><path class="xlines-above crisp" d="M0,0" style="fill: none;"/><path class="ylines-above crisp" d="M0,0" style="fill: none;"/><g class="overlines-above"/><g class="xaxislayer-above"><g class="xtick"><text text-anchor="middle" x="0" y="451" transform="translate(158.36,0)" style="font-family: 'Lucida Grande', 'Open Sans', verdana, arial, sans-serif; font-size: 10px; fill: rgb(0, 0, 0); fill-opacity: 1; white-space: pre; opacity: 1;">−200 bp</text></g><g class="xtick"><text text-anchor="middle" x="0" y="451" style="font-family: 'Lucida Grande', 'Open Sans', verdana, arial, sans-serif; font-size: 10px; fill: rgb(0, 0, 0); fill-opacity: 1; white-space: pre; opacity: 1;" transform="translate(261.89,0)">−150 bp</text></g><g class="xtick"><text text-anchor="middle" x="0" y="451" style="font-family: 'Lucida Grande', 'Open Sans', verdana, arial, sans-serif; font-size: 10px; fill: rgb(0, 0, 0); fill-opacity: 1; white-space: pre; opacity: 1;" transform="translate(365.43,0)">−100 bp</text></g><g class="xtick"><text text-anchor="middle" x="0" y="451" style="font-family: 'Lucida Grande', 'Open Sans', verdana, arial, sans-serif; font-size: 10px; fill: rgb(0, 0, 0); fill-opacity: 1; white-space: pre; opacity: 1;" transform="translate(468.96,0)">−50 bp</text></g><g class="xtick"><text text-anchor="middle" x="0" y="451" style="font-family: 'Lucida Grande', 'Open Sans', verdana, arial, sans-serif; font-size: 10px; fill: rgb(0, 0, 0); fill-opacity: 1; white-space: pre; opacity: 1;" transform="translate(572.5,0)">0 bp</text></g><g class="xtick"><text text-anchor="middle" x="0" y="451" style="font-family: 'Lucida Grande', 'Open Sans', verdana, arial, sans-serif; font-size: 10px; fill: rgb(0, 0, 0); fill-opacity: 1; white-space: pre; opacity: 1;" transform="translate(676.04,0)">50 bp</text></g><g class="xtick"><text text-anchor="middle" x="0" y="451" style="font-family: 'Lucida Grande', 'Open Sans', verdana, arial, sans-serif; font-size: 10px; fill: rgb(0, 0, 0); fill-opacity: 1; white-space: pre; opacity: 1;" transform="translate(779.57,0)">100 bp</text></g><g class="xtick"><text text-anchor="middle" x="0" y="451" style="font-family: 'Lucida Grande', 'Open Sans', verdana, arial, sans-serif; font-size: 10px; fill: rgb(0, 0, 0); fill-opacity: 1; white-space: pre; opacity: 1;" transform="translate(883.11,0)">150 bp</text></g><g class="xtick"><text text-anchor="middle" x="0" y="451" style="font-family: 'Lucida Grande', 'Open Sans', verdana, arial, sans-serif; font-size: 10px; fill: rgb(0, 0, 0); fill-opacity: 1; white-space: pre; opacity: 1;" transform="translate(986.64,0)">200 bp</text></g></g><g class="yaxislayer-above"><g class="ytick"><text text-anchor="end" x="54" y="3.5" transform="translate(0,415.75)" style="font-family: 'Lucida Grande', 'Open Sans', verdana, arial, sans-serif; font-size: 10px; fill: rgb(0, 0, 0); fill-opacity: 1; white-space: pre; opacity: 1;">0%</text></g><g class="ytick"><text text-anchor="end" x="54" y="3.5" style="font-family: 'Lucida Grande', 'Open Sans', verdana, arial, sans-serif; font-size: 10px; fill: rgb(0, 0, 0); fill-opacity: 1; white-space: pre; opacity: 1;" transform="translate(0,343.51)">1%</text></g><g class="ytick"><text text-anchor="end" x="54" y="3.5" style="font-family: 'Lucida Grande', 'Open Sans', verdana, arial, sans-serif; font-size: 10px; fill: rgb(0, 0, 0); fill-opacity: 1; white-space: pre; opacity: 1;" transform="translate(0,271.27)">2%</text></g><g class="ytick"><text text-anchor="end" x="54" y="3.5" style="font-family: 'Lucida Grande', 'Open Sans', verdana, arial, sans-serif; font-size: 10px; fill: rgb(0, 0, 0); fill-opacity: 1; white-space: pre; opacity: 1;" transform="translate(0,199.02)">3%</text></g><g class="ytick"><text text-anchor="end" x="54" y="3.5" style="font-family: 'Lucida Grande', 'Open Sans', verdana, arial, sans-serif; font-size: 10px; fill: rgb(0, 0, 0); fill-opacity: 1; white-space: pre; opacity: 1;" transform="translate(0,126.78)">4%</text></g><g class="ytick"><text text-anchor="end" x="54" y="3.5" style="font-family: 'Lucida Grande', 'Open Sans', verdana, arial, sans-serif; font-size: 10px; fill: rgb(0, 0, 0); fill-opacity: 1; white-space: pre; opacity: 1;" transform="translate(0,54.54)">5%</text></g></g><g class="overaxes-above"/></g></g><g class="polarlayer"/><g class="smithlayer"/><g class="ternarylayer"/><g class="geolayer"/><g class="funnelarealayer"/><g class="pielayer"/><g class="iciclelayer"/><g class="treemaplayer"/><g class="sunburstlayer"/><g class="glimages"/><defs id="topdefs-01091d"><g class="clips"/></defs><g class="layer-above"><g class="imagelayer"/><g class="shapelayer"/></g><g class="infolayer"><g class="g-gtitle"><text class="gtitle" x="550" y="25" text-anchor="middle" dy="0em" style="opacity: 1; font-family: 'Lucida Grande', 'Open Sans', verdana, arial, sans-serif; font-size: 20px; fill: rgb(42, 63, 95); fill-opacity: 1; white-space: pre;"><tspan class="line" dy="0em" x="550" y="25">RSeQC: Inner Distance</tspan><tspan class="line" dy="1.3em" x="550" y="25">​<tspan style="font-size:70%" dy="-0.6em">Percentages, 6 samples</tspan><tspan dy="0.42em">​</tspan></tspan></text></g><g class="g-xtitle"><text class="xtitle" x="572.5" y="472.3" text-anchor="middle" style="opacity: 0.3; font-family: 'Lucida Grande', 'Open Sans', verdana, arial, sans-serif; font-size: 14px; fill: rgb(0, 0, 0); fill-opacity: 1; white-space: pre;">Inner Distance (bp)</text></g><g class="g-ytitle"><text class="ytitle" transform="rotate(-90,23.725,242.5)" x="23.725" y="242.5" text-anchor="middle" style="opacity: 0.3; font-family: 'Lucida Grande', 'Open Sans', verdana, arial, sans-serif; font-size: 14px; fill: rgb(0, 0, 0); fill-opacity: 1; white-space: pre;">Percentage</text></g></g></svg>