<svg class="main-svg" xmlns="http://www.w3.org/2000/svg" xmlns:xlink="http://www.w3.org/1999/xlink" width="2200" height="1000" style="" viewBox="0 0 1100 500"><rect x="0" y="0" width="1100" height="500" style="fill: rgb(255, 255, 255); fill-opacity: 1;"/><defs id="defs-fa4257"><g class="clips"><clipPath id="clipfa4257xyplot" class="plotclip"><rect width="1017" height="385"/></clipPath><clipPath class="axesclip" id="clipfa4257x"><rect x="68" y="0" width="1017" height="500"/></clipPath><clipPath class="axesclip" id="clipfa4257y"><rect x="0" y="50" width="1100" height="385"/></clipPath><clipPath class="axesclip" id="clipfa4257xy"><rect x="68" y="50" width="1017" height="385"/></clipPath></g><g class="gradients"/><g class="patterns"/></defs><g class="bglayer"/><g class="layer-below"><g class="imagelayer"/><g class="shapelayer"/></g><g class="cartesianlayer"><g class="subplot xy"><g class="layer-subplot"><g class="shapelayer"/><g class="imagelayer"/></g><g class="minor-gridlayer"><g class="x"/><g class="y"/></g><g class="gridlayer"><g class="x"><path class="xgrid crisp" transform="translate(170.32999999999998,0)" d="M0,50v385" style="stroke: rgb(0, 0, 0); stroke-opacity: 0.05; stroke-width: 1px;"/><path class="xgrid crisp" transform="translate(274.74,0)" d="M0,50v385" style="stroke: rgb(0, 0, 0); stroke-opacity: 0.05; stroke-width: 1px;"/><path class="xgrid crisp" transform="translate(379.16,0)" d="M0,50v385" style="stroke: rgb(0, 0, 0); stroke-opacity: 0.05; stroke-width: 1px;"/><path class="xgrid crisp" transform="translate(483.57,0)" d="M0,50v385" style="stroke: rgb(0, 0, 0); stroke-opacity: 0.05; stroke-width: 1px;"/><path class="xgrid crisp" transform="translate(587.99,0)" d="M0,50v385" style="stroke: rgb(0, 0, 0); stroke-opacity: 0.05; stroke-width: 1px;"/><path class="xgrid crisp" transform="translate(692.4,0)" d="M0,50v385" style="stroke: rgb(0, 0, 0); stroke-opacity: 0.05; stroke-width: 1px;"/><path class="xgrid crisp" transform="translate(796.82,0)" d="M0,50v385" style="stroke: rgb(0, 0, 0); stroke-opacity: 0.05; stroke-width: 1px;"/><path class="xgrid crisp" transform="translate(901.23,0)" d="M0,50v385" style="stroke: rgb(0, 0, 0); stroke-opacity: 0.05; stroke-width: 1px;"/><path class="xgrid crisp" transform="translate(1005.64,0)" d="M0,50v385" style="stroke: rgb(0, 0, 0); stroke-opacity: 0.05; stroke-width: 1px;"/></g><g class="y"><path class="ygrid crisp" transform="translate(0,415.75)" d="M68,0h1017" style="stroke: rgb(0, 0, 0); stroke-opacity: 0.05; stroke-width: 1px;"/><path class="ygrid crisp" transform="translate(0,395.87)" d="M68,0h1017" style="stroke: rgb(0, 0, 0); stroke-opacity: 0.05; stroke-width: 1px;"/><path class="ygrid crisp" transform="translate(0,369.58)" d="M68,0h1017" style="stroke: rgb(0, 0, 0); stroke-opacity: 0.05; stroke-width: 1px;"/><path class="ygrid crisp" transform="translate(0,349.7)" d="M68,0h1017" style="stroke: rgb(0, 0, 0); stroke-opacity: 0.05; stroke-width: 1px;"/><path class="ygrid crisp" transform="translate(0,329.82)" d="M68,0h1017" style="stroke: rgb(0, 0, 0); stroke-opacity: 0.05; stroke-width: 1px;"/><path class="ygrid crisp" transform="translate(0,303.53999999999996)" d="M68,0h1017" style="stroke: rgb(0, 0, 0); stroke-opacity: 0.05; stroke-width: 1px;"/><path class="ygrid crisp" transform="translate(0,283.65999999999997)" d="M68,0h1017" style="stroke: rgb(0, 0, 0); stroke-opacity: 0.05; stroke-width: 1px;"/><path class="ygrid crisp" transform="translate(0,263.77)" d="M68,0h1017" style="stroke: rgb(0, 0, 0); stroke-opacity: 0.05; stroke-width: 1px;"/><path class="ygrid crisp" transform="translate(0,237.49)" d="M68,0h1017" style="stroke: rgb(0, 0, 0); stroke-opacity: 0.05; stroke-width: 1px;"/><path class="ygrid crisp" transform="translate(0,217.61)" d="M68,0h1017" style="stroke: rgb(0, 0, 0); stroke-opacity: 0.05; stroke-width: 1px;"/><path class="ygrid crisp" transform="translate(0,197.73)" d="M68,0h1017" style="stroke: rgb(0, 0, 0); stroke-opacity: 0.05; stroke-width: 1px;"/><path class="ygrid crisp" transform="translate(0,171.44)" d="M68,0h1017" style="stroke: rgb(0, 0, 0); stroke-opacity: 0.05; stroke-width: 1px;"/><path class="ygrid crisp" transform="translate(0,151.56)" d="M68,0h1017" style="stroke: rgb(0, 0, 0); stroke-opacity: 0.05; stroke-width: 1px;"/><path class="ygrid crisp" transform="translate(0,131.68)" d="M68,0h1017" style="stroke: rgb(0, 0, 0); stroke-opacity: 0.05; stroke-width: 1px;"/><path class="ygrid crisp" transform="translate(0,105.4)" d="M68,0h1017" style="stroke: rgb(0, 0, 0); stroke-opacity: 0.05; stroke-width: 1px;"/><path class="ygrid crisp" transform="translate(0,85.50999999999999)" d="M68,0h1017" style="stroke: rgb(0, 0, 0); stroke-opacity: 0.05; stroke-width: 1px;"/><path class="ygrid crisp" transform="translate(0,65.63)" d="M68,0h1017" style="stroke: rgb(0, 0, 0); stroke-opacity: 0.05; stroke-width: 1px;"/></g></g><g class="zerolinelayer"/><g class="layer-between"><g class="shapelayer"/><g class="imagelayer"/></g><path class="xlines-below"/><path class="ylines-below"/><g class="overlines-below"/><g class="xaxislayer-below"/><g class="yaxislayer-below"/><g class="overaxes-below"/><g class="overplot"><g class="xy" transform="translate(68,50)" clip-path="url(#clipfa4257xyplot)"><g class="scatterlayer mlayer"><g class="trace scatter trace9d4c14" style="stroke-miterlimit: 2; opacity: 1;"><g class="fills"/><g class="errorbars"/><g class="lines"><path class="js-line" d="M0,31.57L2.09,106.61L4.18,145.83L6.26,167.35L8.35,179.1L14.62,207.26L16.71,208.42L20.88,218.44L22.97,225.48L25.06,226.8L27.15,231.71L29.24,237L31.32,237.32L33.41,241.91L35.5,244.3L37.59,241.15L39.68,254.12L41.77,248.31L43.85,246.46L45.94,251.87L48.03,251.87L50.12,259.94L52.21,259.94L54.3,256.56L56.38,262.96L58.47,260.66L60.56,264.6L62.65,272.29L64.74,267.25L66.83,267.25L68.91,271.21L71,274.59L73.09,270.17L75.18,279.82L77.27,299.7L79.36,279.82L81.44,299.7L83.53,275.81L85.62,281.29L87.71,288.07L89.8,282.84L91.89,290.05L93.97,275.81L98.15,294.47L100.24,294.47L102.33,302.72L104.41,299.7L106.5,299.7L108.59,325.99L110.68,290.05L112.77,306.1L114.86,325.99L116.94,309.93L119.03,319.58L121.12,309.93L123.21,319.58L125.3,299.7L127.39,314.36L129.47,299.7L131.56,334.24L133.65,345.87L135.74,309.93L137.83,294.47L139.92,334.24L142,314.36L144.09,306.1L146.18,345.87L148.27,325.99L150.36,334.24L154.53,309.93L156.62,345.87L158.71,334.24L160.8,296.97L164.98,365.75L167.06,309.93L169.15,365.75L171.24,314.36L173.33,365.75L175.42,334.24L177.51,334.24L181.68,365.75L183.77,314.36L185.86,334.24L190.03,309.93L192.12,365.75L194.21,314.36L198.39,345.87L200.48,325.99L202.56,334.24L204.65,334.24L208.83,345.87L210.92,365.75L213.01,334.24L215.09,334.24L217.18,325.99L221.36,365.75L223.45,319.58L225.54,345.87L227.62,345.87L229.71,365.75L231.8,365.75L233.89,365.75L235.98,325.99L240.15,365.75L242.24,345.87L244.33,365.75L250.6,325.99L254.77,365.75L256.86,345.87L258.95,365.75L261.04,365.75L265.21,365.75L269.39,345.87L277.74,365.75L279.83,365.75L286.1,365.75L290.27,345.87L292.36,365.75L294.45,365.75L298.63,334.24L300.71,345.87L323.69,345.87L332.04,365.75L346.66,365.75L348.75,345.87L350.83,365.75L357.1,365.75L373.8,365.75L375.89,345.87L377.98,345.87L384.25,365.75L388.42,345.87L392.6,365.75L442.72,365.75L448.98,345.87L451.07,365.75L467.78,365.75L829.05,365.75L975.23,345.87" style="vector-effect: none; fill: none; stroke: rgb(124, 181, 236); stroke-opacity: 1; stroke-width: 2px; opacity: 1;"/></g><g class="points"/><g class="text"/></g><g class="trace scatter tracef178d6" style="stroke-miterlimit: 2; opacity: 1;"><g class="fills"/><g class="errorbars"/><g class="lines"><path class="js-line" d="M0,26.86L2.09,99.49L4.18,138.94L6.26,161.98L8.35,176.48L14.62,203.92L16.71,207.6L18.79,212.37L22.97,215.7L25.06,224L27.15,228.91L29.24,229.9L31.32,233.66L33.41,233.66L35.5,232.26L37.59,240.42L39.68,245.14L41.77,250.29L43.85,246.91L48.03,254.12L50.12,253.54L52.21,247.37L54.3,255.93L56.38,255.31L58.47,259.23L60.56,271.21L62.65,270.17L66.83,266.34L68.91,265.46L71,277.09L73.09,260.66L75.18,266.34L77.27,266.34L79.36,270.17L81.44,271.21L85.62,284.48L87.71,286.22L89.8,288.07L91.89,282.84L93.97,299.7L96.06,281.29L98.15,292.18L100.24,286.22L102.33,292.18L104.41,284.48L106.5,292.18L110.68,299.7L112.77,288.07L114.86,314.36L116.94,302.72L119.03,299.7L121.12,286.22L123.21,292.18L125.3,306.1L127.39,294.47L129.47,294.47L131.56,296.97L133.65,306.1L135.74,306.1L137.83,306.1L139.92,365.75L142,325.99L144.09,345.87L146.18,302.72L148.27,309.93L150.36,334.24L154.53,319.58L156.62,302.72L158.71,325.99L160.8,325.99L162.89,334.24L164.98,319.58L167.06,365.75L169.15,325.99L171.24,314.36L173.33,319.58L175.42,319.58L179.59,334.24L181.68,325.99L183.77,302.72L185.86,309.93L187.95,325.99L190.03,314.36L192.12,345.87L194.21,334.24L198.39,314.36L200.48,319.58L204.65,334.24L206.74,325.99L208.83,325.99L210.92,345.87L213.01,325.99L215.09,345.87L217.18,365.75L219.27,345.87L221.36,365.75L223.45,334.24L225.54,365.75L227.62,334.24L229.71,345.87L231.8,345.87L233.89,334.24L235.98,345.87L238.07,365.75L244.33,365.75L250.6,334.24L252.68,334.24L254.77,365.75L256.86,345.87L258.95,365.75L261.04,345.87L263.13,365.75L265.21,334.24L271.48,365.75L273.57,365.75L275.66,345.87L277.74,365.75L286.1,365.75L288.18,345.87L290.27,334.24L294.45,334.24L298.63,345.87L300.71,365.75L304.89,365.75L306.98,345.87L309.07,365.75L311.16,365.75L319.51,365.75L323.69,345.87L325.77,345.87L327.86,365.75L332.04,319.58L334.13,345.87L340.39,365.75L342.48,365.75L344.57,365.75L346.66,345.87L350.83,345.87L352.92,365.75L426.01,365.75L432.28,345.87L434.37,365.75L436.45,365.75L438.54,345.87L440.63,365.75L465.69,365.75L467.78,334.24L480.31,365.75L484.48,365.75L503.28,365.75L507.46,345.87L524.16,365.75L528.34,365.75L952.26,365.75" style="vector-effect: none; fill: none; stroke: rgb(67, 67, 72); stroke-opacity: 1; stroke-width: 2px; opacity: 1;"/></g><g class="points"/><g class="text"/></g><g class="trace scatter trace52f1e1" style="stroke-miterlimit: 2; opacity: 1;"><g class="fills"/><g class="errorbars"/><g class="lines"><path class="js-line" d="M0,29.23L2.09,103.53L4.18,144.62L8.35,180.01L10.44,190.96L14.62,204.43L16.71,206.03L18.79,215.55L20.88,215.55L22.97,224L25.06,222.6L27.15,225.69L29.24,230.66L31.32,237.32L33.41,238.66L35.5,238.66L37.59,250.29L39.68,252.97L41.77,246.01L45.94,252.41L48.03,258.54L50.12,258.54L52.21,257.2L54.3,261.41L56.38,253.54L58.47,279.82L60.56,254.12L62.65,265.46L64.74,268.19L66.83,262.96L68.91,265.46L73.09,279.82L75.18,284.48L77.27,269.16L79.36,274.59L83.53,282.84L85.62,284.48L89.8,299.7L91.89,290.05L93.97,275.81L96.06,296.97L98.15,281.29L100.24,299.7L102.33,281.29L104.41,306.1L108.59,288.07L110.68,302.72L112.77,286.22L114.86,296.97L116.94,286.22L119.03,306.1L123.21,306.1L125.3,319.58L127.39,309.93L129.47,306.1L131.56,319.58L133.65,309.93L135.74,345.87L137.83,314.36L139.92,306.1L142,319.58L144.09,365.75L146.18,319.58L148.27,309.93L150.36,314.36L152.45,314.36L154.53,309.93L156.62,325.99L158.71,306.1L160.8,334.24L162.89,319.58L164.98,314.36L167.06,314.36L169.15,319.58L171.24,319.58L173.33,319.58L175.42,345.87L177.51,365.75L179.59,325.99L181.68,345.87L183.77,334.24L185.86,334.24L187.95,365.75L190.03,325.99L192.12,345.87L194.21,365.75L196.3,365.75L198.39,319.58L200.48,314.36L202.56,314.36L204.65,325.99L206.74,345.87L208.83,345.87L213.01,345.87L217.18,365.75L219.27,345.87L221.36,345.87L225.54,345.87L227.62,365.75L229.71,325.99L231.8,334.24L233.89,365.75L235.98,345.87L240.15,345.87L242.24,334.24L244.33,365.75L246.42,334.24L248.51,345.87L250.6,319.58L252.68,365.75L254.77,334.24L258.95,334.24L261.04,365.75L263.13,345.87L265.21,334.24L267.3,365.75L271.48,365.75L273.57,345.87L277.74,365.75L279.83,365.75L281.92,345.87L284.01,365.75L290.27,365.75L300.71,365.75L302.8,345.87L306.98,365.75L313.24,365.75L315.33,345.87L317.42,365.75L332.04,365.75L340.39,345.87L342.48,345.87L348.75,365.75L352.92,345.87L355.01,345.87L357.1,365.75L363.36,345.87L365.45,365.75L367.54,365.75L371.72,365.75L373.8,325.99L382.16,365.75L386.33,345.87L388.42,365.75L392.6,365.75L396.78,345.87L398.86,345.87L403.04,345.87L405.13,365.75L413.48,345.87L415.57,365.75L503.28,365.75L519.99,345.87L530.43,365.75L534.6,365.75L1014.91,365.75" style="vector-effect: none; fill: none; stroke: rgb(144, 237, 125); stroke-opacity: 1; stroke-width: 2px; opacity: 1;"/></g><g class="points"/><g class="text"/></g><g class="trace scatter trace057c2b" style="stroke-miterlimit: 2; opacity: 1;"><g class="fills"/><g class="errorbars"/><g class="lines"><path class="js-line" d="M0,19.25L2.09,87.39L6.26,144.85L10.44,172.44L14.62,188.13L18.79,201.76L22.97,208.54L25.06,212.37L27.15,218.6L31.32,221.27L33.41,220.17L43.85,241.15L48.03,239L50.12,239.35L52.21,243.89L56.38,238.66L58.47,251.33L60.56,248.31L64.74,249.78L66.83,255.31L68.91,257.2L73.09,255.31L75.18,260.66L77.27,259.94L81.44,262.96L83.53,272.29L85.62,254.71L91.89,274.59L93.97,274.59L98.15,263.77L100.24,271.21L102.33,274.59L106.5,267.25L108.59,288.07L110.68,284.48L114.86,281.29L116.94,286.22L119.03,279.82L123.21,292.18L125.3,278.42L127.39,288.07L131.56,286.22L133.65,296.97L135.74,296.97L139.92,284.48L142,309.93L144.09,288.07L148.27,292.18L150.36,306.1L152.45,294.47L156.62,309.93L158.71,290.05L160.8,292.18L164.98,292.18L167.06,306.1L169.15,319.58L173.33,306.1L175.42,325.99L177.51,334.24L181.68,296.97L183.77,299.7L185.86,294.47L190.03,314.36L192.12,299.7L194.21,302.72L198.39,306.1L200.48,309.93L202.56,314.36L206.74,314.36L208.83,334.24L210.92,314.36L217.18,365.75L219.27,306.1L223.45,325.99L227.62,334.24L229.71,325.99L233.89,314.36L235.98,309.93L238.07,365.75L242.24,319.58L244.33,309.93L246.42,365.75L252.68,319.58L256.86,345.87L261.04,334.24L263.13,345.87L265.21,319.58L271.48,325.99L273.57,319.58L275.66,334.24L279.83,345.87L281.92,334.24L284.01,345.87L286.1,325.99L290.27,334.24L292.36,325.99L294.45,325.99L298.63,334.24L300.71,334.24L302.8,365.75L306.98,325.99L309.07,365.75L311.16,365.75L315.33,334.24L317.42,365.75L319.51,319.58L323.69,345.87L325.77,345.87L327.86,365.75L332.04,365.75L334.13,319.58L336.22,345.87L342.48,365.75L344.57,334.24L352.92,345.87L357.1,365.75L359.19,334.24L365.45,365.75L367.54,345.87L371.72,345.87L375.89,365.75L394.69,365.75L398.86,345.87L403.04,365.75L405.13,365.75L407.22,345.87L413.48,345.87L415.57,345.87L419.75,334.24L423.92,365.75L426.01,365.75L430.19,365.75L436.45,345.87L438.54,334.24L442.72,345.87L448.98,334.24L451.07,345.87L453.16,365.75L459.43,345.87L467.78,365.75L478.22,365.75L484.48,334.24L486.57,365.75L490.75,365.75L492.84,345.87L494.93,365.75L499.1,345.87L503.28,365.75L505.37,345.87L517.9,365.75L519.99,365.75L532.52,365.75L534.6,345.87L536.69,365.75L540.87,365.75L559.66,365.75L563.84,345.87L576.37,365.75L582.63,345.87L584.72,365.75L593.08,365.75L616.05,365.75L622.31,345.87L626.49,365.75L628.58,345.87L649.46,365.75L653.64,365.75L954.35,365.75" style="vector-effect: none; fill: none; stroke: rgb(247, 163, 92); stroke-opacity: 1; stroke-width: 2px; opacity: 1;"/></g><g class="points"/><g class="text"/></g><g class="trace scatter tracea04085" style="stroke-miterlimit: 2; opacity: 1;"><g class="fills"/><g class="errorbars"/><g class="lines"><path class="js-line" d="M0,24.32L2.09,101.88L4.18,137.32L6.26,157.05L8.35,169.41L12.53,188.48L14.62,197.72L20.88,212.79L22.97,214.5L25.06,217.12L27.15,224.42L29.24,225.91L31.32,231.18L35.5,231.71L37.59,238.66L39.68,234.24L43.85,244.3L45.94,249.78L48.03,247.83L50.12,250.8L52.21,248.31L54.3,260.66L56.38,258.54L58.47,254.71L60.56,259.94L62.65,262.96L64.74,257.2L66.83,254.71L68.91,259.94L71,263.77L73.09,265.46L75.18,262.17L77.27,274.59L79.36,268.19L81.44,278.42L83.53,271.21L85.62,279.82L87.71,282.84L89.8,277.09L91.89,290.05L93.97,290.05L96.06,272.29L98.15,284.48L100.24,282.84L102.33,279.82L104.41,296.97L106.5,284.48L108.59,294.47L110.68,284.48L112.77,282.84L114.86,302.72L116.94,302.72L119.03,294.47L121.12,309.93L123.21,309.93L125.3,306.1L129.47,294.47L131.56,319.58L133.65,299.7L135.74,296.97L137.83,302.72L139.92,314.36L142,302.72L144.09,309.93L146.18,302.72L148.27,299.7L150.36,334.24L152.45,314.36L154.53,309.93L156.62,302.72L158.71,319.58L160.8,309.93L162.89,319.58L164.98,319.58L167.06,345.87L169.15,314.36L171.24,319.58L173.33,325.99L175.42,345.87L177.51,319.58L179.59,309.93L181.68,334.24L183.77,309.93L185.86,309.93L187.95,325.99L190.03,325.99L192.12,345.87L194.21,345.87L196.3,365.75L198.39,319.58L200.48,365.75L202.56,345.87L204.65,345.87L206.74,302.72L208.83,345.87L210.92,325.99L215.09,365.75L217.18,334.24L219.27,334.24L221.36,325.99L223.45,314.36L225.54,334.24L229.71,345.87L231.8,309.93L233.89,319.58L235.98,345.87L238.07,319.58L240.15,334.24L242.24,319.58L244.33,365.75L246.42,334.24L248.51,365.75L250.6,365.75L252.68,345.87L256.86,325.99L258.95,345.87L261.04,345.87L263.13,325.99L265.21,365.75L267.3,325.99L269.39,365.75L273.57,325.99L279.83,325.99L281.92,334.24L284.01,334.24L286.1,365.75L288.18,365.75L290.27,345.87L294.45,345.87L296.54,365.75L298.63,365.75L302.8,325.99L304.89,365.75L306.98,325.99L315.33,365.75L319.51,325.99L321.6,345.87L334.13,365.75L336.22,365.75L338.3,345.87L342.48,365.75L352.92,365.75L355.01,334.24L357.1,365.75L361.28,365.75L380.07,365.75L386.33,345.87L392.6,365.75L398.86,365.75L400.95,345.87L407.22,365.75L419.75,365.75L421.84,325.99L426.01,365.75L434.37,365.75L442.72,345.87L451.07,365.75L453.16,345.87L455.25,365.75L467.78,365.75L471.95,345.87L474.04,365.75L484.48,365.75L499.1,345.87L507.46,365.75L515.81,345.87L519.99,365.75L530.43,365.75L559.66,345.87L563.84,365.75L578.46,365.75L593.08,365.75L601.43,345.87L607.69,365.75L655.72,365.75L977.32,365.75" style="vector-effect: none; fill: none; stroke: rgb(128, 133, 233); stroke-opacity: 1; stroke-width: 2px; opacity: 1;"/></g><g class="points"/><g class="text"/></g><g class="trace scatter traced515e6" style="stroke-miterlimit: 2; opacity: 1;"><g class="fills"/><g class="errorbars"/><g class="lines"><path class="js-line" d="M0,24.24L2.09,96.29L4.18,129.96L8.35,165.59L10.44,176.87L12.53,182.07L14.62,193.53L22.97,210.52L25.06,216.96L27.15,221.46L29.24,223.2L31.32,221.08L35.5,231.71L37.59,239.35L39.68,233.37L41.77,235.43L43.85,245.14L45.94,238.32L50.12,241.53L52.21,246.46L54.3,246.46L56.38,250.29L58.47,250.8L62.65,254.12L64.74,254.71L66.83,254.12L68.91,251.87L71,268.19L73.09,254.12L77.27,257.86L79.36,269.16L81.44,269.16L83.53,271.21L85.62,270.17L89.8,265.46L91.89,270.17L93.97,270.17L96.06,279.82L98.15,278.42L100.24,278.42L104.41,281.29L110.68,294.47L112.77,288.07L116.94,299.7L119.03,286.22L121.12,302.72L123.21,292.18L125.3,292.18L127.39,294.47L131.56,282.84L133.65,302.72L135.74,334.24L137.83,292.18L139.92,302.72L142,299.7L146.18,290.05L148.27,290.05L150.36,319.58L152.45,334.24L154.53,319.58L158.71,319.58L160.8,319.58L162.89,296.97L164.98,309.93L167.06,302.72L169.15,296.97L173.33,314.36L177.51,296.97L179.59,314.36L181.68,296.97L185.86,345.87L190.03,296.97L192.12,319.58L194.21,302.72L196.3,334.24L200.48,314.36L202.56,345.87L204.65,319.58L206.74,309.93L208.83,319.58L213.01,365.75L217.18,299.7L219.27,334.24L221.36,334.24L223.45,302.72L227.62,314.36L229.71,345.87L231.8,314.36L233.89,325.99L235.98,319.58L240.15,345.87L242.24,319.58L244.33,365.75L246.42,345.87L248.51,365.75L250.6,365.75L254.77,325.99L256.86,365.75L258.95,334.24L261.04,345.87L265.21,334.24L269.39,325.99L271.48,345.87L273.57,345.87L275.66,334.24L277.74,334.24L281.92,319.58L286.1,334.24L288.18,334.24L290.27,325.99L292.36,334.24L296.54,334.24L300.71,345.87L302.8,334.24L304.89,365.75L306.98,325.99L309.07,345.87L311.16,365.75L317.42,365.75L319.51,345.87L321.6,365.75L323.69,334.24L325.77,345.87L329.95,325.99L334.13,345.87L336.22,345.87L338.3,365.75L342.48,365.75L348.75,325.99L350.83,365.75L352.92,365.75L355.01,365.75L357.1,345.87L363.36,345.87L371.72,365.75L380.07,365.75L384.25,345.87L392.6,345.87L396.78,365.75L415.57,365.75L417.66,345.87L421.84,365.75L423.92,334.24L426.01,365.75L428.1,345.87L436.45,365.75L438.54,365.75L444.81,365.75L446.9,345.87L451.07,365.75L453.16,365.75L476.13,365.75L482.4,345.87L490.75,345.87L499.1,365.75L509.54,365.75L515.81,345.87L530.43,365.75L534.6,365.75L597.25,365.75L628.58,345.87L630.67,365.75L632.75,365.75L672.43,345.87L776.85,365.75L1017,365.75" style="vector-effect: none; fill: none; stroke: rgb(241, 92, 128); stroke-opacity: 1; stroke-width: 2px; opacity: 1;"/></g><g class="points"/><g class="text"/></g></g></g></g><path class="xlines-above crisp" d="M0,0" style="fill: none;"/><path class="ylines-above crisp" d="M0,0" style="fill: none;"/><g class="overlines-above"/><g class="xaxislayer-above"><g class="xtick"><text text-anchor="middle" x="0" y="451" transform="translate(170.32999999999998,0)" style="font-family: 'Lucida Grande', 'Open Sans', verdana, arial, sans-serif; font-size: 10px; fill: rgb(0, 0, 0); fill-opacity: 1; white-space: pre; opacity: 1;">50</text></g><g class="xtick"><text text-anchor="middle" x="0" y="451" style="font-family: 'Lucida Grande', 'Open Sans', verdana, arial, sans-serif; font-size: 10px; fill: rgb(0, 0, 0); fill-opacity: 1; white-space: pre; opacity: 1;" transform="translate(274.74,0)">100</text></g><g class="xtick"><text text-anchor="middle" x="0" y="451" style="font-family: 'Lucida Grande', 'Open Sans', verdana, arial, sans-serif; font-size: 10px; fill: rgb(0, 0, 0); fill-opacity: 1; white-space: pre; opacity: 1;" transform="translate(379.16,0)">150</text></g><g class="xtick"><text text-anchor="middle" x="0" y="451" style="font-family: 'Lucida Grande', 'Open Sans', verdana, arial, sans-serif; font-size: 10px; fill: rgb(0, 0, 0); fill-opacity: 1; white-space: pre; opacity: 1;" transform="translate(483.57,0)">200</text></g><g class="xtick"><text text-anchor="middle" x="0" y="451" style="font-family: 'Lucida Grande', 'Open Sans', verdana, arial, sans-serif; font-size: 10px; fill: rgb(0, 0, 0); fill-opacity: 1; white-space: pre; opacity: 1;" transform="translate(587.99,0)">250</text></g><g class="xtick"><text text-anchor="middle" x="0" y="451" style="font-family: 'Lucida Grande', 'Open Sans', verdana, arial, sans-serif; font-size: 10px; fill: rgb(0, 0, 0); fill-opacity: 1; white-space: pre; opacity: 1;" transform="translate(692.4,0)">300</text></g><g class="xtick"><text text-anchor="middle" x="0" y="451" style="font-family: 'Lucida Grande', 'Open Sans', verdana, arial, sans-serif; font-size: 10px; fill: rgb(0, 0, 0); fill-opacity: 1; white-space: pre; opacity: 1;" transform="translate(796.82,0)">350</text></g><g class="xtick"><text text-anchor="middle" x="0" y="451" style="font-family: 'Lucida Grande', 'Open Sans', verdana, arial, sans-serif; font-size: 10px; fill: rgb(0, 0, 0); fill-opacity: 1; white-space: pre; opacity: 1;" transform="translate(901.23,0)">400</text></g><g class="xtick"><text text-anchor="middle" x="0" y="451" style="font-family: 'Lucida Grande', 'Open Sans', verdana, arial, sans-serif; font-size: 10px; fill: rgb(0, 0, 0); fill-opacity: 1; white-space: pre; opacity: 1;" transform="translate(1005.64,0)">450</text></g></g><g class="yaxislayer-above"><g class="ytick"><text text-anchor="end" x="62" y="3.5" transform="translate(0,415.75)" style="font-family: 'Lucida Grande', 'Open Sans', verdana, arial, sans-serif; font-size: 10px; fill: rgb(0, 0, 0); fill-opacity: 1; white-space: pre; opacity: 1;">1</text></g><g class="ytick"><text text-anchor="end" x="62" y="2.625" style="font-family: 'Lucida Grande', 'Open Sans', verdana, arial, sans-serif; font-size: 7.5px; fill: rgb(0, 0, 0); fill-opacity: 1; white-space: pre; opacity: 1;" transform="translate(0,395.87)">2</text></g><g class="ytick"><text text-anchor="end" x="62" y="2.625" style="font-family: 'Lucida Grande', 'Open Sans', verdana, arial, sans-serif; font-size: 7.5px; fill: rgb(0, 0, 0); fill-opacity: 1; white-space: pre; opacity: 1;" transform="translate(0,369.58)">5</text></g><g class="ytick"><text text-anchor="end" x="62" y="3.5" style="font-family: 'Lucida Grande', 'Open Sans', verdana, arial, sans-serif; font-size: 10px; fill: rgb(0, 0, 0); fill-opacity: 1; white-space: pre; opacity: 1;" transform="translate(0,349.7)">10</text></g><g class="ytick"><text text-anchor="end" x="62" y="2.625" style="font-family: 'Lucida Grande', 'Open Sans', verdana, arial, sans-serif; font-size: 7.5px; fill: rgb(0, 0, 0); fill-opacity: 1; white-space: pre; opacity: 1;" transform="translate(0,329.82)">2</text></g><g class="ytick"><text text-anchor="end" x="62" y="2.625" style="font-family: 'Lucida Grande', 'Open Sans', verdana, arial, sans-serif; font-size: 7.5px; fill: rgb(0, 0, 0); fill-opacity: 1; white-space: pre; opacity: 1;" transform="translate(0,303.53999999999996)">5</text></g><g class="ytick"><text text-anchor="end" x="62" y="3.5" style="font-family: 'Lucida Grande', 'Open Sans', verdana, arial, sans-serif; font-size: 10px; fill: rgb(0, 0, 0); fill-opacity: 1; white-space: pre; opacity: 1;" transform="translate(0,283.65999999999997)">100</text></g><g class="ytick"><text text-anchor="end" x="62" y="2.625" style="font-family: 'Lucida Grande', 'Open Sans', verdana, arial, sans-serif; font-size: 7.5px; fill: rgb(0, 0, 0); fill-opacity: 1; white-space: pre; opacity: 1;" transform="translate(0,263.77)">2</text></g><g class="ytick"><text text-anchor="end" x="62" y="2.625" style="font-family: 'Lucida Grande', 'Open Sans', verdana, arial, sans-serif; font-size: 7.5px; fill: rgb(0, 0, 0); fill-opacity: 1; white-space: pre; opacity: 1;" transform="translate(0,237.49)">5</text></g><g class="ytick"><text text-anchor="end" x="62" y="3.5" style="font-family: 'Lucida Grande', 'Open Sans', verdana, arial, sans-serif; font-size: 10px; fill: rgb(0, 0, 0); fill-opacity: 1; white-space: pre; opacity: 1;" transform="translate(0,217.61)">1000</text></g><g class="ytick"><text text-anchor="end" x="62" y="2.625" style="font-family: 'Lucida Grande', 'Open Sans', verdana, arial, sans-serif; font-size: 7.5px; fill: rgb(0, 0, 0); fill-opacity: 1; white-space: pre; opacity: 1;" transform="translate(0,197.73)">2</text></g><g class="ytick"><text text-anchor="end" x="62" y="2.625" style="font-family: 'Lucida Grande', 'Open Sans', verdana, arial, sans-serif; font-size: 7.5px; fill: rgb(0, 0, 0); fill-opacity: 1; white-space: pre; opacity: 1;" transform="translate(0,171.44)">5</text></g><g class="ytick"><text text-anchor="end" x="62" y="3.5" style="font-family: 'Lucida Grande', 'Open Sans', verdana, arial, sans-serif; font-size: 10px; fill: rgb(0, 0, 0); fill-opacity: 1; white-space: pre; opacity: 1;" transform="translate(0,151.56)">10k</text></g><g class="ytick"><text text-anchor="end" x="62" y="2.625" style="font-family: 'Lucida Grande', 'Open Sans', verdana, arial, sans-serif; font-size: 7.5px; fill: rgb(0, 0, 0); fill-opacity: 1; white-space: pre; opacity: 1;" transform="translate(0,131.68)">2</text></g><g class="ytick"><text text-anchor="end" x="62" y="2.625" style="font-family: 'Lucida Grande', 'Open Sans', verdana, arial, sans-serif; font-size: 7.5px; fill: rgb(0, 0, 0); fill-opacity: 1; white-space: pre; opacity: 1;" transform="translate(0,105.4)">5</text></g><g class="ytick"><text text-anchor="end" x="62" y="3.5" style="font-family: 'Lucida Grande', 'Open Sans', verdana, arial, sans-serif; font-size: 10px; fill: rgb(0, 0, 0); fill-opacity: 1; white-space: pre; opacity: 1;" transform="translate(0,85.50999999999999)">100k</text></g><g class="ytick"><text text-anchor="end" x="62" y="2.625" style="font-family: 'Lucida Grande', 'Open Sans', verdana, arial, sans-serif; font-size: 7.5px; fill: rgb(0, 0, 0); fill-opacity: 1; white-space: pre; opacity: 1;" transform="translate(0,65.63)">2</text></g></g><g class="overaxes-above"/></g></g><g class="polarlayer"/><g class="smithlayer"/><g class="ternarylayer"/><g class="geolayer"/><g class="funnelarealayer"/><g class="pielayer"/><g class="iciclelayer"/><g class="treemaplayer"/><g class="sunburstlayer"/><g class="glimages"/><defs id="topdefs-fa4257"><g class="clips"/></defs><g class="layer-above"><g class="imagelayer"/><g class="shapelayer"/></g><g class="infolayer"><g class="g-gtitle"><text class="gtitle" x="550" y="25" text-anchor="middle" dy="0em" style="opacity: 1; font-family: 'Lucida Grande', 'Open Sans', verdana, arial, sans-serif; font-size: 20px; fill: rgb(42, 63, 95); fill-opacity: 1; white-space: pre;"><tspan class="line" dy="0em" x="550" y="25">RSeQC: Read Duplication</tspan><tspan class="line" dy="1.3em" x="550" y="25">​<tspan style="font-size:70%" dy="-0.6em">6 samples</tspan><tspan dy="0.42em">​</tspan></tspan></text></g><g class="g-xtitle"><text class="xtitle" x="576.5" y="472.3" text-anchor="middle" style="opacity: 0.3; font-family: 'Lucida Grande', 'Open Sans', verdana, arial, sans-serif; font-size: 14px; fill: rgb(0, 0, 0); fill-opacity: 1; white-space: pre;">Occurrence of read</text></g><g class="g-ytitle"><text class="ytitle" transform="rotate(-90,22.146875,242.5)" x="22.146875" y="242.5" text-anchor="middle" style="opacity: 0.3; font-family: 'Lucida Grande', 'Open Sans', verdana, arial, sans-serif; font-size: 14px; fill: rgb(0, 0, 0); fill-opacity: 1; white-space: pre;">Number of Reads (log10)</text></g></g></svg>