<svg class="main-svg" xmlns="http://www.w3.org/2000/svg" xmlns:xlink="http://www.w3.org/1999/xlink" width="2200" height="1000" style="" viewBox="0 0 1100 500"><rect x="0" y="0" width="1100" height="500" style="fill: rgb(255, 255, 255); fill-opacity: 1;"/><defs id="defs-8b1a5e"><g class="clips"><clipPath id="clip8b1a5exyplot" class="plotclip"><rect width="1017" height="385"/></clipPath><clipPath class="axesclip" id="clip8b1a5ex"><rect x="68" y="0" width="1017" height="500"/></clipPath><clipPath class="axesclip" id="clip8b1a5ey"><rect x="0" y="50" width="1100" height="385"/></clipPath><clipPath class="axesclip" id="clip8b1a5exy"><rect x="68" y="50" width="1017" height="385"/></clipPath></g><g class="gradients"/><g class="patterns"/></defs><g class="bglayer"/><g class="layer-below"><g class="imagelayer"/><g class="shapelayer"/></g><g class="cartesianlayer"><g class="subplot xy"><g class="layer-subplot"><g class="shapelayer"/><g class="imagelayer"/></g><g class="minor-gridlayer"><g class="x"/><g class="y"/></g><g class="gridlayer"><g class="x"><path class="xgrid crisp" transform="translate(165.59,0)" d="M0,50v385" style="stroke: rgb(0, 0, 0); stroke-opacity: 0.05; stroke-width: 1px;"/><path class="xgrid crisp" transform="translate(268.32,0)" d="M0,50v385" style="stroke: rgb(0, 0, 0); stroke-opacity: 0.05; stroke-width: 1px;"/><path class="xgrid crisp" transform="translate(371.05,0)" d="M0,50v385" style="stroke: rgb(0, 0, 0); stroke-opacity: 0.05; stroke-width: 1px;"/><path class="xgrid crisp" transform="translate(473.77,0)" d="M0,50v385" style="stroke: rgb(0, 0, 0); stroke-opacity: 0.05; stroke-width: 1px;"/><path class="xgrid crisp" transform="translate(679.23,0)" d="M0,50v385" style="stroke: rgb(0, 0, 0); stroke-opacity: 0.05; stroke-width: 1px;"/><path class="xgrid crisp" transform="translate(781.95,0)" d="M0,50v385" style="stroke: rgb(0, 0, 0); stroke-opacity: 0.05; stroke-width: 1px;"/><path class="xgrid crisp" transform="translate(884.68,0)" d="M0,50v385" style="stroke: rgb(0, 0, 0); stroke-opacity: 0.05; stroke-width: 1px;"/><path class="xgrid crisp" transform="translate(987.41,0)" d="M0,50v385" style="stroke: rgb(0, 0, 0); stroke-opacity: 0.05; stroke-width: 1px;"/></g><g class="y"><path class="ygrid crisp" transform="translate(0,368.15)" d="M68,0h1017" style="stroke: rgb(0, 0, 0); stroke-opacity: 0.05; stroke-width: 1px;"/><path class="ygrid crisp" transform="translate(0,320.54)" d="M68,0h1017" style="stroke: rgb(0, 0, 0); stroke-opacity: 0.05; stroke-width: 1px;"/><path class="ygrid crisp" transform="translate(0,272.94)" d="M68,0h1017" style="stroke: rgb(0, 0, 0); stroke-opacity: 0.05; stroke-width: 1px;"/><path class="ygrid crisp" transform="translate(0,225.34)" d="M68,0h1017" style="stroke: rgb(0, 0, 0); stroke-opacity: 0.05; stroke-width: 1px;"/><path class="ygrid crisp" transform="translate(0,177.74)" d="M68,0h1017" style="stroke: rgb(0, 0, 0); stroke-opacity: 0.05; stroke-width: 1px;"/><path class="ygrid crisp" transform="translate(0,130.13)" d="M68,0h1017" style="stroke: rgb(0, 0, 0); stroke-opacity: 0.05; stroke-width: 1px;"/><path class="ygrid crisp" transform="translate(0,82.53)" d="M68,0h1017" style="stroke: rgb(0, 0, 0); stroke-opacity: 0.05; stroke-width: 1px;"/></g></g><g class="zerolinelayer"><path class="xzl zl crisp" transform="translate(576.5,0)" d="M0,50v385" style="stroke: rgb(0, 0, 0); stroke-opacity: 0.05; stroke-width: 2px;"/><path class="yzl zl crisp" transform="translate(0,415.75)" d="M68,0h1017" style="stroke: rgb(0, 0, 0); stroke-opacity: 0.05; stroke-width: 2px;"/></g><g class="layer-between"><g class="shapelayer"/><g class="imagelayer"/></g><path class="xlines-below"/><path class="ylines-below"/><g class="overlines-below"/><g class="xaxislayer-below"/><g class="yaxislayer-below"/><g class="overaxes-below"/><g class="overplot"><g class="xy" transform="translate(68,50)" clip-path="url(#clip8b1a5exyplot)"><g class="scatterlayer mlayer"><g class="trace scatter trace9fcae8" style="stroke-miterlimit: 2; opacity: 1;"><g class="fills"/><g class="errorbars"/><g class="lines"><path class="js-line" d="M0,365.75L287.64,365.75L297.91,359.8L308.18,281.16L318.45,263.45L328.73,224.8L339,203.9L349.27,184.15L359.55,166.44L369.82,149.01L380.09,150.06L390.36,145.64L400.64,146.97L421.18,154.97L431.45,171.01L441.73,177.67L452,191L462.27,202.52L472.55,209.8L493.09,228.56L503.36,239.84L513.64,251.93L523.91,257.17L534.18,270.02L544.45,274.69L554.73,280.07L565,287.54L595.82,310.77L606.09,316.96L616.36,318.34L626.64,321.86L636.91,328.67L647.18,327.38L657.45,332.62L667.73,335.9L678,337.76L688.27,340.62L698.55,344.8L708.82,345.38L719.09,346.95L729.36,346.28L739.64,349.47L749.91,350.8L780.73,355.33L791,355.94L811.55,358.23L821.82,358.18L842.36,359.7L852.64,360.66L862.91,360.61L873.18,361.56L883.45,361.23L893.73,362.85L914.27,362.42L924.55,364.75L975.91,365.56L986.18,365.42L1017,365.51" style="vector-effect: none; fill: none; stroke: rgb(124, 181, 236); stroke-opacity: 1; stroke-width: 2px; opacity: 1;"/></g><g class="points"/><g class="text"/></g><g class="trace scatter trace6795e6" style="stroke-miterlimit: 2; opacity: 1;"><g class="fills"/><g class="errorbars"/><g class="lines"><path class="js-line" d="M0,365.75L287.64,365.75L297.91,356.85L308.18,243.13L318.45,215.09L339,148.3L349.27,126.83L359.55,108.03L369.82,91.94L380.09,96.46L390.36,98.32L400.64,102.89L410.91,108.93L421.18,122.6L431.45,127.17L452,162.91L462.27,173.77L472.55,181.53L482.82,200.52L493.09,210.9L503.36,216.56L513.64,236.41L523.91,240.6L534.18,255.07L544.45,262.79L554.73,274.07L565,279.59L585.55,297.68L595.82,300.2L606.09,306.01L616.36,316.43L636.91,322.91L647.18,324.95L667.73,334.62L678,337.28L688.27,340.57L698.55,340.47L719.09,345.95L729.36,348.09L749.91,349.42L760.18,352.47L770.45,353.37L780.73,355.28L791,355.37L801.27,357.37L842.36,359.23L852.64,360.94L862.91,360.56L873.18,362.32L914.27,362.94L924.55,364.85L945.09,365.56L955.36,365.23L996.45,365.7L1006.73,365.37L1017,365.7" style="vector-effect: none; fill: none; stroke: rgb(67, 67, 72); stroke-opacity: 1; stroke-width: 2px; opacity: 1;"/></g><g class="points"/><g class="text"/></g><g class="trace scatter tracecc96aa" style="stroke-miterlimit: 2; opacity: 1;"><g class="fills"/><g class="errorbars"/><g class="lines"><path class="js-line" d="M0,365.75L287.64,365.75L297.91,359.89L308.18,266.59L318.45,248.31L328.73,212.09L339,186.29L349.27,160.58L359.55,140.45L369.82,129.36L380.09,121.79L400.64,126.69L410.91,129.88L421.18,144.11L431.45,148.16L441.73,163.49L452,175.72L462.27,190.33L472.55,198.62L482.82,206.71L493.09,223.99L503.36,227.27L513.64,244.13L523.91,254.65L534.18,260.93L544.45,269.31L554.73,279.3L565,283.92L575.27,291.25L595.82,305.2L606.09,311.1L616.36,314.29L626.64,320.91L647.18,328.57L657.45,332.76L667.73,333.05L678,336.33L688.27,338.19L698.55,341.43L708.82,344.09L719.09,345.33L729.36,347.61L739.64,348.85L749.91,349.14L760.18,351.23L770.45,354.42L780.73,354.52L791,355.61L801.27,355.61L811.55,358.09L821.82,357.66L832.09,358.99L842.36,358.9L862.91,361.61L873.18,361.8L883.45,362.47L893.73,362.13L914.27,362.99L924.55,364.94L975.91,365.51L986.18,365.61L1017,365.51" style="vector-effect: none; fill: none; stroke: rgb(144, 237, 125); stroke-opacity: 1; stroke-width: 2px; opacity: 1;"/></g><g class="points"/><g class="text"/></g><g class="trace scatter trace05960b" style="stroke-miterlimit: 2; opacity: 1;"><g class="fills"/><g class="errorbars"/><g class="lines"><path class="js-line" d="M0,365.75L287.64,365.75L297.91,360.99L308.18,284.59L318.45,253.5L328.73,218.71L339,172.29L349.27,129.12L359.55,99.89L369.82,72.18L380.09,41.91L390.36,30.72L400.64,22.49L410.91,19.25L421.18,20.11L431.45,22.06L441.73,29.29L452,47.72L462.27,63.52L472.55,66.66L482.82,88.61L493.09,106.79L503.36,107.93L513.64,136.69L523.91,144.3L534.18,160.01L544.45,183.53L554.73,193.76L565,207.09L575.27,218.47L585.55,226.18L595.82,242.65L606.09,249.5L616.36,256.93L626.64,268.07L636.91,275.54L647.18,285.83L657.45,289.4L667.73,295.35L688.27,311.05L698.55,313.86L708.82,318.67L719.09,319.48L729.36,325.05L739.64,327.86L749.91,330.24L760.18,330.19L770.45,335.38L780.73,337.85L791,342.9L801.27,345.04L821.82,347.66L832.09,349.95L852.64,352.8L862.91,353.9L883.45,356.47L893.73,357.42L914.27,358.66L924.55,362.37L934.82,363.99L945.09,364.66L965.64,364.66L975.91,364.61L996.45,365.23L1006.73,365.08L1017,365.32" style="vector-effect: none; fill: none; stroke: rgb(247, 163, 92); stroke-opacity: 1; stroke-width: 2px; opacity: 1;"/></g><g class="points"/><g class="text"/></g><g class="trace scatter tracec6d75e" style="stroke-miterlimit: 2; opacity: 1;"><g class="fills"/><g class="errorbars"/><g class="lines"><path class="js-line" d="M0,365.75L287.64,365.75L297.91,356.18L308.18,251.55L318.45,229.65L328.73,185.57L339,159.44L349.27,122.26L359.55,109.79L369.82,91.32L380.09,81.99L390.36,82.13L400.64,91.13L410.91,86.75L421.18,100.03L431.45,110.74L441.73,117.79L452,130.4L462.27,145.35L482.82,177.53L493.09,185.1L513.64,218.37L523.91,228.75L534.18,243.27L544.45,252.22L554.73,262.93L565,271.69L575.27,275.88L585.55,288.87L595.82,294.3L606.09,300.87L616.36,310.53L626.64,314.91L636.91,313.05L647.18,320.81L657.45,324.91L667.73,327.76L678,331.62L688.27,333.24L708.82,342.28L719.09,342.81L729.36,344.47L739.64,344.04L749.91,346.85L760.18,348.09L770.45,348.61L780.73,351.85L791,352.42L801.27,353.8L811.55,356.13L821.82,355.9L832.09,356.8L842.36,355.23L852.64,358.8L862.91,357.42L873.18,359.75L883.45,360.37L904,361.8L914.27,360.85L924.55,363.66L934.82,364.66L986.18,365.32L996.45,365.32L1017,365.61" style="vector-effect: none; fill: none; stroke: rgb(128, 133, 233); stroke-opacity: 1; stroke-width: 2px; opacity: 1;"/></g><g class="points"/><g class="text"/></g><g class="trace scatter trace23b52c" style="stroke-miterlimit: 2; opacity: 1;"><g class="fills"/><g class="errorbars"/><g class="lines"><path class="js-line" d="M0,365.75L287.64,365.75L297.91,358.8L308.18,223.56L318.45,201.57L339,119.41L349.27,88.85L359.55,66.14L369.82,49.91L380.09,40.62L390.36,44.1L400.64,48.57L410.91,59.19L421.18,70.18L431.45,75.56L441.73,96.08L452,111.55L472.55,144.78L482.82,155.25L493.09,174.86L503.36,180.24L513.64,205L523.91,214.33L534.18,224.99L544.45,238.56L554.73,250.41L565,261.07L575.27,269.4L585.55,275.97L595.82,289.35L606.09,293.44L626.64,308.82L636.91,312.63L647.18,318L657.45,320.86L678,327.48L688.27,330.33L698.55,338.9L708.82,338.66L719.09,341.14L729.36,342.19L739.64,343.71L749.91,348.57L760.18,348.42L770.45,349.57L811.55,356.32L821.82,355.71L832.09,358.23L842.36,357.37L862.91,360.47L873.18,360.32L893.73,361.66L904,361.42L914.27,362.18L924.55,364.04L945.09,365.37L955.36,365.08L1017,365.65" style="vector-effect: none; fill: none; stroke: rgb(241, 92, 128); stroke-opacity: 1; stroke-width: 2px; opacity: 1;"/></g><g class="points"/><g class="text"/></g></g></g></g><path class="xlines-above crisp" d="M0,0" style="fill: none;"/><path class="ylines-above crisp" d="M0,0" style="fill: none;"/><g class="overlines-above"/><g class="xaxislayer-above"><g class="xtick"><text text-anchor="middle" x="0" y="451" transform="translate(165.59,0)" style="font-family: 'Lucida Grande', 'Open Sans', verdana, arial, sans-serif; font-size: 10px; fill: rgb(0, 0, 0); fill-opacity: 1; white-space: pre; opacity: 1;">−200 bp</text></g><g class="xtick"><text text-anchor="middle" x="0" y="451" style="font-family: 'Lucida Grande', 'Open Sans', verdana, arial, sans-serif; font-size: 10px; fill: rgb(0, 0, 0); fill-opacity: 1; white-space: pre; opacity: 1;" transform="translate(268.32,0)">−150 bp</text></g><g class="xtick"><text text-anchor="middle" x="0" y="451" style="font-family: 'Lucida Grande', 'Open Sans', verdana, arial, sans-serif; font-size: 10px; fill: rgb(0, 0, 0); fill-opacity: 1; white-space: pre; opacity: 1;" transform="translate(371.05,0)">−100 bp</text></g><g class="xtick"><text text-anchor="middle" x="0" y="451" style="font-family: 'Lucida Grande', 'Open Sans', verdana, arial, sans-serif; font-size: 10px; fill: rgb(0, 0, 0); fill-opacity: 1; white-space: pre; opacity: 1;" transform="translate(473.77,0)">−50 bp</text></g><g class="xtick"><text text-anchor="middle" x="0" y="451" style="font-family: 'Lucida Grande', 'Open Sans', verdana, arial, sans-serif; font-size: 10px; fill: rgb(0, 0, 0); fill-opacity: 1; white-space: pre; opacity: 1;" transform="translate(576.5,0)">0 bp</text></g><g class="xtick"><text text-anchor="middle" x="0" y="451" style="font-family: 'Lucida Grande', 'Open Sans', verdana, arial, sans-serif; font-size: 10px; fill: rgb(0, 0, 0); fill-opacity: 1; white-space: pre; opacity: 1;" transform="translate(679.23,0)">50 bp</text></g><g class="xtick"><text text-anchor="middle" x="0" y="451" style="font-family: 'Lucida Grande', 'Open Sans', verdana, arial, sans-serif; font-size: 10px; fill: rgb(0, 0, 0); fill-opacity: 1; white-space: pre; opacity: 1;" transform="translate(781.95,0)">100 bp</text></g><g class="xtick"><text text-anchor="middle" x="0" y="451" style="font-family: 'Lucida Grande', 'Open Sans', verdana, arial, sans-serif; font-size: 10px; fill: rgb(0, 0, 0); fill-opacity: 1; white-space: pre; opacity: 1;" transform="translate(884.68,0)">150 bp</text></g><g class="xtick"><text text-anchor="middle" x="0" y="451" style="font-family: 'Lucida Grande', 'Open Sans', verdana, arial, sans-serif; font-size: 10px; fill: rgb(0, 0, 0); fill-opacity: 1; white-space: pre; opacity: 1;" transform="translate(987.41,0)">200 bp</text></g></g><g class="yaxislayer-above"><g class="ytick"><text text-anchor="end" x="62" y="3.5" transform="translate(0,415.75)" style="font-family: 'Lucida Grande', 'Open Sans', verdana, arial, sans-serif; font-size: 10px; fill: rgb(0, 0, 0); fill-opacity: 1; white-space: pre; opacity: 1;">0</text></g><g class="ytick"><text text-anchor="end" x="62" y="3.5" style="font-family: 'Lucida Grande', 'Open Sans', verdana, arial, sans-serif; font-size: 10px; fill: rgb(0, 0, 0); fill-opacity: 1; white-space: pre; opacity: 1;" transform="translate(0,368.15)">1000</text></g><g class="ytick"><text text-anchor="end" x="62" y="3.5" style="font-family: 'Lucida Grande', 'Open Sans', verdana, arial, sans-serif; font-size: 10px; fill: rgb(0, 0, 0); fill-opacity: 1; white-space: pre; opacity: 1;" transform="translate(0,320.54)">2000</text></g><g class="ytick"><text text-anchor="end" x="62" y="3.5" style="font-family: 'Lucida Grande', 'Open Sans', verdana, arial, sans-serif; font-size: 10px; fill: rgb(0, 0, 0); fill-opacity: 1; white-space: pre; opacity: 1;" transform="translate(0,272.94)">3000</text></g><g class="ytick"><text text-anchor="end" x="62" y="3.5" style="font-family: 'Lucida Grande', 'Open Sans', verdana, arial, sans-serif; font-size: 10px; fill: rgb(0, 0, 0); fill-opacity: 1; white-space: pre; opacity: 1;" transform="translate(0,225.34)">4000</text></g><g class="ytick"><text text-anchor="end" x="62" y="3.5" style="font-family: 'Lucida Grande', 'Open Sans', verdana, arial, sans-serif; font-size: 10px; fill: rgb(0, 0, 0); fill-opacity: 1; white-space: pre; opacity: 1;" transform="translate(0,177.74)">5000</text></g><g class="ytick"><text text-anchor="end" x="62" y="3.5" style="font-family: 'Lucida Grande', 'Open Sans', verdana, arial, sans-serif; font-size: 10px; fill: rgb(0, 0, 0); fill-opacity: 1; white-space: pre; opacity: 1;" transform="translate(0,130.13)">6000</text></g><g class="ytick"><text text-anchor="end" x="62" y="3.5" style="font-family: 'Lucida Grande', 'Open Sans', verdana, arial, sans-serif; font-size: 10px; fill: rgb(0, 0, 0); fill-opacity: 1; white-space: pre; opacity: 1;" transform="translate(0,82.53)">7000</text></g></g><g class="overaxes-above"/></g></g><g class="polarlayer"/><g class="smithlayer"/><g class="ternarylayer"/><g class="geolayer"/><g class="funnelarealayer"/><g class="pielayer"/><g class="iciclelayer"/><g class="treemaplayer"/><g class="sunburstlayer"/><g class="glimages"/><defs id="topdefs-8b1a5e"><g class="clips"/></defs><g class="layer-above"><g class="imagelayer"/><g class="shapelayer"/></g><g class="infolayer"><g class="g-gtitle"><text class="gtitle" x="550" y="25" text-anchor="middle" dy="0em" style="opacity: 1; font-family: 'Lucida Grande', 'Open Sans', verdana, arial, sans-serif; font-size: 20px; fill: rgb(42, 63, 95); fill-opacity: 1; white-space: pre;"><tspan class="line" dy="0em" x="550" y="25">RSeQC: Inner Distance</tspan><tspan class="line" dy="1.3em" x="550" y="25">​<tspan style="font-size:70%" dy="-0.6em">Counts, 6 samples</tspan><tspan dy="0.42em">​</tspan></tspan></text></g><g class="g-xtitle"><text class="xtitle" x="576.5" y="472.3" text-anchor="middle" style="opacity: 0.3; font-family: 'Lucida Grande', 'Open Sans', verdana, arial, sans-serif; font-size: 14px; fill: rgb(0, 0, 0); fill-opacity: 1; white-space: pre;">Inner Distance (bp)</text></g><g class="g-ytitle"><text class="ytitle" transform="rotate(-90,22.146875,242.5)" x="22.146875" y="242.5" text-anchor="middle" style="opacity: 0.3; font-family: 'Lucida Grande', 'Open Sans', verdana, arial, sans-serif; font-size: 14px; fill: rgb(0, 0, 0); fill-opacity: 1; white-space: pre;">Counts</text></g></g></svg>