<svg class="main-svg" xmlns="http://www.w3.org/2000/svg" xmlns:xlink="http://www.w3.org/1999/xlink" width="2200" height="1000" style="" viewBox="0 0 1100 500"><rect x="0" y="0" width="1100" height="500" style="fill: rgb(255, 255, 255); fill-opacity: 1;"/><defs id="defs-b16a5b"><g class="clips"><clipPath id="clipb16a5bxyplot" class="plotclip"><rect width="964" height="365"/></clipPath><clipPath class="axesclip" id="clipb16a5bx"><rect x="68" y="0" width="964" height="500"/></clipPath><clipPath class="axesclip" id="clipb16a5by"><rect x="0" y="50" width="1100" height="365"/></clipPath><clipPath class="axesclip" id="clipb16a5bxy"><rect x="68" y="50" width="964" height="365"/></clipPath></g><g class="gradients"/><g class="patterns"/></defs><g class="bglayer"/><g class="layer-below"><g class="imagelayer"/><g class="shapelayer"/></g><g class="cartesianlayer"><g class="subplot xy"><g class="layer-subplot"><g class="shapelayer"/><g class="imagelayer"/></g><g class="minor-gridlayer"><g class="x"/><g class="y"/></g><g class="gridlayer"><g class="x"><path class="xgrid crisp" transform="translate(118.74000000000001,0)" d="M0,50v365" style="stroke: rgb(0, 0, 0); stroke-opacity: 0.05; stroke-width: 1px;"/><path class="xgrid crisp" transform="translate(169.47,0)" d="M0,50v365" style="stroke: rgb(0, 0, 0); stroke-opacity: 0.05; stroke-width: 1px;"/><path class="xgrid crisp" transform="translate(220.21,0)" d="M0,50v365" style="stroke: rgb(0, 0, 0); stroke-opacity: 0.05; stroke-width: 1px;"/><path class="xgrid crisp" transform="translate(270.95,0)" d="M0,50v365" style="stroke: rgb(0, 0, 0); stroke-opacity: 0.05; stroke-width: 1px;"/><path class="xgrid crisp" transform="translate(321.68,0)" d="M0,50v365" style="stroke: rgb(0, 0, 0); stroke-opacity: 0.05; stroke-width: 1px;"/><path class="xgrid crisp" transform="translate(372.42,0)" d="M0,50v365" style="stroke: rgb(0, 0, 0); stroke-opacity: 0.05; stroke-width: 1px;"/><path class="xgrid crisp" transform="translate(423.16,0)" d="M0,50v365" style="stroke: rgb(0, 0, 0); stroke-opacity: 0.05; stroke-width: 1px;"/><path class="xgrid crisp" transform="translate(473.89,0)" d="M0,50v365" style="stroke: rgb(0, 0, 0); stroke-opacity: 0.05; stroke-width: 1px;"/><path class="xgrid crisp" transform="translate(524.63,0)" d="M0,50v365" style="stroke: rgb(0, 0, 0); stroke-opacity: 0.05; stroke-width: 1px;"/><path class="xgrid crisp" transform="translate(575.37,0)" d="M0,50v365" style="stroke: rgb(0, 0, 0); stroke-opacity: 0.05; stroke-width: 1px;"/><path class="xgrid crisp" transform="translate(626.11,0)" d="M0,50v365" style="stroke: rgb(0, 0, 0); stroke-opacity: 0.05; stroke-width: 1px;"/><path class="xgrid crisp" transform="translate(676.84,0)" d="M0,50v365" style="stroke: rgb(0, 0, 0); stroke-opacity: 0.05; stroke-width: 1px;"/><path class="xgrid crisp" transform="translate(727.58,0)" d="M0,50v365" style="stroke: rgb(0, 0, 0); stroke-opacity: 0.05; stroke-width: 1px;"/><path class="xgrid crisp" transform="translate(778.32,0)" d="M0,50v365" style="stroke: rgb(0, 0, 0); stroke-opacity: 0.05; stroke-width: 1px;"/><path class="xgrid crisp" transform="translate(829.05,0)" d="M0,50v365" style="stroke: rgb(0, 0, 0); stroke-opacity: 0.05; stroke-width: 1px;"/><path class="xgrid crisp" transform="translate(879.79,0)" d="M0,50v365" style="stroke: rgb(0, 0, 0); stroke-opacity: 0.05; stroke-width: 1px;"/><path class="xgrid crisp" transform="translate(930.53,0)" d="M0,50v365" style="stroke: rgb(0, 0, 0); stroke-opacity: 0.05; stroke-width: 1px;"/><path class="xgrid crisp" transform="translate(981.26,0)" d="M0,50v365" style="stroke: rgb(0, 0, 0); stroke-opacity: 0.05; stroke-width: 1px;"/></g><g class="y"><path class="ygrid crisp" transform="translate(0,326.76)" d="M68,0h964" style="stroke: rgb(0, 0, 0); stroke-opacity: 0.05; stroke-width: 1px;"/><path class="ygrid crisp" transform="translate(0,256.69)" d="M68,0h964" style="stroke: rgb(0, 0, 0); stroke-opacity: 0.05; stroke-width: 1px;"/><path class="ygrid crisp" transform="translate(0,186.61)" d="M68,0h964" style="stroke: rgb(0, 0, 0); stroke-opacity: 0.05; stroke-width: 1px;"/><path class="ygrid crisp" transform="translate(0,116.53)" d="M68,0h964" style="stroke: rgb(0, 0, 0); stroke-opacity: 0.05; stroke-width: 1px;"/></g></g><g class="zerolinelayer"><path class="yzl zl crisp" transform="translate(0,396.84)" d="M68,0h964" style="stroke: rgb(0, 0, 0); stroke-opacity: 0.05; stroke-width: 2px;"/></g><g class="layer-between"><g class="shapelayer"/><g class="imagelayer"/></g><path class="xlines-below"/><path class="ylines-below"/><g class="overlines-below"/><g class="xaxislayer-below"/><g class="yaxislayer-below"/><g class="overaxes-below"/><g class="overplot"><g class="xy" transform="translate(68,50)" clip-path="url(#clipb16a5bxyplot)"><g class="scatterlayer mlayer"><g class="trace scatter tracecb4ac8" style="stroke-miterlimit: 2; opacity: 1;"><g class="fills"/><g class="errorbars"/><g class="lines"><path class="js-line" d="M0,169.01L50.74,293.84L101.47,342.78L152.21,345.57L202.95,345.95L253.68,345.92L304.42,344.45L355.16,342.44L405.89,317.51L456.63,346.75L507.37,317.94L558.11,346.54L608.84,345.38L659.58,346.34L710.32,336.96L761.05,346.42L811.79,335.54L862.53,346.12L913.26,345.49L964,344.28" style="vector-effect: none; fill: none; stroke: rgb(124, 181, 236); stroke-opacity: 1; stroke-width: 2px; opacity: 1;"/></g><g class="points"/><g class="text"/></g><g class="trace scatter trace7d8936" style="stroke-miterlimit: 2; opacity: 1;"><g class="fills"/><g class="errorbars"/><g class="lines"><path class="js-line" d="M0,130.57L50.74,280.75L101.47,342.41L152.21,345.34L202.95,345.76L253.68,345.78L304.42,344.11L355.16,342.17L405.89,312.17L456.63,346.69L507.37,310.99L558.11,346.53L608.84,345.1L659.58,346.16L710.32,334.85L761.05,346.44L811.79,331.95L862.53,346L913.26,344.91L964,343.34" style="vector-effect: none; fill: none; stroke: rgb(67, 67, 72); stroke-opacity: 1; stroke-width: 2px; opacity: 1;"/></g><g class="points"/><g class="text"/></g><g class="trace scatter tracedeb892" style="stroke-miterlimit: 2; opacity: 1;"><g class="fills"/><g class="errorbars"/><g class="lines"><path class="js-line" d="M0,152.28L50.74,287.8L101.47,342.61L152.21,345.45L202.95,345.85L253.68,345.9L304.42,344.26L355.16,342.42L405.89,314.77L456.63,346.73L507.37,315.28L558.11,346.5L608.84,345.45L659.58,346.22L710.32,336.01L761.05,346.44L811.79,334.62L862.53,346.17L913.26,345.28L964,343.89" style="vector-effect: none; fill: none; stroke: rgb(144, 237, 125); stroke-opacity: 1; stroke-width: 2px; opacity: 1;"/></g><g class="points"/><g class="text"/></g><g class="trace scatter tracea3a197" style="stroke-miterlimit: 2; opacity: 1;"><g class="fills"/><g class="errorbars"/><g class="lines"><path class="js-line" d="M0,18.25L50.74,290.89L101.47,341.96L152.21,333.98L202.95,344.91L253.68,344.8L304.42,343.8L355.16,341.52L405.89,302.93L456.63,345.86L507.37,285.36L558.11,344.27L608.84,345L659.58,346.25L710.32,333.05L761.05,343.98L811.79,249.34L862.53,340.63L913.26,344.69L964,341.52" style="vector-effect: none; fill: none; stroke: rgb(247, 163, 92); stroke-opacity: 1; stroke-width: 2px; opacity: 1;"/></g><g class="points"/><g class="text"/></g><g class="trace scatter trace58aaf1" style="stroke-miterlimit: 2; opacity: 1;"><g class="fills"/><g class="errorbars"/><g class="lines"><path class="js-line" d="M0,98.41L50.74,310.57L101.47,343.77L152.21,337.5L202.95,345.51L304.42,344.81L355.16,343.34L405.89,314.37L456.63,346.12L507.37,306.61L558.11,345.12L659.58,346.4L710.32,337.53L761.05,344.86L811.79,284.22L862.53,342.58L913.26,345.48L964,343.11" style="vector-effect: none; fill: none; stroke: rgb(128, 133, 233); stroke-opacity: 1; stroke-width: 2px; opacity: 1;"/></g><g class="points"/><g class="text"/></g><g class="trace scatter trace76b373" style="stroke-miterlimit: 2; opacity: 1;"><g class="fills"/><g class="errorbars"/><g class="lines"><path class="js-line" d="M0,85.81L50.74,299.36L101.47,343.09L152.21,336.52L202.95,345.29L304.42,344.42L355.16,342.76L405.89,309.98L456.63,345.99L507.37,296.04L558.11,344.51L659.58,346.39L710.32,334.91L761.05,344.04L811.79,267.05L862.53,341.83L913.26,345.14L964,342.21" style="vector-effect: none; fill: none; stroke: rgb(241, 92, 128); stroke-opacity: 1; stroke-width: 2px; opacity: 1;"/></g><g class="points"/><g class="text"/></g></g></g></g><path class="xlines-above crisp" d="M0,0" style="fill: none;"/><path class="ylines-above crisp" d="M0,0" style="fill: none;"/><g class="overlines-above"/><g class="xaxislayer-above"><g class="xtick"><text text-anchor="start" x="0" y="431" transform="translate(68,0) rotate(29.999999999999996,0,426)" style="font-family: 'Lucida Grande', 'Open Sans', verdana, arial, sans-serif; font-size: 10px; fill: rgb(0, 0, 0); fill-opacity: 1; white-space: pre; opacity: 1;">22</text></g><g class="xtick"><text text-anchor="start" x="0" y="431" transform="translate(118.74000000000001,0) rotate(29.999999999999996,0,426)" style="font-family: 'Lucida Grande', 'Open Sans', verdana, arial, sans-serif; font-size: 10px; fill: rgb(0, 0, 0); fill-opacity: 1; white-space: pre; opacity: 1;">ERCC-00002</text></g><g class="xtick"><text text-anchor="start" x="0" y="431" transform="translate(169.47,0) rotate(29.999999999999996,0,426)" style="font-family: 'Lucida Grande', 'Open Sans', verdana, arial, sans-serif; font-size: 10px; fill: rgb(0, 0, 0); fill-opacity: 1; white-space: pre; opacity: 1;">ERCC-00003</text></g><g class="xtick"><text text-anchor="start" x="0" y="431" transform="translate(220.21,0) rotate(29.999999999999996,0,426)" style="font-family: 'Lucida Grande', 'Open Sans', verdana, arial, sans-serif; font-size: 10px; fill: rgb(0, 0, 0); fill-opacity: 1; white-space: pre; opacity: 1;">ERCC-00004</text></g><g class="xtick"><text text-anchor="start" x="0" y="431" transform="translate(270.95,0) rotate(29.999999999999996,0,426)" style="font-family: 'Lucida Grande', 'Open Sans', verdana, arial, sans-serif; font-size: 10px; fill: rgb(0, 0, 0); fill-opacity: 1; white-space: pre; opacity: 1;">ERCC-00009</text></g><g class="xtick"><text text-anchor="start" x="0" y="431" transform="translate(321.68,0) rotate(29.999999999999996,0,426)" style="font-family: 'Lucida Grande', 'Open Sans', verdana, arial, sans-serif; font-size: 10px; fill: rgb(0, 0, 0); fill-opacity: 1; white-space: pre; opacity: 1;">ERCC-00042</text></g><g class="xtick"><text text-anchor="start" x="0" y="431" transform="translate(372.42,0) rotate(29.999999999999996,0,426)" style="font-family: 'Lucida Grande', 'Open Sans', verdana, arial, sans-serif; font-size: 10px; fill: rgb(0, 0, 0); fill-opacity: 1; white-space: pre; opacity: 1;">ERCC-00043</text></g><g class="xtick"><text text-anchor="start" x="0" y="431" transform="translate(423.16,0) rotate(29.999999999999996,0,426)" style="font-family: 'Lucida Grande', 'Open Sans', verdana, arial, sans-serif; font-size: 10px; fill: rgb(0, 0, 0); fill-opacity: 1; white-space: pre; opacity: 1;">ERCC-00046</text></g><g class="xtick"><text text-anchor="start" x="0" y="431" transform="translate(473.89,0) rotate(29.999999999999996,0,426)" style="font-family: 'Lucida Grande', 'Open Sans', verdana, arial, sans-serif; font-size: 10px; fill: rgb(0, 0, 0); fill-opacity: 1; white-space: pre; opacity: 1;">ERCC-00074</text></g><g class="xtick"><text text-anchor="start" x="0" y="431" transform="translate(524.63,0) rotate(29.999999999999996,0,426)" style="font-family: 'Lucida Grande', 'Open Sans', verdana, arial, sans-serif; font-size: 10px; fill: rgb(0, 0, 0); fill-opacity: 1; white-space: pre; opacity: 1;">ERCC-00092</text></g><g class="xtick"><text text-anchor="start" x="0" y="431" transform="translate(575.37,0) rotate(29.999999999999996,0,426)" style="font-family: 'Lucida Grande', 'Open Sans', verdana, arial, sans-serif; font-size: 10px; fill: rgb(0, 0, 0); fill-opacity: 1; white-space: pre; opacity: 1;">ERCC-00096</text></g><g class="xtick"><text text-anchor="start" x="0" y="431" transform="translate(626.11,0) rotate(29.999999999999996,0,426)" style="font-family: 'Lucida Grande', 'Open Sans', verdana, arial, sans-serif; font-size: 10px; fill: rgb(0, 0, 0); fill-opacity: 1; white-space: pre; opacity: 1;">ERCC-00108</text></g><g class="xtick"><text text-anchor="start" x="0" y="431" transform="translate(676.84,0) rotate(29.999999999999996,0,426)" style="font-family: 'Lucida Grande', 'Open Sans', verdana, arial, sans-serif; font-size: 10px; fill: rgb(0, 0, 0); fill-opacity: 1; white-space: pre; opacity: 1;">ERCC-00111</text></g><g class="xtick"><text text-anchor="start" x="0" y="431" transform="translate(727.58,0) rotate(29.999999999999996,0,426)" style="font-family: 'Lucida Grande', 'Open Sans', verdana, arial, sans-serif; font-size: 10px; fill: rgb(0, 0, 0); fill-opacity: 1; white-space: pre; opacity: 1;">ERCC-00112</text></g><g class="xtick"><text text-anchor="start" x="0" y="431" transform="translate(778.32,0) rotate(29.999999999999996,0,426)" style="font-family: 'Lucida Grande', 'Open Sans', verdana, arial, sans-serif; font-size: 10px; fill: rgb(0, 0, 0); fill-opacity: 1; white-space: pre; opacity: 1;">ERCC-00113</text></g><g class="xtick"><text text-anchor="start" x="0" y="431" transform="translate(829.05,0) rotate(29.999999999999996,0,426)" style="font-family: 'Lucida Grande', 'Open Sans', verdana, arial, sans-serif; font-size: 10px; fill: rgb(0, 0, 0); fill-opacity: 1; white-space: pre; opacity: 1;">ERCC-00116</text></g><g class="xtick"><text text-anchor="start" x="0" y="431" transform="translate(879.79,0) rotate(29.999999999999996,0,426)" style="font-family: 'Lucida Grande', 'Open Sans', verdana, arial, sans-serif; font-size: 10px; fill: rgb(0, 0, 0); fill-opacity: 1; white-space: pre; opacity: 1;">ERCC-00130</text></g><g class="xtick"><text text-anchor="start" x="0" y="431" transform="translate(930.53,0) rotate(29.999999999999996,0,426)" style="font-family: 'Lucida Grande', 'Open Sans', verdana, arial, sans-serif; font-size: 10px; fill: rgb(0, 0, 0); fill-opacity: 1; white-space: pre; opacity: 1;">ERCC-00136</text></g><g class="xtick"><text text-anchor="start" x="0" y="431" transform="translate(981.26,0) rotate(29.999999999999996,0,426)" style="font-family: 'Lucida Grande', 'Open Sans', verdana, arial, sans-serif; font-size: 10px; fill: rgb(0, 0, 0); fill-opacity: 1; white-space: pre; opacity: 1;">ERCC-00145</text></g><g class="xtick"><text text-anchor="start" x="0" y="431" transform="translate(1032,0) rotate(29.999999999999996,0,426)" style="font-family: 'Lucida Grande', 'Open Sans', verdana, arial, sans-serif; font-size: 10px; fill: rgb(0, 0, 0); fill-opacity: 1; white-space: pre; opacity: 1;">ERCC-00171</text></g></g><g class="yaxislayer-above"><g class="ytick"><text text-anchor="end" x="62" y="3.5" transform="translate(0,396.84)" style="font-family: 'Lucida Grande', 'Open Sans', verdana, arial, sans-serif; font-size: 10px; fill: rgb(0, 0, 0); fill-opacity: 1; white-space: pre; opacity: 1;">0</text></g><g class="ytick"><text text-anchor="end" x="62" y="3.5" style="font-family: 'Lucida Grande', 'Open Sans', verdana, arial, sans-serif; font-size: 10px; fill: rgb(0, 0, 0); fill-opacity: 1; white-space: pre; opacity: 1;" transform="translate(0,326.76)">50k</text></g><g class="ytick"><text text-anchor="end" x="62" y="3.5" style="font-family: 'Lucida Grande', 'Open Sans', verdana, arial, sans-serif; font-size: 10px; fill: rgb(0, 0, 0); fill-opacity: 1; white-space: pre; opacity: 1;" transform="translate(0,256.69)">100k</text></g><g class="ytick"><text text-anchor="end" x="62" y="3.5" style="font-family: 'Lucida Grande', 'Open Sans', verdana, arial, sans-serif; font-size: 10px; fill: rgb(0, 0, 0); fill-opacity: 1; white-space: pre; opacity: 1;" transform="translate(0,186.61)">150k</text></g><g class="ytick"><text text-anchor="end" x="62" y="3.5" style="font-family: 'Lucida Grande', 'Open Sans', verdana, arial, sans-serif; font-size: 10px; fill: rgb(0, 0, 0); fill-opacity: 1; white-space: pre; opacity: 1;" transform="translate(0,116.53)">200k</text></g></g><g class="overaxes-above"/></g></g><g class="polarlayer"/><g class="smithlayer"/><g class="ternarylayer"/><g class="geolayer"/><g class="funnelarealayer"/><g class="pielayer"/><g class="iciclelayer"/><g class="treemaplayer"/><g class="sunburstlayer"/><g class="glimages"/><defs id="topdefs-b16a5b"><g class="clips"/></defs><g class="layer-above"><g class="imagelayer"/><g class="shapelayer"/></g><g class="infolayer"><g class="g-gtitle"><text class="gtitle" x="550" y="25" text-anchor="middle" dy="0em" style="opacity: 1; font-family: 'Lucida Grande', 'Open Sans', verdana, arial, sans-serif; font-size: 20px; fill: rgb(42, 63, 95); fill-opacity: 1; white-space: pre;"><tspan class="line" dy="0em" x="550" y="25">Samtools: idxstats: Mapped reads per contig</tspan><tspan class="line" dy="1.3em" x="550" y="25">​<tspan style="font-size:70%" dy="-0.6em">Raw Counts, 6 samples</tspan><tspan dy="0.42em">​</tspan></tspan></text></g><g class="g-xtitle"><text class="xtitle" x="550" y="482.440625" text-anchor="middle" style="opacity: 0.3; font-family: 'Lucida Grande', 'Open Sans', verdana, arial, sans-serif; font-size: 14px; fill: rgb(0, 0, 0); fill-opacity: 1; white-space: pre;">Chromosome name</text></g><g class="g-ytitle"><text class="ytitle" transform="rotate(-90,22.709375,232.5)" x="22.709375" y="232.5" text-anchor="middle" style="opacity: 0.3; font-family: 'Lucida Grande', 'Open Sans', verdana, arial, sans-serif; font-size: 14px; fill: rgb(0, 0, 0); fill-opacity: 1; white-space: pre;"># mapped reads</text></g></g></svg>